<svg width="203.27" height="203.47" viewBox="0 0 203.27 203.47" xmlns="http://www.w3.org/2000/svg" xmlns:xlink="http://www.w3.org/1999/xlink" xml:space="preserve" overflow="visible"><defs></defs><g><path d="M101.9 100.96C114.57 100.96 127.23 101.05 139.9 100.91 143.85 100.87 145.59 102.04 145.54 106.32 145.43 117.02 144.12 127.57 142.47 138.11 142.04 140.85 140.61 142.07 137.93 142.53 113.73 146.65 89.55 146.66 65.35 142.52 62.67 142.06 61.24 140.83 60.81 138.09 59.15 127.55 57.85 117.01 57.74 106.31 57.7 102.01 59.47 100.88 63.4 100.92 76.24 101.05 89.07 100.96 101.9 100.96Z" fill="#FFFFFF"/><path d="M101.39 95.2C72.06 95.2 42.74 95.2 13.41 95.2 12.08 95.2 10.74 95.23 9.41 95.18 3.51 94.98-0.06 91.9 0 87.1 0.06 82.46 3.33 79.67 9.18 79.3 10.34 79.23 11.51 79.24 12.68 79.24 72 79.24 131.32 79.23 190.63 79.25 192.62 79.25 194.64 79.29 196.6 79.61 200.78 80.29 203.2 82.9 203.22 87.11 203.24 91.54 200.69 94.23 196.34 94.97 194.55 95.27 192.69 95.18 190.86 95.18 161.04 95.21 131.21 95.2 101.39 95.2Z" fill="#FFFFFF"/><path d="M102.03 203.47C93.38 203.15 87.51 198.71 82.69 193.09 72.58 181.32 67.64 166.99 63.62 152.29 62.74 149.08 64.33 148.51 67.06 148.85 74.15 149.73 81.25 150.52 88.38 151.13 103.75 152.43 118.94 151.14 134.12 149.08 140.07 148.27 140.79 148.99 139.04 154.77 135.19 167.55 130.85 180.16 122.45 190.83 117.07 197.69 110.7 203.08 102.03 203.47Z" fill="#FFFFFF"/><path d="M101.44 73.43C94.46 73.43 87.48 73.31 80.5 73.48 77.13 73.56 75.38 72.06 74.15 69.09 69.22 57.18 73.03 43.22 83.57 35.11 94.42 26.77 108.76 26.74 119.66 35.06 130.21 43.11 134.04 57.05 129.19 69.02 127.87 72.27 125.88 73.59 122.38 73.5 115.4 73.3 108.42 73.43 101.44 73.43Z" fill="#FFFFFF"/><path d="M80.61 200.47C43.1 195.15 7.43 158.21 3.04 123.37 4.02 122.91 4.59 123.67 5.18 124.17 18.22 135.15 33.43 141.59 49.89 145.27 54.19 146.23 56.88 147.74 57.89 152.59 61.4 169.44 67.99 184.96 79.24 198.24 79.63 198.72 79.9 199.31 80.61 200.47Z" fill="#FFFFFF"/><path d="M200.4 122.89C195.33 159.62 158.82 195.64 123.38 200.3 122.85 199.08 123.88 198.49 124.46 197.79 135.35 184.68 141.79 169.47 145.35 152.98 146.27 148.72 148.04 146.4 152.54 145.45 169.56 141.87 185.2 135.18 198.6 123.8 198.95 123.51 199.44 123.37 200.4 122.89Z" fill="#FFFFFF"/><path d="M178.15 100.97C184.63 100.97 191.12 100.92 197.6 100.98 203.27 101.03 204.38 102.65 202.28 108.01 198.81 116.84 191.86 122.51 184.06 127.15 174.43 132.88 163.88 136.48 153.14 139.53 149.31 140.62 148.25 139.24 148.9 135.63 150.7 125.63 151.03 115.48 151.69 105.38 151.93 101.75 153.57 100.9 156.72 100.94 163.86 101.03 171 100.97 178.15 100.97Z" fill="#FFFFFF"/><path d="M25.82 100.97C32.8 100.97 39.78 101.05 46.76 100.94 50.08 100.89 51.37 102.11 51.61 105.56 52.3 115.49 52.51 125.49 54.38 135.3 55.24 139.84 53.39 140.55 49.49 139.36 36.41 135.37 23.54 130.99 12.5 122.53 7.11 118.4 2.83 113.38 0.65 106.87-0.83 102.44 0.19 101.05 4.88 100.99 11.86 100.89 18.84 100.97 25.82 100.97Z" fill="#FFFFFF"/><path d="M148.34 66.48C146.37 66.23 144.3 66.3 142.46 65.67 138.72 64.41 136.85 61.52 137.18 57.59 137.52 53.55 140.01 51.28 143.99 50.92 146.63 50.68 149.31 50.74 151.96 50.85 156.8 51.05 160.01 54.19 160.01 58.55 160 62.64 156.94 65.75 152.35 66.21 151.03 66.34 149.69 66.23 148.36 66.23 148.36 66.31 148.35 66.4 148.34 66.48Z" fill="#FFFFFF"/><path d="M54.8 50.82C55.8 50.82 56.79 50.79 57.79 50.83 62.74 51.04 66.07 53.96 66.18 58.16 66.29 62.61 62.96 65.91 57.87 66.23 55.72 66.37 53.55 66.37 51.4 66.22 46.49 65.88 43.28 62.77 43.28 58.52 43.28 53.99 46.59 51 51.81 50.81 52.81 50.79 53.8 50.82 54.8 50.82Z" fill="#FFFFFF"/><path d="M78.46 27.92C78.32 33.9 72.13 37.52 67.1 34.33 63.88 32.29 61.07 29.54 59.15 26.2 56.25 21.14 60.15 14.88 65.96 14.94 71.29 15.01 78.58 22.58 78.46 27.92Z" fill="#FFFFFF"/><path d="M145.19 22.51C145.28 27.26 137.16 35.42 132.35 35.42 126.3 35.41 122.75 29.04 125.9 23.57 127.65 20.52 130.17 17.99 133.17 16.17 138.48 12.95 145.07 16.52 145.19 22.51Z" fill="#FFFFFF"/><path d="M93.93 11.04C93.93 9.71 93.79 8.36 93.96 7.05 94.5 2.94 97.82-0.03 101.7 -8.88178e-16 105.57 0.03 108.91 3.02 109.33 7.16 109.58 9.63 109.53 12.15 109.4 14.64 109.13 19.65 106.2 22.52 101.59 22.49 96.99 22.46 94.18 19.58 93.87 14.53 93.8 13.37 93.86 12.2 93.86 11.04 93.88 11.04 93.9 11.04 93.93 11.04Z" fill="#FFFFFF"/></g></svg>