<svg width="187.73" height="203.53" viewBox="0 0 187.73 203.53" xmlns="http://www.w3.org/2000/svg" xmlns:xlink="http://www.w3.org/1999/xlink" xml:space="preserve" overflow="visible"><defs></defs><g><path d="M114.5 0.02C124.66 0.02 134.82-0.04 144.98 0.04 153 0.1 157.34 4.31 157.42 12.41 157.57 25.9 157.51 39.39 157.46 52.89 157.42 62.45 153.44 66.93 143.94 67.01 138.71 67.06 137.05 68.97 137.68 73.81 137.89 75.45 137.73 77.14 137.71 78.8 137.68 81.29 138.04 84.04 135.31 85.42 132.54 86.83 130.6 84.86 128.65 83.29 123.46 79.12 118.18 75.04 113.1 70.73 110.15 68.23 107.03 66.98 103.1 67.11 96.78 67.32 90.43 67.35 84.12 67.05 74.92 66.62 71.26 62.68 71.21 53.48 71.14 40.15 71.14 26.83 71.21 13.5 71.27 3.77 75.16 0.03 85.01-1.42109e-14 94.85 0 104.68 0.02 114.5 0.02Z" fill="#FFFFFF"/><path d="M50.5 32.92C65.52 32.92 65.52 32.92 65.53 47.83 65.53 50.83 65.44 53.83 65.6 56.82 66.08 65.56 72.24 71.79 81 72.15 86.99 72.4 92.99 72.32 98.98 72.23 102.69 72.17 104.41 73.55 104.48 77.48 104.61 85.6 100.76 89.96 92.63 90.32 90.97 90.39 89.26 90.6 87.64 90.31 76.21 88.3 67.43 93.04 59.54 100.72 56.82 103.38 53.93 107.41 49.43 105.62 44.86 103.8 46.47 99.04 46.42 95.41 46.37 91.87 45.18 90.48 41.5 90.22 33.55 89.66 30.27 85.91 30.22 77.93 30.15 67.1 30.15 56.28 30.22 45.45 30.28 36.18 33.62 32.96 43 32.91 45.51 32.91 48.01 32.92 50.5 32.92Z" fill="#FFFFFF"/><path d="M41.84 203.5C32.86 203.5 23.87 203.59 14.89 203.47 4.29 203.34-2.16 195.18 0.66 184.99 3.26 175.6 9.81 168.97 17.53 163.41 19.29 162.14 20.85 162.65 22.54 163.81 35.02 172.4 47.63 172.49 60.22 164.06 62.46 162.56 64.4 162.28 66.54 164.05 72.61 169.07 78.16 174.49 81.31 181.94 86.19 193.45 79.78 203.39 67.28 203.49 58.81 203.56 50.32 203.5 41.84 203.5Z" fill="#FFFFFF"/><path d="M146.08 203.5C137.43 203.5 128.78 203.57 120.13 203.48 108.16 203.37 101.73 193.71 106.12 182.6 109.23 174.73 115.01 169.06 121.41 163.89 123.35 162.32 125.25 162.41 127.33 163.85 140.03 172.66 152.75 172.45 165.36 163.66 167.36 162.26 169.02 162.48 170.81 163.79 177.5 168.7 183.09 174.64 186.24 182.38 190.89 193.81 184.33 203.39 172.04 203.48 163.38 203.55 154.73 203.5 146.08 203.5Z" fill="#FFFFFF"/><path d="M16.19 139.11C16.14 125.13 27.08 114.15 41.2 114.01 55.31 113.87 67 125.19 66.96 138.96 66.92 153.03 55.63 164.35 41.57 164.42 27.32 164.49 16.24 153.44 16.19 139.11Z" fill="#FFFFFF"/><path d="M171.5 139.07C171.47 153.4 160.42 164.46 146.17 164.43 132.1 164.39 120.79 153.09 120.73 139.01 120.67 125.24 132.34 113.9 146.45 114.02 160.58 114.13 171.53 125.08 171.5 139.07Z" fill="#FFFFFF"/></g></svg>