<svg width="231.68" height="210.03" viewBox="0 0 231.68 210.03" xmlns="http://www.w3.org/2000/svg" xmlns:xlink="http://www.w3.org/1999/xlink" xml:space="preserve" overflow="visible"><defs></defs><g><path d="M107.43 61.65C107.43 75.64 107.54 89.63 107.36 103.62 107.31 107.45 108.6 110.17 111.28 112.82 131.04 132.4 150.68 152.08 170.34 171.76 175.85 177.27 175.72 179.03 169.79 184.18 142.65 207.78 111.56 215 76.69 206.74 72.27 205.69 69.87 204.44 72.49 199.13 74.26 195.54 73.69 191.19 70.97 187.77 69.21 185.56 69.43 183.8 70.91 181.52 74.09 176.61 74.21 171.44 70.92 166.51 69.4 164.23 69.56 162.52 70.93 160.18 76.34 150.97 71.82 141.45 61.31 139.51 60.2 139.3 58.68 139.63 58.19 138.4 57.47 136.57 59.35 135.85 60.31 134.87 74.51 120.24 77.18 103.03 67.9 85.55 59.07 68.93 38.26 61.44 19.6 68.19 18.35 68.64 17.14 69.22 15.89 69.68 14.86 70.06 13.69 71.15 12.73 69.95 11.89 68.91 12.71 67.7 13.23 66.69 21.28 51 32.31 37.89 47.01 27.99 62.87 17.31 80.41 11.72 99.47 10.67 105.16 10.36 107.38 12.28 107.41 18.18 107.48 32.68 107.43 47.17 107.43 61.65Z" fill="#FFFFFF"/><path d="M167.13 103.67C152.48 103.67 137.83 103.69 123.18 103.66 116.46 103.65 115.21 102.45 115.21 95.87 115.18 66.4 115.18 36.93 115.22 7.47 115.23 1.03 116.37 0.01 122.88 0.01 169.74-1.53124e-14 212.77 38.6 218.49 85.82 218.91 89.28 219.32 92.77 219.38 96.25 219.48 102.27 218.09 103.64 212.1 103.66 197.1 103.7 182.11 103.67 167.13 103.67Z" fill="#FFFFFF"/><path d="M179.92 111.44C194.42 111.44 208.91 111.39 223.41 111.46 230.58 111.49 231.84 112.76 231.66 120.01 231.07 144.96 221.64 166.27 204.81 184.45 200.77 188.81 198.98 188.78 194.89 184.7 173.77 163.64 152.67 142.56 131.6 121.45 129.77 119.62 127.3 117.84 128.67 114.65 130.05 111.43 133.07 111.46 135.92 111.45 150.6 111.43 165.26 111.44 179.92 111.44Z" fill="#FFFFFF"/><path d="M0 105.25C0.04 86.08 14.25 71.99 33.54 72 52.32 72.01 67.32 86.8 67.37 105.36 67.42 123.82 51.55 139.57 33.17 139.3 14.41 139.02-0.04 124.19 0 105.25ZM33.54 80.94C31.79 81.17 30.77 82.37 30.63 84.23 30.46 86.45 29.41 87.88 27.43 88.88 23.33 90.94 22.06 94.51 22.39 98.86 22.72 103.23 25.48 105.72 29.19 107.3 31.32 108.21 33.62 108.7 35.81 109.47 37.86 110.18 40.27 110.87 39.73 113.73 39.21 116.47 36.89 117.28 34.43 117.34 30.67 117.43 28.34 115.24 26.54 112.16 25.68 110.69 24.4 109.35 22.47 110.45 20.5 111.57 20.47 113.32 21.45 115.19 22.7 117.59 24.25 119.76 26.63 121.12 28.93 122.43 30.64 123.99 30.64 126.9 30.64 128.37 31.51 129.49 33.02 129.67 34.79 129.89 35.93 128.86 36.18 127.18 36.56 124.63 37.87 123.13 40.22 122.01 44.35 120.06 46.56 116.69 46.05 111.97 45.55 107.35 42.28 105.18 38.34 103.77 36.15 102.99 33.85 102.5 31.71 101.63 29.59 100.77 27.85 99.31 28.54 96.7 29.25 93.98 31.5 93.32 34.02 93.42 36.31 93.52 38.24 94.39 39.44 96.43 40.67 98.52 42.19 100.09 44.59 98.25 46.75 96.6 45.49 94.59 44.45 92.92 43.68 91.69 42.66 90.4 41.44 89.69 38.77 88.15 36.27 86.72 36.09 83.15 36.03 81.93 35.07 81.13 33.54 80.94Z" fill="#FFFFFF"/><path d="M33.24 181.5C25.09 181.5 16.94 181.58 8.8 181.47 3.08 181.39 0.12 178.78 0.05 174.11-0.02 169.58 3.1 166.49 8.61 166.45 25.24 166.31 41.86 166.32 58.49 166.42 63.79 166.45 67.18 169.71 67.1 174.11 67.02 178.5 63.7 181.38 58.17 181.46 49.87 181.58 41.55 181.5 33.24 181.5Z" fill="#FFFFFF"/><path d="M33.29 160.52C25.32 160.52 17.34 160.58 9.37 160.5 3.55 160.44 0.18 157.66 0.05 153.04-0.08 148.34 3.11 145.35 9.05 145.31 25.33 145.19 41.61 145.19 57.89 145.32 63.7 145.37 67.23 148.56 67.1 153 66.97 157.49 63.41 160.44 57.71 160.51 49.58 160.58 41.43 160.52 33.29 160.52Z" fill="#FFFFFF"/><path d="M33.4 202.62C25.26 202.62 17.12 202.7 8.98 202.59 3.22 202.51 0.21 199.95 0.05 195.36-0.11 190.65 3.17 187.44 8.88 187.39 25.16 187.26 41.44 187.27 57.72 187.38 63.28 187.42 67.04 190.71 67.09 195.03 67.15 199.49 63.59 202.51 57.81 202.59 49.68 202.69 41.54 202.62 33.4 202.62Z" fill="#FFFFFF"/></g></svg>