<svg width="231.05" height="230.38" viewBox="0 0 231.05 230.38" xmlns="http://www.w3.org/2000/svg" xmlns:xlink="http://www.w3.org/1999/xlink" xml:space="preserve" overflow="visible"><defs></defs><g><path d="M119.63 39.98C119.63 50.97 119.52 61.97 119.68 72.96 119.75 77.42 118.47 79.53 113.52 79.8 94.08 80.83 79.43 96.8 79.73 116.15 80.01 134.44 95.21 150.37 113.05 151.04 133.02 151.8 149.12 137.93 151.02 118.35 151.71 111.16 151.71 111.16 159.16 111.14 171.59 111.1 172.55 112.28 170.14 124.69 164.65 152.89 142.09 171.14 113.26 170.69 87.21 170.28 64.78 149.94 60.43 122.77 56 95.15 75.29 67.43 103.3 61.13 111.17 59.36 111.17 59.36 111.17 51.22 111.17 37.56 111.17 23.9 111.17 10.24 111.17 9.07 111.15 7.91 111.18 6.74 111.27 3.7 111.15 0.12 115.28 1.77636e-15 119.47-0.12 119.53 3.43 119.61 6.5 119.68 9.16 119.63 11.83 119.63 14.5 119.64 22.99 119.64 31.49 119.63 39.98Z" fill="#FFFFFF"/><path d="M204.01 111.11C210.83 111.1 217.66 111.08 224.48 111.11 227.55 111.12 231.15 111.16 231.04 115.31 230.94 119.29 227.39 119.46 224.3 119.51 220.14 119.57 215.98 119.65 211.82 119.51 208.42 119.4 207.09 121.02 206.77 124.22 204.73 144.56 196.9 162.43 183.3 177.66 171.47 190.91 156.79 199.74 139.71 204.52 133.92 206.14 132.43 204.99 132.34 199.01 132.24 192.52 132.39 186.03 132.29 179.54 132.24 176.1 133.65 174.17 136.9 172.78 161.72 162.17 175.22 143.34 176.98 116.35 177.23 112.46 178.87 111.04 182.53 111.08 189.7 111.17 196.85 111.11 204.01 111.11Z" fill="#FFFFFF"/><path d="M27.44 119.46C20.44 119.46 13.44 119.52 6.44 119.43 3.4 119.39-0.14 119.26 8.88178e-16 115.02 0.12 111.16 3.39 111.08 6.32 111.07 10.65 111.06 14.99 110.93 19.32 111.1 22.66 111.23 23.98 109.91 24.33 106.53 26.71 83.67 35.73 63.89 52.27 47.77 62.84 37.47 75.21 30.12 89.33 25.8 95.17 24.01 96.5 24.99 96.56 31.16 96.63 37.99 96.42 44.83 96.63 51.65 96.75 55.7 94.72 57.37 91.29 58.95 67.96 69.66 55.56 88.07 53.85 113.58 53.57 117.82 52.24 119.61 47.94 119.5 41.11 119.33 34.27 119.46 27.44 119.46Z" fill="#FFFFFF"/><path d="M119.61 203.61C119.6 210.44 119.63 217.26 119.59 224.09 119.58 227.04 119.27 230.3 115.53 230.38 111.4 230.47 111.21 227.01 111.17 223.9 111.13 220.74 110.81 217.53 111.23 214.42 111.98 208.9 109.36 207.19 104.35 206.73 93.1 205.69 82.57 202.08 72.69 196.7 49.74 184.2 34.8 165.21 27.48 140.2 25.59 133.75 26.57 132.54 33.35 132.46 39.18 132.39 45 132.52 50.83 132.44 54.61 132.39 56.71 133.91 58.26 137.6 67.85 160.42 84.93 173.54 109.68 176.25 119.61 177.34 119.62 177.22 119.62 187.14 119.62 192.62 119.62 198.12 119.61 203.61Z" fill="#FFFFFF"/><path d="M114.6 120.58C111.99 119.92 110.41 118.22 111.75 115.24 112.47 113.64 113.94 112.33 115.22 111.05 125.68 100.55 136.13 90.03 146.69 79.65 149.23 77.15 151.04 74.49 150.4 70.88 147.97 57.15 153.26 47.01 163.95 38.53 170.69 33.18 176.34 26.46 182.46 20.33 184.05 18.73 185.75 17.32 188.16 18.27 190.63 19.24 190.73 21.49 190.73 23.72 190.73 28.05 190.88 32.39 190.7 36.71 190.55 40.22 192.11 41.47 195.45 41.4 199.94 41.3 204.44 41.36 208.93 41.5 211.15 41.57 213.32 42.11 214.16 44.57 214.95 46.89 213.34 48.32 211.93 49.73 202.39 59.27 192.8 68.75 183.31 78.33 181 80.67 178.22 81.86 175.19 81.31 161.01 78.75 150.9 84.64 142.08 95.35 135.45 103.41 127.38 110.29 119.93 117.69 118.55 119.08 117.21 120.65 114.6 120.58Z" fill="#FFFFFF"/><path d="M119.61 91.86C119.9 94.17 118.98 96.33 117.06 98.22 113.62 101.6 110.2 105.01 106.93 108.56 102.16 113.72 102.23 120.36 106.94 125.09 111.9 130.08 118.1 130.37 123.4 125.53 127.7 121.61 131.75 117.41 135.83 113.25 137.95 111.1 140.42 110.45 143.1 111.55 146.04 112.76 145.71 115.52 145.44 118.01 143.78 133.27 131.97 144.35 116.43 145.27 103.05 146.07 90 135.84 86.65 121.93 82.38 104.19 95.92 86.38 114.21 85.65 118.32 85.5 119.54 86.83 119.61 91.86Z" fill="#FFFFFF"/></g></svg>