<svg width="224.86" height="163.85" viewBox="0 0 224.86 163.85" xmlns="http://www.w3.org/2000/svg" xmlns:xlink="http://www.w3.org/1999/xlink" xml:space="preserve" overflow="visible"><defs></defs><g><path d="M224.77 95.4C224.77 116.23 224.66 137.06 224.86 157.89 224.91 162.49 223.41 163.87 218.87 163.85 204.07 163.78 204.07 163.94 204.07 149.29 204.07 142.29 203.93 135.29 204.12 128.3 204.22 124.76 202.84 123.57 199.42 123.72 194.93 123.92 190.41 123.96 185.93 123.71 182.07 123.49 180.59 124.74 180.69 128.79 180.93 138.78 180.66 148.79 180.81 158.78 180.86 162.35 179.75 163.83 175.97 163.81 153.64 163.69 131.31 163.7 108.98 163.81 105.36 163.83 103.99 162.64 104 158.92 104.11 134.26 104.1 109.6 104 84.94 103.99 81.76 105.28 80.14 108.05 78.91 145.47 62.22 182.88 45.49 220.24 28.69 224.09 26.96 224.8 28.39 224.78 31.93 224.73 53.08 224.77 74.24 224.77 95.4ZM152.07 131.51C152.07 123.77 152.07 123.77 145.15 123.76 136.78 123.75 136.78 123.75 136.78 131.06 136.78 139.05 136.78 139.05 143.96 139.05 152.07 139.06 152.07 139.06 152.07 131.51Z" fill="#FFFFFF"/><path d="M48.41 99.06C62.73 99.06 77.05 99.17 91.37 98.99 95.47 98.94 96.87 100.29 96.84 104.43 96.67 122.41 96.67 140.4 96.84 158.38 96.88 162.5 95.51 163.85 91.39 163.83 62.75 163.7 34.11 163.7 5.47 163.83 1.37 163.85-0.03 162.53 0.01 158.4 0.18 140.42 0.18 122.43 0.01 104.45-0.03 100.33 1.34 98.94 5.46 99 19.77 99.17 34.09 99.06 48.41 99.06ZM40.07 131.51C40.07 123.77 40.07 123.77 33.15 123.76 24.78 123.75 24.78 123.75 24.78 131.06 24.78 139.05 24.78 139.05 31.96 139.05 40.07 139.06 40.07 139.06 40.07 131.51Z" fill="#FFFFFF"/><path d="M52.07 45.21C52.07 31.56 52.17 17.91 52.01 4.26 51.96-0.09 53.12-0.92 57.15 0.93 83.63 13.05 110.16 25.05 136.72 36.98 139.76 38.34 140.91 40.22 140.81 43.5 140.3 59.19 143.52 55.27 128.99 61.95 119.92 66.12 110.86 70.34 101.65 74.17 98.03 75.68 96.63 77.61 96.67 81.59 96.78 92.98 98.22 91.68 86.69 91.75 76.87 91.81 67.04 91.63 57.23 91.82 53.37 91.89 51.95 90.62 52 86.66 52.19 72.84 52.08 59.02 52.07 45.21ZM88.07 43.68C88.08 35.77 88.08 35.77 81.32 35.76 72.78 35.74 72.78 35.74 72.77 42.88 72.76 51.04 72.76 51.04 79.77 51.05 88.06 51.06 88.06 51.06 88.07 43.68Z" fill="#FFFFFF"/></g></svg>