<svg width="30" height="30" xmlns="http://www.w3.org/2000/svg" xmlns:xlink="http://www.w3.org/1999/xlink" overflow="hidden"><defs><clipPath id="clip0"><rect x="77" y="500" width="29" height="29"/></clipPath><clipPath id="clip1"><rect x="77" y="500" width="29" height="29"/></clipPath><clipPath id="clip2"><rect x="77" y="500" width="29" height="29"/></clipPath></defs><g transform="translate(-77 -499)"><g clip-path="url(#clip0)"><g clip-path="url(#clip1)"><g clip-path="url(#clip2)"><path d="M105.575 523.897C105.341 523.897 105.15 524.087 105.15 524.321L105.15 527.16C105.15 527.199 105.118 527.231 105.079 527.231L103.465 527.231 103.465 521.025C103.465 520.79 103.275 520.6 103.04 520.6 102.805 520.6 102.615 520.79 102.615 521.025L102.615 527.231 99.4959 527.231 100.34 526.303C100.471 526.159 100.532 525.956 100.505 525.758 100.504 525.753 100.503 525.749 100.503 525.745L99.5536 520.138 99.7283 519.875 99.7737 519.907C99.9294 520.018 100.128 520.058 100.32 520.01 100.509 519.963 100.667 519.836 100.754 519.662L100.754 519.662 101.719 517.727 103.925 518.581C104.012 518.619 105.15 519.14 105.15 520.498L105.15 522.339C105.15 522.574 105.34 522.764 105.575 522.764 105.81 522.764 106 522.574 106 522.339L106 520.498C106 518.538 104.318 517.824 104.247 517.794 104.244 517.793 104.242 517.792 104.239 517.791L100.483 516.336 100.483 515.563C101.069 515.091 101.481 514.411 101.604 513.636 101.897 513.599 102.168 513.482 102.393 513.289 102.716 513.011 102.901 512.607 102.901 512.18 102.901 511.84 102.783 511.514 102.571 511.255L102.571 510.109C102.571 507.865 100.746 506.04 98.5032 506.04 97.4961 506.04 96.574 506.409 95.8628 507.017 95.8536 506.692 95.7371 506.382 95.534 506.133L95.534 504.987C95.534 502.744 93.709 500.919 91.4658 500.919 89.2225 500.919 87.3974 502.744 87.3974 504.987L87.3974 506.163C87.1933 506.407 87.079 506.702 87.0689 507.014 86.6151 506.626 86.072 506.334 85.4667 506.175 85.2394 506.115 85.0074 506.25 84.9476 506.477 84.8879 506.704 85.0234 506.937 85.2503 506.996 86.6613 507.368 87.6469 508.648 87.6469 510.109L87.6469 510.744C87.6285 510.74 87.5696 510.73 87.5674 510.73 87.5616 510.61 87.5312 510.537 87.4659 510.443 87.3571 510.286 87.1618 510.092 86.5337 509.416 86.3098 509.176 85.9478 509.132 85.673 509.312 84.5971 510.014 83.29 510.373 82.077 510.301 81.6818 510.278 81.4351 510.452 81.3299 510.736 81.3205 510.738 81.2154 510.759 81.2096 510.76L81.2096 510.109C81.2096 508.7 82.1508 507.433 83.4985 507.027 83.7231 506.959 83.8504 506.722 83.7828 506.498 83.7151 506.273 83.4778 506.146 83.2534 506.213 82.4338 506.46 81.6971 506.974 81.1791 507.66 80.6431 508.37 80.3599 509.217 80.3599 510.109L80.3599 511.285C80.1459 511.541 80.0302 511.851 80.0302 512.18 80.0302 512.908 80.566 513.542 81.3294 513.636 81.4544 514.393 81.8651 515.119 82.5132 515.613L82.5132 516.337 78.7611 517.791C78.7585 517.792 78.7558 517.793 78.7531 517.794 78.6814 517.824 77 518.538 77 520.498L77 527.16C77 527.668 77.4132 528.081 77.9213 528.081L91.0036 528.081C91.1864 528.081 91.3565 528.027 91.5 527.935 91.6434 528.027 91.8136 528.081 91.9965 528.081L105.079 528.081C105.587 528.081 106 527.668 106 527.16L106 524.321C106 524.087 105.81 523.897 105.575 523.897ZM81.2878 512.759C81.0387 512.668 80.8796 512.438 80.8796 512.18 80.8796 511.93 81.0609 511.725 81.2878 511.627L81.2878 512.759ZM100.924 517.418 100.09 519.09C100.09 519.089 99.1637 518.432 99.1505 518.422 99.5501 517.929 99.3624 518.161 100.193 517.135L100.924 517.418ZM98.5364 517.831 97.4378 516.474 97.4378 516.067C97.7949 516.19 98.1796 516.247 98.5417 516.247 98.5417 516.247 98.5419 516.247 98.5419 516.247L98.542 516.247C98.9164 516.247 99.2954 516.176 99.633 516.049L99.633 516.477 98.5364 517.831ZM99.0352 519.383 98.8789 519.618 98.1941 519.618 98.0378 519.383 98.5365 519.029 99.0352 519.383ZM91.4989 512.709 90.4002 511.353 90.4002 510.945C90.7559 511.068 91.1402 511.126 91.5042 511.126 91.5042 511.126 91.5043 511.126 91.5044 511.126L91.5044 511.126C91.8782 511.126 92.2571 511.055 92.5955 510.928L92.5955 511.356 91.4989 512.709ZM91.9976 514.261 91.8413 514.497 91.1565 514.497 91.0002 514.261 91.499 513.907 91.9976 514.261ZM88.1535 508.474C88.223 508.493 88.2943 508.506 88.3668 508.515 88.4919 509.272 88.9025 509.998 89.5506 510.491L89.5506 511.215 88.6839 511.551C88.6337 511.446 88.5709 511.346 88.4963 511.255L88.4963 510.109C88.4963 509.532 88.3749 508.978 88.1535 508.474ZM93.7563 508.024C93.7563 509.268 92.742 510.276 91.5044 510.276 90.1082 510.276 89.1751 509.194 89.1751 508.024L89.1751 506.034C90.5165 506.088 91.91 505.691 93.0494 504.981 93.4324 505.392 93.6604 505.631 93.7564 505.742 93.7563 506.799 93.7563 507.208 93.7563 508.024ZM94.5669 508.515C94.6389 508.506 94.71 508.493 94.779 508.474 94.5583 508.975 94.4349 509.527 94.4349 510.109L94.4349 511.285C94.3696 511.363 94.3134 511.446 94.2669 511.533L93.4451 511.215 93.4451 510.441C94.0314 509.969 94.4432 509.29 94.5669 508.515ZM89.8407 512.015 90.8836 513.302 90.1724 513.807C90.172 513.807 90.1717 513.807 90.1713 513.808L89.9456 513.968 89.1117 512.297 89.8407 512.015ZM92.4766 512.852 93.1556 512.014 93.8862 512.297 93.0524 513.968 92.8262 513.807C92.8259 513.807 92.8257 513.807 92.8255 513.807L92.113 513.301 92.4766 512.852ZM92.6907 514.753 92.7362 514.786C92.895 514.899 93.0943 514.936 93.2826 514.889 93.4713 514.841 93.6294 514.715 93.7163 514.541L93.7163 514.541 94.4332 513.104C94.6795 513.407 95.0358 513.592 95.4027 513.638 95.5323 514.45 95.9713 515.143 96.5882 515.613L96.5882 516.337 92.9765 517.737 92.516 515.016 92.6907 514.753ZM96.8782 517.136 97.9211 518.423C97.4651 518.747 97.0067 519.073 96.9831 519.09L96.1492 517.418 96.8782 517.136ZM100.794 513.146C100.794 514.359 99.8087 515.398 98.542 515.398 97.0981 515.398 96.2126 514.267 96.2126 513.146L96.2126 511.156C97.5445 511.209 98.9398 510.817 100.087 510.103 100.47 510.514 100.698 510.752 100.794 510.863 100.794 511.921 100.794 512.329 100.794 513.146ZM102.052 512.18C102.052 512.438 101.892 512.668 101.644 512.759L101.644 511.603C101.901 511.697 102.052 511.931 102.052 512.18ZM95.2845 510.109C95.2845 508.334 96.7285 506.89 98.5032 506.89 100.278 506.89 101.722 508.334 101.722 510.109L101.722 510.744C101.702 510.74 101.649 510.731 101.642 510.73 101.636 510.61 101.606 510.536 101.541 510.443 101.429 510.282 101.236 510.091 100.609 509.416 100.389 509.181 100.028 509.128 99.7478 509.312 98.7011 509.995 97.3787 510.382 96.1203 510.3 95.7668 510.277 95.5107 510.45 95.4048 510.736 95.3953 510.738 95.2904 510.759 95.2845 510.76L95.2845 510.109ZM95.363 511.628 95.363 512.758C95.1132 512.668 94.9548 512.437 94.9548 512.18 94.9548 511.93 95.1359 511.725 95.363 511.628ZM95.0141 507.059C95.0141 507.238 94.9367 507.407 94.8017 507.523 94.7438 507.573 94.6777 507.611 94.606 507.637L94.606 506.482C94.86 506.574 95.0141 506.807 95.0141 507.059ZM91.4656 501.769C93.2404 501.769 94.6842 503.212 94.6842 504.987L94.6842 505.623C94.665 505.619 94.6118 505.609 94.6047 505.608 94.5984 505.478 94.5609 505.398 94.4844 505.295 94.3707 505.141 94.161 504.929 93.571 504.295 93.3483 504.056 92.9864 504.01 92.7103 504.19 91.6049 504.912 90.264 505.264 89.0485 505.177 88.7512 505.154 88.4712 505.334 88.3673 505.615 88.3578 505.616 88.2529 505.637 88.247 505.639L88.247 504.987 88.2469 504.987C88.2469 503.212 89.6909 501.769 91.4656 501.769ZM88.3253 506.506 88.3253 507.637C88.0763 507.547 87.9172 507.316 87.9172 507.059 87.9172 506.81 88.097 506.604 88.3253 506.506ZM87.5684 511.603C87.806 511.69 87.9587 511.897 87.9738 512.143 87.9928 512.417 87.8245 512.665 87.5684 512.758L87.5684 511.603ZM87.529 513.638C87.9297 513.587 88.2975 513.376 88.5386 513.051L89.2816 514.541C89.2816 514.541 89.2816 514.541 89.2817 514.541 89.3685 514.715 89.5266 514.841 89.7153 514.889 89.9018 514.935 90.1013 514.9 90.2617 514.786L90.3072 514.753 90.4818 515.016 90.0215 517.736 86.4076 516.336 86.4076 515.563 86.4075 515.563C87.0092 515.078 87.4083 514.392 87.529 513.638ZM84.4613 517.831 83.3626 516.474 83.3626 516.067C83.7183 516.19 84.1027 516.247 84.4666 516.247 84.4666 516.247 84.4668 516.247 84.4668 516.247 84.8466 516.247 85.225 516.174 85.5578 516.049L85.5578 516.477 84.4613 517.831ZM84.96 519.383 84.8038 519.618 84.1189 519.618 83.9626 519.383 84.4614 519.029 84.96 519.383ZM86.1179 517.135 86.8486 517.418 86.0147 519.09 85.7885 518.929C85.7883 518.929 85.7881 518.929 85.7878 518.928L85.0753 518.422 86.1179 517.135ZM82.1375 513.146 82.1375 511.156C83.486 511.21 84.8804 510.807 86.0117 510.103 86.3911 510.51 86.6225 510.752 86.7187 510.863 86.7187 511.921 86.7187 512.329 86.7187 513.146 86.7187 514.381 85.7113 515.398 84.4668 515.398 83.0812 515.398 82.1375 514.328 82.1375 513.146ZM82.8031 517.136 83.846 518.423 83.1348 518.928C83.1344 518.929 83.1341 518.929 83.1337 518.929L82.908 519.09 82.0741 517.418 82.8031 517.136ZM80.385 527.232 80.385 521.025C80.385 520.79 80.1949 520.6 79.9602 520.6 79.7255 520.6 79.5354 520.79 79.5354 521.025L79.5354 527.231 77.9213 527.231C77.8817 527.231 77.8497 527.199 77.8497 527.16L77.8497 520.498C77.8497 519.133 78.9993 518.613 79.0737 518.581L81.2782 517.727 82.244 519.662C82.244 519.662 82.244 519.662 82.2441 519.662 82.3309 519.836 82.489 519.963 82.6777 520.01 82.8642 520.057 83.0638 520.021 83.2241 519.907L83.2696 519.875 83.4442 520.138 82.4952 525.745C82.4945 525.749 82.4939 525.753 82.4932 525.758 82.4659 525.955 82.5274 526.159 82.6578 526.303L83.5019 527.231 80.385 527.231ZM83.3479 525.799 84.2501 520.468 84.6726 520.468 85.5749 525.799 84.4614 527.024 83.3479 525.799ZM91.0751 527.16C91.0751 527.199 91.0431 527.231 91.0036 527.231L89.3895 527.231 89.3895 521.025C89.3895 520.79 89.1994 520.6 88.9647 520.6 88.7301 520.6 88.5399 520.79 88.5399 521.025L88.5399 527.231 85.4207 527.231 86.265 526.303C86.3954 526.159 86.4568 525.956 86.4295 525.758 86.4288 525.753 86.4282 525.749 86.4275 525.745L85.4785 520.138 85.6531 519.875 85.6986 519.907C85.8122 519.988 85.9468 520.03 86.0834 520.03 86.3325 520.03 86.5646 519.891 86.6787 519.662L86.6787 519.662 87.6443 517.727 89.8502 518.581C90.4932 518.861 91.0751 519.582 91.0751 520.498L91.0751 527.16ZM91.5 518.954C91.324 518.671 91.0897 518.408 90.8073 518.184L91.2877 515.346 91.7102 515.346 92.1908 518.186C91.9008 518.416 91.6696 518.681 91.5 518.954ZM94.4601 527.232 94.4601 527.232 94.4601 521.025C94.4601 520.79 94.27 520.6 94.0353 520.6 93.8007 520.6 93.6105 520.79 93.6105 521.025L93.6105 527.231 91.9964 527.231C91.9569 527.231 91.9248 527.199 91.9248 527.16L91.9248 520.498C91.9248 519.993 92.0832 519.528 92.4205 519.137 92.6455 518.879 92.9438 518.67 93.1489 518.581L95.3535 517.727 96.3192 519.662C96.3192 519.662 96.3192 519.662 96.3193 519.662 96.4061 519.836 96.5642 519.963 96.7529 520.01 96.9394 520.057 97.1389 520.021 97.2993 519.907L97.3448 519.875 97.5194 520.138 96.5704 525.745C96.5696 525.749 96.569 525.753 96.5684 525.758 96.5411 525.955 96.6025 526.159 96.733 526.303L97.5771 527.231 94.4601 527.231ZM97.423 525.799 98.3253 520.468 98.7477 520.468 99.65 525.799 98.5365 527.024 97.423 525.799Z"/></g></g></g></g></svg>