<svg width="30" height="30" xmlns="http://www.w3.org/2000/svg" xmlns:xlink="http://www.w3.org/1999/xlink" overflow="hidden"><g transform="translate(-77 -328)"><g><g><g><path d="M13.9453 8.78336C14.7722 8.78336 15.5646 8.36664 16.1766 7.61031 16.7355 6.91961 17.0559 6.04844 17.0559 5.21938 17.0559 3.54922 15.7188 2.28977 13.9453 2.28977 12.1718 2.28977 10.8347 3.54758 10.8347 5.21938 10.8347 6.04844 11.1552 6.91961 11.7141 7.61031 12.326 8.36719 13.1184 8.78336 13.9453 8.78336ZM13.9453 3.19211C15.225 3.19211 16.1536 4.04469 16.1536 5.21938 16.1536 6.69594 14.9455 7.88102 13.9453 7.88102 12.722 7.88102 11.737 6.42469 11.737 5.21938 11.737 4.04688 12.6656 3.19211 13.9453 3.19211Z" transform="matrix(1.03571 0 0 1 77 329)"/><path d="M10.2643 13.1135 9.94766 17.6302C9.9301 17.8787 10.1174 18.0944 10.366 18.112 10.366 18.112 10.366 18.112 10.366 18.112L10.3977 18.112C10.6345 18.1117 10.8309 17.9286 10.8478 17.6925L11.1645 13.1797C11.182 12.9311 10.9946 12.7154 10.7461 12.6979 10.4975 12.6804 10.2818 12.8677 10.2643 13.1163Z" transform="matrix(1.03571 0 0 1 77 329)"/><path d="M20.0643 18.1114C20.3191 18.0888 20.5078 17.8643 20.4859 17.6094 20.4859 17.6094 20.0091 14.1898 19.9391 13.0424 19.8095 10.9823 18.5511 9.32969 16.5851 9.02891 15.8938 8.92281 14.6382 8.84297 13.982 8.84242 13.0861 8.85795 12.1917 8.9198 11.3023 9.02781 10.3802 9.15403 9.53564 9.61187 8.92664 10.3157 8.2868 11.0545 8.00078 11.999 7.94227 13.0446 7.87664 14.193 7.44187 17.6143 7.44187 17.6143 7.41136 17.8616 7.58707 18.0868 7.83437 18.1174 8.08166 18.1479 8.30687 17.9722 8.33744 17.7249 8.33793 17.7208 8.33837 17.7168 8.33875 17.7127 8.33875 17.7127 8.78008 14.2543 8.84297 13.0944 8.93266 11.4505 9.90555 10.1292 11.4253 9.9225 12.2735 9.81947 13.1265 9.76035 13.9809 9.74531 14.5923 9.74531 15.8058 9.82297 16.4478 9.92141 17.1537 10.0283 17.7991 10.3812 18.27 10.9178 18.7709 11.4931 18.988 12.2659 19.0356 13.0971 19.1051 14.2587 19.5896 17.7177 19.5896 17.7177 19.6259 17.9498 19.8294 18.1186 20.0643 18.1114Z" transform="matrix(1.03571 0 0 1 77 329)"/><path d="M17.1314 12.6952C16.8828 12.7123 16.6952 12.9276 16.7122 13.1762 16.7123 13.1774 16.7124 13.1785 16.7125 13.1797L17.0297 17.6958C17.046 17.9321 17.2424 18.1155 17.4792 18.1158L17.5115 18.1158C17.7599 18.098 17.9471 17.8824 17.9298 17.634L17.6127 13.1173C17.5966 12.8681 17.3815 12.679 17.1322 12.6951 17.132 12.6951 17.1317 12.6952 17.1314 12.6952Z" transform="matrix(1.03571 0 0 1 77 329)"/><path d="M16.8241 22.1966 18.9941 20.0813C19.1725 19.9073 19.176 19.6217 19.002 19.4433 18.9329 19.3723 18.8422 19.3261 18.7441 19.3118L15.7456 18.8743 14.4047 16.1591C14.2945 15.9356 14.0241 15.8437 13.8006 15.9538 13.7114 15.9978 13.6392 16.0699 13.5953 16.1591L12.2544 18.8759 9.25586 19.3134C9.00927 19.3494 8.83854 19.5784 8.87447 19.825 8.8888 19.923 8.93501 20.0137 9.00594 20.0829L11.1759 22.1982 10.6641 25.1825C10.6213 25.428 10.7857 25.6616 11.0311 25.7044 11.13 25.7216 11.2317 25.7054 11.3203 25.6583L14 24.2484 16.6797 25.6583C16.7445 25.6922 16.8165 25.71 16.8897 25.7102 17.1392 25.7099 17.3411 25.5073 17.3408 25.2579 17.3407 25.2326 17.3386 25.2074 17.3343 25.1825ZM13.79 23.3395C13.2661 23.6064 11.7075 24.4333 11.7075 24.4333L12.1051 22.114C12.1302 21.9677 12.0817 21.8184 11.9755 21.7148L10.2905 20.0741 12.6191 19.7356C12.766 19.7142 12.893 19.622 12.9588 19.489L13.9978 17.3786 15.0369 19.489C15.1027 19.622 15.2296 19.7142 15.3765 19.7356L17.7051 20.0741 16.0202 21.7148C15.9139 21.8184 15.8654 21.9677 15.8905 22.114L16.2881 24.4333C16.2881 24.4333 14.7295 23.6053 14.2056 23.3395 14.0759 23.2695 13.9197 23.2695 13.79 23.3395Z" transform="matrix(1.03571 0 0 1 77 329)"/><path d="M26.3938 20.6834 24.2014 20.3645 23.2209 18.3783C23.1111 18.1549 22.841 18.0628 22.6177 18.1727 22.5283 18.2166 22.4559 18.2889 22.412 18.3783L21.4315 20.3645 19.2391 20.6834C18.9925 20.7193 18.8217 20.9483 18.8577 21.1949 18.872 21.293 18.9182 21.3836 18.9891 21.4528L20.5751 22.9994 20.2005 25.1825C20.1577 25.428 20.3221 25.6616 20.5675 25.7044 20.6664 25.7216 20.7681 25.7054 20.8567 25.6583L22.8173 24.6274 24.7784 25.6583C24.8432 25.6922 24.9152 25.71 24.9884 25.7102 25.2378 25.7099 25.4398 25.5073 25.4394 25.2579 25.4394 25.2326 25.4372 25.2074 25.433 25.1825L25.0584 22.9994 26.6443 21.4528C26.8227 21.2789 26.8262 20.9932 26.6523 20.8148 26.5831 20.7438 26.4924 20.6976 26.3944 20.6834ZM22.6067 23.7185C22.2627 23.8913 21.2445 24.4344 21.2445 24.4344L21.5048 22.9179C21.5299 22.7716 21.4814 22.6223 21.3752 22.5187L20.2732 21.4446 21.7957 21.2259C21.9428 21.2046 22.0699 21.1121 22.1353 20.9787L22.8162 19.5995 23.497 20.9787C23.5629 21.1119 23.6901 21.2044 23.8372 21.2259L25.3591 21.4446 24.2577 22.5187C24.1513 22.6222 24.1029 22.7716 24.1281 22.9179L24.3906 24.4344C24.3906 24.4344 23.3729 23.8913 23.0289 23.7185 22.8971 23.6475 22.7385 23.6475 22.6067 23.7185Z" transform="matrix(1.03571 0 0 1 77 329)"/><path d="M8.76094 20.6834 6.56852 20.3645 5.58797 18.3783C5.47821 18.1549 5.20813 18.0628 4.98478 18.1727 4.89539 18.2166 4.82308 18.2889 4.77914 18.3783L3.79859 20.3645 1.60617 20.6834C1.3596 20.7193 1.18886 20.9483 1.2248 21.1949 1.2391 21.293 1.28529 21.3836 1.35625 21.4528L2.94219 22.9994 2.57031 25.1825C2.52757 25.428 2.69192 25.6616 2.9374 25.7044 3.03623 25.7216 3.13798 25.7054 3.22656 25.6583L5.18766 24.6274 7.1482 25.6583C7.21301 25.6922 7.28503 25.71 7.3582 25.7102 7.60769 25.7099 7.80965 25.5073 7.80927 25.2579 7.80921 25.2326 7.80708 25.2074 7.80281 25.1825L7.4282 22.9994 9.01414 21.4528C9.19253 21.2789 9.19609 20.9932 9.02213 20.8148 8.95295 20.7438 8.86227 20.6976 8.76422 20.6834ZM4.97656 23.7185 3.61211 24.4344 3.87188 22.9179C3.89717 22.7716 3.84867 22.6222 3.74227 22.5187L2.64086 21.4446 4.16281 21.2259C4.30994 21.2044 4.43711 21.1119 4.50297 20.9787L5.18383 19.5995 5.86469 20.9787C5.93015 21.1121 6.05724 21.2046 6.2043 21.2259L7.7268 21.4446 6.62484 22.5187C6.51859 22.6223 6.47013 22.7716 6.49523 22.9179L6.75555 24.4344 5.39328 23.7185C5.26539 23.6403 5.10445 23.6403 4.97656 23.7185Z" transform="matrix(1.03571 0 0 1 77 329)"/></g></g></g></g></svg>