<svg width="256.88" height="224.62" viewBox="0 0 256.88 224.62" xmlns="http://www.w3.org/2000/svg" xmlns:xlink="http://www.w3.org/1999/xlink" xml:space="preserve" overflow="visible"><defs></defs><g><path d="M128.28 224.61C91.79 224.61 55.31 224.62 18.82 224.61 6.31 224.61 0.1 218.41 0.1 205.92 0.08 182.1 0.21 158.27 8.52096e-15 134.45-0.04 129.63 1.05 127.77 6.33 127.8 45.81 128.01 85.3 127.95 124.78 127.86 128.11 127.85 130.29 128.88 132.27 131.63 145.2 149.6 162.6 162.37 181.69 172.97 189.06 177.06 196.84 176.68 204.14 172.52 222.95 161.78 240.17 149.1 253.04 131.28 253.76 130.28 254.35 128.55 255.96 129.15 257.22 129.62 256.77 131.19 256.78 132.29 256.8 157.95 256.91 183.6 256.71 209.26 256.64 218.2 249.3 224.6 239.74 224.61 202.59 224.63 165.43 224.61 128.28 224.61ZM56.8 160.63C51.97 160.63 47.13 160.53 42.3 160.66 36.63 160.81 32.93 164.02 33.04 168.41 33.15 172.64 36.7 175.76 42.1 175.85 51.6 176 61.1 175.99 70.6 175.86 76.27 175.78 79.97 172.51 79.86 168.12 79.75 163.74 76.07 160.79 70.3 160.66 65.8 160.54 61.3 160.63 56.8 160.63Z" fill="#FFFFFF"/><path d="M256.8 54.59C256.95 66.92 257 79.22 254.42 91.4 249.55 114.46 236.39 131.86 217.95 145.75 211.55 150.57 204.85 154.91 197.91 158.92 194.81 160.71 191.59 161.42 188.42 159.62 171.47 150.03 155.77 138.93 144.2 122.84 133.52 107.99 128.91 91.11 128.24 73.15 127.75 60 128.21 46.82 128.06 33.66 128 28.62 130.28 25.62 134.77 23.7 152.4 16.21 169.99 8.63 187.58 1.03 191.03-0.46 194.32-0.28 197.72 1.19 215 8.66 232.27 16.14 249.62 23.44 254.76 25.6 257.1 28.96 256.86 34.59 256.58 41.24 256.8 47.92 256.8 54.59ZM223.86 56.39C223.8 51.96 219.45 48.28 215.36 49.03 212.54 49.54 210.72 51.49 209.03 53.6 201.96 62.44 194.79 71.21 187.85 80.15 185.61 83.03 184.21 82.87 182.39 79.91 180.31 76.5 178.03 73.21 175.76 69.92 172.27 64.87 168.41 63.61 164.49 66.18 160.59 68.74 160.12 72.98 163.37 77.95 167.83 84.78 172.35 91.57 176.93 98.32 181.6 105.21 186.45 105.53 191.68 99.1 201.55 86.96 211.27 74.69 221.04 62.47 222.52 60.62 223.67 58.62 223.86 56.39Z" fill="#FFFFFF"/><path d="M57.93 96.61C40.62 96.61 23.3 96.48 5.99 96.7 1.43 96.76-0.15 95.34 0.01 90.74 0.31 82.09 0.04 73.43 0.12 64.77 0.21 54.68 6.96 47.95 17.14 47.93 47.11 47.87 77.07 48 107.04 47.81 111.79 47.78 112.96 49.5 112.88 53.9 112.65 66.72 113.17 79.52 115.64 92.15 116.38 95.93 114.73 96.68 111.37 96.66 93.55 96.55 75.74 96.61 57.93 96.61Z" fill="#FFFFFF"/></g></svg>