<svg width="224.89" height="224.22" viewBox="0 0 224.89 224.22" xmlns="http://www.w3.org/2000/svg" xmlns:xlink="http://www.w3.org/1999/xlink" xml:space="preserve" overflow="visible"><defs></defs><g><path d="M160.77 23.23C160.77 29.06 160.65 34.9 160.8 40.72 161.02 49.16 172.74 56.17 180.58 53.17 188.94 49.97 193.05 45.02 192.22 35.48 191.38 25.72 192 15.84 192.05 6.01 192.08-0.41 193.76-1.36 199.61 1.61 225.24 14.61 233.18 49.87 215.05 72.89 210.22 79.03 208.57 84.99 208.63 92.47 208.89 125.46 208.76 158.45 208.73 191.44 208.71 208.37 196.28 222.6 180.32 224.06 162.85 225.66 148.11 215.07 144.59 198.24 144.09 195.82 144.06 193.28 144.06 190.79 144.03 156.63 143.97 122.48 144.11 88.32 144.13 83.22 142.83 79.19 139.44 75.19 120.55 52.88 125.55 19.6 149.97 3.55 151.63 2.46 153.4 1.49 155.23 0.68 158.74-0.87 160.72 0.26 160.73 4.23 160.75 10.56 160.74 16.89 160.74 23.22 160.74 23.23 160.75 23.23 160.77 23.23ZM165.02 191.66C164.92 197.78 170.09 203.1 176.33 203.31 182.19 203.51 187.87 197.96 187.97 191.94 188.07 185.99 182.51 180.29 176.61 180.28 170.43 180.27 165.11 185.49 165.02 191.66Z" fill="#FFFFFF"/><path d="M100.55 168.15C92.72 168.16 84.89 168.26 77.07 168.11 73.82 168.05 72.63 169.28 72.7 172.51 72.85 179 72.83 185.5 72.71 192 72.54 201.38 65.97 207.99 56.59 208.13 48.43 208.25 40.27 208.26 32.11 208.13 22.77 207.98 16.2 201.33 16.07 191.92 15.96 183.93 15.96 175.93 16.08 167.94 16.12 165.17 15.17 163.34 12.96 161.63 4.23 154.9-0.28 146.05 0.02 134.87 0.15 130.04 0.11 125.21 0.03 120.38-0.16 108.99 4.6 100.08 13.69 93.5 16.25 91.65 17.9 89.46 19.1 86.6 24 74.92 28.89 63.24 34.06 51.7 39.92 38.64 49.96 31.52 64.53 31.46 79.19 31.4 93.85 31.64 108.5 31.34 113.28 31.24 114.38 33.05 113.52 37.18 112.59 41.64 112.66 46.11 113.51 50.57 114.28 54.58 112.9 56.28 108.55 56.21 95.06 56.01 81.57 56.29 68.08 56.07 62.17 55.97 58.3 58.07 56.04 63.67 53.43 70.15 50.6 76.56 47.48 82.82 45.43 86.92 46.83 87.51 50.7 87.5 74.52 87.39 98.34 87.44 122.15 87.45 128.71 87.45 128.73 87.48 128.74 94.12 128.76 100.95 128.51 107.79 128.82 114.6 129.03 119.11 127.27 120.32 123.01 120.22 112.69 119.98 102.36 120.13 92.03 120.16 90.38 120.17 88.67 120.2 87.08 120.58 83.44 121.44 81.11 123.93 81.02 127.6 80.93 131.54 83.37 134.1 87.19 135.03 88.78 135.42 90.49 135.42 92.14 135.42 102.63 135.45 113.13 135.58 123.62 135.37 127.58 135.29 128.9 136.73 128.79 140.6 128.58 148.09 128.55 155.59 128.8 163.08 128.93 167.11 127.31 168.29 123.51 168.19 115.87 168 108.21 168.14 100.55 168.15ZM24.82 127.82C24.84 138.2 33.86 147.25 44.29 147.36 54.61 147.47 63.74 138.48 63.95 128.01 64.16 117.53 54.74 108.08 44.22 108.23 33.78 108.38 24.8 117.45 24.82 127.82Z" fill="#FFFFFF"/></g></svg>