<svg width="180.26" height="222.56" viewBox="0 0 180.26 222.56" xmlns="http://www.w3.org/2000/svg" xmlns:xlink="http://www.w3.org/1999/xlink" xml:space="preserve" overflow="visible"><defs></defs><g><path d="M107.92 197.6C107.73 198.57 108.85 200.79 106.92 201.49 105.12 202.15 104.13 200.05 103.03 198.92 95.67 191.45 88.41 183.87 81.04 176.41 76.54 171.86 74.29 172.27 71.36 178.06 64.54 191.59 57.64 205.08 51.04 218.72 49.19 222.54 47.48 223.64 43.49 221.42 36.51 217.54 29.35 213.95 22.08 210.66 17.93 208.78 17.79 206.73 19.74 202.99 26.45 190.16 32.86 177.17 39.37 164.23 40.12 162.75 40.99 161.27 41.4 159.69 42.27 156.31 41.73 154.07 37.38 153.56 26.16 152.23 14.98 150.47 3.8 148.82 2.45 148.62 0.32 149.36 0.02 147.39-0.23 145.74 1.76 145.13 2.93 144.32 15.78 135.38 28.65 126.48 41.52 117.58 60.55 104.42 79.59 91.25 98.65 78.13 99.95 77.23 101.23 75.46 103 76.27 104.85 77.11 104.14 79.21 104.19 80.78 104.93 106.07 105.57 131.35 106.34 156.64 106.76 170.09 107.38 183.55 107.92 197.6Z" fill="#FFFFFF"/><path d="M91.87 0C147.23 0.04 181.73 35.84 180.22 80.08 179.04 114.45 152.35 145.61 118.65 152.14 115.33 152.78 113.44 152.36 113.4 148.6 113.39 147.77 113.17 146.95 113.09 146.12 111.89 133.42 111.89 133.42 123.59 128.86 147.84 119.41 162.84 93.2 158.27 68.26 153.23 40.73 131.19 21.76 103.98 21.54 72.93 21.28 48.07 45.18 47.41 76.2 47.26 83.38 48.42 90.54 51.36 97.16 52.95 100.73 51.95 102.66 48.91 104.49 45.78 106.38 42.71 108.43 39.88 110.74 36.4 113.59 34.57 112.66 32.96 108.77 20.83 79.34 24.23 51.9 44.38 27.27 59.36 8.95 79.36 0.19 91.87 0Z" fill="#FFFFFF"/><path d="M102.98 27.67C126.55 27.65 147.12 44.71 151.18 67.64 155.44 91.7 142.09 114.8 119.3 122.82 113.38 124.9 112.87 124.55 112.58 118.32 112.5 116.66 112.37 114.99 112.09 113.35 111.42 109.4 112.61 107.05 116.59 105.22 130.02 99.05 137.17 84.62 134.31 70.57 131.36 56.1 118.65 45.35 103.86 44.81 84.56 44.1 68.24 62.73 72 81.55 72.88 85.97 72.29 88.99 68.06 90.88 67.61 91.08 67.23 91.43 66.82 91.72 58.06 97.73 57.87 97.65 55.49 86.87 48.82 56.7 72.09 27.69 102.98 27.67Z" fill="#FFFFFF"/><path d="M78.59 76.51C78.69 64.44 86.89 54.85 98.89 52.48 109.65 50.35 121.37 56.66 125.8 66.96 130.44 77.76 126.86 90.71 117.41 97.13 116.06 98.05 114.61 99.45 112.92 98.73 111.01 97.92 111.75 95.83 111.68 94.27 111.31 86.14 111.08 77.99 110.68 69.86 110.43 64.81 108.12 63.55 103.95 66.31 97.43 70.62 91.08 75.18 84.6 79.55 83.15 80.53 81.69 82.55 79.85 81.66 77.68 80.6 78.95 78.07 78.59 76.51Z" fill="#FFFFFF"/></g></svg>