<svg width="256.89" height="209.91" viewBox="0 0 256.89 209.91" xmlns="http://www.w3.org/2000/svg" xmlns:xlink="http://www.w3.org/1999/xlink" xml:space="preserve" overflow="visible"><defs></defs><g><path d="M83.46 122.65C72.03 120.98 72.02 120.98 72.03 109.94 72.03 101.77 72.32 101.78 80.04 103.76 85.27 105.1 87.46 108.06 87.6 113.22 87.64 114.92 87.07 116.86 89.04 119.06 90.47 112.92 91.67 107.31 93.15 101.77 93.58 100.18 92.91 96.94 96.05 97.74 98.36 98.33 99.87 100.36 98.96 103.23 98.51 104.65 98.24 106.14 97.88 107.59 96.08 114.84 96.16 114.95 103.45 114.97 109.28 114.98 115.11 114.97 120.95 114.97 151.28 114.97 181.6 114.98 211.93 114.96 217.91 114.96 217.96 114.87 216.52 109.09 214.71 101.82 212.97 94.53 211.04 87.29 208.34 77.2 202 72.18 191.5 72.14 166.67 72.03 141.84 72.09 117.02 72.1 113.99 72.1 110.97 72.2 108.84 69.43 108.25 68.66 107.19 68.04 107.5 66.94 107.83 65.73 109.04 65.88 110.01 65.83 111.01 65.77 112.01 65.8 113.01 65.8 137.84 65.8 162.67 65.79 187.49 65.82 204.43 65.84 214.31 73.51 218.33 89.91 220.65 99.38 222.75 108.9 225.79 118.38 226.18 116.17 226.98 113.94 226.88 111.76 226.66 107.1 229.12 105.31 233.21 104.38 238.4 103.19 243.52 101.54 248.91 101.76 254.29 101.98 256.35 104.14 256.67 109.49 257.36 121.09 257.35 121.02 245.74 121.33 240.81 121.46 235.9 121.98 229.44 122.43 237.22 128.35 236.96 135.71 236.81 143.1 236.68 149.43 236.59 155.77 236.83 162.09 237.11 169.76 233.65 175.28 227.36 179.03 224.53 180.72 223.35 182.66 223.58 185.85 223.78 188.67 223.64 191.51 223.61 194.35 223.54 201.7 220.57 205.78 213.6 208.03 209.06 209.49 204.49 209.75 199.83 208.44 191.4 206.07 188.38 202.19 188.3 193.36 188.19 182.02 189.52 183.27 178.11 183.23 161.45 183.18 144.78 183.32 128.12 183.15 124.03 183.11 122.2 184.38 122.71 188.57 122.87 189.88 122.73 191.23 122.73 192.57 122.72 201.87 120.68 205.32 113.71 207.8 105.32 210.79 94.94 208.91 90.41 203.57 88.84 201.72 88.01 199.62 88.05 197.16 88.09 194.33 87.84 191.48 88.09 188.67 88.55 183.41 87.61 179.21 82.8 175.79 78.74 172.91 77.22 167.98 77.16 162.93 77.06 154.27 77.16 145.6 77.12 136.94 77.05 131.42 79.85 127.15 83.46 122.65ZM207.95 144.28C204.63 144.28 201.3 144.41 197.99 144.24 194.72 144.08 193.42 145.48 193.68 148.66 193.8 150.14 193.82 151.66 193.68 153.14 193.33 156.69 194.99 157.81 198.36 157.7 203.84 157.52 209.32 157.66 214.8 157.66 223.31 157.66 223.3 157.66 223.1 149.29 223.09 148.96 223.07 148.62 223.09 148.29 223.34 145.24 221.82 144.16 218.9 144.25 215.26 144.38 211.6 144.28 207.95 144.28ZM109.72 157.66C112.55 157.66 115.4 157.42 118.2 157.71 123.06 158.23 124.97 156.22 124.36 151.47 124.21 150.32 124.3 149.14 124.31 147.98 124.32 145.56 123.27 144.28 120.71 144.29 113.39 144.33 106.07 144.31 98.75 144.31 96.8 144.31 95.8 145.19 95.41 147.21 93.79 155.65 95.33 157.65 103.73 157.65 105.73 157.66 107.73 157.66 109.72 157.66ZM158.83 157.65C166.49 157.65 174.14 157.67 181.8 157.64 183.78 157.63 186.11 157.89 186.02 154.83 185.94 152.11 183.81 152.34 182 152.34 166.69 152.32 151.37 152.32 136.06 152.34 134.08 152.34 131.72 152.06 131.87 155.14 132.01 158.22 134.49 157.62 136.37 157.64 143.85 157.69 151.34 157.65 158.83 157.65ZM158.57 149.72C166.39 149.72 174.21 149.74 182.03 149.7 183.63 149.69 185.74 150 185.87 147.62 186.03 144.91 183.77 145.01 181.98 145 166.5 144.96 151.03 144.97 135.55 145 133.85 145 131.93 145.11 131.93 147.42 131.94 149.82 133.94 149.69 135.6 149.7 143.26 149.74 150.92 149.72 158.57 149.72Z" fill="#FFFFFF"/><path d="M20.99 136.17C20.99 116.01 20.99 95.85 20.98 75.7 20.98 74.2 20.98 72.7 20.83 71.21 20.72 70.1 19.99 69.39 18.82 69.41 17.66 69.43 16.95 70.14 16.84 71.25 16.71 72.57 16.71 73.91 16.71 75.24 16.7 86.74 16.73 98.23 16.69 109.73 16.67 116.32 13.71 120.07 8.57 120.21 3.24 120.36 0.03 116.47 0.02 109.67-0.01 95.69 0 81.69 0.01 67.7 0.02 54.33 6.57 46.75 19.92 44.61 30.03 42.99 40.21 43.99 50.35 43.85 56.15 43.77 62 43.25 67.77 44.58 75.07 46.26 81.6 49.36 86.95 54.69 97.23 64.91 107.52 75.12 117.72 85.41 122.24 89.97 122.6 94.35 119.07 98.18 115.53 102.02 110.99 102.09 106.26 97.91 96.78 89.52 87.47 80.94 78.07 72.47 76.84 71.36 75.61 70.05 74.14 69.49 71.81 68.61 69.77 69.1 69.7 72.26 69.67 73.76 69.66 75.26 69.66 76.76 69.66 115.08 69.66 153.39 69.67 191.71 69.67 193.21 69.68 194.71 69.67 196.21 69.59 204.62 65.24 209.87 58.36 209.85 51.53 209.84 47.08 204.55 47.06 196.14 47.01 172.15 47.04 148.16 47.04 124.17 47.04 122.67 47.04 121.17 46.95 119.67 46.89 118.62 46.53 117.61 45.25 117.67 43.98 117.72 43.7 118.77 43.63 119.8 43.54 121.29 43.53 122.8 43.53 124.29 43.53 147.45 43.54 170.6 43.52 193.76 43.52 195.75 43.56 197.78 43.23 199.74 42.18 205.96 37.17 210.21 31.51 209.9 25.46 209.57 21.01 204.82 20.99 198.16 20.9 177.5 20.96 156.84 20.96 136.19 20.97 136.17 20.98 136.17 20.99 136.17Z" fill="#FFFFFF"/><path d="M65.7 19.41C65.73 30.1 57.14 38.89 46.53 39.01 36.1 39.13 27.12 30.16 27.07 19.6 27.02 9.01 35.83 0.05 46.34 0 56.89-0.05 65.67 8.75 65.7 19.41Z" fill="#FFFFFF"/></g></svg>