<svg width="222.04" height="248" viewBox="0 0 222.04 248" xmlns="http://www.w3.org/2000/svg" xmlns:xlink="http://www.w3.org/1999/xlink" xml:space="preserve" overflow="visible"><defs></defs><g><path d="M136.3 0.01C159.63 0.01 182.96-0.01 206.29 0.02 217.64 0.03 222.01 4.41 222.02 15.77 222.04 44.1 222.04 72.43 222.02 100.76 222.01 112.33 217.84 116.53 206.45 116.54 181.45 116.55 156.46 116.6 131.46 116.49 127.77 116.47 124.77 117.41 121.78 119.6 108.74 129.15 95.57 138.52 82.42 147.92 81.25 148.76 80.04 150.28 78.49 149.53 76.88 148.75 77.54 146.86 77.53 145.45 77.47 137.28 77.4 129.12 77.54 120.95 77.59 117.77 76.52 116.35 73.21 116.5 69.55 116.67 65.88 116.63 62.21 116.49 55.23 116.22 50.54 111.69 50.52 104.79 50.43 73.79 50.42 42.8 50.53 11.8 50.56 4.36 55.73 0.05 64.31 0.03 88.31-0.03 112.3 0.01 136.3 0.01ZM87.63 18.08C89.23 19.22 90.31 19.95 91.35 20.73 93.99 22.72 97.48 23.62 99.35 26.54 100.87 28.91 99.69 37.15 97.85 38.91 93.49 43.09 88.46 43.91 84.03 41.15 82.76 40.36 81.54 39.47 80.23 38.76 79.12 38.15 77.87 36.65 76.7 37.63 75.4 38.72 76.36 40.41 76.88 41.8 80.46 51.43 91.68 56.26 101.63 51.95 105.2 50.41 107.66 50.84 110.75 52.83 125.01 62.04 139.37 71.11 153.81 80.05 157.33 82.23 159.13 84.55 159.38 89.05 160.1 101.9 173.37 110.34 183.94 104.66 182.14 103.44 180.64 102.05 178.88 101.29 173.5 98.96 171.9 95.02 172.43 89.35 173.06 82.66 181.59 78.02 187.45 81.52 190.2 83.16 192.62 85.48 196.01 86.43 194.91 73.64 182.74 66.19 170.85 70.98 167.27 72.42 164.8 71.99 161.7 69.99 147.43 60.79 133.07 51.73 118.59 42.85 114.76 40.5 112.62 38.14 112.41 33.17 111.9 21.09 99.38 13.38 87.63 18.08ZM83.24 93.15C83.08 99.71 85.88 104.39 90.35 106.52 94.78 108.63 99.33 108.75 102.92 105.2 111.67 96.53 120.14 87.58 128.71 78.72 129.67 77.73 130.69 76.5 129.03 75.4 124.88 72.64 120.64 69.99 116.39 67.38 115.03 66.54 113.84 67.41 112.74 68.2 104.34 74.2 95.92 80.17 87.57 86.24 84.71 88.31 83.31 91.28 83.24 93.15ZM152.03 52.76C153.55 51.64 154.92 50.75 156.16 49.7 162.52 44.33 168.5 38.44 175.29 33.7 179.75 30.6 182.41 26.38 185.62 22.41 186.75 21.01 186.48 19.66 185.43 18.33 184.41 17.04 183.25 16.22 181.58 17.14 178.09 19.07 173.86 20.33 171.28 23.11 164.21 30.72 155.83 36.76 148.3 43.79 146.99 45.01 143.93 46.09 145.36 48.17 146.74 50.18 149.59 51.17 152.03 52.76Z" fill="#FFFFFF"/><path d="M101.47 235.66C93.16 234.59 82.88 231.7 72.51 229.31 63.77 227.3 55.16 225.85 46.57 229.68 44.19 230.74 43.15 229.53 42.6 227.47 37.9 209.94 33.23 192.4 28.52 174.88 27.92 172.65 28.51 170.97 30.46 169.74 30.74 169.56 30.99 169.34 31.25 169.13 54.44 150.4 54.13 155.06 74.31 160.19 87.7 163.6 100.98 167.44 114.32 171.06 118.27 172.13 121.76 173.89 124.53 177 128.98 182 129.93 188.51 126.89 193.61 124.25 198.03 118.83 199.85 112.24 198.18 104.17 196.13 96.17 193.82 88.14 191.62 87.02 191.31 85.91 190.91 84.77 190.71 82.71 190.35 80.47 190.27 79.79 192.74 79.1 195.27 81.1 196.22 83.12 196.84 85.03 197.42 86.96 197.95 88.89 198.48 95.96 200.4 103.03 202.33 110.11 204.2 122.71 207.54 132.86 201.86 136.26 189.37 136.89 187.05 137.94 185.57 139.95 184.43 153.69 176.57 167.33 168.54 181.14 160.82 189.32 156.24 198.18 158.57 202.41 165.94 206.83 173.63 204.34 182.52 196.07 187.33 170.58 202.15 145.01 216.84 119.48 231.6 114.6 234.42 109.44 236.06 101.47 235.66Z" fill="#FFFFFF"/><path d="M0.01 174.45C-0.08 172.52 0.72 171.17 2.36 170.33 2.8 170.1 3.28 169.96 3.76 169.82 21.62 164.57 19.02 164.47 23.17 179.79 28.3 198.72 33.34 217.67 38.36 236.62 39.97 242.71 39.23 243.89 33.26 245.52 31.66 245.96 30.04 246.33 28.43 246.76 20.23 248.97 19.81 248.8 17.66 240.86 12.03 220 6.46 199.13 0.88 178.26 0.54 176.99 0.29 175.68 0.01 174.45Z" fill="#FFFFFF"/></g></svg>