<svg width="256.73" height="216.47" viewBox="0 0 256.73 216.47" xmlns="http://www.w3.org/2000/svg" xmlns:xlink="http://www.w3.org/1999/xlink" xml:space="preserve" overflow="visible"><defs></defs><g><path d="M212.66 97.67C212.99 99.19 211.87 100.12 211.15 101.18 203.01 113.15 202.14 125.74 208.7 138.51 215.24 151.23 226.4 157.07 240.37 157.79 251.56 158.36 251.57 158.24 251.57 169.53 251.57 181.36 251.61 193.18 251.55 205.01 251.51 213.42 248.53 216.31 240 216.39 236.17 216.43 232.33 216.23 228.51 216.44 224.49 216.66 222.85 215.21 222.95 210.99 223.18 201.17 223.02 191.34 223.02 181.51 223.02 180.18 223.05 178.84 223 177.51 222.79 172.28 219.98 168.77 215.97 168.7 211.99 168.63 208.92 172.18 208.77 177.32 208.64 181.48 208.73 185.65 208.73 189.81 208.73 196.97 208.61 204.14 208.77 211.3 208.85 214.86 207.67 216.45 203.93 216.43 182.61 216.34 161.29 216.33 139.97 216.44 135.69 216.46 135.14 214.14 135.15 210.7 135.21 187.88 134.86 165.05 135.27 142.24 135.68 119.02 127.89 99.58 110.6 84 109.69 83.18 107.93 82.52 108.63 80.93 109.27 79.46 110.99 80.03 112.24 80.03 123.57 79.99 134.89 80.03 146.22 80 148.49 79.99 150.39 80.56 152.06 82.24 168.29 98.6 187.64 103.42 209.8 97.75 210.72 97.49 211.67 96.95 212.66 97.67Z" fill="#FFFFFF"/><path d="M43.86 97.74C45.87 96.82 47.55 97.9 49.24 98.3 64.15 101.84 78.38 100.17 91.65 92.43 95 90.47 97.28 90.85 100.06 93.21 113.67 104.76 121.07 119.5 121.42 137.2 121.9 161.67 121.48 186.16 121.63 210.64 121.66 214.97 120.14 216.48 115.81 216.45 95.16 216.3 74.51 216.28 53.86 216.46 49.22 216.5 47.81 214.85 47.92 210.34 48.18 200.02 48.01 189.69 47.99 179.37 47.99 177.88 48.04 176.34 47.72 174.9 46.92 171.25 44.55 168.78 40.83 168.79 37.1 168.81 34.67 171.28 34 174.95 33.59 177.22 33.73 179.59 33.72 181.92 33.69 191.75 33.6 201.57 33.76 211.4 33.82 215.07 32.44 216.53 28.8 216.41 24.14 216.25 19.47 216.5 14.81 216.33 8.69 216.1 5.33 213.06 5.25 207.09 5.06 192.1 5.21 177.11 5.15 162.13 5.14 158.88 6.64 157.68 9.75 157.83 15.09 158.09 20.42 157.78 25.61 156.42 49.09 150.3 59.67 122.89 46.47 102.52 45.51 101.02 44.16 99.69 43.86 97.74Z" fill="#FFFFFF"/><path d="M106.55 43.41C106.4 66.94 86.35 86.66 62.89 86.37 39.54 86.07 20.05 66.26 20.18 42.96 20.32 19.44 40.38-0.3 63.84 0 87.2 0.3 106.7 20.12 106.55 43.41Z" fill="#FFFFFF"/><path d="M236.55 43.21C236.53 66.72 216.58 86.54 193.09 86.37 169.76 86.2 150.17 66.47 150.18 43.16 150.2 19.64 170.15-0.17 193.64 0 216.98 0.17 236.57 19.9 236.55 43.21Z" fill="#FFFFFF"/><path d="M0.02 125.06C0.02 122.73 0.01 120.41 0.02 118.08 0.1 104.85 10.8 97.16 23.42 101.25 33.07 104.38 39.83 114.97 38.29 124.56 36.51 135.66 28.07 143.29 17.25 143.51 14.43 143.57 11.6 143.58 8.78 143.51 2.73 143.35 0.16 140.71 0.04 134.52-0.03 131.37 0.02 128.21 0.02 125.06Z" fill="#FFFFFF"/><path d="M256.67 125.68C256.67 129.17 256.78 132.66 256.64 136.14 256.48 139.9 254.45 142.81 250.79 143.18 244.72 143.79 238.5 144.42 232.54 142.28 221.63 138.37 215.82 126.24 219.44 115.11 222.87 104.59 234.72 97.9 244.68 100.87 252.06 103.07 256.55 108.97 256.7 116.7 256.76 119.69 256.71 122.68 256.71 125.67 256.7 125.68 256.68 125.68 256.67 125.68Z" fill="#FFFFFF"/></g></svg>