<svg width="216.94" height="225.01" viewBox="0 0 216.94 225.01" xmlns="http://www.w3.org/2000/svg" xmlns:xlink="http://www.w3.org/1999/xlink" xml:space="preserve" overflow="visible"><defs></defs><g><path d="M56.76 128.83C57.54 135.05 58.21 140.67 60.36 145.99 61.12 147.86 61.54 149.55 60.15 151.59 54.39 160.04 55.65 168.64 60.41 176.99 63.75 182.86 68.94 187.18 73.71 191.83 80.51 198.45 87.78 204.68 92.39 213.19 94.03 216.22 97.12 219.97 95.27 222.76 93.42 225.56 89.06 223.23 85.98 222.51 52.57 214.76 27.58 195.93 11.63 165.4 9.08 160.51 9.31 160.24 14.71 160.02 26.45 159.55 33.43 152.8 34.96 140.06 35.61 134.61 35.98 129.1 36 123.62 36.03 115.91 39.01 109.73 44.68 104.74 48.56 101.33 52.6 98.1 56.44 94.65 62.88 88.87 67.65 81.98 70.37 73.66 74.4 61.32 72.97 49.95 64.43 39.93 62.14 37.24 61.41 34.73 62.41 31.31 63.29 28.3 63.91 25.08 63.86 21.97 63.8 18.08 65.6 16.36 68.97 15.11 78.08 11.74 87.44 9.51 97.06 8.28 98.34 8.12 99.96 7.69 100.78 8.92 101.64 10.23 100.41 11.42 99.72 12.51 95.21 19.73 90.87 27.01 89.24 35.56 88.09 41.63 89.36 46.91 94.2 50.86 99.05 54.82 104.47 56.01 110.52 53.36 114.56 51.59 117.91 48.87 121.34 46.24 127.45 41.55 133.73 38.52 142.04 39.81 151.32 41.25 157.79 35.59 162.89 28.53 164.72 25.99 166.04 23.74 169.41 26.49 172.15 28.72 176.03 29.92 172.7 34.91 169.2 40.17 168.12 46.34 169.31 52.64 169.95 56.04 168.53 57.41 165.48 58.35 157.41 60.84 148.99 60.4 140.77 61.62 126.7 63.71 115.58 73.33 113.41 86.41 111.54 97.71 116.06 106.96 124.64 114.22 130.42 119.1 137.36 122.11 144.02 125.54 155.39 131.39 165.37 138.68 170.04 151.25 171.48 155.14 172.63 159.17 173.53 163.22 175.56 172.39 178.35 181.27 183.19 189.35 184.92 192.24 184.36 194.1 182.02 196.23 167.51 209.41 150.7 218.15 131.6 222.44 126.34 223.62 125.86 222.99 126.91 217.53 128.91 207.19 131.82 197.14 136.55 187.67 138.49 183.78 139.84 179.65 140.71 175.39 142.97 164.39 138.83 155.59 128.88 150.34 124.12 147.83 119 146.24 113.67 145.71 109.97 145.35 109.35 143.76 110.17 140.43 111.56 134.78 112.47 129.11 111.3 123.17 108.81 110.5 97.13 100.63 84.27 100.79 71.4 100.94 59.9 110.53 57.67 123 57.29 125.12 57 127.26 56.76 128.83Z" fill="#FFFFFF"/><path d="M216.89 113.01C216.94 141.27 208.96 163.57 193.78 183.38 190.48 187.69 189.91 187.61 187.49 182.9 184.04 176.19 181.54 169.08 180.27 161.69 177 142.64 166.37 129.32 149.45 120.59 143.83 117.69 138.15 114.86 132.77 111.55 125.83 107.27 120.82 101.33 120.14 92.81 119.08 79.62 129.73 68.81 144.6 68.09 152.28 67.72 159.87 66.93 167.28 64.91 170.23 64.11 171.78 64.65 173.03 67.63 177.65 78.66 184.92 87.99 192.55 97.07 195.23 100.26 197.6 100.48 200.22 97.13 203 93.59 205.85 90.12 208.67 86.62 209.38 85.74 209.87 84.27 211.14 84.42 212.79 84.61 212.74 86.37 213.07 87.59 215.62 96.96 217.22 106.45 216.89 113.01Z" fill="#FFFFFF"/><path d="M0.07 117.9C-0.32 95.65 5.53 76.65 16.22 59.04 19.82 53.11 20.15 53.19 24.18 58.55 26.88 62.14 29.82 65.55 32.59 69.09 35.17 72.39 37.54 72.35 40.27 69.14 45.99 62.4 51.28 55.35 55.86 47.78 58.35 43.67 59.24 43.72 61.83 47.88 68.24 58.19 66.12 68.28 60.93 78.22 58.11 83.62 53.98 87.95 49.33 91.82 46.26 94.38 43.18 96.93 40.15 99.54 32.15 106.42 28.87 115.39 28.8 125.7 28.76 131.36 28.89 137.03 27.51 142.58 25.35 151.34 15.48 156.11 7.39 152.36 5.44 151.46 5.07 149.6 4.56 147.89 1.53 137.61-0.39 127.17 0.07 117.9Z" fill="#FFFFFF"/><path d="M110.2 224.69C105.67 225.92 103.41 223.56 101.98 218.38 98.82 206.9 90.87 198.48 82.43 190.55 77.46 185.88 72.25 181.43 68.06 176 64.69 171.64 62.75 166.77 63.4 161.16 63.54 159.94 63.61 158.26 65.27 158.03 66.63 157.84 67.13 159.25 67.75 160.19 71.67 166.2 76.12 171.79 80.74 177.27 83.27 180.28 85.5 180.34 88.09 177.32 94.06 170.35 99.62 163.08 104.18 155.11 105.35 153.06 106.55 151.67 109.2 151.96 115.55 152.66 121.72 153.96 127.21 157.35 133.05 160.95 135.27 166.38 134.09 173.15 133.4 177.12 132.22 180.95 130.42 184.51 125.19 194.86 122.21 205.92 119.87 217.19 118.32 224.65 118.37 224.66 110.2 224.69Z" fill="#FFFFFF"/><path d="M115.07 7.85C130.47 9.32 143.76 12.66 156.28 18.94 158.83 20.22 159.34 21.62 157.69 23.98 153.42 30.07 148.35 34.22 140.19 32.82 132.66 31.52 126.13 34.35 120.12 38.63 116.6 41.14 113.16 43.77 109.55 46.15 106.56 48.12 103.31 48.32 100.09 46.51 96.78 44.64 95.87 41.67 96.05 38.05 96.21 34.81 97.21 31.85 98.48 28.95 101.17 22.82 104.87 17.3 108.59 11.77 110.59 8.8 113.01 7.33 115.07 7.85Z" fill="#FFFFFF"/><path d="M56.81 21.57C56.78 31.62 52.67 40.26 47.27 48.38 44.61 52.39 41.65 56.2 38.78 60.07 37.72 61.5 36.36 62.81 34.78 60.83 25.52 49.2 16.43 37.41 16.12 21.58 15.88 8.9 24.39 0 36.42 0 48.45 0 56.83 8.87 56.81 21.57ZM36.31 31.8C42.44 31.88 47.89 26.48 47.88 20.33 47.87 14.36 42.82 9.15 36.79 8.89 30.58 8.63 24.85 14.29 24.92 20.62 24.99 26.42 30.38 31.72 36.31 31.8Z" fill="#FFFFFF"/><path d="M104.81 129.76C104.69 140.92 99.83 150.35 93.48 159 83 173.31 85.92 173.43 75.46 159.14 69.12 150.49 64.24 141.04 64.1 129.89 63.94 116.88 72.33 107.95 84.61 108 96.58 108.05 104.86 116.97 104.81 129.76ZM84.66 116.89C78.58 116.72 73.15 121.98 72.93 128.24 72.72 134.17 78.34 139.81 84.43 139.8 90.39 139.79 95.61 134.72 95.87 128.71 96.14 122.62 90.86 117.06 84.66 116.89Z" fill="#FFFFFF"/><path d="M216.81 49.76C216.7 60.02 212.4 68.77 206.85 77.02 204.34 80.75 201.59 84.31 198.91 87.92 197.7 89.55 196.29 90.82 194.55 88.6 185.46 77.01 176.43 65.32 176.13 49.62 175.89 36.91 184.44 27.97 196.5 27.99 208.5 28.02 216.85 36.98 216.81 49.76ZM196.54 36.89C190.43 36.81 184.96 42.24 184.98 48.36 184.99 54.49 190.47 59.89 196.58 59.8 202.55 59.71 207.73 54.57 207.89 48.58 208.05 42.49 202.69 36.97 196.54 36.89Z" fill="#FFFFFF"/></g></svg>