<svg width="256.74" height="256.75" viewBox="0 0 256.74 256.75" xmlns="http://www.w3.org/2000/svg" xmlns:xlink="http://www.w3.org/1999/xlink" xml:space="preserve" overflow="visible"><defs></defs><g><path d="M198.75 141.82C199.47 146.26 196.5 151.15 190.17 154.54 186.21 156.66 182.4 159.03 178.3 160.91 175.02 162.41 173.25 162.38 172.77 158 171.7 148.19 169.28 138.7 164.57 129.89 162.28 125.6 159.69 121.54 156.34 118.02 154.46 116.05 154.26 114.44 155.55 111.88 164.43 94.34 159.06 77.46 141.52 67.94 138.41 66.25 138.3 65.06 140.87 63.07 143.37 61.14 145.93 59.27 148.39 57.3 150.28 55.79 152.12 55.64 154.4 56.57 162.96 60.05 171.66 60.16 180.15 56.49 183.68 54.97 185.87 56.77 188.27 58.52 208.51 73.27 219.44 93.62 223.53 117.9 224.6 124.27 224.79 130.8 225.26 137.27 225.47 140.11 224.52 141.67 221.14 140.83 218.07 140.07 214.75 139.88 211.72 140.79 207.31 142.12 206.13 140.49 206.06 136.32 205.82 121.86 202.48 107.98 197.67 94.42 197.17 93.01 196.66 91.58 195.91 90.3 194.93 88.62 193.45 87.45 191.36 88.14 189.1 88.88 188.32 90.69 188.77 92.9 189.1 94.52 189.72 96.08 190.29 97.64 195.16 111.03 197.83 124.86 198.75 141.82Z" fill="#FFFFFF"/><path d="M32.01 131.89C33.67 102.6 43.76 77.49 67.75 59.15 71.17 56.53 74.23 55.38 78.64 57.2 85.63 60.08 93.11 60.09 100.1 57.23 104.43 55.46 107.7 55.97 110.97 58.93 111.83 59.71 112.83 60.33 113.73 61.07 119.07 65.48 119.06 65.49 112.98 68.92 98.22 77.23 92.71 95.46 100.59 110.84 102.19 113.96 102.26 115.93 99.83 118.67 90.21 129.52 85.94 142.68 84.01 156.81 83.19 162.8 82.75 162.99 77.21 160.34 73.77 158.69 70.59 156.48 67.12 154.88 59.66 151.44 57.58 145.51 58.14 137.79 59.14 124.1 61.69 110.77 66.33 97.84 66.72 96.74 67.18 95.67 67.53 94.56 68.34 91.99 68.58 89.38 65.52 88.25 62.39 87.1 60.92 89.43 59.99 91.86 56.01 102.13 53.08 112.7 51.69 123.65 51.1 128.26 50.84 132.92 50.54 137.56 50.35 140.41 49.52 141.95 46.2 140.99 43.31 140.15 40.2 140 37.28 140.65 32.98 141.61 31.43 140.12 31.98 135.89 32.16 134.58 32.01 133.22 32.01 131.89Z" fill="#FFFFFF"/><path d="M158.15 176.39C155.31 167.85 152.64 159.65 147.64 152.45 147.07 151.63 146.53 150.79 145.95 149.98 144.4 147.85 142.31 146.65 139.98 148.31 137.64 149.98 138.29 152.39 139.59 154.56 140.79 156.56 142.2 158.44 143.26 160.5 150.96 175.5 152.3 191.65 151.61 208.13 151.52 210.37 144.28 215.56 140.96 215.61 132.47 215.74 123.97 215.89 115.49 215.57 109.73 215.36 105.17 209.72 105 203.88 104.62 190.76 106.19 177.98 110.98 165.68 112.44 161.94 114.38 158.47 116.69 155.18 118.33 152.84 119.51 150.09 116.58 148.2 113.67 146.32 111.71 148.56 110.08 150.9 105.57 157.39 102.34 164.45 100.37 172.12 100.01 173.5 100.24 175.59 98.75 176.07 96.98 176.64 96.65 174.34 95.56 173.44 90.56 169.31 91.12 164.03 91.91 158.37 93.58 146.28 97.14 135.05 104.69 125.25 107.05 122.19 109.08 121.19 112.95 123.43 123.09 129.3 133.68 129.29 143.81 123.4 147.74 121.11 149.73 122.31 152.05 125.31 161.17 137.14 164.55 150.87 165.42 165.4 165.73 170.58 160.7 172.6 158.15 176.39Z" fill="#FFFFFF"/><path d="M179.74 211.37C174.58 211.37 169.41 211.41 164.25 211.35 162.16 211.33 160.21 211.01 160.05 208.23 159.51 198.43 160.27 188.96 165.95 180.43 169.09 175.71 172.88 171.91 178.14 169.75 188.72 165.41 198.22 159.37 206.88 151.93 210.32 148.98 214.2 147.28 218.84 148.34 223.44 149.39 224.28 151.31 221.1 154.74 214.53 161.81 207.6 168.55 200.91 175.51 198.51 178.01 194.01 180.73 197.72 184.49 201.68 188.51 203.93 183.24 206.49 181.17 208.55 179.51 210.17 177.3 212.2 175.59 226.47 163.57 236.08 148.47 242.12 130.94 242.98 128.43 244.2 126.03 245.36 123.64 246.99 120.27 249.78 118.96 253.2 120.36 256.76 121.83 257.47 125 256.05 128.31 252.24 137.18 247.85 145.81 244.33 154.79 239.05 168.24 231.23 179.7 220.38 189.29 214.15 194.79 208.39 200.85 202.71 206.94 199.61 210.27 196.24 211.78 191.72 211.46 187.74 211.17 183.73 211.4 179.73 211.4 179.74 211.39 179.74 211.38 179.74 211.37Z" fill="#FFFFFF"/><path d="M76.89 211.4C63.2 214.83 54.36 207.93 45.33 198.54 20.72 172.92 20.38 173.24 5.86 140.15 4.19 136.34 2.38 132.59 0.78 128.75-0.69 125.23-0.28 121.93 3.54 120.37 7.24 118.86 10.01 120.57 11.57 124.15 14.37 130.56 17.27 136.92 19.89 143.4 23.56 152.51 28.89 160.41 36.02 167.17 41.58 172.44 46.86 177.99 52.33 183.36 54.26 185.25 56.52 187.44 59.1 184.57 61.38 182.04 59.91 179.64 57.87 177.58 50.72 170.36 43.55 163.17 36.47 155.88 35.13 154.5 33.02 152.87 33.84 150.85 34.79 148.52 37.52 148.25 39.87 148.09 43.99 147.8 47.25 149.74 50.24 152.28 58.42 159.22 67.29 164.99 77.23 169.15 89.88 174.44 95.78 184.97 96.43 197.81 97.23 213.64 98.69 211.13 83.87 211.4 81.55 211.44 79.22 211.4 76.89 211.4Z" fill="#FFFFFF"/><path d="M167.48 0C181.52 0.07 192.72 11.43 192.7 25.57 192.67 39.53 181.22 51.17 167.4 51.28 153.7 51.39 141.44 39.2 141.41 25.44 141.38 11.49 153.22-0.07 167.48 0Z" fill="#FFFFFF"/><path d="M64 25.08C64.1 11.05 75.48-0.07 89.68 0 103.54 0.07 115.29 11.74 115.28 25.44 115.28 39.17 102.99 51.39 89.3 51.28 75.28 51.17 63.91 39.39 64 25.08Z" fill="#FFFFFF"/><path d="M80.08 256.69C73.25 256.69 66.41 256.55 59.59 256.75 56.03 256.85 54.35 255.67 54.39 251.96 54.49 242.63 54.47 233.3 54.41 223.97 54.39 220.35 56.04 219.03 59.62 219.06 73.45 219.18 87.28 219.18 101.1 219.06 104.71 219.03 106.29 220.42 106.27 224.01 106.22 233.34 106.19 242.67 106.29 252 106.33 255.75 104.58 256.85 101.06 256.75 94.07 256.56 87.07 256.69 80.08 256.69ZM93.93 242.03C96.67 242.02 99.67 242.02 99.88 238.35 100.09 234.55 97.09 234.33 94.32 234.34 91.47 234.35 88 234.24 88.03 238.19 88.05 241.61 91.08 242.07 93.93 242.03Z" fill="#FFFFFF"/><path d="M176.19 256.69C169.19 256.69 162.19 256.57 155.2 256.74 151.73 256.83 150.38 255.41 150.4 252.07 150.46 242.74 150.46 233.41 150.4 224.08 150.38 220.56 151.82 219.02 155.5 219.05 169.33 219.18 183.16 219.17 196.98 219.05 200.49 219.02 202.29 220.19 202.27 223.88 202.21 233.38 202.23 242.87 202.26 252.37 202.27 255.51 200.87 256.79 197.68 256.73 190.52 256.59 183.36 256.69 176.19 256.69ZM162.51 234.3C159.9 234.46 156.79 234.32 156.81 238.14 156.83 241.82 159.73 242.03 162.54 242.04 165.56 242.05 168.77 241.69 168.66 237.92 168.57 234.38 165.3 234.41 162.51 234.3Z" fill="#FFFFFF"/><path d="M129.08 73.04C141.74 73.32 151.84 83.97 151.65 96.83 151.46 109.73 140.7 119.94 127.61 119.64 114.76 119.35 104.66 108.47 105.05 95.36 105.43 82.77 116.21 72.76 129.08 73.04Z" fill="#FFFFFF"/></g></svg>