<svg width="201.04" height="255.67" viewBox="0 0 201.04 255.67" xmlns="http://www.w3.org/2000/svg" xmlns:xlink="http://www.w3.org/1999/xlink" xml:space="preserve" overflow="visible"><defs></defs><g><path d="M183.4 41.74C183.09 47.73 181.77 52.22 180.79 56.77 178.85 65.77 180.51 73.6 187.92 79.73 191.12 82.38 194.28 85.13 197.2 88.09 202.3 93.27 202.32 96.57 197.38 101.79 194.98 104.32 192.46 106.82 189.66 108.88 180.78 115.42 178.36 124.05 180.67 134.48 181.53 138.38 182.2 142.32 182.81 146.27 183.77 152.54 181.98 155.49 175.85 156.8 171.48 157.74 166.97 158.24 162.5 158.5 153.34 159.05 146.68 163.03 142.93 171.59 141.06 175.86 139.21 180.16 136.98 184.25 133.51 190.6 130.29 191.6 123.91 188.39 120.05 186.45 116.42 184.06 112.68 181.87 104.81 177.25 96.94 177.12 88.99 181.74 84.67 184.25 80.36 186.8 75.87 188.98 70.96 191.37 67.67 190.38 64.96 185.59 62.75 181.69 60.92 177.55 59.24 173.39 55.39 163.88 48.51 158.99 38.24 158.46 33.61 158.22 28.95 157.55 24.43 156.52 19.32 155.36 17.26 152.05 18.1 146.85 18.9 141.93 20.02 137.05 21.1 132.18 22.81 124.55 20.99 117.96 15.33 112.56 11.47 108.88 7.31 105.52 3.58 101.73-1.08 97-1.18 93.6 3.38 88.74 7.01 84.86 11.18 81.48 15.03 77.79 20.33 72.71 22.71 66.75 20.99 59.27 19.83 54.26 19.16 49.12 18.5 44.01 17.59 36.93 19.61 34.21 26.73 33.05 31.98 32.2 37.29 31.74 42.57 31.07 49.41 30.2 54.25 26.5 57.24 20.37 59.29 16.18 61.13 11.89 63.18 7.71 67.28-0.62 70.96-1.86 79.11 2.35 81.92 3.8 84.72 5.32 87.35 7.06 96 12.75 104.7 13.09 113.66 7.79 117.53 5.5 121.43 3.23 125.48 1.3 130.71-1.19 133.91-0.22 136.77 4.85 138.97 8.75 140.81 12.89 142.45 17.07 146.16 26.51 153.25 31.01 163.06 31.97 167.52 32.41 171.97 33.05 176.39 33.83 181.39 34.75 183.98 37.71 183.4 41.74ZM140.69 105.92C140.69 103.75 140.66 101.59 140.69 99.42 140.87 87.99 139.11 90.51 150.24 85.64 150.55 85.51 150.86 85.39 151.16 85.26 154.23 83.9 155.35 85 155.31 88.23 155.21 97.06 155.24 105.89 155.31 114.72 155.33 117.48 155.04 119.56 151.52 119.85 149.21 120.04 148.3 121.97 148.3 124.22 148.29 129.55 148.31 134.88 148.28 140.21 148.26 143.54 149.91 145.12 153.17 145.12 157.33 145.12 161.5 145.13 165.66 145.12 169 145.11 170.5 143.24 170.53 140.09 170.58 134.93 170.58 129.76 170.53 124.6 170.51 122.04 169.62 119.88 166.75 119.56 163.33 119.18 162.95 116.88 162.95 114.21 162.95 104.38 162.93 94.55 162.96 84.72 162.97 82.9 163.09 81.21 164.76 79.8 170.21 75.19 169.93 73.34 163.51 70.72 143.77 62.69 124 54.73 104.27 46.65 101.44 45.49 98.86 45.51 96.08 46.65 76.03 54.82 55.96 62.92 35.91 71.07 33.78 71.94 31.24 72.7 31.4 75.69 31.54 78.3 33.82 79.07 35.81 79.91 42.26 82.62 48.68 85.39 55.2 87.92 58.14 89.06 59.27 90.86 59.21 93.96 59.08 101.62 59.32 109.29 59.12 116.95 59.01 121.02 60.36 123.07 64.63 123.49 77.19 124.71 88.09 129.49 96.59 139.11 99.11 141.96 101.43 141.26 103.7 138.66 107.7 134.08 112.57 130.66 118.05 128.02 123.69 125.3 129.71 124.05 135.84 123.39 139.37 123.01 140.83 121.46 140.68 117.92 140.54 113.92 140.68 109.92 140.69 105.92Z" fill="#FFFFFF"/><path d="M55.74 255.67C54.45 255.43 53.84 254.38 53.09 253.51 49.7 249.62 46.26 245.76 42.98 241.77 40.97 239.33 38.84 238.38 35.58 239.27 30.61 240.62 25.51 241.47 20.45 242.51 17.52 243.11 15.9 242.81 17.29 239.05 25.59 216.56 33.77 194.02 41.93 171.47 43.28 167.73 45.24 167.84 47.83 170.09 50.16 172.12 51.41 174.85 52.68 177.58 54.5 181.51 56.17 185.52 58.22 189.32 61.62 195.66 66.47 199.5 74.3 198.6 78.81 198.08 76.36 201.38 75.85 202.85 71.37 215.75 66.71 228.58 62.1 241.43 60.69 245.35 59.3 249.27 57.81 253.16 57.41 254.17 57.28 255.55 55.74 255.67Z" fill="#FFFFFF"/><path d="M129.88 198.16C134.64 198.48 138.27 196.38 141.11 192.78 143.39 189.89 145.09 186.65 146.59 183.28 148.07 179.93 149.58 176.59 151.24 173.33 152.47 170.91 154.17 168.4 157.11 168.52 160.07 168.64 159.96 171.87 160.7 173.88 168.46 195.15 176.11 216.46 183.75 237.77 184.24 239.14 185.43 240.82 184.48 242 183.32 243.44 181.37 242.49 179.78 242.17 175.21 241.24 170.6 240.48 166.12 239.25 163.07 238.41 161.04 239.23 159.13 241.54 155.73 245.64 152.12 249.57 148.72 253.68 146.65 256.19 145.22 256.5 143.99 253.03 137.93 235.93 131.84 218.83 125.71 201.76 123.87 196.63 127.56 198.26 129.88 198.16Z" fill="#FFFFFF"/><path d="M100.1 97.73C98.73 97.27 97.13 96.83 95.6 96.21 80.49 90.08 65.39 83.91 50.29 77.75 49.08 77.26 47.2 77.1 47.07 75.76 46.89 73.88 49 73.75 50.29 73.22 65.84 66.84 81.41 60.51 96.98 54.17 98.7 53.47 100.34 52.99 102.26 53.78 118.43 60.4 134.63 66.95 150.81 73.55 151.84 73.97 153.39 74.27 153.13 75.69 153 76.39 151.76 77.07 150.89 77.42 134.87 83.97 118.83 90.47 102.79 96.96 102.02 97.27 101.2 97.43 100.1 97.73Z" fill="#FFFFFF"/><path d="M133.3 105.01C133.3 115.43 133.3 115.42 123.37 118.23 115.89 120.34 109.1 123.78 103.29 128.97 101.27 130.78 99.74 131.5 97.39 129.34 90.21 122.74 81.57 118.93 72.03 117.31 68.03 116.63 66.28 114.92 66.61 110.7 66.95 106.4 66.81 102.04 66.66 97.72 66.52 93.72 67.94 92.63 71.71 94.22 79.83 97.66 88.08 100.8 96.15 104.35 99 105.6 101.4 105.59 104.21 104.38 112.16 100.95 120.25 97.88 128.17 94.4 132.31 92.59 133.59 93.85 133.31 98.01 133.17 100.34 133.29 102.68 133.3 105.01Z" fill="#FFFFFF"/><path d="M154.65 131.65C154.27 128.03 154.44 125.03 159.76 125.08 165.58 125.13 164.89 128.91 164.94 132.53 164.99 136.12 165.2 139.44 159.81 139.54 153.51 139.65 154.61 135.54 154.65 131.65Z" fill="#FFFFFF"/></g></svg>