<svg width="216.6" height="204.66" viewBox="0 0 216.6 204.66" xmlns="http://www.w3.org/2000/svg" xmlns:xlink="http://www.w3.org/1999/xlink" xml:space="preserve" overflow="visible"><defs></defs><g><path d="M157.7 145.49C149.87 145.49 142.03 145.59 134.2 145.44 130.97 145.38 129.86 146.36 130.04 149.77 130.37 156.25 130.11 162.76 130.2 169.26 130.25 172.9 129.02 174.73 124.97 174.66 113.81 174.47 102.64 174.5 91.47 174.65 87.78 174.7 86.3 173.18 86.37 169.66 86.49 163.33 86.27 156.98 86.75 150.68 87.06 146.68 85.92 145.32 81.91 145.36 66.91 145.51 51.91 145.44 36.91 145.4 30.84 145.39 30.42 144.95 30.36 138.84 30.31 133.51 30.21 128.17 30.38 122.84 30.5 119.15 29.28 117.62 25.33 117.25 11.51 115.96 2.37 108.28 0.24 96.78-0.56 92.47 0.65 90.75 4.01 91.17 6.21 91.44 6.43 93.04 6.94 94.65 10.52 106.13 15.8 110.05 27.65 110.08 32.82 110.09 37.98 110.16 43.15 110.04 52.24 109.84 59.05 104.35 60.9 95.45 61.56 92.25 62.77 90.39 66.16 91.28 69.59 92.19 68.35 94.87 67.87 97.04 65.27 108.66 56.12 116.36 43.08 117.21 38.68 117.5 37.49 118.94 37.51 123.19 37.6 138.16 37.45 138.16 52.41 138.16 62.74 138.16 73.08 138.08 83.41 138.2 86.62 138.24 88.91 137.44 91.11 134.77 100.92 122.88 116.15 123.07 125.82 135.1 127.58 137.29 129.41 138.21 132.15 138.19 146.15 138.11 160.15 138.07 174.15 138.21 177.88 138.25 179.24 136.84 179.02 133.2 178.81 129.71 178.79 126.19 179.02 122.71 179.27 118.93 177.97 117.54 174 117.27 160.29 116.34 151.01 108.51 148.69 96.51 148.29 94.43 147.29 92.01 150.49 91.26 153.55 90.54 154.92 91.98 155.59 95.06 157.69 104.68 164.25 109.91 174 110.06 179.67 110.14 185.33 110.13 191 110.06 200.38 109.94 206.56 105.12 209.25 96 209.67 94.59 209.97 92.97 210.87 91.91 211.89 90.71 213.67 90.88 215.08 91.5 217.07 92.38 216.6 94.28 216.44 95.87 215.46 105.52 206.93 114.3 196.7 116.71 193.49 117.47 189.29 116.04 187.21 118.66 184.79 121.71 186.27 126.07 186.24 129.84 186.13 145.46 186.19 145.47 170.69 145.47 166.36 145.48 162.03 145.48 157.7 145.49Z" fill="#FFFFFF"/><path d="M108.04 204.66C84.24 204.66 60.44 204.67 36.64 204.65 30.48 204.64 30.06 204.11 30.89 197.99 32.57 185.62 42.44 176.59 56.33 176.44 90.94 176.07 125.57 176.08 160.18 176.44 174.08 176.58 183.98 185.59 185.65 197.95 186.48 204.08 186.04 204.65 179.94 204.65 155.97 204.67 132.01 204.66 108.04 204.66Z" fill="#FFFFFF"/><path d="M108.38 77.66C89.81 77.69 74.92 62.95 74.93 44.55 74.94 25.39 89.33 10.98 108.4 11.04 127.21 11.1 141.52 25.45 141.6 44.32 141.68 62.77 126.87 77.63 108.38 77.66ZM127.38 34.77C126.87 34.21 126.32 33.32 125.53 32.8 124.2 31.92 123.4 33.17 122.58 33.91 118.61 37.47 114.66 41.04 110.72 44.64 102.83 51.87 102.83 51.88 95.24 44.07 95.12 43.95 95.03 43.81 94.9 43.71 93.48 42.64 92.5 39.87 90.11 42.27 87.99 44.41 90.33 45.52 91.42 46.72 94.1 49.68 97.08 52.38 99.64 55.44 101.61 57.79 103.09 57.86 105.33 55.8 112.07 49.6 118.97 43.56 125.8 37.46 126.53 36.8 127.43 36.24 127.38 34.77Z" fill="#FFFFFF"/><path d="M33.93 85.64C24.93 85.64 15.93 85.55 6.93 85.68 2.75 85.74 0.77 84.14 0.89 79.8 1.06 73.64 0.83 67.47 0.96 61.3 1.15 52.52 4.84 45.26 10.92 39.07 13.16 36.79 14.88 36.44 17.58 38.89 27.65 48.02 40.68 48.11 50.49 39.05 53.41 36.35 55.03 36.98 57.43 39.39 63.61 45.59 66.94 53.04 67.38 61.68 67.69 67.66 67.42 73.68 67.48 79.68 67.52 83.81 65.71 85.76 61.43 85.69 52.26 85.55 43.09 85.64 33.93 85.64Z" fill="#FFFFFF"/><path d="M182.52 85.64C173.53 85.64 164.54 85.52 155.55 85.69 151.18 85.77 148.91 84.13 149.07 79.62 149.35 71.82 148.31 63.97 149.91 56.22 151.37 49.12 154.93 43.27 160.21 38.36 162.02 36.68 163.53 36.46 165.27 38.4 173.95 48.04 191.09 47.83 199.37 38.68 201.38 36.46 203.4 36.85 205.38 38.84 211.5 44.96 215.31 52.18 215.56 60.95 215.74 67.1 215.46 73.27 215.66 79.43 215.8 83.9 214 86.01 209.49 85.65 209.32 85.64 209.16 85.65 208.99 85.65 200.17 85.64 191.35 85.64 182.52 85.64Z" fill="#FFFFFF"/><path d="M182.66 43.69C169.85 43.74 160.92 34.97 160.82 22.23 160.72 9.22 169.73-0.01 182.52-3.55271e-15 194.83 0.01 204.4 9.54 204.43 21.83 204.46 34.17 195.03 43.64 182.66 43.69Z" fill="#FFFFFF"/><path d="M55.66 21.77C55.69 34.69 46.98 43.64 34.32 43.69 21.62 43.74 12.04 34.31 12.1 21.79 12.15 9.52 21.75-0.02 34.04 0 46.66 0.02 55.63 9.05 55.66 21.77Z" fill="#FFFFFF"/></g></svg>