<svg width="179.23" height="231.75" viewBox="0 0 179.23 231.75" xmlns="http://www.w3.org/2000/svg" xmlns:xlink="http://www.w3.org/1999/xlink" xml:space="preserve" overflow="visible"><defs></defs><g><path d="M89.85 231.75C69.06 230.89 48.84 231.35 29.16 226.02 23.2 224.4 17.33 222.52 12.1 219.11-0.77 210.73-3.77 195.09 5.01 182.44 8.3 177.7 12.63 174.03 17.36 170.9 28.77 163.34 40.69 156.69 53.41 151.57 68.5 145.49 70.27 139.35 60.45 126.56 47.86 110.17 40.76 91.93 41.5 71 42.38 45.87 57.04 27.61 80.86 23.94 117.36 18.31 137.24 42.41 138.14 70.61 138.52 82.49 136.7 93.81 132.07 104.73 129.44 110.94 123.45 113.57 117.08 110.92 110.79 108.3 104.36 108.4 97.97 109.85 91.3 111.37 87.35 117.39 88.09 124.04 88.81 130.5 93.78 135.1 100.52 135.48 102.18 135.57 103.87 135.69 105.51 135.52 110.8 134.97 114.58 135.66 114.17 142.58 113.97 146 117.29 147.89 120.01 149.55 124.44 152.25 129.39 153.82 134.16 155.79 146.03 160.7 157.66 166.03 167.65 174.4 177.24 182.44 180.52 192.73 178.8 204.79 177.98 210.53 174.74 214.89 169.96 218.14 160.01 224.9 148.53 227.05 137 228.88 121.16 231.4 105.12 230.88 89.85 231.75Z" fill="#FFFFFF"/><path d="M169.82 92.66C169.82 96.49 170.01 100.33 169.78 104.15 169.24 113.12 162.45 118.5 153.72 116.63 150.85 116.02 148.64 116.33 146.2 117.82 140.16 121.5 133.52 123.64 126.61 125.01 122.29 125.87 118.16 126.73 114.02 128.94 109.27 131.48 103.26 130.68 97.94 129.21 95.03 128.4 93.54 125.65 93.54 122.56 93.55 119.28 95.11 116.57 98.26 115.58 103.43 113.94 108.98 113.46 113.89 115.8 117.53 117.53 120.84 117.66 124.47 116.88 126.26 116.5 128.05 116.1 129.8 115.58 143.74 111.51 143.73 111.5 143.73 97.25 143.73 92.59 143.67 87.92 143.78 83.26 143.89 78.67 144.65 74.23 148.48 71.08 150.63 69.31 150.52 67.03 150.21 64.68 146.27 34.8 119.58 11.79 89.14 12.02 59.25 12.25 32.8 35.52 29.16 64.8 28.84 67.41 29.11 69.66 31.34 71.54 33.57 73.41 34.86 75.96 35.14 78.91 36 88.05 36.21 97.22 35.08 106.32 34.23 113.21 29.13 117.13 22.24 117 15.35 116.87 10.02 111.97 9.69 104.66 9.33 96.68 9.52 88.67 9.65 80.68 9.7 77.63 10.54 74.53 12.96 72.56 16.13 69.97 16.84 66.58 17.33 62.89 21.82 29.13 49.77 3.06 83.98 0.25 124.11-3.04 157.88 27.1 162.16 63.38 162.55 66.69 163.17 69.81 166.1 72.19 168.97 74.52 169.75 78.07 169.83 81.67 169.91 85.33 169.85 89 169.85 92.67 169.83 92.66 169.83 92.66 169.82 92.66Z" fill="#FFFFFF"/></g></svg>