<svg width="228.81" height="228.85" viewBox="0 0 228.81 228.85" xmlns="http://www.w3.org/2000/svg" xmlns:xlink="http://www.w3.org/1999/xlink" xml:space="preserve" overflow="visible"><defs></defs><g><path d="M90.14 79.29C87.81 80.85 88.66 83.04 88.65 84.86 88.58 101.69 88.63 118.52 88.56 135.34 88.55 137.04 89.48 139.38 87.38 140.29 85.51 141.1 83.96 139.36 82.53 138.32 75.71 133.35 72.4 126.38 72.27 118.15 72.03 103.66 71.97 89.16 72.27 74.67 72.57 59.89 82.91 49.63 97.69 49.28 108.85 49.02 120.02 49 131.18 49.29 145.96 49.67 156.21 59.95 156.5 74.77 156.78 89.09 156.73 103.43 156.51 117.75 156.37 126.58 152.79 133.89 145.3 138.95 144.1 139.76 142.83 141.07 141.25 140.28 139.59 139.45 140.19 137.62 140.19 136.21 140.15 119.05 140.19 101.89 140.11 84.73 140.1 82.93 141.01 80.73 138.69 79.18 136.89 81.07 137.61 83.34 137.61 85.36 137.57 130.68 137.58 176 137.57 221.31 137.57 228.67 137.55 228.68 130.05 228.69 127.72 228.69 125.38 228.7 123.05 228.69 116.06 228.67 116.04 228.67 116.04 221.43 116.03 197.1 116.06 172.78 115.98 148.45 115.97 146.67 117.01 143.51 114.43 143.46 111.72 143.41 112.79 146.59 112.79 148.34 112.71 173 112.6 197.66 112.84 222.31 112.89 227.39 111.36 229.31 106.32 228.73 103.52 228.41 100.66 228.68 97.83 228.67 91.29 228.64 91.2 228.59 91.2 221.9 91.19 176.41 91.2 130.93 91.16 85.44 91.16 83.46 91.88 81.2 90.14 79.29Z" fill="#FFFFFF"/><path d="M60.8 91.86C59 94.13 59.62 96.37 59.62 98.4 59.58 139.38 59.59 180.35 59.59 221.33 59.59 228.68 59.57 228.68 52.07 228.69 40.04 228.71 40.04 228.71 40.04 216.47 40.04 196.32 40.04 176.16 40.03 156.01 40.03 154.68 40.03 153.34 39.9 152.02 39.82 151.18 39.45 150.36 38.42 150.33 37.37 150.3 36.96 151.12 36.88 151.95 36.74 153.44 36.74 154.94 36.74 156.44 36.73 178.26 36.74 200.08 36.73 221.9 36.73 228.67 36.7 228.67 29.76 228.69 17.17 228.74 17.17 228.74 17.17 215.9 17.17 176.76 17.18 137.61 17.13 98.47 17.13 96.44 17.87 94.17 16.02 92.14 13.83 93.58 14.63 95.75 14.62 97.51 14.54 112.67 14.59 127.82 14.54 142.98 14.53 144.55 15.22 146.61 13.41 147.52 11.66 148.39 10.28 146.84 9.02 145.85 3.33 141.4 0.05 135.66 0.04 128.29 0.03 114.47-0.06 100.64 0.07 86.82 0.18 74.49 9.67 65.12 22.05 65.01 33.04 64.91 44.04 65.02 55.03 64.97 57.75 64.96 60.31 65.49 62.82 66.47 67.42 68.26 69.91 70.97 69.74 76.55 69.32 90.03 69.69 103.53 69.57 117.02 69.52 122.67 70.72 127.86 73.53 132.78 76.09 137.26 69.58 147.83 64.32 147.73 61.36 147.68 62.26 145.12 62.25 143.55 62.17 128.39 62.22 113.24 62.16 98.08 62.14 96.19 62.8 94.1 60.8 91.86Z" fill="#FFFFFF"/><path d="M167.95 92C165.9 93.95 166.63 96.07 166.62 97.94 166.55 112.93 166.6 127.92 166.55 142.91 166.55 144.5 167.22 146.59 165.51 147.5 163.59 148.52 162.13 146.71 160.68 145.71 158.31 144.07 156.65 141.78 155.13 139.36 153.74 137.16 153.65 135.15 155.12 132.88 158.29 127.97 159.28 122.5 159.22 116.68 159.09 103.86 159.18 91.03 159.18 78.2 159.18 69.87 161.83 65.84 170.13 65.4 183.58 64.69 197.13 64.58 210.56 65.4 220.4 66 228.49 75.73 228.65 85.69 228.89 100.34 228.87 115.01 228.65 129.66 228.55 136.38 225.12 141.68 219.87 145.78 218.59 146.78 217.22 148.3 215.48 147.59 213.54 146.8 214.23 144.7 214.22 143.14 214.17 127.98 214.22 112.83 214.15 97.67 214.14 95.86 214.88 93.72 212.76 92.06 210.94 94.05 211.64 96.32 211.64 98.34 211.6 139.31 211.61 180.29 211.6 221.26 211.6 228.68 211.58 228.68 204.15 228.7 192.04 228.73 192.04 228.73 192.04 216.55 192.04 196.56 192.04 176.57 192.04 156.59 192.04 155.42 192.06 154.26 192 153.09 191.94 151.95 192.04 150.48 190.5 150.37 188.87 150.25 188.86 151.72 188.8 152.87 188.72 154.2 188.75 155.53 188.75 156.87 188.75 178.86 188.64 200.84 188.84 222.83 188.88 227.42 187.41 228.83 182.86 228.8 169.2 228.7 169.19 228.87 169.19 214.99 169.19 176.18 169.2 137.37 169.15 98.56 169.13 96.5 169.84 94.25 167.95 92Z" fill="#FFFFFF"/><path d="M114.25 0C127.06-0.04 137.44 10.3 137.5 23.16 137.56 35.67 126.68 46.63 114.27 46.56 102.05 46.49 91.41 35.8 91.26 23.42 91.11 10.64 101.51 0.04 114.25 0Z" fill="#FFFFFF"/><path d="M38.16 61.68C26.6 61.61 16.99 51.7 17.23 40.11 17.47 28.7 27.13 19.1 38.35 19.09 49.78 19.08 59.62 29.06 59.52 40.56 59.43 52.26 49.82 61.75 38.16 61.68Z" fill="#FFFFFF"/><path d="M190.83 61.68C179.11 61.81 169.51 52.51 169.24 40.78 168.98 29.35 178.78 19.2 190.2 19.09 201.63 18.98 211.51 28.84 211.54 40.39 211.56 51.86 202.13 61.56 190.83 61.68Z" fill="#FFFFFF"/></g></svg>