<svg width="236.99" height="236.36" viewBox="0 0 236.99 236.36" xmlns="http://www.w3.org/2000/svg" xmlns:xlink="http://www.w3.org/1999/xlink" xml:space="preserve" overflow="visible"><defs></defs><g><path d="M145.79 178.81C153.35 179.44 159.81 176.53 166.08 172.84 179 165.25 191.95 157.7 204.91 150.18 210.97 146.67 217.07 143.24 224.16 142.18 229.89 141.32 234.29 143.45 236.1 148.03 238.17 153.25 236.57 158.42 231.66 161.45 204.88 177.98 178.07 194.47 151.25 210.94 144.18 215.28 136.71 215.99 128.69 213.78 110.56 208.79 92.35 204.1 74.2 199.17 70.82 198.25 67.72 197.88 64.74 200.18 62.67 201.79 61.15 201.09 59.92 198.91 53.48 187.44 47.02 175.98 40.5 164.55 39.2 162.27 39.89 160.87 41.99 159.68 53.15 153.37 64.2 146.87 75.47 140.76 82.56 136.91 89.98 136.77 97.65 139.71 111.18 144.89 124.87 149.58 139.08 152.63 145.1 153.93 148.3 158.73 147.08 163.87 145.79 169.29 141.28 172.03 135.1 170.57 127.17 168.71 119.33 166.42 111.45 164.33 110 163.95 108.56 163.52 107.08 163.3 105.14 163.01 103.28 163.27 102.8 165.62 102.36 167.76 103.41 169.19 105.47 169.75 118.81 173.37 131.85 178.14 145.79 178.81Z" fill="#FFFFFF"/><path d="M137.68 119.23C136.29 119.79 134.94 120.1 133.84 120.8 129.02 123.89 125.18 122.89 121.98 118.31 121.32 117.37 120.44 116.52 119.51 115.84 115.26 112.71 114.01 109.08 117.19 104.41 119.09 101.62 118.7 98.84 116.91 96.04 116.02 94.66 115.28 93.07 114.93 91.47 113.77 86.07 110.75 82.65 105.26 81.48 102.54 80.9 101.51 78.99 101.55 76.34 101.58 74.34 101.75 72.31 101.48 70.35 100.63 64.3 102.7 60.41 108.98 59.11 111.45 58.6 112.91 56.92 113.58 54.39 114.13 52.31 114.78 50.14 115.93 48.36 118.88 43.83 119.03 39.52 116.01 35 114.33 32.49 115.09 30.31 117.32 28.44 118.46 27.48 119.59 26.44 120.49 25.26 124.47 20.06 128.89 17.38 135.13 21.91 136.73 23.07 138.6 22.69 140.36 21.79 142.29 20.81 144.19 19.55 146.25 19.11 151.84 17.9 155.39 14.92 156.61 9.19 157.19 6.47 159.25 5.58 161.9 5.72 163.39 5.8 164.92 5.87 166.39 5.7 172.84 4.93 177.94 6.05 179.17 13.72 179.51 15.83 181.34 16.91 183.38 17.58 185.75 18.36 188.27 18.99 190.33 20.3 194.47 22.93 198.36 22.99 202.43 20.39 205.27 18.58 207.73 19.03 209.85 21.7 210.67 22.74 211.62 23.74 212.68 24.52 218.24 28.6 220.55 33.27 215.9 39.56 214.82 41.02 215.19 42.64 216.07 44.25 217.18 46.29 218.44 48.38 218.94 50.6 220.14 56.02 223.17 59.37 228.6 60.62 231.28 61.24 232.33 63.17 232.34 65.8 232.35 67.8 232.15 69.83 232.44 71.79 233.32 77.82 231.35 81.76 225 82.99 222.28 83.52 220.88 85.44 220.23 88.15 219.77 90.08 219.14 92.09 218.06 93.71 215.02 98.22 214.99 102.59 217.88 107.12 219.51 109.67 218.82 111.8 216.58 113.68 215.31 114.75 214.02 115.88 213.06 117.22 209.18 122.63 204.63 124.25 198.77 120.21 196.9 118.92 195.03 119.46 193.15 120.52 191.42 121.5 189.61 122.54 187.71 122.98 182.2 124.25 178.37 127.04 177.38 132.91 177.33 133.23 177.17 133.57 176.96 133.81 172.62 138.6 166.97 135.28 161.99 136.18 159.45 136.64 157.11 135.76 156.61 132.97 155.52 126.78 151.29 124.34 145.81 122.8 142.99 122.01 140.37 120.44 137.68 119.23ZM200.39 70.35C200.34 51.28 185.86 36.92 166.73 36.97 147.85 37.02 132.77 52.05 132.98 70.6 133.2 89.38 148.1 104.02 166.96 103.98 186.01 103.92 200.44 89.42 200.39 70.35Z" fill="#FFFFFF"/><path d="M63.77 221.86C63.86 224.98 62.61 227.07 60.3 228.43 56.29 230.79 52.28 233.19 48.11 235.24 43.58 237.46 40.04 236.41 37.51 231.98 25.4 210.74 13.35 189.45 1.43 168.1-1.3 163.22-0.09 159.59 4.72 156.73 8.29 154.6 11.91 152.52 15.63 150.69 20.24 148.42 23.85 149.32 26.32 153.64 38.45 174.88 50.44 196.19 62.46 217.48 63.28 218.93 63.98 220.46 63.77 221.86Z" fill="#FFFFFF"/><path d="M77.1 115.2C75.02 113.84 72.31 112.46 70.07 110.53 66.15 107.15 62.77 107.22 58.61 110.41 55.93 112.46 52.5 116.76 49.45 114.45 46.98 112.58 49.92 107.98 50.96 104.8 52.48 100.2 51.99 96.74 47.51 94.3 46.79 93.91 46.1 93.36 45.57 92.74 43.83 90.7 39.47 89.93 40.55 86.77 41.38 84.36 45.4 84.72 47.77 85.03 55.8 86.1 59.16 81.98 60.82 74.97 61.31 72.9 61.52 69.52 64.26 69.55 66.91 69.58 66.8 73.01 67.8 75 68.17 75.74 68.5 76.53 68.68 77.33 69.89 82.77 72.73 85.57 78.8 84.92 81.91 84.59 86.76 84.03 87.83 86.98 88.91 89.95 84.38 91.8 81.9 93.38 76.88 96.58 75.44 100.36 77.85 105.84 78.78 107.94 79.19 110.3 79.64 112.57 79.92 113.98 79.66 115.33 77.1 115.2Z" fill="#FFFFFF"/><path d="M51.94 31.23C52.25 28.6 50.83 27.61 49.54 26.56 46.83 24.34 44.04 22.23 41.41 19.93 39.14 17.93 39.78 16.29 42.59 15.94 45.72 15.55 48.92 15.44 52.07 15.63 55.69 15.84 57.62 14.26 58.7 10.96 59.68 7.96 60.92 5.04 62.1 2.1 62.53 1.02 63.03-0.16 64.52 0.03 65.67 0.18 66.09 1.22 66.45 2.12 67.69 5.21 68.92 8.31 70.02 11.45 71.03 14.35 72.87 15.71 76.01 15.6 79.17 15.49 82.34 15.68 85.5 15.84 86.65 15.9 87.91 16.15 88.26 17.53 88.55 18.67 87.7 19.4 86.96 20.04 85.58 21.24 84.27 22.63 82.68 23.48 76.55 26.74 75.57 31.32 78.15 37.52 79.15 39.92 81.33 43.48 78.79 45.36 76.51 47.05 73.83 44 72.01 42.36 66.52 37.41 61.6 37.97 56.24 42.53 54.4 44.1 51.86 47.17 49.48 45.29 47.25 43.53 49.69 40.36 50.19 37.85 50.66 35.41 51.45 33.03 51.94 31.23Z" fill="#FFFFFF"/><path d="M188.8 60.32C189 62.53 187.63 64.37 185.94 66.06 179.82 72.18 173.75 78.35 167.56 84.4 163.63 88.24 160.22 88.3 156.2 84.64 153 81.73 149.86 78.74 146.94 75.56 144.27 72.66 143.74 69.33 146.58 66.15 149.15 63.28 152.86 63.43 156.38 66.36 162.18 71.18 162.18 71.17 167.63 65.73 171.05 62.32 174.43 58.88 177.93 55.56 180.04 53.55 182.57 52.98 185.28 54.34 187.55 55.49 188.75 57.37 188.8 60.32Z" fill="#FFFFFF"/></g></svg>