<svg width="248.9" height="230.27" viewBox="0 0 248.9 230.27" xmlns="http://www.w3.org/2000/svg" xmlns:xlink="http://www.w3.org/1999/xlink" xml:space="preserve" overflow="visible"><defs></defs><g><path d="M217.65 87.61C213.85 84.85 209.64 83.3 210.43 78.18 210.65 76.73 210.21 74.88 211.74 74.13 213.04 73.49 214.17 74.83 215.32 75.45 225.57 81.05 234.35 88.12 239.88 98.78 241.94 102.75 244.91 106.23 247.3 110.03 250 114.33 249.34 116.83 244.8 118.74 211.66 132.71 178.48 146.58 145.35 160.56 141.31 162.26 138.73 161.13 136.66 157.5 133.44 151.86 130.01 146.34 126.74 140.73 125.33 138.31 124.28 137.94 122.72 140.71 119.62 146.22 116.21 151.56 113.08 157.06 110.83 161.02 108.12 162.26 103.61 160.35 70.95 146.52 38.22 132.88 5.54 119.11-0.87 116.41-1.43 114.26 2.35 108.54 5.66 103.54 9.44 98.79 12.22 93.52 15.87 86.59 21.65 83.16 28.75 80.96 31.98 79.96 33.98 80.5 33.4 84.02 32.62 88.75 35.37 89.88 38.92 91.23 65.99 101.54 93.01 111.98 120.03 122.44 122.6 123.43 124.93 123.94 127.69 122.87 156.53 111.59 185.4 100.4 214.26 89.18 215.17 88.83 216.04 88.36 217.65 87.61Z" fill="#ED7D31"/><path d="M128.71 159.45C138.55 169.88 138.56 169.91 152.33 164.16 176.75 153.96 201.14 143.71 225.56 133.51 231.57 131 231.73 131.11 231.73 137.37 231.75 153.35 231.63 169.34 231.8 185.32 231.84 189.47 230.29 191.59 226.43 193.07 195.36 205 164.36 217.11 133.33 229.15 128.16 231.16 127.47 230.77 127.46 225.37 127.39 204.89 127.42 184.41 127.46 163.93 127.46 162.39 126.99 160.58 128.71 159.45Z" fill="#ED7D31"/><path d="M119.6 159.02C121.02 160.83 120.63 162.38 120.63 163.82 120.66 184.13 120.66 204.44 120.64 224.76 120.63 231 120.3 231.22 114.46 228.95 83.74 217.03 53.06 205.02 22.3 193.23 17.88 191.54 16.07 189.03 16.12 184.34 16.29 168.53 16.16 152.71 16.19 136.89 16.2 131.32 16.7 130.98 21.92 133.17 47.7 144 73.45 154.88 99.21 165.74 109.34 170.01 111.39 169.44 117.98 160.57 118.36 160.07 118.9 159.69 119.6 159.02Z" fill="#ED7D31"/><path d="M97.03 66.41C97.03 54.59 97.08 42.77 97 30.96 96.98 27.57 97.52 25.92 101.51 27.48 105.23 28.94 109.31 28.98 113.33 28.97 141.46 28.93 169.59 29.06 197.72 28.85 202.74 28.81 204.45 30.32 204.37 35.34 204.13 50.32 204.18 65.3 204.35 80.28 204.4 84.54 202.96 86.86 198.85 88.43 175.68 97.25 152.61 106.3 129.53 115.35 126.42 116.57 123.56 116.81 120.4 115.5 114.25 112.96 108.05 110.53 101.76 108.35 98.24 107.13 96.89 105.15 96.96 101.37 97.16 89.71 97.03 78.06 97.03 66.41ZM152.05 49.66C141.74 49.66 131.43 49.72 121.12 49.63 117.39 49.6 115.57 51.05 115.63 54.92 115.74 61.24 115.74 67.56 115.63 73.88 115.56 77.75 117.48 79.27 121.12 79.27 141.91 79.25 162.69 79.25 183.48 79.28 186.83 79.28 188.33 77.72 188.31 74.42 188.27 68.1 188.19 61.78 188.36 55.46 188.48 51.21 186.81 49.51 182.47 49.59 172.34 49.79 162.19 49.65 152.05 49.66Z" fill="#ED7D31"/><path d="M40.03 43.63C40.03 31.98 40 20.33 40.04 8.68 40.06 2.4 41.36 1.13 47.71 1.1 57.7 1.05 67.68 1.04 77.67 1.11 83.44 1.15 84.66 2.44 84.72 8.23 84.77 13.39 84.6 18.55 84.77 23.71 84.88 27.18 83.38 28.56 80.05 28.46 77.39 28.38 74.72 28.43 72.06 28.5 69.66 28.56 66.86 28.75 67.03 31.91 67.19 34.97 69.98 35.01 72.38 35.01 75.04 35.02 77.72 35.19 80.37 34.98 84.37 34.66 85.82 36.53 85.53 40.28 85.43 41.6 85.42 42.95 85.53 44.27 85.88 48.25 83.9 49.44 80.17 49.52 77.51 49.57 73.1 47.96 72.93 52.36 72.75 57.08 77.26 56.02 80.17 55.93 83.97 55.81 85.51 57.12 85.58 61.06 85.73 70.19 85.72 70.36 76.72 70.38 74.89 70.39 73.06 70.38 71.23 70.48 69.19 70.59 67.58 71.4 67.65 73.74 67.73 76.04 69.41 76.84 71.4 76.91 74.56 77.03 77.73 77.13 80.88 76.97 84.43 76.79 85.67 78.49 85.51 81.77 85.43 83.26 85.41 84.77 85.52 86.26 85.78 89.95 83.96 91.34 80.45 91.32 77.04 91.3 73.36 90.65 71.83 95.27 71.28 96.93 69.46 95.92 68.31 95.46 59.94 92.19 51.63 88.78 43.25 85.56 40.3 84.42 40 82.23 40.01 79.57 40.06 67.6 40.03 55.61 40.03 43.63Z" fill="#ED7D31"/><path d="M152.45 0.04C167.1 0.04 181.75 0.09 196.4 0 199.93-0.02 201.92 0.39 200.04 4.7 198.19 8.95 198.12 13.52 200.02 17.83 201.64 21.49 199.85 22.25 196.77 22.27 195.27 22.28 193.77 22.3 192.28 22.3 166.31 22.3 140.34 22.32 114.37 22.28 111.55 22.28 108.69 22.16 105.92 21.67 100.07 20.63 96.45 15.7 96.85 9.77 97.24 4.05 101.33 0.13 107.49 0.09 122.48-0.03 137.47 0.05 152.45 0.04ZM148.36 7.51C139.54 7.51 130.72 7.49 121.9 7.52 119.41 7.53 116.3 7.33 116.39 10.9 116.47 14.02 119.34 14.01 121.71 14.01 139.35 14.02 156.99 14.02 174.63 14.01 177.05 14.01 179.72 13.9 179.86 10.77 180.01 7.35 177.13 7.55 174.82 7.53 166 7.49 157.18 7.52 148.36 7.51Z" fill="#ED7D31"/></g></svg>