<svg width="238.21" height="240.74" viewBox="0 0 238.21 240.74" xmlns="http://www.w3.org/2000/svg" xmlns:xlink="http://www.w3.org/1999/xlink" xml:space="preserve" overflow="visible"><defs></defs><g><path d="M238.2 119.83C238.2 145.49 238.2 171.15 238.2 196.81 238.2 207.06 237.57 207.7 227.59 207.7 199.76 207.7 171.94 207.71 144.11 207.69 137.35 207.69 137.26 207.52 139.82 201.49 158.96 156.41 132.29 106.14 84.09 96.45 77.01 95.03 77 95.03 76.99 87.86 76.98 61.7 76.97 35.54 77 9.38 77.01 0.98 78.04 0 86.55 0 123.54 0 160.53-0.01 197.52 0 204.17 0 204.23 0.07 204.27 6.65 204.3 11.98 204.23 17.31 204.3 22.65 204.39 30.03 207.56 33.18 215.05 33.32 220.21 33.41 225.38 33.33 230.55 33.35 237.97 33.38 238.2 33.58 238.2 40.85 238.21 67.18 238.2 93.51 238.2 119.83ZM168.69 23.61C165.33 21.65 162.88 20.28 160.49 18.81 158.38 17.51 156.48 17.81 154.42 19.02 145.37 24.33 136.28 29.58 127.17 34.78 124.62 36.23 123.32 38.1 123.36 41.19 123.49 51.52 123.46 61.85 123.38 72.18 123.36 75 124.46 76.84 126.91 78.23 136.04 83.41 145.12 88.67 154.17 93.98 156.6 95.4 158.82 95.37 161.21 93.98 170.28 88.69 179.36 83.43 188.47 78.23 190.72 76.95 191.8 75.27 191.78 72.6 191.69 62.1 191.84 51.6 191.71 41.11 191.63 34.7 181.9 29.19 176.34 32.33 169.95 35.93 163.8 39.97 157.25 43.23 149.99 46.85 143.88 50.76 146.05 60.37 146.22 61.11 145.85 62.02 145.56 62.78 145.18 63.79 144.42 64.31 143.26 64.3 139.87 64.26 134.87 59.44 134.75 55.96 134.68 53.8 134.96 51.6 134.68 49.47 134.06 44.81 136.12 42.21 140.15 40.03 149.49 34.97 158.59 29.45 168.69 23.61ZM175.02 114.43C168.52 114.43 162.02 114.42 155.52 114.43 149.35 114.44 143.19 114.45 137.02 114.54 135.25 114.57 133.62 115.19 133.53 117.33 133.44 119.55 134.84 120.63 136.89 120.93 137.71 121.05 138.55 121.04 139.38 121.04 162.88 121.05 186.38 121.05 209.87 121.04 212.41 121.04 215.43 121.14 215.54 117.71 215.66 113.95 212.37 114.49 210 114.47 198.35 114.4 186.69 114.44 175.02 114.43ZM182.48 187.99C191.46 187.99 200.45 188.02 209.43 187.97 212.09 187.96 215.4 188.14 215.54 184.5 215.68 180.79 212.39 180.78 209.7 180.77 191.56 180.74 173.43 180.74 155.29 180.77 152.72 180.77 149.71 180.96 149.65 184.24 149.59 187.9 152.81 187.97 155.52 187.98 164.51 188.02 173.49 187.99 182.48 187.99ZM179.92 143.12C190.08 143.12 200.25 143.14 210.41 143.1 212.71 143.09 215.5 143.41 215.67 140.02 215.83 136.62 213.16 136.6 210.76 136.6 190.43 136.58 170.11 136.58 149.78 136.61 147.39 136.61 144.59 136.72 144.67 139.93 144.74 143.11 147.56 143.09 149.93 143.1 159.92 143.13 169.92 143.12 179.92 143.12ZM183.07 165.26C192.24 165.26 201.4 165.29 210.57 165.24 212.9 165.23 215.72 165.35 215.64 161.97 215.57 158.71 212.85 158.71 210.47 158.71 192.14 158.69 173.81 158.69 155.48 158.71 153.09 158.71 150.39 158.78 150.41 162.06 150.43 165.43 153.27 165.23 155.58 165.24 164.74 165.29 173.91 165.26 183.07 165.26Z" fill="#FFFFFF"/><path d="M69.41 240.74C31.11 240.7-0.38 209.68 0 171.48 0.44 127.62 36.87 101.21 70.21 101.86 108.47 102.6 139.35 133.13 139.32 171.52 139.28 209.96 108.16 240.77 69.41 240.74ZM82.79 149.93C79.72 150.43 79.2 153.18 78 155.22 76.81 157.24 78.3 158.23 79.8 159.14 91.04 165.95 102.34 172.66 113.48 179.64 117.64 182.25 118.99 179.66 120.7 176.74 122.41 173.82 123.21 171.64 119.25 169.57 108.05 163.72 97.03 157.5 85.94 151.44 84.92 150.89 83.85 150.44 82.79 149.93ZM47.51 207.07C53.5 207.07 59.48 206.99 65.47 207.1 68.81 207.16 69.73 205.51 69.73 202.47 69.73 199.41 69.27 197.28 65.49 197.31 53.85 197.4 42.21 197.38 30.57 197.32 27.07 197.3 25.98 199.03 25.96 202.28 25.94 205.56 26.98 207.23 30.55 207.13 36.2 206.95 41.86 207.07 47.51 207.07ZM74.54 142.83C73.97 142.17 73.65 141.54 73.13 141.23 68.99 138.75 64.83 136.32 60.65 133.92 59.15 133.06 58.33 133.88 57.45 135.15 50.54 145.12 50.52 145.1 61.12 151.3 62.41 152.06 63.69 152.83 64.99 153.57 65.86 154.06 67.13 154.82 67.72 153.95 70.11 150.37 72.24 146.63 74.54 142.83ZM87.13 130.23C87.13 129.06 86.33 128.42 85.47 127.92 79 124.16 72.51 120.43 66.03 116.68 63.15 115.01 62.28 117.33 61.07 119.09 59.73 121.05 59.54 122.69 61.92 124.04 68.28 127.66 74.56 131.42 80.96 134.97 83.58 136.42 87.33 133.41 87.13 130.23ZM43.37 152.06C41.17 152.44 40.76 154.41 39.93 155.96 38.97 157.74 39.55 159.16 41.25 160.15 47.56 163.81 53.9 167.43 60.19 171.14 62.92 172.75 64.02 171.02 65.22 169.02 66.37 167.11 67.04 165.39 64.62 163.99 58.02 160.17 51.4 156.36 44.79 152.57 44.36 152.33 43.85 152.23 43.37 152.06ZM48.51 184.69C44.37 184.69 40.23 184.67 36.1 184.7 35.09 184.71 33.94 184.91 33.8 186.11 33.62 187.72 34.93 187.96 36.12 187.96 44.07 187.99 52.01 187.98 59.96 187.96 60.97 187.96 62.12 187.78 62.26 186.57 62.44 184.96 61.13 184.71 59.94 184.7 56.13 184.65 52.32 184.68 48.51 184.69Z" fill="#FFFFFF"/><path d="M224.36 26.69C209.47 26.57 210.88 28.62 210.82 13.06 210.81 9.9 210.76 6.74 210.89 3.59 211 0.76 212.43 0.37 214.33 2.25 221.42 9.26 228.49 16.3 235.46 23.43 237.52 25.54 236.41 26.64 233.84 26.68 230.68 26.72 227.52 26.69 224.36 26.69Z" fill="#FFFFFF"/></g></svg>