<svg width="251.46" height="256.81" viewBox="0 0 251.46 256.81" xmlns="http://www.w3.org/2000/svg" xmlns:xlink="http://www.w3.org/1999/xlink" xml:space="preserve" overflow="visible"><defs></defs><g><path d="M0.04 140.51C0.04 113.69 0.02 86.88 0.04 60.06 0.05 51.5 3.25 48.22 11.69 48.16 21.02 48.1 30.35 48.32 39.67 48.07 44.11 47.95 45.66 49.71 45.43 53.94 45.26 57.09 45.37 60.26 46.89 63.21 50.03 69.31 56.38 72.31 63.73 71.09 70.1 70.03 75.08 64.29 75.94 57.03 77 48.15 77 48.14 86.04 48.15 94.03 48.15 102.03 48.07 110.02 48.19 117.4 48.3 120.72 51.63 120.73 58.93 120.78 88.41 120.71 117.89 120.83 147.37 120.84 151.03 119.82 152.81 115.96 153.21 107.09 154.14 98.68 156.64 91.16 161.67 77.81 170.59 74.8 181.78 82.25 195.84 83.46 198.12 83.12 199.52 81.18 200.89 78.84 202.54 76.27 203.7 73.59 204.64 72.47 205.03 71.26 205.4 71.06 206.76 70.82 208.41 72.17 209.06 73.31 209.72 81.72 214.52 90.58 215.99 99.66 212.19 106.54 209.31 112.66 213.11 119.14 213.54 120.49 213.63 120.55 215.16 120.74 216.34 122.45 227.33 121.32 228.66 110.2 228.66 75.72 228.66 41.24 228.67 6.77 228.65 0.14 228.65 0.04 228.55 0.04 221.97 0.04 194.81 0.05 167.66 0.04 140.51ZM93.04 117.57C93.18 99.92 78.47 84.96 60.78 84.76 43.14 84.56 28.43 99.04 28 117.03 27.58 134.61 42.83 149.92 60.74 149.89 78 149.87 92.91 134.95 93.04 117.57Z" fill="#FFFFFF"/><path d="M206.14 0.01C217.21-0.2 228.23 2.35 238.07 9.06 248.39 16.09 254.06 29.25 243.47 41.11 241.58 43.23 241.9 44.97 243.78 46.68 245.13 47.91 246.64 48.96 247.99 50.2 249.17 51.28 251.71 51.53 251.44 53.36 251.13 55.48 248.59 55.2 246.92 55.65 241.38 57.14 235.97 56.42 230.87 54.05 227.64 52.55 224.63 52.56 221.22 53.36 205.24 57.11 189.78 55.79 175.38 47.49 168.22 43.36 162.67 37.73 162.08 28.8 161.56 20.91 165.27 14.99 171.26 10.4 181.31 2.69 192.94-0.15 206.14 0.01Z" fill="#FFFFFF"/><path d="M123.02 209.19C121.7 209.07 120.37 208.99 119.05 208.82 110.25 207.69 101.54 205.71 92.77 209.66 89.45 211.16 85.54 210.04 82 208.93 79.54 208.16 79.49 207.03 81.55 205.63 82.24 205.16 82.95 204.73 83.61 204.22 89.44 199.77 89.51 199.36 85.47 193.3 79.81 184.8 81.42 175.07 89.67 167.84 105.72 153.78 138.97 153.25 155.53 166.79 167.75 176.78 167.43 190.54 154.62 199.91 145.24 206.76 134.42 208.98 123.02 209.19ZM124.06 179.09C131.2 179.09 138.34 179.13 145.48 179.06 147.2 179.05 149.68 179.48 149.63 176.82 149.59 174.61 147.36 174.79 145.73 174.79 131.28 174.77 116.84 174.76 102.39 174.8 100.63 174.8 98.12 174.6 98.24 177.11 98.36 179.65 100.94 179.04 102.64 179.06 109.78 179.13 116.92 179.09 124.06 179.09ZM123.48 192.07C128.12 192.07 132.75 192.09 137.39 192.06 138.9 192.05 140.71 191.98 140.75 189.99 140.79 188 139.04 187.81 137.5 187.81 128.39 187.79 119.29 187.79 110.18 187.82 108.64 187.83 106.96 188.09 107.08 190.14 107.18 191.85 108.72 192.04 110.07 192.05 114.54 192.07 119.01 192.05 123.48 192.07Z" fill="#FFFFFF"/><path d="M60.49 232.41C78.3 232.41 96.11 232.39 113.92 232.42 120.75 232.43 120.79 232.52 120.81 239.47 120.82 241.8 120.85 244.13 120.8 246.46 120.64 253.63 117.58 256.74 110.32 256.75 80.03 256.8 49.73 256.77 19.44 256.77 15.94 256.77 12.44 256.88 8.96 256.7 3.58 256.43 0.13 253.24 0.16 247.83 0.24 229.55-2.73 232.64 14.56 232.43 29.86 232.26 45.17 232.41 60.49 232.41Z" fill="#FFFFFF"/><path d="M71.67 54.02C71.92 60.13 69.89 64.21 64.91 66.51 60.67 68.46 56.7 67.62 53.26 64.69 48.95 61.03 48.81 56.01 49.32 50.9 49.53 48.79 51.08 48.23 52.9 48.22 57.9 48.19 62.9 48.17 67.89 48.22 72.78 48.26 71.36 52.05 71.67 54.02Z" fill="#FFFFFF"/><path d="M88.71 117.32C88.68 132.91 76 145.65 60.48 145.66 44.99 145.67 32.22 132.91 32.13 117.34 32.04 101.93 44.92 89.09 60.46 89.09 76.18 89.09 88.74 101.65 88.71 117.32ZM43.56 128.95C43.54 128.95 43.52 128.95 43.5 128.95 43.5 129.78 43.43 130.62 43.52 131.44 43.69 132.98 43.15 135.3 45.5 135.27 47.48 135.24 47.14 133.09 47.16 131.68 47.2 129 47.29 126.34 48.44 123.87 50.01 120.51 51.67 117.78 56.36 119.81 59.24 121.05 62.66 120.84 65.63 119.48 68.44 118.19 70 119.37 71.4 121.57 73.36 124.65 73.76 128.06 73.73 131.61 73.72 133.2 73.46 135.39 75.89 135.29 77.73 135.21 77.98 133.37 77.95 131.83 77.86 127.99 77.95 123.83 75.59 120.79 72.51 116.83 71.75 112.91 72.2 108.01 72.71 102.46 68.71 98.05 63.44 96.87 57.6 95.57 50.48 98 50.02 103.31 49.27 111.92 45.74 119.44 43.59 127.47 43.45 127.92 43.56 128.45 43.56 128.95Z" fill="#FFFFFF"/><path d="M60.59 100.5C64.84 100.55 68.61 104.35 68.57 108.54 68.54 112.78 64.78 116.54 60.57 116.55 56.44 116.56 52.56 112.68 52.53 108.52 52.51 104.45 56.52 100.46 60.59 100.5Z" fill="#FFFFFF"/></g></svg>