<svg width="250.85" height="152.06" viewBox="0 0 250.85 152.06" xmlns="http://www.w3.org/2000/svg" xmlns:xlink="http://www.w3.org/1999/xlink" xml:space="preserve" overflow="visible"><defs></defs><g><path d="M250.79 110.33C250.79 119.16 250.78 127.99 250.79 136.82 250.79 139.11 250.68 141.24 247.55 141.34 232.26 141.8 217.8 146.77 202.96 149.65 195.07 151.18 187.08 151.24 179.14 152.01 176.07 152.31 174.18 151.67 175.9 147.83 178.26 142.55 177.17 137.64 173 133.69 171.22 132 170.99 130.73 172.17 128.58 175.14 123.18 174.65 117.97 170.32 113.45 168.68 111.74 168.49 110.45 169.58 108.25 172.94 101.5 171.96 96.55 166.31 91.3 164.27 89.41 163.79 87.28 164.59 85.02 165.54 82.31 168.01 83.62 169.81 83.85 173.47 84.33 176.79 85.98 180.15 87.44 182.88 88.63 183.29 91.04 183.8 93.53 186.11 104.82 191.93 114.2 199.79 122.41 200.75 123.41 201.93 125.34 203.43 124.08 205.28 122.52 203.38 121.09 202.29 119.97 195.91 113.42 191.01 105.97 188.34 97.19 187.95 95.9 186.66 94.15 188.2 93.08 189.4 92.25 190.58 93.78 191.73 94.37 192.85 94.94 194.15 96.34 195.23 94.82 196.53 92.99 194.56 92.21 193.46 91.39 182.28 83.08 169.96 78.58 155.78 79.33 149.07 79.69 142.54 78.09 136.54 74.83 131.27 71.97 127.9 67.56 126.48 61.77 125.12 56.26 127.87 53.04 133.4 54.11 149.68 57.27 166.14 57.48 182.62 57.88 192.31 58.12 201.46 60.36 209.29 66.4 220.14 74.77 232.53 78.47 246.03 78.71 249.76 78.78 250.93 80.29 250.87 83.85 250.69 92.67 250.8 101.5 250.79 110.33Z" fill="#ED7D31"/><path d="M80.31 102.41C55.65 102.41 30.98 102.31 6.32 102.5 1.63 102.54-0.04 101.27-0.01 96.36 0.2 66.2 0.17 36.04 0.02 5.88 0 1.55 1.37-0.01 5.71 0 55.53 0.09 105.36 0.08 155.18 0.02 159.01 0.02 160.94 1 160.87 5.37 160.66 19.86 160.76 34.36 160.82 48.86 160.83 51.69 160.57 54.09 156.89 53.38 153.62 52.76 148.43 55.52 148.21 49.03 148.02 43.54 148.06 38.03 148.18 32.54 148.24 29.76 147.5 27.8 144.83 26.51 139.9 24.12 136.11 20.35 133.34 15.69 131.8 13.09 129.87 12 126.86 12.01 95.87 12.07 64.87 12.06 33.88 12.02 31.13 12.02 29.17 12.88 27.71 15.35 24.86 20.17 20.98 24.06 15.91 26.56 13.47 27.77 12.68 29.55 12.7 32.17 12.78 44.83 12.78 57.5 12.7 70.16 12.68 72.94 13.5 74.88 16.08 76.23 21.08 78.83 25 82.7 27.75 87.58 29.2 90.14 31.12 90.86 33.87 90.86 64.86 90.81 95.86 90.8 126.85 90.88 129.88 90.89 131.67 89.82 133.27 87.23 137.66 80.13 137.78 80.28 146.03 81.73 149.46 82.34 152.95 82.68 156.43 82.91 159.51 83.11 160.86 84.43 160.79 87.61 160.41 105.69 163.41 102.19 146.77 102.36 124.64 102.59 102.48 102.41 80.31 102.41Z" fill="#ED7D31"/><path d="M80.19 87.4C65.7 87.4 51.2 87.31 36.71 87.46 33.35 87.49 31.09 86.52 29.31 83.59 26.94 79.71 23.66 76.56 19.73 74.26 17.14 72.75 16.07 70.82 16.1 67.79 16.24 56.8 16.23 45.8 16.1 34.8 16.06 31.76 17.18 29.86 19.73 28.31 23.62 25.96 26.96 22.83 29.37 19.01 31.3 15.95 33.63 14.89 37.17 14.91 65.83 15.02 94.48 15.01 123.14 14.92 126.76 14.91 129.51 15.68 131.47 19.05 133.86 23.15 137.51 26.15 141.52 28.6 143.72 29.95 144.83 31.64 144.76 34.29 144.63 38.78 144.65 43.29 144.75 47.78 144.83 51.31 143.49 52.5 139.87 51.79 132.54 50.36 125.17 48.92 117.62 49.43 116.08 49.53 113.63 48.84 113.59 51.13 113.55 53.51 116.1 52.94 117.54 52.81 121.82 52.43 123.29 53.74 122.88 58.38 122.31 64.91 125.64 70.16 130.19 74.7 131.68 76.19 135.52 76.98 133.89 79.66 131.91 82.92 130.65 87.52 125.17 87.43 114.51 87.25 103.85 87.38 93.18 87.39 88.85 87.4 84.52 87.4 80.19 87.4ZM108.38 51.53C108.46 35.81 96.42 23.44 80.93 23.31 64.81 23.17 52.61 35.03 52.45 50.99 52.3 66.82 64.48 79.45 80.13 79.7 95.6 79.93 108.31 67.27 108.38 51.53Z" fill="#ED7D31"/><path d="M145.24 113.74C150.73 113.74 156.22 113.64 161.71 113.77 166.89 113.89 170.11 116.82 170.52 121.46 170.94 126.13 167.87 130.33 162.7 130.64 150.43 131.37 138.1 131.72 125.85 130.42 120.72 129.88 117.41 126.08 117.48 122.02 117.56 117.98 121 114.44 126.29 114.1 132.58 113.69 138.92 114 145.24 114 145.24 113.91 145.24 113.83 145.24 113.74Z" fill="#ED7D31"/><path d="M152.33 151.39C148.34 151.39 144.35 151.51 140.37 151.36 135.13 151.17 132.24 148.31 132.03 143.41 131.82 138.4 134.28 134.91 139.36 134.44 148.12 133.63 156.96 133.63 165.72 134.43 170.89 134.9 173.95 138.95 173.57 143.61 173.19 148.2 169.96 151.16 164.79 151.35 160.64 151.51 156.48 151.39 152.33 151.39Z" fill="#ED7D31"/><path d="M138.15 105.86C144.64 105.86 151.14 105.62 157.61 105.94 162.37 106.18 165.02 105.03 164.31 99.68 164.16 98.51 163.7 96.52 165.37 96.28 167.26 96.01 167.48 98.02 167.79 99.43 169 104.94 165.89 109.88 160.18 110.02 145.73 110.36 131.25 110.61 116.81 109.52 116.15 109.47 115.47 109.38 114.85 109.17 113.78 108.81 112.27 108.53 112.38 107.16 112.51 105.58 114.13 105.92 115.2 105.91 122.85 105.86 130.5 105.88 138.15 105.88 138.15 105.88 138.15 105.87 138.15 105.86Z" fill="#ED7D31"/><path d="M80.5 26.73C94.32 26.75 105.17 37.69 105.12 51.54 105.07 64.84 93.89 76.07 80.57 76.2 67.24 76.33 55.52 64.68 55.6 51.39 55.68 37.65 66.72 26.71 80.5 26.73ZM78.57 57.57C78.38 58 79.22 59.71 77.47 60.26 75.76 60.79 74.7 59.62 73.74 58.4 72.93 57.37 72.66 54.82 70.73 56.27 68.8 57.73 70.39 59.57 71.44 61.05 73.54 64.02 78.37 63.69 79.6 67.86 79.82 68.6 81.42 68.41 81.61 67.56 82.36 64.32 85.42 64.17 87.53 62.75 89.71 61.28 91.26 59.35 91 56.55 90.74 53.8 89.07 52.04 86.57 51.01 85.8 50.69 85 50.48 84.22 50.17 81.73 49.2 82.2 47.01 82.21 45.07 82.22 44.11 82.14 42.85 83.35 42.58 85.28 42.14 86.41 43.46 87.35 44.9 87.99 45.89 88.61 47.17 90.01 46.27 91.53 45.28 90.8 43.88 90.07 42.77 89.44 41.82 88.68 40.83 87.75 40.22 83.71 37.56 80 33.16 74.78 38.95 72.81 41.13 69.8 42.38 69.88 45.88 69.97 49.45 72.34 51.14 75.45 52.03 77.9 52.73 79.04 54.25 78.57 57.57Z" fill="#ED7D31"/></g></svg>