<svg width="246.56" height="196.08" viewBox="0 0 246.56 196.08" xmlns="http://www.w3.org/2000/svg" xmlns:xlink="http://www.w3.org/1999/xlink" xml:space="preserve" overflow="visible"><defs></defs><g><path d="M123.04 195.99C107.89 195.99 92.74 196.01 77.59 195.98 71.17 195.97 70.96 195.71 70.98 189.13 71.06 165.35 91.17 142.73 115.05 139.55 144.61 135.61 169.6 153.77 175.03 183.13 175.06 183.29 175.11 183.45 175.14 183.62 177.13 194.93 176.26 195.99 164.98 195.99 151.01 195.99 137.03 195.99 123.04 195.99Z" fill="#FFFFFF"/><path d="M31.82 195.99C23.17 195.99 14.51 195.78 5.87 196.07 1.07 196.23-0.36 194.17 0.07 189.82 1.7 173.14 9.9 160.83 25.34 154.38 40.54 148.03 54.97 150.56 67.93 160.89 70.06 162.59 70.57 164.38 69.36 166.95 65.84 174.43 63.96 182.32 64.45 190.63 64.7 194.85 62.74 196.12 58.77 196.04 49.79 195.87 40.8 195.99 31.82 195.99Z" fill="#FFFFFF"/><path d="M214.3 195.99C205.32 195.99 196.33 195.87 187.35 196.04 183.45 196.11 181.9 194.54 182.1 190.72 182.55 182.41 180.75 174.5 177.2 167.03 175.85 164.18 176.68 162.38 178.93 160.62 191.82 150.52 206.1 148.12 221.12 154.34 236.4 160.67 244.67 172.82 246.39 189.24 247.01 195.15 246.1 195.95 240.24 195.97 231.6 196.02 222.95 195.99 214.3 195.99Z" fill="#FFFFFF"/><path d="M122.87 135.16C109.05 135.06 97.9 123.77 98 109.97 98.1 96.3 109.53 84.84 123.18 84.74 136.92 84.64 148.6 96.39 148.55 110.27 148.51 124.2 137.08 135.27 122.87 135.16Z" fill="#FFFFFF"/><path d="M164.03 109.79C163.96 87.4 145.65 69.12 123.31 69.11 100.97 69.09 82.6 87.36 82.49 109.72 82.48 111.55 82.57 113.38 82.48 115.21 82.35 117.81 81.26 119.75 78.4 119.98 75.56 120.21 74.06 118.49 73.53 115.96 72.36 110.3 73.06 104.68 74.31 99.14 80.07 73.63 103.75 57.36 130.43 60.53 154.85 63.43 174.09 86.17 173.5 111.44 173.49 111.94 173.51 112.44 173.45 112.94 173.07 116.31 172.87 120.15 168.21 119.92 163.76 119.7 164.01 116.02 164.02 112.79 164.03 111.78 164.03 110.79 164.03 109.79Z" fill="#FFFFFF"/><path d="M41.45 148.06C30.38 148.16 21.17 139.15 21.17 128.23 21.17 117.54 30.16 108.55 40.95 108.44 52.09 108.32 61.19 117.21 61.2 128.22 61.23 138.96 52.25 147.97 41.45 148.06Z" fill="#FFFFFF"/><path d="M205.79 108.45C216.56 108.65 225.53 117.8 225.36 128.44 225.19 139.41 215.96 148.25 204.88 148.06 194.11 147.87 185.14 138.67 185.34 128.02 185.54 116.94 194.62 108.25 205.79 108.45Z" fill="#FFFFFF"/><path d="M167.99 61.79C168.29 59.21 168.66 55.58 169.18 51.96 169.48 49.86 170.55 48.17 172.78 47.66 174.75 47.2 176.6 47.76 177.52 49.55 179.16 52.71 180.44 50.95 181.88 49.49 186.69 44.66 191.52 39.85 196.34 35.03 198.58 32.8 201.17 30.69 204.08 33.39 207.15 36.24 205.39 39.13 202.97 41.57 198.05 46.53 193.14 51.49 188.15 56.38 186.58 57.93 185.82 59.06 188.38 60.42 190.15 61.36 190.8 63.17 190.32 65.14 189.78 67.35 188.04 68.41 185.97 68.72 182.36 69.26 178.73 69.77 175.09 69.99 168.99 70.36 167.8 69.08 167.99 61.79Z" fill="#FFFFFF"/><path d="M78.56 61.78C78.71 69 77.53 70.31 71.76 70.01 68.12 69.82 64.49 69.3 60.87 68.8 58.82 68.51 56.99 67.62 56.31 65.45 55.62 63.27 56.35 61.36 58.3 60.32 61.19 58.78 59.56 57.59 58.24 56.27 53.42 51.45 48.6 46.62 43.79 41.8 41.4 39.41 39.34 36.59 42.23 33.61 45.23 30.52 47.96 32.8 50.33 35.16 55.15 39.98 60 44.77 64.78 49.63 66.41 51.29 67.64 52.37 69.14 49.41 70.04 47.63 71.98 47.19 73.94 47.7 75.94 48.23 77.01 49.76 77.3 51.65 77.88 55.43 78.25 59.23 78.56 61.78Z" fill="#FFFFFF"/><path d="M118.9 31.68C118.9 23.2 118.88 15.4 118.91 7.6 118.92 4.27 118.46 0.06 123.14 1.77636e-15 128.22-0.07 127.61 4.37 127.63 7.83 127.67 15.48 127.64 23.14 127.64 30.66 129.13 31.76 129.91 30.28 130.97 30.16 134.87 29.7 137.73 33.04 135.83 36.41 133.22 41.05 129.82 45.21 125.89 48.84 124 50.59 121.68 50.22 120.08 48.38 116.91 44.75 113.92 40.95 111 37.11 109.66 35.35 109.72 33.33 111.26 31.6 113.47 29.11 116.02 30.12 118.9 31.68Z" fill="#FFFFFF"/></g></svg>