<svg width="255.87" height="214.93" viewBox="0 0 255.87 214.93" xmlns="http://www.w3.org/2000/svg" xmlns:xlink="http://www.w3.org/1999/xlink" xml:space="preserve" overflow="visible"><defs></defs><g><path d="M127.84 171.22C92.11 170.96 64.3 142.5 64.58 106.48 64.85 71.45 93.27 43.59 128.38 43.94 164.41 44.3 191.73 72.4 191.39 108.76 191.05 143.33 162.42 171.48 127.84 171.22ZM162.06 93.12C161.65 91.37 160.41 90.46 159.37 89.42 152.13 82.2 153.6 82.55 146.89 89.18 140.14 95.85 133.46 102.59 126.75 109.3 118.24 117.81 118.32 117.72 109.71 109.32 101.74 101.55 104.69 101.15 95.97 109.41 93.73 111.53 93.77 112.96 95.95 115.08 102.53 121.45 108.99 127.93 115.37 134.5 117.42 136.61 118.82 136.86 121.05 134.6 134.03 121.44 147.14 108.43 160.2 95.35 160.89 94.65 161.46 93.84 162.06 93.12Z" fill="#FFFFFF"/><path d="M203.24 61.59C202.57 61.59 201.9 61.52 201.24 61.6 193.77 62.58 188.57 60 183.19 54.12 153.5 21.68 98.89 23.03 70.49 56.47 67.41 60.09 64.27 61.97 59.43 61.68 53.29 61.31 47.11 61.6 40.95 61.56 39.99 61.56 38.81 61.74 38.28 60.67 37.71 59.52 38.7 58.79 39.41 58.18 50.07 48.88 54.66 35.73 61.09 23.77 62.93 20.35 65.11 18.56 69.05 18.05 77.46 16.96 85.84 15.57 94.15 13.93 101.94 12.39 108.85 8.32 115.39 4.21 124.16-1.3 131.91-1.57 140.45 4.34 154.35 13.96 170.73 15.8 186.87 18.06 190.81 18.61 193.23 20.24 194.78 23.82 196.23 27.17 198.08 30.36 199.75 33.62 204.15 42.2 208.05 51.1 215.75 57.48 216.6 58.18 217.75 59.09 217.26 60.38 216.77 61.68 215.35 61.54 214.21 61.55 210.55 61.59 206.88 61.57 203.22 61.57 203.24 61.57 203.24 61.58 203.24 61.59Z" fill="#FFFFFF"/><path d="M52.71 153.39C53.38 153.39 54.05 153.46 54.71 153.38 62.19 152.39 67.39 154.99 72.77 160.86 102.53 193.32 157.09 191.94 185.52 158.43 188.62 154.78 191.81 153.01 196.62 153.3 202.6 153.66 208.61 153.4 214.61 153.44 215.59 153.45 216.74 153.44 217.24 154.49 217.78 155.6 216.92 156.43 216.2 157.04 205.62 166 201.37 178.97 195.06 190.61 193.08 194.27 190.85 196.48 186.42 196.99 178.17 197.95 169.96 199.46 161.79 201.01 154.3 202.43 147.61 206.25 141.42 210.26 132.06 216.32 123.77 216.65 114.56 210.2 100.97 200.7 84.81 199.18 69.02 196.89 65.12 196.32 62.76 194.7 61.05 191.17 57.57 183.98 53.6 177.02 50.06 169.85 47.63 164.93 43.7 161.35 40.07 157.46 39.31 156.64 38.07 155.85 38.62 154.55 39.15 153.29 40.56 153.42 41.7 153.41 45.37 153.37 49.03 153.4 52.7 153.4 52.71 153.41 52.71 153.4 52.71 153.39Z" fill="#FFFFFF"/><path d="M28.03 140.56C20.37 140.56 12.71 140.48 5.05 140.59 0.95 140.65-1.24 139.46 0.74 135.06 9.03 116.62 8.88 98.21 0.71 79.78-1.05 75.8 0.65 74.37 4.69 74.39 20.51 74.46 36.33 74.47 52.15 74.38 56.42 74.35 57.26 75.66 55.72 79.75 48.72 98.24 48.73 116.86 55.77 135.33 57.43 139.68 56.01 140.63 52.02 140.58 44.02 140.49 36.02 140.56 28.03 140.56Z" fill="#FFFFFF"/><path d="M227.46 74.42C235.13 74.42 242.79 74.37 250.46 74.43 256.29 74.48 256.67 75.02 255.03 80.46 252.76 87.95 250.57 95.47 248.15 102.91 247.12 106.08 247.17 109.02 248.18 112.18 250.67 119.95 252.86 127.82 255.37 135.58 256.52 139.12 255.5 140.57 251.84 140.56 235.51 140.52 219.18 140.54 202.85 140.54 199.7 140.54 198.67 139.33 199.89 136.19 207.3 117.03 207.29 97.83 199.85 78.68 198.57 75.38 199.98 74.43 202.96 74.43 211.13 74.43 219.29 74.43 227.46 74.43 227.46 74.43 227.46 74.43 227.46 74.42Z" fill="#FFFFFF"/></g></svg>