<svg width="256.63" height="257.03" viewBox="0 0 256.63 257.03" xmlns="http://www.w3.org/2000/svg" xmlns:xlink="http://www.w3.org/1999/xlink" xml:space="preserve" overflow="visible"><defs></defs><g><path d="M135.1 190.47C132.55 180.72 137.45 171.19 144.26 161.78 154.88 147.11 163.54 130.99 177.48 118.86 181.09 115.72 180.94 111.58 177.86 108.82 174.52 105.83 171.33 106.52 168.07 109.29 164.7 112.16 162.47 117.8 158.07 117.58 154.1 117.38 151.76 112.13 148.51 109.31 144.71 106.01 141.75 105.98 137.98 109.48 135.66 111.63 133.39 113.85 131.25 116.18 129.24 118.37 127.51 118.51 125.43 116.25 123.18 113.8 120.77 111.49 118.35 109.2 114.98 106.02 111.54 106.09 108.2 109.26 106.27 111.09 104.23 112.86 102.55 114.92 99.72 118.38 97.21 118.88 94.21 115.08 92.47 112.87 90.32 110.96 88.2 109.09 84.86 106.12 81.14 106.14 78.47 109.12 75.67 112.25 75.67 115.78 78.72 118.45 95.82 133.45 105.98 153.63 118.85 171.78 120.77 174.49 121.62 177.3 121.57 180.63 121.43 189.29 121.41 197.96 121.57 206.62 121.64 210.48 120.16 212.01 116.28 211.92 108.95 211.75 101.62 211.81 94.29 211.9 91.23 211.94 89.42 211.17 88.8 207.67 86.34 193.77 79.25 182.49 69.55 172.27 46.8 148.32 39.22 119.88 49.31 88.34 59.32 57.04 81.49 38.07 113.94 31.82 159.95 22.96 205.63 57.01 210.71 103.6 213.63 130.36 205.41 153.3 186.88 172.42 177 182.61 169.05 193.51 167.22 207.98 166.87 210.78 165.22 211.9 162.42 211.87 154.92 211.79 147.42 211.75 139.93 211.89 136.16 211.96 134.95 210.2 135.06 206.7 135.2 202.02 135.1 197.36 135.1 190.47Z" fill="#FFFFFF"/><path d="M128.39 225.4C139.2 225.4 150.02 225.54 160.83 225.33 165.19 225.25 166.6 226.87 166.62 231.16 166.69 247.02 157.21 256.92 141.47 256.98 131.99 257.01 122.5 257.09 113.02 256.94 98.39 256.72 87.3 242.78 90.15 228.51 90.81 225.2 93.14 225.41 95.45 225.4 106.43 225.38 117.41 225.4 128.39 225.4Z" fill="#FFFFFF"/><path d="M127.72 159.73C127.26 159.21 126.53 158.55 126 157.75 120.35 149.33 114.82 140.81 109.05 132.47 106.63 128.97 109.16 127.41 111.1 125.42 113.38 123.09 114.91 124.77 116.5 126.35 118.86 128.7 121.16 131.11 123.62 133.34 126.67 136.11 129.94 136.13 133 133.36 135.59 131.02 138.01 128.5 140.47 126.01 142.02 124.44 143.61 123.28 145.5 125.41 147.04 127.14 150.09 128.45 148.07 131.54 142.15 140.58 136.11 149.55 130.1 158.54 129.63 159.23 129.07 159.9 127.72 159.73Z" fill="#FFFFFF"/><path d="M15.4 121.76C12.9 121.76 10.39 121.95 7.91 121.72 3 121.25 0.04 118.14 0 113.71-0.04 109.26 2.85 105.9 7.74 105.57 12.71 105.23 17.74 105.25 22.71 105.55 27.63 105.85 30.58 109.11 30.63 113.53 30.67 117.99 27.78 121.18 22.89 121.7 20.42 121.96 17.9 121.75 15.4 121.75 15.4 121.75 15.4 121.75 15.4 121.76Z" fill="#FFFFFF"/><path d="M241.75 105.53C244.25 105.53 246.77 105.28 249.23 105.58 253.82 106.14 256.6 109.31 256.63 113.55 256.66 117.83 253.96 121.23 249.36 121.59 244.07 122 238.7 121.99 233.4 121.62 228.79 121.29 226.03 117.93 226 113.68 225.97 109.4 228.68 106.18 233.27 105.61 236.06 105.27 238.92 105.55 241.75 105.55 241.75 105.55 241.75 105.54 241.75 105.53Z" fill="#FFFFFF"/><path d="M83.61 19.3C83.7 24.37 82.24 27.06 78.93 28.34 75.55 29.66 72.09 29.27 69.85 26.29 66.15 21.38 63.05 16.01 60.71 10.31 59.33 6.96 60.79 4.01 63.44 1.91 66.34-0.38 70.05-0.79 72.68 1.65 78.25 6.83 80.95 13.88 83.61 19.3Z" fill="#FFFFFF"/><path d="M188.17 0.31C193.89 0.21 198.05 5.63 195.68 10.83 193.28 16.1 190.29 21.16 187.04 25.96 184.71 29.4 180.89 29.85 177.2 28.09 173.3 26.23 171.98 22.58 173.38 18.84 175.58 12.92 178.9 7.48 182.8 2.48 184.07 0.84 186.06 0.25 188.17 0.31Z" fill="#FFFFFF"/><path d="M24.83 45.48C25.73 45.75 26.94 45.88 27.91 46.43 32.53 49.02 37.23 51.52 41.63 54.44 45.54 57.03 46.39 61.18 44.35 64.87 42.32 68.53 38.09 70.24 34.09 68.27 29.06 65.79 24.16 62.94 19.53 59.78 16.61 57.79 15.54 54.56 16.94 50.96 18.3 47.46 21.03 45.93 24.83 45.48Z" fill="#FFFFFF"/><path d="M220.41 68.97C215.37 68.89 212.95 66.92 211.69 63.48 210.44 60.07 211.58 57.06 214.25 55.05 219.01 51.46 224.24 48.52 229.68 46.1 233.15 44.56 236.22 46.05 238.49 48.83 240.7 51.53 241.3 54.96 239 57.55 233.71 63.48 226.57 66.54 220.41 68.97Z" fill="#FFFFFF"/><path d="M25.52 181.81C21.18 181.37 18.41 179.88 17 176.41 15.54 172.83 16.52 169.56 19.44 167.56 24.2 164.3 29.24 161.35 34.44 158.84 37.6 157.31 41.02 158.11 43.43 161.03 45.77 163.88 46.53 167.35 44.07 170.16 38.94 176.04 31.67 178.66 25.52 181.81Z" fill="#FFFFFF"/><path d="M240.29 173.43C240.44 178.8 234.64 183.21 229.61 181.1 224.13 178.79 218.9 175.8 214.19 172.15 211.2 169.83 210.26 166.47 212.08 162.79 213.97 158.97 217.37 157.26 221.14 158.59 227.38 160.79 233.1 164.21 238.2 168.5 239.63 169.68 240.07 171.58 240.29 173.43Z" fill="#FFFFFF"/></g></svg>