<svg width="228.3" height="226.23" viewBox="0 0 228.3 226.23" xmlns="http://www.w3.org/2000/svg" xmlns:xlink="http://www.w3.org/1999/xlink" xml:space="preserve" overflow="visible"><defs></defs><g><path d="M63.36 82.94C63.36 89.27 63.58 95.61 63.29 101.93 63.08 106.48 64.69 108.22 69.29 108.1 78.45 107.87 87.62 108 96.78 108.05 102.43 108.08 104.89 109.96 105.27 114.33 105.68 119.01 102.91 122.69 97.54 122.82 82.89 123.16 68.23 123.04 53.57 122.92 48.85 122.88 46.85 119.9 46.86 115.35 46.88 105.19 46.86 95.02 46.84 84.86 46.84 83.36 46.83 81.86 46.73 80.36 46.6 78.49 45.64 77.06 43.72 76.95 41.3 76.81 41.28 78.8 41.28 80.46 41.25 92.96 41.28 105.45 41.27 117.95 41.27 121.25 42.96 123.67 45.34 125.63 54.97 133.58 64.58 141.57 74.36 149.33 78.92 152.95 81.09 157.49 81.11 163.14 81.15 180.47 81.2 197.8 81.09 215.13 81.04 222.03 76.99 226.47 71.51 226.21 66.51 225.97 62.82 221.81 62.76 215.89 62.64 204.73 62.48 193.56 62.81 182.4 62.97 176.79 60.83 172.99 56.56 169.65 44.74 160.42 33.2 150.84 21.36 141.64 14.2 136.08 10.87 128.91 10.86 120.04 10.83 102.38 10.75 84.71 10.89 67.05 10.97 56.33 17.43 49.88 28.13 49.9 35.6 49.92 43.14 48.97 50.55 50.61 60.43 52.79 63.36 56.48 63.36 66.42 63.36 71.94 63.36 77.44 63.36 82.94Z" fill="#FFFFFF"/><path d="M162.86 176.34C162.86 162.85 162.98 149.36 162.79 135.88 162.73 131.43 164.13 129.55 168.82 129.76 175.63 130.07 182.47 129.82 189.3 129.85 190.95 129.86 193.03 129.36 194.08 130.7 199.93 138.09 208.26 143.86 208.09 155 207.78 175.81 208.02 196.63 207.99 217.44 207.98 223.77 207.53 224.19 201.12 224.21 190.8 224.24 180.47 224.26 170.15 224.2 164.06 224.16 162.89 222.97 162.87 216.81 162.83 203.31 162.86 189.83 162.86 176.34Z" fill="#FFFFFF"/><path d="M228.2 152.73C228.2 173.88 228.22 195.03 228.19 216.18 228.18 223.28 222.09 226.92 215.6 223.79 212.97 222.52 213.74 220.1 213.74 218.08 213.68 198.76 213.16 179.42 213.92 160.14 214.33 149.59 211.96 140.84 204.48 133.48 201.92 130.97 201.26 128.8 204.76 126.26 207.37 124.36 208.69 121.32 208.75 117.97 208.82 113.31 208.83 108.65 208.81 103.98 208.8 102.1 208.64 99.97 206.19 99.91 203.81 99.85 203.34 101.86 203.3 103.8 203.22 107.63 203.34 111.46 203.19 115.29 202.97 120.9 200.57 123.85 194.97 123.96 181.66 124.24 168.33 124.17 155.01 123.97 150.81 123.91 147.57 121.89 147.47 117.02 147.39 112.83 150.36 110.04 155.42 109.95 164.58 109.79 173.74 109.71 182.89 109.95 187.52 110.07 189.2 108.26 188.95 103.78 188.73 99.96 188.79 96.12 188.98 92.29 189.33 85.24 192.69 81.98 199.68 81.88 207.01 81.78 214.35 82.1 221.66 81.76 226.65 81.53 228.36 83.2 228.31 88.28 228.07 109.76 228.2 131.25 228.2 152.73Z" fill="#FFFFFF"/><path d="M100.55 102.36C91.9 102.36 83.24 102.25 74.59 102.41 70.88 102.48 69 101.26 69.01 97.33 69.08 82.19 69.06 67.05 69.02 51.91 69.01 48.34 70.57 46.86 74.17 46.91 89.62 47.13 87.79 45.07 87.92 59.78 88.04 73.6 86.61 72.07 100.22 72.06 115.89 72.04 113.56 73.71 113.76 58.52 113.93 45.68 112.14 47.17 125.65 46.85 130.47 46.74 132.5 48.04 132.39 53.27 132.09 67.57 132.12 81.89 132.38 96.19 132.47 101.05 130.72 102.59 126.01 102.44 117.52 102.17 109.03 102.37 100.55 102.36Z" fill="#FFFFFF"/><path d="M162.86 61.47C162.86 49.32 162.82 37.17 162.88 25.02 162.91 18.61 163.79 17.74 170.05 17.73 187.19 17.7 204.33 17.7 221.48 17.73 227.28 17.74 228.17 18.59 228.19 24.37 228.24 39.68 228.06 55 228.3 70.3 228.37 75.03 226.49 76.38 222.1 76.26 214.28 76.05 206.46 76.13 198.64 76.23 189.04 76.35 183.5 81.91 183.28 91.43 182.99 104.28 182.99 104.28 170.08 104.22 162.97 104.19 162.89 104.13 162.88 96.9 162.85 85.1 162.86 73.28 162.86 61.47ZM222.72 47.14C222.72 34.23 212.04 23.43 199.29 23.47 186.24 23.5 175.37 34.4 175.41 47.42 175.45 60.04 186.55 70.9 199.3 70.79 212.25 70.68 222.72 60.11 222.72 47.14Z" fill="#FFFFFF"/><path d="M19.76 166.57C19.76 160.56 19.72 156.4 19.78 152.23 19.82 149.49 21.14 148.97 23.22 150.6 27.68 154.09 32.09 157.63 36.49 161.19 39.02 163.24 37.9 166.01 37.98 168.62 38.53 187.26 27.61 201.5 19.59 216.84 18.82 218.31 18 219.77 17.11 221.17 14 226.04 9.19 227.52 4.73 225.02 0.29 222.54-1.34 217.5 1.23 212.54 5.59 204.12 9.81 195.55 14.96 187.62 19.66 180.4 20.31 172.8 19.76 166.57Z" fill="#FFFFFF"/><path d="M43.5 23.29C36.18 23.29 28.85 23.37 21.53 23.26 15.59 23.17 13.9 20.85 15.95 15.34 19.26 6.44 25.74 1.04 35.2 0.13 44.05-0.73 51.41 2.91 55.86 10.54 58.25 14.64 60.8 16.2 65.29 15.79 68.05 15.54 71.66 15.33 71.45 19.52 71.26 23.36 67.84 23.27 64.97 23.28 57.81 23.32 50.66 23.29 43.5 23.29Z" fill="#FFFFFF"/><path d="M37.59 28.14C42.24 28.14 46.89 28.09 51.53 28.16 54.4 28.2 55.03 29.62 53.59 32.03 49.99 38.1 44.58 41.17 37.6 41.41 30.32 41.66 24.84 38.36 20.92 32.37 19.23 29.79 20.12 28.25 23.14 28.19 27.95 28.09 32.77 28.16 37.58 28.16 37.59 28.15 37.59 28.14 37.59 28.14Z" fill="#FFFFFF"/><path d="M108.13 57C108.13 57.17 108.13 57.33 108.13 57.5 108.13 66 104.2 68.8 96.06 66.23 94.28 65.67 93.77 64.48 93.74 62.87 93.69 60.54 93.68 58.21 93.68 55.88 93.68 47.1 96.48 44.98 105.18 47.03 107.16 47.5 108 48.64 108.05 50.51 108.1 52.67 108.06 54.84 108.06 57 108.08 57 108.11 57 108.13 57Z" fill="#FFFFFF"/><path d="M199.22 29.75C209.06 29.77 217.25 37.94 216.99 47.45 216.71 57.35 207.85 65.42 198.16 64.73 194.59 64.48 192.63 63.6 194.91 59.64 195.72 58.23 196.15 56.56 196.52 54.95 196.84 53.56 196.42 52.24 194.91 51.7 193.48 51.19 192.29 51.69 191.46 52.94 191.1 53.49 190.85 54.12 190.54 54.71 189.66 56.4 189.64 59.24 187.28 59.19 184.92 59.15 184.08 56.52 183.21 54.59 177.78 42.61 186.11 29.72 199.22 29.75Z" fill="#FFFFFF"/></g></svg>