<svg width="257.02" height="224.39" viewBox="0 0 257.02 224.39" xmlns="http://www.w3.org/2000/svg" xmlns:xlink="http://www.w3.org/1999/xlink" xml:space="preserve" overflow="visible"><defs></defs><g><path d="M62.15 121.55C62.65 114.67 61.25 106.47 63.2 98.39 67.13 82.11 80.57 69.47 96.87 66.64 99.36 66.21 101.26 66.52 103.36 68.03 119.98 79.98 136.93 79.95 153.75 67.97 155.67 66.6 157.41 66.19 159.76 66.57 179.58 69.77 194.7 87.24 194.84 107.41 194.92 118.41 194.96 129.41 194.8 140.4 194.75 143.71 195.78 146 198.41 148.07 206.78 154.67 215.07 161.39 223.2 168.28 226.03 170.68 228.24 171.39 231.97 169.67 241.5 165.28 252.51 170.35 256 180.14 259.33 189.49 254.14 199.99 244.66 203.1 234.9 206.3 224.47 200.83 221.76 191.02 220.81 187.59 220.65 184.03 221.89 180.68 222.89 177.98 222.07 176.41 219.96 174.75 211.99 168.45 203.96 162.19 196.29 155.54 192.14 151.94 187.89 150.33 182.33 150.45 167.28 150.78 167.27 150.56 167.27 135.69 167.27 132.69 167.39 129.69 167.23 126.69 167.12 124.71 168.16 121.53 165.1 121.41 161.89 121.29 162.82 124.5 162.78 126.46 162.65 132.29 162.75 138.12 162.73 143.95 162.7 150.42 162.58 150.53 155.9 150.55 149.4 150.57 142.9 150.69 136.41 150.5 132.89 150.4 131.75 151.77 131.8 155.19 131.96 164.52 131.96 173.85 131.79 183.18 131.73 186.59 132.7 188.49 136.04 190.01 144.16 193.71 148.08 202.16 146.05 210.18 143.9 218.68 136.09 224.75 127.8 224.37 119.14 223.97 112.25 217.78 110.61 208.92 109.3 201.88 112.98 193.78 119.84 190.56 123.74 188.73 124.71 186.33 124.62 182.41 124.41 173.58 124.41 164.75 124.62 155.92 124.72 151.76 123.15 150.32 119.05 150.49 112.9 150.75 106.7 150.25 100.56 150.65 95.34 150.99 93.85 148.89 94.13 143.99 94.47 138.18 94.27 132.33 94.17 126.5 94.13 124.5 94.9 121.41 91.75 121.45 88.95 121.49 89.72 124.43 89.69 126.27 89.58 132.6 89.53 138.94 89.67 145.26 89.75 149.01 88.43 151.22 84.47 150.51 71.02 148.08 60.78 153.71 51.6 162.83 47.36 167.03 42.47 170.61 37.69 174.22 35.11 176.17 34.32 177.92 35.24 181.32 38.02 191.57 32.02 201.23 22 203.53 12.43 205.73 2.49 199.67 0.45 190.41-1.82 180.09 4.57 170.32 14.89 168.31 18.83 167.54 22.61 168.28 26.04 170.07 28.51 171.36 30.23 171.15 32.31 169.43 41.3 162 50.35 154.65 59.45 147.35 61.47 145.73 62.23 143.82 62.18 141.29 62.08 135.12 62.15 128.95 62.15 121.55ZM128.28 128.17C128.28 128.18 128.28 128.19 128.28 128.2 132.11 128.2 135.93 128.2 139.76 128.2 140.09 128.2 140.43 128.2 140.76 128.18 146.03 127.9 148.21 126.06 148.32 120.95 148.51 112.47 148.42 103.98 148.35 95.49 148.31 90.87 145.81 88.36 141.2 88.31 132.72 88.22 124.23 88.22 115.74 88.32 111.42 88.37 108.76 90.63 108.69 95.06 108.56 103.88 108.54 112.7 108.71 121.51 108.79 125.9 111.41 128.13 115.8 128.16 119.96 128.19 124.12 128.17 128.28 128.17Z" fill="#FFFFFF"/><path d="M92.16 36.37C92.2 16.32 108.37 0.06 128.33 0 148.37-0.06 164.85 16.45 164.84 36.59 164.84 56.7 148.22 73.42 128.36 73.3 108.37 73.18 92.12 56.6 92.16 36.37Z" fill="#FFFFFF"/><path d="M128.03 123.53C124.53 123.53 121.04 123.49 117.54 123.54 114.68 123.58 113.19 122.33 113.21 119.38 113.24 111.89 113.22 104.39 113.23 96.9 113.23 94.25 114.57 92.92 117.24 92.92 124.73 92.92 132.23 92.93 139.72 92.91 142.73 92.9 143.82 94.55 143.81 97.34 143.78 104.67 143.78 111.99 143.81 119.32 143.82 122.24 142.43 123.58 139.53 123.54 135.69 123.49 131.86 123.52 128.03 123.53ZM123.97 115.63C125.54 115.54 137.19 105.3 137.64 103.9 137.93 102.98 137.67 102.28 137.05 101.64 136.03 100.59 134.96 100.78 133.94 101.6 132.13 103.06 130.39 104.62 128.55 106.04 127.07 107.18 125.98 109.44 123.52 108.27 122.08 107.58 120.64 106.96 119.53 108.54 118.59 109.88 119.63 111.1 120.34 112.18 121.31 113.67 121.99 115.55 123.97 115.63Z" fill="#FFFFFF"/></g></svg>