<svg width="226.16" height="211.76" viewBox="0 0 226.16 211.76" xmlns="http://www.w3.org/2000/svg" xmlns:xlink="http://www.w3.org/1999/xlink" xml:space="preserve" overflow="visible"><defs></defs><g><path d="M113.26 0C150.95 0.05 178.75 35.21 170.19 71.94 169.27 75.87 167.66 79.08 163.93 81.03 160.22 82.97 159.44 85.65 162.18 89.12 164.54 92.12 163.58 93.47 159.9 93.65 152.97 93.99 146.26 93.23 139.93 90.21 134.78 87.75 129.54 87.28 123.9 88.56 114.63 90.66 105.52 93.27 96.43 96 85.82 99.19 75.71 96.8 65.8 92.87 63.24 91.85 62.62 90.19 64.3 87.8 65.71 85.79 67.07 83.21 64.19 81.79 53.84 76.69 54.22 66.86 54.34 58.01 54.71 29.03 74.71 6.1 103.31 0.64 106.63 0.01 109.94 0.1 113.26 0ZM138.67 42.99C138.65 42.09 138.34 41.33 137.46 41.01 135.72 40.37 134.62 41.54 133.57 42.59 125.43 50.69 117.16 58.66 109.27 66.99 106.02 70.42 103.82 70.28 100.89 66.85 98.31 63.82 95.31 61.14 92.43 58.37 91.24 57.23 89.76 55.74 88.15 57.3 86.53 58.87 87.96 60.4 89.11 61.58 93.18 65.74 97.38 69.78 101.41 73.98 104.11 76.8 106.39 76.45 109.01 73.8 118.12 64.56 127.34 55.42 136.51 46.23 137.45 45.32 138.5 44.44 138.67 42.99Z" fill="#ED7D31"/><path d="M82.05 133.08C90.16 132.89 96.66 129.02 102.59 123.94 108.32 119.03 117.57 117.69 124.01 121.67 142.14 132.88 160.14 144.3 178.1 155.78 182.66 158.69 183.68 163.17 181.23 166.89 178.7 170.72 174.45 171.59 169.81 168.75 159.87 162.67 150.05 156.38 140.18 150.18 139.19 149.56 138.23 148.89 137.2 148.36 135.68 147.59 133.91 146.81 132.9 148.87 132.05 150.61 133.54 151.59 134.83 152.41 143.84 158.1 152.86 163.77 161.87 169.48 163.41 170.46 165.02 171.41 166.35 172.64 169.4 175.47 170.27 178.88 167.86 182.49 165.36 186.22 161.7 187.22 157.83 185.07 152.3 182 147.03 178.49 141.66 175.14 136.71 172.06 131.81 168.91 126.84 165.87 125.45 165.02 123.71 163.89 122.46 165.87 121.22 167.83 122.93 168.95 124.32 169.84 131.9 174.67 139.52 179.46 147.14 184.22 149.79 185.88 151.94 187.91 152.31 191.17 152.63 194.05 151.37 196.4 149.1 198.1 146.42 200.1 143.46 200.17 140.66 198.45 134.56 194.71 128.54 190.82 122.48 187 121.49 186.38 120.52 185.73 119.47 185.23 118.23 184.63 116.81 184.2 115.92 185.66 115.06 187.08 115.92 188.27 117.09 189.06 120.97 191.65 124.9 194.15 128.81 196.69 132.15 198.86 134.2 201.69 133.31 205.88 132.29 210.69 127.01 213.3 122.29 210.81 117.15 208.11 112.37 204.71 107.41 201.66 105.33 200.38 105.7 198.97 106.61 197.03 110.82 188 108.53 182.64 99.13 179.39 97.13 178.7 96.17 177.67 95.9 175.55 95.27 170.67 92.61 167.21 87.84 165.74 85.49 165.01 85.33 163.7 85.67 161.58 86.48 156.47 84.56 152.36 80.18 149.65 75.5 146.76 70.86 147.51 66.75 150.85 64.68 152.53 63.52 152.06 61.74 150.43 54.96 144.24 48.2 145 42.85 152.73 40.37 156.31 38.63 156.56 35.69 153.25 26.49 142.9 26.39 142.96 34.23 131.52 41.66 120.67 49.22 109.89 56.55 98.97 58.46 96.13 60.09 95.18 63.41 97.03 67.79 99.47 72.7 100.59 77.7 101.23 80.52 101.59 80.99 102.63 79.1 105.1 74.96 110.52 71.16 116.19 67.15 121.71 64.57 125.26 65.37 127.83 69.17 129.75 73.19 131.82 77.4 133.27 82.05 133.08Z" fill="#ED7D31"/><path d="M130.29 92.43C132 92.81 134.14 92.87 135.85 93.75 144.98 98.5 154.72 98.85 164.61 97.91 167.37 97.65 168.89 98.68 170.34 100.81 178.76 113.21 187.18 125.62 195.82 137.87 198.08 141.07 197.81 143.27 194.68 145.31 192.59 146.67 190.51 148.06 188.33 149.25 183.87 151.69 179.87 151.38 175.37 148.43 159.63 138.12 143.6 128.25 127.68 118.2 119.1 112.78 107.41 113.56 99.78 120.01 92.95 125.78 85.64 130.14 76.13 127.51 71.12 126.12 71.16 125.28 73.51 120.74 79.7 108.79 89.44 102.15 102.36 99.06 111.56 96.87 120.59 93.87 130.29 92.43Z" fill="#ED7D31"/><path d="M59.29 86.27C58.91 86.89 58.34 87.9 57.69 88.86 45.61 106.44 33.48 123.99 21.49 141.63 19.45 144.63 17.67 145.19 14.69 142.89 10.73 139.84 6.55 137.08 2.37 134.35-6.21725e-15 132.81-0.81 131.33 1.01 128.7 13.53 110.61 25.96 92.46 38.41 74.33 39.52 72.72 40.61 71.32 42.82 72.86 47.88 76.39 52.99 79.84 58.05 83.35 58.86 83.92 59.62 84.63 59.29 86.27Z" fill="#ED7D31"/><path d="M226.16 131.73C226.01 133.38 224.98 134.02 224.03 134.67 219.52 137.81 214.95 140.86 210.49 144.06 208.24 145.68 206.7 145.37 205.14 143.09 192.73 124.97 180.28 106.87 167.77 88.81 166.19 86.53 166.38 85.01 168.7 83.47 173.27 80.43 177.8 77.31 182.26 74.11 184.49 72.51 186.01 72.72 187.6 75.04 200.02 93.16 212.51 111.23 224.96 129.33 225.5 130.14 225.84 131.09 226.16 131.73Z" fill="#ED7D31"/><path d="M80.92 159.29C80.89 161.45 79.99 163.03 78.94 164.54 72.59 173.67 66.3 182.84 59.89 191.93 56.63 196.55 52.89 197.55 49.4 195.04 46.17 192.72 45.78 188.75 48.73 184.44 55.1 175.12 61.63 165.92 68.07 156.65 70.21 153.57 73.06 152.26 76.68 153.39 79.57 154.29 80.66 156.68 80.92 159.29Z" fill="#ED7D31"/><path d="M91.33 177.3C90.96 178.23 90.68 179.59 89.95 180.65 86.2 186.15 82.46 191.67 78.46 197 76.02 200.25 72.53 200.92 69.18 198.61 65.78 196.26 65.36 192.82 67.64 189.39 71.33 183.85 75.13 178.37 79.05 172.98 81.01 170.28 83.8 169.36 87.01 170.67 89.77 171.8 91.03 174.04 91.33 177.3Z" fill="#ED7D31"/><path d="M44.29 177.09C39.63 177 36.36 172.27 38.45 167.87 41.01 162.48 44.68 157.69 48.62 153.21 50.83 150.69 53.85 150.41 56.74 152.34 59.63 154.27 60.59 157.35 59.17 160.2 56.37 165.83 52.71 170.99 48.42 175.62 47.37 176.74 45.83 177.06 44.29 177.09Z" fill="#ED7D31"/><path d="M96.73 184.08C102.16 184.12 105.34 189.13 102.87 193.71 100.75 197.64 98 201.27 95.19 204.76 93.21 207.23 90.26 207.52 87.44 206.17 84.77 204.89 83.18 202.39 84.03 199.6 85.85 193.62 89.44 188.64 94.35 184.72 95.06 184.18 96.24 184.21 96.73 184.08Z" fill="#ED7D31"/></g></svg>