<svg width="240.41" height="221.62" viewBox="0 0 240.41 221.62" xmlns="http://www.w3.org/2000/svg" xmlns:xlink="http://www.w3.org/1999/xlink" xml:space="preserve" overflow="visible"><style>
.MsftOfcResponsive_Fill_002060 {
 fill:#002060; 
}
</style>
<defs></defs><g><path d="M0 44.2C0.38 40.61 0.83 36.64 1.2 32.67 1.62 28.2 3.84 25.13 7.64 22.64 16.97 16.52 26.05 10.02 35.28 3.74 44.58-2.59 52.1-0.86 57.82 8.93 63.45 18.57 69.04 28.23 74.58 37.92 79.53 46.57 77.85 53.51 69.46 58.87 64.27 62.19 59.02 65.43 53.67 68.49 51.04 69.99 50.35 71.65 51.27 74.6 60.79 105.34 76.26 132.6 98.44 156.01 100.52 158.2 102.28 158.49 104.93 156.9 110.22 153.74 115.67 150.84 121.14 148.01 129.39 143.74 136.58 145.62 141.27 153.48 147.33 163.64 153.25 173.88 158.98 184.23 163.83 192.99 161.35 200.42 152.26 204.88 141.49 210.16 130.6 215.2 119.85 220.51 116.9 221.96 114.26 221.95 111.25 220.85 98.3 216.15 87.23 208.4 77.56 198.9 39.78 161.81 14.13 117.78 2.49 65.91 0.92 58.9 0.59 51.74 0 44.2Z" class="MsftOfcResponsive_Fill_002060" fill="#002060"/><path d="M240.32 102.39C240.32 119.38 240.35 136.36 240.31 153.35 240.28 163.91 236.69 167.47 226.2 167.47 206.55 167.48 186.9 167.38 167.25 167.55 163.44 167.58 161.09 166.46 159.32 163 156.6 157.67 153.5 152.52 150.38 147.4 143.09 135.45 129.45 131.59 117 137.86 114.32 139.21 111.53 140.44 109.13 142.18 104.94 145.21 102.03 144.64 98.76 140.51 84.46 122.5 73.01 102.93 64.8 81.43 63.22 77.29 64.14 75.36 67.65 72.49 76.76 65.05 84.05 65.5 93.46 72.97 107.77 84.33 123.55 93.82 138.55 104.33 142.9 107.38 146.43 107.29 150.76 104.29 178.55 85.05 206.46 65.98 234.36 46.9 235.79 45.92 237.23 43.92 239.11 44.88 240.98 45.84 240.3 48.16 240.31 49.93 240.34 67.42 240.32 84.9 240.32 102.39Z" class="MsftOfcResponsive_Fill_002060" fill="#002060"/><path d="M157.71 35.96C179.54 35.96 201.36 35.95 223.19 35.99 224.77 35.99 227.09 35.16 227.76 36.83 228.55 38.79 226.05 39.34 224.81 40.2 199.56 57.57 174.23 74.83 149.02 92.27 145.8 94.5 143.48 94.67 140.16 92.35 124.07 81.06 107.85 69.96 91.55 58.96 88.32 56.78 86.41 54.8 87.68 50.5 88.56 47.53 88.49 44.11 87.51 41.1 86.13 36.82 87.75 35.88 91.72 35.91 111.71 36.02 131.71 35.96 151.7 35.96 153.71 35.96 155.71 35.96 157.71 35.96Z" class="MsftOfcResponsive_Fill_002060" fill="#002060"/></g></svg>