<svg width="64" height="64" xmlns="http://www.w3.org/2000/svg" href="http://www.w3.org/1999/xlink" overflow="hidden"><defs><clipPath id="clip0"><rect x="703" y="740" width="30" height="30"/></clipPath><clipPath id="clip1"><rect x="703" y="740" width="30" height="30"/></clipPath></defs><g transform="translate(-686 -723)"><path d="M687 755C687 737.879 700.879 724 718 724 735.121 724 749 737.879 749 755 749 772.121 735.121 786 718 786 700.879 786 687 772.121 687 755Z" fill="#ED7D31" fill-rule="evenodd"/><g clip-path="url(#clip0)"><g clip-path="url(#clip1)"><path d="M12.316 0.00350417C14.6895 0.00350417 17.0641 0.00233611 19.4376 0.00350417 20.323 0.00350417 20.3242 0.00467223 20.3254 0.919261 20.3265 1.95065 20.3207 2.98205 20.3277 4.01344 20.3324 4.70026 20.4281 4.79721 21.1021 4.80071 22.2305 4.80655 23.36 4.81823 24.4871 4.79604 24.9614 4.7867 25.1448 4.95022 25.1389 5.43614 25.1202 7.1672 25.1179 8.89943 25.1413 10.6305 25.1471 11.0919 24.9555 11.2928 24.5432 11.4084 23.944 11.5754 23.353 11.7705 22.7643 11.9726 21.7831 12.309 21.4268 12.9502 21.7621 13.9162 21.9525 14.4652 21.7784 14.6568 21.2668 14.7444 20.8089 14.8226 20.3814 14.8168 19.9749 14.5598 18.5044 13.6289 16.9719 13.4455 15.367 14.1954 15.0457 14.3461 14.7339 14.3437 14.4162 14.1779 14.262 14.0973 14.0879 14.0552 13.9302 13.9805 12.351 13.2341 10.8314 13.3801 9.37599 14.3029 8.92863 14.5855 8.47192 14.6159 7.979 14.5026 7.68698 14.436 7.56083 14.3169 7.63792 13.9735 7.91242 12.7528 7.62624 12.2856 6.42081 11.892 5.86598 11.7109 5.31115 11.5311 4.75166 11.3652 4.43044 11.2706 4.27042 11.1012 4.27158 10.7438 4.27976 7.3389 4.2821 3.93402 4.27158 0.52913 4.27042 0.0572348 4.52272-0.00116806 4.90233-1.55617e-15 7.37277 0.0081764 9.84438 0.00350417 12.316 0.00350417ZM14.7058 7.49542C16.9999 7.49542 19.294 7.5036 21.5892 7.48608 21.9268 7.48374 22.4991 7.69749 22.4769 7.06908 22.4571 6.51308 21.9233 6.63456 21.5565 6.63339 16.987 6.62639 12.4188 6.62872 7.84934 6.63106 7.63792 6.63106 7.4195 6.63924 7.21625 6.69063 7.01068 6.74202 6.89504 6.90555 6.91256 7.12982 6.93125 7.3646 7.07959 7.46972 7.30035 7.48257 7.4744 7.49308 7.6496 7.49425 7.82481 7.49425 10.1165 7.49542 12.4118 7.49542 14.7058 7.49542ZM14.7047 10.9283C12.3137 10.9283 9.92264 10.9272 7.53163 10.9307 7.26181 10.9307 6.93709 10.9061 6.91723 11.2939 6.89504 11.7203 7.23378 11.7109 7.52929 11.7261 7.60639 11.7296 7.68465 11.7285 7.76291 11.7285 12.3896 11.7285 17.0151 11.7285 21.6418 11.7273 21.8158 11.7273 21.9922 11.725 22.165 11.7004 22.3881 11.6677 22.5085 11.5287 22.4956 11.2963 22.4839 11.093 22.366 10.9716 22.1674 10.9505 21.9747 10.9307 21.7796 10.9283 21.5857 10.9283 19.2916 10.926 16.9987 10.9272 14.7047 10.9283ZM12.7155 2.41554C11.0825 2.41554 9.45075 2.41554 7.8178 2.41671 7.6426 2.41671 7.46739 2.41671 7.29335 2.43306 7.07609 2.45409 6.92307 2.56739 6.91022 2.7975 6.89621 3.04629 7.03287 3.20164 7.26999 3.25654 7.38212 3.28224 7.50243 3.27757 7.61807 3.27757 11.0381 3.27874 14.4582 3.27874 17.8794 3.2764 18.0138 3.2764 18.1539 3.26939 18.2813 3.23201 18.4611 3.17945 18.5908 3.0498 18.5931 2.85356 18.5955 2.63397 18.4646 2.48329 18.2509 2.44357 18.0804 2.41204 17.9028 2.41788 17.7288 2.41788 16.0573 2.41554 14.3858 2.41554 12.7155 2.41554Z" fill="#FFFFFF" transform="matrix(1.01984 0 0 1 703 740.01)"/><path d="M11.4727 20.6875C11.7565 20.7085 12.0135 20.6104 12.2716 20.5251 13.713 20.0532 15.1555 19.5836 16.5934 19.1024 16.8994 18.9996 17.1845 18.9739 17.501 19.0709 19.6257 19.7261 21.546 20.7762 23.3284 22.0891 23.8704 22.4886 24.0456 22.992 23.8541 23.4441 23.6053 24.0316 22.978 24.2477 22.3391 23.923 21.2119 23.3506 20.0988 22.7502 18.9774 22.1674 18.7064 22.026 18.3864 21.7983 18.175 22.2036 17.9752 22.5855 18.2964 22.7608 18.5779 22.9126 19.2975 23.2992 20.0217 23.6777 20.74 24.0655 21.3895 24.4159 21.6184 25.0046 21.3322 25.5571 21.0449 26.1107 20.4433 26.2579 19.774 25.9157 19.0288 25.5361 18.2964 25.1319 17.5536 24.7488 17.2931 24.6145 16.973 24.4533 16.7815 24.7967 16.5736 25.1693 16.8784 25.3515 17.1681 25.5057 17.6143 25.7428 18.0663 25.9717 18.4985 26.2334 19.0674 26.578 19.2321 27.155 18.9447 27.6841 18.6632 28.2039 18.0745 28.3663 17.4811 28.0649 16.8574 27.7472 16.2442 27.4085 15.6263 27.0791 15.506 27.0148 15.3903 26.9401 15.2642 26.891 15.0107 26.7929 14.7526 26.7672 14.6089 27.058 14.4734 27.3314 14.6579 27.5066 14.8682 27.628 15.3062 27.8792 15.7548 28.114 16.2021 28.3487 16.4696 28.4889 16.6939 28.6665 16.7756 28.9725 16.9251 29.532 16.3703 30.095 15.8108 29.9186 15.4814 29.8146 15.1801 29.6208 14.8647 29.4677 14.6194 29.3486 14.568 29.1804 14.6124 28.8989 14.8156 27.614 13.977 26.8046 12.7318 27.0791 12.441 27.1433 12.2809 27.0989 12.1011 26.8513 11.4738 25.9904 10.752 25.8152 9.75678 26.2895 9.48696 26.4179 9.34445 26.3934 9.17859 26.1575 8.90176 25.7627 8.53382 25.4858 8.03857 25.4157 7.7886 25.3807 7.69983 25.2289 7.65311 24.9836 7.44169 23.8798 6.97213 23.4838 5.83094 23.4067 5.06002 23.3541 4.74932 22.8227 4.99578 22.0856 5.67792 20.038 6.34839 17.9869 6.98732 15.9253 7.15084 15.3997 7.36109 15.1824 7.93227 15.3506 8.57471 15.5398 9.1891 15.416 9.77313 15.0574 10.8466 14.3975 11.9796 14.0844 13.2107 14.6241 13.345 14.6836 13.5518 14.6848 13.5635 14.8764 13.5752 15.0644 13.3754 15.1041 13.2481 15.1777 11.9761 15.9124 10.8466 16.8212 9.80817 17.8619 9.37249 18.2988 9.3281 18.6761 9.62245 19.197 10.0511 19.9481 10.4997 20.6337 11.4727 20.6875Z" fill="#FFFFFF" transform="matrix(1.01984 0 0 1 703 740.01)"/><path d="M24.1017 21.4479C23.8424 21.4747 23.7162 21.3007 23.5632 21.1944 21.734 19.92 19.8056 18.8524 17.6517 18.2182 17.216 18.0897 16.8317 18.1049 16.4089 18.2497 14.9383 18.7543 13.456 19.2239 11.9843 19.7238 11.4762 19.8967 11.0767 19.8032 10.745 19.3769 10.2637 18.7578 10.2661 18.6235 10.8372 18.064 12.4223 16.5128 14.2853 15.4324 16.3878 14.7327 17.3783 14.4033 18.2883 14.5773 19.1246 15.0878 19.9761 15.6087 20.83 15.8073 21.7854 15.4873 22.0447 15.4008 22.2445 15.4476 22.3379 15.7361 22.9255 17.5676 23.5153 19.3991 24.1005 21.2306 24.1204 21.2972 24.1017 21.3754 24.1017 21.4479Z" fill="#FFFFFF" transform="matrix(1.01984 0 0 1 703 740.01)"/><path d="M3.58593 22.151C3.51936 22.1358 3.40372 22.116 3.29392 22.0809 2.36882 21.7808 1.44372 21.4794 0.519785 21.1757 0.0770918 21.0297-0.101621 20.7622 0.0548987 20.2833 0.919261 17.64 1.77428 14.9932 2.62579 12.3464 2.78465 11.8523 3.09535 11.7214 3.57192 11.8768 4.49702 12.1782 5.42446 12.4702 6.35072 12.7657 6.82729 12.9175 6.99432 13.2072 6.8308 13.7036 5.96293 16.3458 5.10441 18.9914 4.24472 21.6359 4.14777 21.9373 3.99359 22.1627 3.58593 22.151Z" fill="#FFFFFF" transform="matrix(1.01984 0 0 1 703 740.01)"/><path d="M25.9893 22.1405C25.3223 22.1756 25.2172 21.8251 25.1074 21.4876 24.354 19.176 23.6099 16.8621 22.8484 14.5528 22.2889 12.8568 22.3192 13.0133 23.8762 12.5134 24.5432 12.2996 25.2078 12.08 25.8748 11.8663 26.328 11.7203 26.6259 11.8686 26.7754 12.3312 27.6351 14.9967 28.4971 17.661 29.3614 20.3242 29.4561 20.615 29.4572 20.9246 29.1629 21.0344 28.0521 21.449 26.926 21.8181 25.9893 22.1405Z" fill="#FFFFFF" transform="matrix(1.01984 0 0 1 703 740.01)"/><path d="M22.6802 3.93752C21.1243 3.93986 21.1243 3.93986 21.1255 2.35247 21.1255 2.02307 21.1185 1.69251 21.1348 1.36312 21.15 1.05359 21.2691 0.8959 21.553 1.17039 22.3753 1.96701 23.1929 2.76829 24.0071 3.57192 24.0701 3.63382 24.1426 3.74129 24.1309 3.81487 24.1075 3.96555 23.9533 3.93402 23.8447 3.93518 23.4557 3.94102 23.068 3.93752 22.6802 3.93752Z" fill="#FFFFFF" transform="matrix(1.01984 0 0 1 703 740.01)"/><path d="M8.62259 27.0884C8.62844 27.5031 7.7267 28.8487 7.34708 28.9888 7.01068 29.1138 6.68946 29.0659 6.42548 28.816 6.16267 28.5672 6.05871 28.2436 6.21056 27.9119 6.45235 27.3793 6.7759 26.8875 7.17771 26.4647 7.42417 26.2054 7.76524 26.1785 8.09931 26.3245 8.43687 26.4717 8.58639 26.7532 8.62259 27.0884Z" fill="#FFFFFF" transform="matrix(1.01984 0 0 1 703 740.01)"/><path d="M6.79459 25.0408C6.78291 25.5945 5.92906 26.8384 5.50856 26.9985 5.16281 27.1305 4.85094 27.044 4.59864 26.7941 4.32298 26.5207 4.25289 26.1738 4.4281 25.8304 4.66522 25.3632 4.95139 24.9193 5.30765 24.5327 5.56229 24.257 5.88701 24.1437 6.25728 24.3108 6.61003 24.4685 6.79459 24.7418 6.79459 25.0408Z" fill="#FFFFFF" transform="matrix(1.01984 0 0 1 703 740.01)"/><path d="M11.5229 27.8862C11.2414 28.4994 10.9225 29.1897 10.2766 29.6336 9.95184 29.8567 9.59792 29.7329 9.32226 29.4607 9.0431 29.1851 8.95899 28.8347 9.14589 28.4994 9.40052 28.0439 9.6937 27.6024 10.0208 27.1947 10.2532 26.9039 10.5978 26.8092 10.9704 26.9669 11.3348 27.1211 11.4948 27.4096 11.5229 27.8862Z" fill="#FFFFFF" transform="matrix(1.01984 0 0 1 703 740.01)"/><path d="M12.6173 29.9805C12.1676 29.9992 11.8558 29.6009 12.0181 29.1535 12.177 28.7155 12.4573 28.3312 12.7926 28.0123 13.1044 27.7157 13.5845 27.8535 13.748 28.2436 13.9478 28.7202 13.1406 29.9595 12.6173 29.9805Z" fill="#FFFFFF" transform="matrix(1.01984 0 0 1 703 740.01)"/></g></g></g></svg>