<svg width="64" height="64" xmlns="http://www.w3.org/2000/svg" href="http://www.w3.org/1999/xlink" overflow="hidden"><defs><clipPath id="clip0"><rect x="703" y="374" width="30" height="31"/></clipPath><clipPath id="clip1"><rect x="703" y="374" width="30" height="31"/></clipPath></defs><g transform="translate(-686 -358)"><path d="M687 389.5C687 372.103 700.879 358 718 358 735.121 358 749 372.103 749 389.5 749 406.897 735.121 421 718 421 700.879 421 687 406.897 687 389.5Z" fill="#ED7D31" fill-rule="evenodd"/><g clip-path="url(#clip0)"><g clip-path="url(#clip1)"><path d="M14.5662 20.7229C14.5662 22.22 14.5486 23.7183 14.5755 25.2155 14.5848 25.7562 14.3886 25.9255 13.862 25.9162 12.4232 25.8893 10.9833 25.8975 9.54455 25.9126 9.16034 25.9173 8.90576 25.8087 8.6757 25.4735 7.17389 23.2921 4.2672 23.3073 2.74787 25.4876 2.49095 25.8554 1.55903 26.0808 1.18533 25.8531 0.917903 25.6896 0.989139 25.407 0.989139 25.1641 0.9833 22.8109 0.985636 20.4578 0.985636 18.1035 0.985636 17.4226 0.998482 16.7418 0.982132 16.061 0.971622 15.6207 1.13395 15.4292 1.5964 15.4385 2.62642 15.4607 3.65876 15.4607 4.68878 15.4385 5.14189 15.4292 5.32057 15.602 5.31356 16.0504 5.29838 16.945 5.32407 17.8395 5.30538 18.7341 5.29487 19.2152 5.46654 19.2853 5.84608 19.0494 5.87878 19.0284 5.91965 19.019 5.95002 18.9957 7.18557 18.0346 8.39309 18.1175 9.65316 18.9992 10.2382 19.4091 10.2943 19.3332 10.2966 18.6103 10.299 17.794 10.3188 16.9754 10.2896 16.1602 10.2709 15.6476 10.4204 15.4152 10.9775 15.4362 11.9491 15.4712 12.923 15.4654 13.8947 15.4385 14.398 15.4245 14.6281 15.602 14.5673 16.1123 14.565 16.131 14.5673 16.1509 14.5673 16.1707 14.5662 17.6889 14.5662 19.2059 14.5662 20.7229Z" fill="#FFFFFF" transform="matrix(1 0 0 1.03333 703 374)"/><path d="M25.8986 5.82856C25.894 6.44984 25.5541 7.54759 24.8102 8.50169 23.5432 10.1273 22.2586 11.74 20.9961 13.3703 20.7392 13.702 20.5839 13.6775 20.3398 13.3621 19.0763 11.733 17.766 10.1401 16.5304 8.49002 14.363 5.59383 15.5728 1.48429 18.9069 0.305968 22.3415-0.907392 25.8905 1.59991 25.8986 5.82856ZM20.6493 1.71085C18.6804 1.71786 17.1342 3.26638 17.14 5.22597 17.1459 7.15403 18.7493 8.76796 20.6645 8.77263 22.5762 8.77847 24.1948 7.15987 24.1971 5.24115 24.1995 3.24069 22.6568 1.70501 20.6493 1.71085Z" fill="#FFFFFF" transform="matrix(1 0 0 1.03333 703 374)"/><path d="M15.4409 21.6618C15.442 20.8058 15.4525 19.9498 15.4373 19.0938 15.4303 18.6956 15.6008 18.5215 15.9886 18.5227 17.3701 18.5274 18.7516 18.5239 20.132 18.5356 20.3025 18.5367 20.4881 18.5741 20.6388 18.65 20.9821 18.8228 21.0639 19.1744 21.0242 19.5002 20.9845 19.826 20.654 19.7069 20.4438 19.7139 19.861 19.7314 19.276 19.7069 18.6932 19.7279 18.0462 19.7513 17.7122 20.0631 17.6947 20.7007 17.6562 22.1686 17.5219 22.7782 19.5037 22.686 20.125 22.6568 20.7486 22.6953 21.371 22.6778 21.7202 22.6685 21.9117 22.8004 21.9923 23.1438 22.1686 23.9005 22.3543 24.6561 22.554 25.4082 22.6544 25.7842 22.5003 25.8916 22.1511 25.9115 21.6583 25.9395 21.2963 25.8578 20.9775 25.3825 19.8821 23.7487 17.7099 23.3773 16.0796 24.4774 15.915 24.5883 15.7643 24.8628 15.5413 24.7191 15.3509 24.5965 15.4444 24.3233 15.442 24.1154 15.435 23.2967 15.4397 22.4793 15.4409 21.6618Z" fill="#FFFFFF" transform="matrix(1 0 0 1.03333 703 374)"/><path d="M6.68808 3.07602C8.75978 3.08654 10.0747 5.29721 9.04706 7.00572 8.44914 7.99953 7.67955 8.89058 6.99171 9.83067 6.80486 10.0864 6.65771 10.0234 6.49772 9.80497 5.84024 8.91393 5.14423 8.04975 4.52879 7.13068 3.95305 6.26883 3.94488 5.32874 4.46456 4.42602 4.97022 3.55016 5.77134 3.13091 6.68808 3.07602ZM7.71575 5.7328C7.71809 5.2505 7.27782 4.79622 6.79318 4.7787 6.28051 4.76001 5.81689 5.21079 5.81572 5.7293 5.81455 6.24314 6.21511 6.65888 6.72778 6.6764 7.24162 6.69508 7.71459 6.24314 7.71575 5.7328Z" fill="#FFFFFF" transform="matrix(1 0 0 1.03333 703 374)"/><path d="M29.993 19.1814C30.0397 19.6905 29.854 20.1997 29.5282 20.6505 28.9244 21.4855 28.2938 22.2994 27.6854 23.1321 27.4658 23.4322 27.2907 23.4521 27.0641 23.1414 26.4335 22.2784 25.7608 21.4446 25.1582 20.5617 24.5253 19.6345 24.6094 18.3686 25.2902 17.5055 26.0084 16.5958 27.1762 16.2642 28.2786 16.6577 29.3262 17.0326 29.9883 17.9832 29.993 19.1814ZM27.3818 18.1992C26.8434 18.1969 26.4674 18.5648 26.4569 19.1031 26.4463 19.6625 26.8422 20.0946 27.3701 20.0993 27.8711 20.1039 28.2821 19.694 28.295 19.1755 28.309 18.6021 27.9341 18.2004 27.3818 18.1992Z" fill="#FFFFFF" transform="matrix(1 0 0 1.03333 703 374)"/><path d="M18.0684 30C16.5982 29.993 15.4338 28.8263 15.4432 27.3689 15.4525 25.9255 16.646 24.7425 18.0953 24.7413 19.5667 24.7402 20.7743 25.9605 20.7497 27.425 20.7264 28.8836 19.5562 30.007 18.0684 30ZM19.0471 27.335C19.033 26.8282 18.6196 26.4569 18.0789 26.465 17.5196 26.4732 17.1225 26.8843 17.147 27.4296 17.1704 27.9493 17.5663 28.309 18.1105 28.3032 18.657 28.2973 19.0611 27.8804 19.0471 27.335Z" fill="#FFFFFF" transform="matrix(1 0 0 1.03333 703 374)"/><path d="M5.72113 30C4.25318 29.9988 3.07602 28.8415 3.07019 27.3934 3.06435 25.9582 4.25318 24.7588 5.69894 24.7425 7.16805 24.7261 8.38374 25.9337 8.3744 27.4004 8.36623 28.8602 7.20075 30.0012 5.72113 30ZM5.69427 28.3032C6.26299 28.316 6.66939 27.9353 6.67173 27.3876 6.67406 26.8644 6.29335 26.4825 5.75733 26.4662 5.19327 26.4498 4.77286 26.8411 4.77403 27.3806 4.7752 27.8956 5.16992 28.2915 5.69427 28.3032Z" fill="#FFFFFF" transform="matrix(1 0 0 1.03333 703 374)"/><path d="M27.9995 14.6958C27.9108 15.0777 28.17 15.5903 27.4775 15.6254 26.9613 15.6511 26.7465 15.5027 26.7605 14.9457 26.8084 13.1461 26.3611 11.4504 25.588 9.83417 25.3638 9.36471 25.4946 8.8135 25.901 8.51104 26.1847 8.30083 26.2326 8.59045 26.3132 8.72825 27.0431 9.98248 27.5102 11.336 27.7566 12.7607 27.8699 13.4112 27.9225 14.0687 27.9995 14.6958Z" fill="#FFFFFF" transform="matrix(1 0 0 1.03333 703 374)"/><path d="M2.10674 13.855C2.27023 12.0472 2.78057 10.327 3.68679 8.73059 3.79657 8.53673 3.86664 8.11865 4.15742 8.26579 4.45989 8.41995 4.7133 8.74693 4.73315 9.15217 4.73549 9.20589 4.70396 9.26544 4.67593 9.31566 3.85496 10.8455 3.3925 12.4781 3.23485 14.2053 3.18813 14.7215 2.75721 14.5627 2.45708 14.5638 1.91405 14.5662 2.15695 14.1422 2.10674 13.855Z" fill="#FFFFFF" transform="matrix(1 0 0 1.03333 703 374)"/><path d="M14.7752 2.04368C14.9247 2.07988 15.1898 1.94208 15.2762 2.2352 15.3439 2.46526 14.8569 3.21967 14.6175 3.23018 13.1309 3.29557 11.7097 3.62607 10.3293 4.18078 9.77228 4.405 9.74191 3.79306 9.55156 3.5233 9.35537 3.24536 9.71739 3.19748 9.88555 3.12274 11.4271 2.43606 13.0585 2.13593 14.7752 2.04368Z" fill="#FFFFFF" transform="matrix(1 0 0 1.03333 703 374)"/><path d="M7.83137 15.4479C8.16069 15.4479 8.49118 15.4619 8.81934 15.4444 9.22807 15.4233 9.43945 15.5716 9.4231 16.0084 9.40558 16.4732 9.41843 16.938 9.41726 17.4028 9.41609 17.7286 9.26778 17.822 8.97349 17.6784 8.90342 17.6445 8.82635 17.6212 8.76562 17.5756 8.10931 17.0875 7.47986 17.1225 6.79318 17.5639 6.28868 17.8874 6.20927 17.8115 6.19993 17.2311 6.19409 16.8434 6.22212 16.4545 6.19292 16.0691 6.15555 15.5728 6.38211 15.4117 6.84456 15.4432 7.17155 15.4654 7.50204 15.4479 7.83137 15.4479Z" fill="#FFFFFF" transform="matrix(1 0 0 1.03333 703 374)"/><path d="M11.9024 26.7838C12.6206 26.7838 13.3388 26.7943 14.0558 26.7803 14.4774 26.7722 14.5732 26.9882 14.5755 27.3631 14.5778 27.752 14.5008 27.996 14.0406 27.9914 12.6241 27.9797 11.2075 27.9797 9.79096 27.9925 9.34252 27.996 9.24326 27.7776 9.24092 27.3771 9.23858 26.9625 9.36938 26.7663 9.80614 26.778 10.5045 26.7955 11.204 26.7827 11.9024 26.7838Z" fill="#FFFFFF" transform="matrix(1 0 0 1.03333 703 374)"/><path d="M20.0315 21.8019C19.7209 21.8008 19.4091 21.7891 19.0984 21.8043 18.6687 21.8253 18.5087 21.6186 18.511 21.2075 18.5134 20.814 18.6313 20.5781 19.0786 20.5909 19.6812 20.6084 20.2838 20.6073 20.8864 20.5933 21.4983 20.5792 21.5018 21.058 21.538 21.4387 21.5836 21.914 21.1655 21.7751 20.9062 21.7973 20.6154 21.8218 20.3223 21.8031 20.0315 21.8019Z" fill="#FFFFFF" transform="matrix(1 0 0 1.03333 703 374)"/><path d="M23.0714 23.7732C23.0889 23.7148 23.0889 23.6237 23.1332 23.5712 23.6342 22.9779 24.1376 22.3882 24.6502 21.8043 24.774 21.663 24.9153 21.7424 24.9889 21.8662 25.1571 22.1453 25.6137 22.359 25.3603 22.7537 24.8966 23.4754 24.2859 24.0815 23.6436 24.6491 23.4684 24.8044 23.3248 24.7694 23.2617 24.5288 23.1986 24.2835 23.1379 24.0383 23.0714 23.7732Z" fill="#FFFFFF" transform="matrix(1 0 0 1.03333 703 374)"/><path d="M1.10008 27.989C0.944762 27.989 0.788275 27.9808 0.634124 27.9914 0.206703 28.0194-0.00350345 27.8734 0 27.3958 0.00350345 26.945 0.155319 26.7511 0.609599 26.778 0.938923 26.7979 1.27058 26.799 1.59991 26.778 2.06119 26.7488 2.20367 26.9555 2.20133 27.4016 2.199 27.8279 2.04835 28.0171 1.62443 27.9902 1.45043 27.9797 1.27525 27.989 1.10008 27.989Z" fill="#FFFFFF" transform="matrix(1 0 0 1.03333 703 374)"/><path d="M22.2165 27.982C21.7611 28.0416 21.6186 27.8267 21.6151 27.3818 21.6116 26.9263 21.7833 26.7757 22.2259 26.7733 22.6778 26.771 22.8413 26.9473 22.8401 27.3888 22.839 27.8325 22.6731 28.0439 22.2165 27.982Z" fill="#FFFFFF" transform="matrix(1 0 0 1.03333 703 374)"/><path d="M14.5568 12.9382C14.6257 13.4065 14.3875 13.5315 13.9542 13.5385 13.4894 13.5467 13.3516 13.3458 13.354 12.916 13.3563 12.4933 13.5385 12.331 13.9472 12.3345 14.363 12.3368 14.6281 12.4594 14.5568 12.9382Z" fill="#FFFFFF" transform="matrix(1 0 0 1.03333 703 374)"/><path d="M16.0481 13.521C15.595 13.5887 15.4373 13.3832 15.4315 12.9359 15.4257 12.4688 15.6417 12.3333 16.061 12.3333 16.4709 12.3333 16.6519 12.498 16.6507 12.9195 16.6507 13.3458 16.5222 13.5934 16.0481 13.521Z" fill="#FFFFFF" transform="matrix(1 0 0 1.03333 703 374)"/><path d="M12.4664 12.9184C12.519 13.3224 12.394 13.5326 11.9386 13.5385 11.4785 13.5443 11.3325 13.3691 11.3325 12.9219 11.3325 12.4945 11.4901 12.3286 11.9094 12.331 12.3204 12.3345 12.54 12.4816 12.4664 12.9184Z" fill="#FFFFFF" transform="matrix(1 0 0 1.03333 703 374)"/></g></g></g></svg>