<svg width="64" height="64" xmlns="http://www.w3.org/2000/svg" xmlns:xlink="http://www.w3.org/1999/xlink" overflow="hidden"><defs><clipPath id="clip0"><rect x="703" y="509" width="30" height="30"/></clipPath><clipPath id="clip1"><rect x="703" y="509" width="30" height="30"/></clipPath></defs><g transform="translate(-686 -492)"><path d="M687 524C687 506.879 700.879 493 718 493 735.121 493 749 506.879 749 524 749 541.121 735.121 555 718 555 700.879 555 687 541.121 687 524Z" fill="#ED7D31" fill-rule="evenodd"/><g clip-path="url(#clip0)"><g clip-path="url(#clip1)"><path d="M12.1972 0.00116709C15.4242 0.00116709 18.6524-0.00233417 21.8794 0.00583544 22.247 0.00700252 22.6205 0.0315114 22.9788 0.106205 23.8249 0.283602 24.3641 0.996693 24.3653 1.88251 24.3664 2.75666 23.8144 3.45925 22.9718 3.65765 22.0206 3.88057 22.0206 3.88057 22.0206 4.86559 22.0206 6.45983 22.0031 8.05407 22.0299 9.64831 22.0393 10.1723 21.8782 10.5563 21.5281 10.9461 19.1986 13.5394 17.0535 16.261 15.3939 19.3561 13.376 23.1177 14.5419 27.0006 17.0873 29.3604 17.1982 29.4631 17.3861 29.56 17.3371 29.7245 17.2741 29.9346 17.0465 29.8774 16.8819 29.8774 11.9626 29.8798 7.04337 29.8891 2.1241 29.8716 0.919665 29.8669 0.122544 29.218 0.014005 28.2669-0.103871 27.2386 0.507683 26.3377 1.54989 26.2233 2.25831 26.1451 2.37502 25.8405 2.36335 25.2161 2.32717 23.3114 2.34935 21.4055 2.35051 19.4997 2.35168 18.6419 2.35285 18.6419 3.23517 18.6396 3.95409 18.6384 4.67418 18.6454 5.39311 18.636 6.06885 18.6267 6.43649 18.3058 6.45166 17.7351 6.46683 17.1597 6.11087 16.8294 5.42462 16.8212 4.31706 16.8072 3.20716 16.8352 2.09959 16.8037 0.772612 16.7652-0.0151721 16.0218 0.00700252 14.8874 0.0245088 14.0097 0.636063 13.3025 1.51255 13.1461 2.35051 12.9967 2.35051 12.9967 2.35051 12.1272 2.35051 10.1828 2.36685 8.23847 2.34118 6.2941 2.33417 5.7339 2.52091 5.53316 3.07994 5.56 3.85606 5.59618 4.6345 5.57634 5.41295 5.56584 6.0957 5.5565 6.45399 5.23205 6.45399 4.65434 6.45399 4.0708 6.10853 3.76036 5.41295 3.75335 4.28554 3.74168 3.15697 3.76736 2.02956 3.73818 0.798288 3.70667 0.00466835 2.9504 0.00583544 1.86734 0.00816961 1.00486 0.569539 0.277767 1.41334 0.101537 1.77164 0.026843 2.14627 0.00583544 2.51391 0.00466835 5.74207-0.00233417 8.96907 0.00116709 12.1972 0.00116709Z" fill="#FFFFFF" transform="matrix(1 0 0 1.00391 703.018 509)"/><path d="M23.2834 29.7992C19.4705 29.8016 16.4419 26.6691 16.5855 22.8597 16.6217 21.8864 16.9998 21.0064 17.4304 20.1544 18.6489 17.7409 20.3237 15.6471 22.065 13.6012 22.3042 13.32 22.5505 13.0445 22.7967 12.7703 23.1048 12.426 23.4281 12.4073 23.7386 12.7586 25.837 15.1383 27.8094 17.5997 29.2752 20.4474 31.5242 24.8169 27.9389 29.8599 23.2834 29.7992ZM22.8352 27.6145C23.029 27.6145 23.2262 27.6343 23.4176 27.6086 23.6195 27.5806 23.923 27.5981 23.9475 27.3565 23.9708 27.1243 23.6709 27.1383 23.4946 27.0881 22.0066 26.6574 20.8687 25.7716 20.0622 24.4563 19.4997 23.539 19.2289 22.5388 19.2394 21.4627 19.2406 21.332 19.285 21.1616 19.1169 21.1091 18.9091 21.0449 18.8531 21.2387 18.7948 21.3705 18.5228 21.9751 18.2731 22.5913 18.2988 23.2706 18.3863 25.6689 20.4264 27.6238 22.8352 27.6145Z" fill="#FFFFFF" transform="matrix(1 0 0 1.00391 703.018 509)"/></g></g></g></svg>