<svg width="2603" height="1495" xmlns="http://www.w3.org/2000/svg" xmlns:xlink="http://www.w3.org/1999/xlink" xml:space="preserve" overflow="hidden"><defs><clipPath id="clip0"><rect x="1002" y="490" width="2603" height="1495"/></clipPath></defs><g clip-path="url(#clip0)" transform="translate(-1002 -490)"><path d="M3079.65 490 3605 490 3605 755.612 3154.61 755.612C2913.2 755.612 2717.51 951.356 2717.51 1192.82 2717.51 1207.91 2718.27 1222.82 2719.76 1237.52L2719.84 1238 2379.28 1238 2377 1192.82 2380.63 1120.96C2416.61 766.56 2715.84 490 3079.65 490Z" fill="#BE82F9" fill-rule="evenodd"/><path d="M2902.35 1985 2377 1985 2377 1719.39 2827.39 1719.39C3068.8 1719.39 3264.49 1523.64 3264.49 1282.18 3264.49 1267.09 3263.73 1252.18 3262.24 1237.48L3262.16 1237 3602.72 1237 3605 1282.18 3601.37 1354.04C3565.39 1708.44 3266.16 1985 2902.35 1985Z" fill="#BE82F9" fill-rule="evenodd"/><path d="M1002 490 1263.84 490 1263.84 1723.23 2023 1723.23 2023 1985 1002 1985 1002 1985 1002 1723.23Z" fill="#BE82F9" fill-rule="evenodd"/></g></svg>