<svg width="224.98" height="224.83" viewBox="0 0 224.98 224.83" xmlns="http://www.w3.org/2000/svg" xmlns:xlink="http://www.w3.org/1999/xlink" xml:space="preserve" overflow="visible"><defs></defs><g><path d="M32.08 167.98C32.08 156.66 32.24 145.33 32 134.01 31.91 129.59 33.1 127.73 37.86 127.93 46.17 128.27 54.51 128.13 62.84 127.98 66.44 127.92 69.66 128.75 71.66 131.69 79.29 142.89 89.98 145.6 102.8 144.16 109.71 143.38 116.77 143.95 123.77 144.05 131.74 144.16 136.89 149.25 136.77 156.7 136.65 163.94 131.61 168.65 123.73 168.71 114.24 168.78 104.74 168.72 95.25 168.74 92.52 168.75 89.26 168.77 89.2 172.32 89.14 175.9 92.38 176.01 95.13 176.01 104.46 176.03 113.78 176.13 123.11 175.98 133.21 175.81 139.95 170.97 142.94 161.53 143.81 158.77 145.59 157.46 147.8 156.27 163.78 147.68 179.72 139 195.78 130.54 205.65 125.34 216.71 128.24 222.06 137.07 227.63 146.28 225.16 157.27 215.56 163.7 189 181.49 162.32 199.12 135.64 216.73 130.32 220.24 124.42 222.52 118.13 223.76 108.1 225.73 98.24 224.93 88.54 222 77.87 218.78 67.22 215.47 56.61 212.02 50.24 209.95 43.89 208.01 37.08 208.75 32.98 209.19 31.99 207.17 32.04 203.46 32.18 191.63 32.09 179.8 32.08 167.98Z" fill="#FFFFFF"/><path d="M168.45 40.02C182.77 40.02 197.09 40.14 211.41 39.95 215.54 39.9 216.89 41.3 216.85 45.41 216.69 64.73 216.82 84.04 216.75 103.36 216.73 109.62 213.78 112.67 207.63 112.69 181.49 112.75 155.34 112.75 129.2 112.69 123.08 112.67 120.12 109.6 120.1 103.33 120.04 84.01 120.17 64.7 120 45.38 119.96 41.24 121.37 39.9 125.47 39.95 139.8 40.13 154.13 40.02 168.45 40.02Z" fill="#FFFFFF"/><path d="M168.21 32.71C152.89 32.71 137.57 32.74 122.26 32.7 114.79 32.68 112.14 29.95 112.09 22.38 112.06 17.88 112.01 13.39 112.11 8.89 112.25 3.22 115.15 0.07 120.69 0.06 152.49-0.02 184.29-0.02 216.09 0.06 221.65 0.07 224.6 3.21 224.74 8.84 224.86 13.83 224.86 18.83 224.74 23.82 224.61 29.67 221.62 32.64 215.65 32.67 199.84 32.76 184.03 32.71 168.21 32.71Z" fill="#FFFFFF"/><path d="M92.74 26.09C92.49 27.45 91.32 27.91 90.34 28.47 77.32 35.91 64.28 43.31 51.28 50.78 49.33 51.9 47.67 51.96 45.7 50.83 32.7 43.35 19.68 35.92 6.62 28.56 3.16 26.61 3.79 25.25 6.79 23.47 18.96 16.24 31.07 8.9 43.2 1.59 46.67-0.5 50.12-0.54 53.59 1.54 65.87 8.92 78.15 16.31 90.42 23.71 91.38 24.29 92.54 24.74 92.74 26.09Z" fill="#FFFFFF"/><path d="M52.09 84.86C52.09 77.53 52.21 70.21 52.03 62.89 51.95 59.7 52.96 57.64 55.82 56.04 67.88 49.3 79.82 42.35 91.85 35.55 96.24 33.07 96.76 33.41 96.78 38.54 96.82 52.02 96.7 65.51 96.84 78.99 96.89 83.31 95.18 86.25 91.61 88.47 79.88 95.77 68.16 103.09 56.52 110.52 52.85 112.86 52 111.57 52.06 107.83 52.16 100.17 52.09 92.51 52.09 84.86Z" fill="#FFFFFF"/><path d="M44.78 84.85C44.78 92.67 44.72 100.49 44.81 108.31 44.85 111.75 43.71 112.55 40.73 110.67 28.63 103.04 16.5 95.45 4.39 87.83 1.3 85.89 0.04 83.07 0.06 79.41 0.14 65.6 0.16 51.79 0.05 37.98 0.02 33.96 1.23 33.28 4.66 35.26 16.9 42.34 29.18 49.35 41.5 56.29 44 57.7 44.88 59.59 44.83 62.39 44.7 69.87 44.78 77.36 44.78 84.85Z" fill="#FFFFFF"/><path d="M0.09 168.14C0.09 153.99 0.22 139.84 0.01 125.69-0.06 121.39 1.2 119.55 5.67 119.95 9.14 120.26 12.66 119.92 16.15 120.04 21.52 120.22 24.71 123.12 24.73 128.37 24.83 155 24.82 181.64 24.73 208.27 24.71 213.53 21.53 216.47 16.21 216.66 12.55 216.79 8.87 216.5 5.23 216.75 1.32 217.01-0.02 215.5 0.03 211.58 0.19 197.11 0.09 182.63 0.09 168.14Z" fill="#FFFFFF"/></g></svg>