<svg width="257.09" height="246.81" viewBox="0 0 257.09 246.81" xmlns="http://www.w3.org/2000/svg" xmlns:xlink="http://www.w3.org/1999/xlink" xml:space="preserve" overflow="visible"><defs></defs><g><path d="M128.53 105.3C159.52 105.3 190.51 105.23 221.49 105.33 238.99 105.39 252.58 116.2 256.27 132.66 260.91 153.33 244.88 173.64 223.76 173.84 212.84 173.94 212.84 173.94 212.84 185.11 212.84 192.27 212.73 199.44 212.88 206.6 212.95 209.99 211.66 211.5 208.25 211.47 198.92 211.41 189.59 211.4 180.26 211.47 176.57 211.5 175.32 209.71 175.36 206.21 175.46 197.05 175.27 187.88 175.43 178.72 175.49 175.07 174.22 173.76 170.5 173.78 142.51 173.89 114.52 173.89 86.53 173.78 82.81 173.77 81.53 175.07 81.6 178.72 81.76 187.55 81.45 196.39 81.72 205.21 81.87 210.07 79.95 211.67 75.27 211.54 66.95 211.3 58.6 211.26 50.28 211.56 45.37 211.73 43.95 209.79 44.11 205.1 44.41 196.45 44.01 187.77 44.27 179.12 44.4 174.88 42.83 173.51 38.77 173.8 31.88 174.29 25.17 173.6 18.85 170.38 5.01 163.28-2.57 147.6 0.79 132.65 4.45 116.34 17.9 105.42 35.07 105.34 66.22 105.19 97.38 105.3 128.53 105.3ZM128.7 124.75C119.88 124.67 113.58 130.94 113.58 139.8 113.58 148.24 119.9 154.82 128.23 155.05 136.37 155.28 143.37 148.2 143.39 139.73 143.4 131.18 137.17 124.82 128.7 124.75ZM36.33 124.75C27.59 124.79 21.38 131.23 21.51 140.1 21.63 148.45 28.24 155.06 36.46 155.05 44.67 155.04 51.46 147.93 51.32 139.45 51.2 130.98 44.8 124.7 36.33 124.75ZM159.61 139.55C159.56 147.99 166.42 155.09 174.58 155.05 182.6 155.01 189.33 148.16 189.41 139.94 189.51 131.1 183.23 124.73 174.46 124.75 165.94 124.77 159.67 131.02 159.61 139.55ZM235.44 139.57C235.4 131 229.18 124.78 220.63 124.75 211.95 124.72 205.54 131.2 205.64 139.93 205.73 148.11 212.48 154.99 220.49 155.04 228.66 155.1 235.49 148.04 235.44 139.57ZM82.71 124.75C73.89 124.65 67.57 130.91 67.55 139.75 67.53 148.19 73.81 154.76 82.15 155.05 90.07 155.32 97.19 148.42 97.36 140.3 97.54 131.46 91.31 124.84 82.71 124.75Z" fill="#FFFFFF"/><path d="M128 246.8C88.53 246.8 49.05 246.8 9.58 246.8 0.91 246.8 0.21 246.08 0.2 237.39 0.19 231.89 0.29 226.4 0.18 220.9 0.1 216.72 2.22 214.78 6.17 214.51 7.83 214.4 9.5 214.42 11.16 214.42 89.44 214.42 167.73 214.42 246.01 214.42 247.84 214.42 249.69 214.37 251.5 214.57 254.97 214.95 256.91 216.79 256.89 220.48 256.85 226.98 256.95 233.47 256.87 239.97 256.81 245.27 255.35 246.74 249.92 246.77 237.1 246.85 224.27 246.8 211.44 246.8 183.63 246.8 155.81 246.8 128 246.8Z" fill="#FFFFFF"/><path d="M187.54 96.66C174.21 96.66 160.88 96.7 147.55 96.65 140.73 96.62 139.23 95.13 139.22 88.5 139.2 61.67 139.2 34.85 139.22 8.02 139.23 1.41 140.49 0.19 147.15 0.15 153.81 0.11 160.5 0.47 167.14 0.04 172.45-0.3 173.73 1.97 173.57 6.73 173.32 14.39 173.65 22.06 173.45 29.72 173.34 33.81 174.8 35.41 178.97 35.22 184.96 34.95 190.97 34.96 196.96 35.22 201.24 35.41 202.45 33.56 202.36 29.58 202.17 21.59 202.45 13.58 202.25 5.59 202.15 1.51 203.61-0.07 207.77 0.08 214.93 0.33 222.1 0.1 229.26 0.16 235 0.21 236.65 1.77 236.67 7.69 236.73 34.85 236.74 62.01 236.67 89.17 236.66 94.77 234.73 96.6 229.03 96.64 215.2 96.71 201.37 96.66 187.54 96.66ZM187.27 71.47C194.9 71.47 202.54 71.5 210.17 71.44 211.56 71.43 213.65 71.81 213.73 69.76 213.82 67.67 211.77 67.87 210.34 67.87 195.24 67.84 180.14 67.84 165.04 67.86 163.6 67.86 161.49 67.65 161.49 69.6 161.49 72.03 163.88 71.42 165.36 71.43 172.67 71.52 179.97 71.47 187.27 71.47Z" fill="#FFFFFF"/><path d="M68.37 96.57C66.16 96.57 63.99 96.68 61.84 96.54 58.81 96.35 57.21 94.53 56.19 91.71 54.38 86.72 51.8 85.63 47.06 87.82 43.72 89.37 41 88.94 38.5 86.28 36.68 84.34 34.84 82.39 32.83 80.65 28.94 77.28 26.91 73.95 30 68.59 31.76 65.55 29.88 62.14 26.36 61.19 21.5 59.87 20.11 56.81 20.33 52.28 20.45 49.79 20.47 47.28 20.33 44.79 20.07 40.12 21.43 36.93 26.43 35.36 30.31 34.14 31.75 30.87 29.56 27.01 27.47 23.33 28.16 20.45 31.19 17.71 33.53 15.59 35.8 13.36 37.89 10.99 40.67 7.83 43.48 6.85 47.5 9.07 51.35 11.19 54.77 9.71 56.06 5.44 57.31 1.33 59.79-0.12 63.83 0.11 66.49 0.26 69.17 0.32 71.82 0.1 76.9-0.34 80.36 0.93 81.95 6.5 82.95 10 86.42 11.11 89.67 9.19 94.05 6.6 97.16 7.97 100.15 11.34 101.8 13.21 103.58 14.98 105.45 16.63 108.93 19.72 110.42 22.85 107.82 27.53 105.74 31.26 107.53 34.45 111.56 35.66 115.64 36.88 117.15 39.38 116.89 43.44 116.73 45.93 116.71 48.44 116.89 50.93 117.26 56.01 116.46 59.82 110.53 61.59 107.07 62.62 105.86 66.3 108.01 69.85 110.26 73.56 109.28 76.42 106.34 79.12 104.5 80.81 102.72 82.57 101.05 84.43 97.77 88.08 94.38 90.23 89.31 87.33 86.76 85.87 83 86.81 82.39 89.28 80.4 97.51 74.45 96.96 68.37 96.57ZM47.58 48.49C47.65 60.43 57.06 70.04 68.68 70.02 80.41 70.01 90.28 60 90.21 48.19 90.14 36.28 80.34 26.68 68.39 26.82 56.65 26.95 47.51 36.47 47.58 48.49Z" fill="#FFFFFF"/><path d="M198.81 16.4C198.81 19.89 198.71 23.39 198.84 26.87 198.96 30.2 197.66 31.84 194.2 31.7 191.38 31.59 188.55 31.69 185.72 31.69 176.56 31.69 176.56 31.69 176.56 22.28 176.56 16.46 176.63 10.64 176.57 4.82 176.54 1.54 177.79-0.07 181.3 0.09 185.61 0.28 189.95 0.27 194.27 0.1 197.83-0.04 198.96 1.64 198.85 4.92 198.71 8.75 198.81 12.58 198.81 16.4Z" fill="#FFFFFF"/><path d="M117.2 139.87C117.16 133.45 121.98 128.34 128.22 128.19 134.69 128.04 139.86 133.18 139.86 139.76 139.86 146.17 135.05 151.01 128.57 151.14 122.31 151.27 117.25 146.26 117.2 139.87Z" fill="#FFFFFF"/><path d="M36.37 128.19C42.67 128.14 47.83 133.25 47.86 139.57 47.89 145.97 42.98 151.01 36.55 151.15 30.19 151.29 25.19 146.3 25.17 139.81 25.16 133.34 30.08 128.24 36.37 128.19Z" fill="#FFFFFF"/><path d="M174.67 128.19C181.13 128.26 186.04 133.51 185.88 140.18 185.73 146.6 180.77 151.23 174.21 151.06 167.77 150.9 163.08 145.95 163.21 139.45 163.34 133.11 168.41 128.12 174.67 128.19Z" fill="#FFFFFF"/><path d="M220.65 151.06C214.17 151.1 209.27 146.23 209.23 139.72 209.19 133.35 214.25 128.2 220.55 128.19 226.87 128.18 231.86 133.21 231.91 139.65 231.95 146.25 227.24 151.02 220.65 151.06Z" fill="#FFFFFF"/><path d="M82.48 128.19C88.76 128.19 93.78 133.19 93.87 139.55 93.96 146.15 88.92 151.2 82.27 151.16 75.97 151.12 71.13 146.07 71.2 139.61 71.26 133.2 76.21 128.19 82.48 128.19Z" fill="#FFFFFF"/></g></svg>