<svg width="252.73" height="250.64" viewBox="0 0 252.73 250.64" xmlns="http://www.w3.org/2000/svg" xmlns:xlink="http://www.w3.org/1999/xlink" xml:space="preserve" overflow="visible"><defs></defs><g><path d="M49.6 33.6C46.3 47.62 51.92 62.71 61.82 76.91 66.37 83.44 69.81 90.73 73.91 97.58 75.65 100.5 75.51 102.14 72.03 103.59 39.19 117.31 0.93 91.75 0.02 56.15-0.6 31.92 15.89 7.93 42.42 2.47 48.55 1.21 49.55 1.96 49.59 8.13 49.64 15.45 49.6 22.77 49.6 33.6Z" fill="#ED7D31"/><path d="M153.05 201.59C124.43 201.52 101.14 177.93 101.23 149.12 101.32 120.83 125.17 97.08 153.28 97.27 181.85 97.46 205.86 121.52 205.51 149.62 205.16 178.44 181.72 201.66 153.05 201.59ZM112.6 149.68C112.66 172.7 130.49 190.31 153.63 190.2 176.23 190.1 194.23 172.07 194.21 149.55 194.19 126.86 175.9 108.59 153.23 108.62 130.37 108.64 112.54 126.66 112.6 149.68Z" fill="#ED7D31"/><path d="M73.86 192.76C73.86 209.08 73.88 225.39 73.85 241.71 73.84 248.92 72.21 250.54 65.07 250.6 61.74 250.63 58.41 250.63 55.08 250.6 47.89 250.54 46.22 248.93 46.22 241.79 46.2 211.66 46.21 181.52 46.21 151.39 46.21 148.06 46.19 144.73 46.24 141.4 46.3 137.14 48.45 134.96 52.76 134.97 57.42 134.98 62.08 134.9 66.74 134.98 72.1 135.08 73.81 136.78 73.83 142.31 73.9 159.13 73.86 175.95 73.86 192.76Z" fill="#ED7D31"/><path d="M0.19 204.02C0.19 191.38 0.16 178.73 0.2 166.09 0.22 159.77 1.84 158.16 8.2 158.05 12.03 157.98 15.85 157.98 19.68 158.05 25.74 158.16 27.76 160.11 27.78 166.2 27.84 184.67 27.81 203.13 27.81 221.6 27.81 228.42 27.85 235.24 27.79 242.06 27.73 248.72 25.86 250.53 19.07 250.59 15.08 250.63 11.08 250.69 7.09 250.55 2.06 250.37 0.24 248.52 0.22 243.44 0.14 230.3 0.19 217.16 0.19 204.02Z" fill="#ED7D31"/><path d="M80.55 50.65C74.22 50.65 67.89 50.51 61.56 50.71 57.82 50.83 56.12 49.7 56.18 45.65 56.35 32.66 56.32 19.67 56.2 6.67 56.16 2.88 57.65 1.68 61.32 2.09 82.42 4.47 102.98 25.32 105.04 46.3 105.38 49.77 104.26 50.74 101.04 50.68 94.21 50.57 87.38 50.65 80.55 50.65Z" fill="#ED7D31"/><path d="M94.33 211.33C94.33 201.34 94.32 191.36 94.34 181.37 94.34 179.88 94.31 178.35 94.57 176.89 94.89 175.06 95.5 173.08 97.64 172.8 99.53 172.55 99.85 174.55 100.49 175.79 104.99 184.54 111.18 191.85 119.2 197.52 121.5 199.15 122.43 201.15 122.43 203.83 122.41 216.65 122.54 229.46 122.35 242.28 122.25 248.76 120.22 250.5 113.81 250.59 110.32 250.64 106.82 250.62 103.32 250.6 96.25 250.54 94.38 248.76 94.34 241.79 94.3 231.64 94.34 221.48 94.33 211.33Z" fill="#ED7D31"/><path d="M200.5 206.32C201.94 202.43 198.47 201.07 196.56 199.08 192.01 194.32 191.92 194.4 196.26 189.8 196.37 189.68 196.49 189.56 196.6 189.44 201.59 184.1 201.62 184.06 206.68 189.06 209.07 191.42 211.13 193.84 215.22 192.37 217.35 191.61 219.23 193.56 220.8 195.08 229.25 203.33 237.65 211.63 246.14 219.83 249.59 223.16 249.66 226.39 246.41 229.77 243.64 232.65 240.86 235.51 238.01 238.3 235.13 241.12 232.08 241.11 229.21 238.32 220.26 229.63 211.36 220.9 202.44 212.17 200.8 210.57 199.88 208.69 200.5 206.32Z" fill="#ED7D31"/><path d="M170.66 226.93C170.66 232.09 170.76 237.24 170.64 242.39 170.5 248.51 168.49 250.49 162.53 250.59 158.54 250.66 154.55 250.66 150.56 250.59 144.96 250.49 142.76 248.67 142.65 243.25 142.44 232.94 142.62 222.63 142.56 212.32 142.54 208.75 144.35 207.82 147.61 208.02 153.92 208.41 160.25 208.48 166.46 206.92 169.64 206.12 170.71 207.47 170.68 210.47 170.62 215.95 170.66 221.44 170.66 226.93Z" fill="#ED7D31"/><path d="M82.79 57.96C88.77 57.96 94.76 58.07 100.74 57.92 104.12 57.83 105.62 58.75 104.99 62.51 102.74 76.08 96.23 87.07 85.62 95.73 83.27 97.64 81.68 97.49 80.11 94.74 73.95 83.91 67.71 73.12 61.42 62.36 59.66 59.35 59.88 57.85 63.84 57.93 70.16 58.06 76.48 57.96 82.79 57.96Z" fill="#ED7D31"/><path d="M210.05 0.01C221.38 0.01 232.71 0 244.04 0.02 245.54 0.02 247.06-0.04 248.53 0.19 250.88 0.55 252.58 1.82 252.72 4.4 252.87 6.99 251.33 8.45 248.97 8.95 247.36 9.29 245.67 9.37 244.01 9.37 221.18 9.4 198.36 9.41 175.53 9.36 171.93 9.35 167.14 9.93 166.98 4.86 166.8-0.79 171.82 0.05 175.55 0.04 187.06-0.02 198.56 0.01 210.05 0.01Z" fill="#ED7D31"/><path d="M209.53 50.58C198.2 50.58 186.88 50.59 175.55 50.57 174.05 50.57 172.53 50.6 171.07 50.36 168.72 49.97 166.97 48.64 166.86 46.13 166.74 43.34 168.59 41.93 171.12 41.44 172.42 41.19 173.77 41.19 175.1 41.19 198.09 41.18 221.07 41.15 244.06 41.21 247.61 41.22 252.42 40.54 252.57 45.7 252.74 51.39 247.72 50.52 244.01 50.54 232.52 50.63 221.03 50.58 209.53 50.58Z" fill="#ED7D31"/><path d="M209.66 91.66C197.85 91.66 186.04 91.67 174.23 91.64 172.74 91.64 171.18 91.67 169.79 91.25 167.87 90.68 166.8 89.1 166.85 87.07 166.9 85.01 168.08 83.62 170.1 83.19 171.39 82.92 172.74 82.93 174.07 82.93 197.86 82.92 221.65 82.92 245.43 82.92 246.1 82.92 246.76 82.93 247.43 82.94 250.45 82.97 252.82 83.95 252.72 87.44 252.63 90.59 250.41 91.6 247.6 91.63 243.44 91.66 239.28 91.66 235.12 91.66 226.63 91.66 218.14 91.66 209.66 91.66Z" fill="#ED7D31"/><path d="M142.37 41.29C144.37 41.29 146.38 41.15 148.36 41.32 152.36 41.67 154.77 43.78 155.17 47.94 155.59 52.26 155.61 56.57 155.14 60.89 154.71 64.82 152.39 66.98 148.63 67.23 144.49 67.51 140.3 67.5 136.16 67.29 131.85 67.07 129.51 64.51 129.33 60.19 129.21 57.2 129.25 54.2 129.27 51.2 129.32 43.19 131.26 41.27 139.37 41.19 140.37 41.18 141.37 41.19 142.37 41.19 142.37 41.22 142.37 41.26 142.37 41.29Z" fill="#ED7D31"/><path d="M142.16 25.7C141 25.7 139.84 25.71 138.67 25.7 131.02 25.65 129.34 23.96 129.27 16.32 129.12 0.04 129.25-0.09 145.43 0.02 153.2 0.07 155.04 1.84 155.42 9.64 155.46 10.47 155.45 11.3 155.46 12.13 155.55 24.87 154.74 25.7 142.16 25.7Z" fill="#ED7D31"/><path d="M190.82 58.06C196.47 58.05 202.12 58.03 207.77 58.06 211.02 58.08 214.11 58.85 214.11 62.76 214.11 66.35 211.18 67.34 208.14 67.36 196.34 67.43 184.54 67.43 172.74 67.35 169.68 67.33 166.82 66.22 166.89 62.63 166.95 59.07 169.77 58.09 172.88 58.07 178.86 58.03 184.84 58.06 190.82 58.06Z" fill="#ED7D31"/><path d="M190.23 25.68C184.25 25.68 178.27 25.68 172.29 25.68 169.25 25.68 166.88 24.61 166.96 21.2 167.03 18.13 169.24 17 172.08 16.99 184.38 16.98 196.67 16.98 208.97 16.99 211.81 16.99 214 18.13 214.05 21.23 214.1 24.67 211.7 25.67 208.68 25.67 202.53 25.68 196.38 25.68 190.23 25.68Z" fill="#ED7D31"/><path d="M129.27 90.7C129.47 85.44 131.6 83.14 136.28 82.97 140.41 82.83 144.56 82.94 148.7 82.94 150.42 82.94 151.98 83.37 153.22 84.63 154.32 85.75 154.99 87.06 154.65 88.66 154.23 90.63 152.54 90.51 151.09 90.57 145.26 90.81 139.55 91.81 134.1 93.82 130.14 95.29 128.81 94.12 129.27 90.7Z" fill="#ED7D31"/><path d="M199.64 99.5C203.12 99.5 206.61 99.29 210.07 99.57 212.4 99.76 214.13 101.32 214.16 103.84 214.19 106.6 212.39 108.16 209.81 108.41 202.13 109.14 194.49 109.5 188.92 102.57 188.34 101.84 187.08 101.41 187.57 100.22 188.03 99.11 189.23 99.27 190.18 99.26 193.33 99.22 196.49 99.24 199.64 99.24 199.64 99.32 199.64 99.41 199.64 99.5Z" fill="#ED7D31"/><path d="M119.22 149.51C119.24 135.18 128.54 122.05 141.99 117.4 155.9 112.59 171.18 117.05 180.1 128.53 189.02 140.01 189.76 155.63 181.95 167.78 179.27 171.96 178.41 171.99 176.14 167.78 171.18 158.6 163.43 153.69 153.11 153.74 142.99 153.79 135.38 158.69 130.5 167.66 128.1 172.06 127.4 172.11 124.74 167.88 121.2 162.29 119.24 156.19 119.22 149.51ZM153.43 150.26C160.52 150.23 166.21 144.54 166.05 137.66 165.88 130.72 160.14 125.38 152.95 125.48 145.97 125.58 140.8 130.86 140.8 137.87 140.81 145.14 146.07 150.3 153.43 150.26Z" fill="#ED7D31"/></g></svg>