<svg width="248.67" height="218.12" viewBox="0 0 248.67 218.12" xmlns="http://www.w3.org/2000/svg" xmlns:xlink="http://www.w3.org/1999/xlink" xml:space="preserve" overflow="visible"><defs></defs><g><path d="M163.88 134.32C163.88 115.17 164 96.01 163.79 76.86 163.74 72.23 165.31 70.7 169.82 70.82 178.31 71.06 186.81 70.9 195.3 70.89 200.92 70.89 205.64 72.79 209.48 77.04 220.65 89.39 231.87 101.7 243.18 113.92 246.8 117.82 248.46 122.26 248.43 127.5 248.38 136.49 248.24 145.49 248.49 154.48 248.61 158.95 246.77 160.21 242.58 160.22 231.59 160.25 229.77 162.67 231.65 173.71 232.13 176.56 233.76 178.15 236.57 178.55 237.55 178.69 238.62 178.43 239.55 178.7 242.52 179.56 247.04 176.34 248.28 181.71 249.74 188.05 246.99 194.58 242.13 196.75 240.93 197.28 239.6 197.58 238.29 197.8 231.7 198.89 230.73 198.22 229.18 191.71 226.31 179.6 217.98 171.89 205.88 170.14 194.67 168.52 183.97 173.88 178.13 183.93 176.24 187.17 175.29 190.71 174.8 194.33 174.18 198.95 170.82 197.9 167.99 198.02 164.69 198.16 163.81 196.3 163.82 193.28 163.91 173.63 163.88 153.98 163.88 134.32ZM205.3 131.11C212.3 131.11 219.3 131.19 226.3 131.08 230.71 131.01 232.31 128.74 230.85 124.6 230.37 123.25 229.34 122.04 228.35 120.95 220.85 112.68 212.67 104.93 205.95 96.07 200.17 88.45 193.38 86.2 184.43 87.12 180.93 87.48 179.35 88.27 179.41 92.05 179.58 103.38 179.59 114.72 179.41 126.05 179.34 130.12 181.08 131.25 184.8 131.16 191.63 131 198.47 131.12 205.3 131.11Z" fill="#FFFFFF"/><path d="M78.07 154.38C54.42 154.38 30.77 154.39 7.12 154.38 0.09 154.38 0.03 154.34 0.03 147.55 0.01 118.4 0.04 89.25 0 60.11 0 56.15 0.53 52.44 3.59 49.59 4.68 48.58 5.94 47.23 7.5 48.04 9.05 48.85 7.97 50.42 7.75 51.64 5.16 66.13 6.68 80.15 12.47 93.68 14.57 98.59 16.94 103.33 20.83 107.18 23.76 110.08 22.78 114.11 23.25 117.61 24.6 127.62 30.15 131.52 39.91 128.38 42.99 127.39 45.06 128.91 47.38 130.01 83.19 147.1 126.32 131.99 143.3 96.34 149.96 82.37 151.56 67.7 149.23 52.49 149 50.96 147.79 48.81 149.57 47.95 151.44 47.04 152.87 49 154.08 50.32 155.97 52.38 156.58 54.91 156.58 57.69 156.55 88.17 156.5 118.65 156.64 149.13 156.66 153.43 154.96 154.46 151.02 154.44 126.71 154.32 102.39 154.38 78.07 154.38Z" fill="#FFFFFF"/><path d="M112.14 40.94C111.9 41.55 111.87 41.97 111.65 42.14 106.7 45.82 110.58 49.47 111.64 53.15 112.43 55.89 113.47 58.14 116.99 57.82 119.06 57.63 120.05 59.01 120.11 60.91 120.2 63.74 120.19 66.57 120.08 69.4 120.02 71.05 119.17 71.98 117.36 72.38 111.45 73.7 107.78 82.43 111.12 87.31 112.36 89.12 112.03 90.29 110.66 91.62 108.75 93.48 106.85 95.35 105.01 97.28 103.49 98.88 101.93 99.36 100.37 97.53 98.28 95.08 96.18 95.63 93.74 96.97 90.2 98.9 84.92 98.75 85.2 104.93 85.26 106.27 83.53 106.35 82.38 106.38 79.88 106.45 77.38 106.39 74.88 106.43 72.51 106.47 71.38 105.53 70.94 103.01 70.08 98.09 60.6 94.54 56.55 97.61 54.61 99.08 53.32 98.77 51.83 97.25 50.2 95.58 48.6 93.87 46.85 92.33 44.69 90.42 44.17 88.6 46.66 86.6 48.39 85.22 48.44 83.71 47.39 81.78 46.29 79.74 45.54 77.51 44.66 75.36 44.08 73.94 43.51 72.38 41.66 72.49 35.88 72.83 36.89 68.68 36.96 65.35 37.04 61.99 35.5 57.74 41.65 57.53 44.89 57.42 48.98 46.66 46.73 44.26 43.94 41.28 44.99 39.41 47.47 37.29 48.73 36.21 49.91 35.01 51.01 33.76 52.95 31.56 54.63 30.87 57.24 33.22 59.96 35.67 70.52 31.86 70.78 28.26 71.09 23.91 73.44 23.5 76.77 23.69 78.76 23.8 80.77 23.73 82.77 23.81 83.99 23.86 85.38 24.2 85.36 25.61 85.29 33.51 93.1 31.45 96.71 34.66 97.56 35.41 98.54 34.61 99.35 33.93 100.77 32.76 102 30.22 104.26 32.37 107.09 35.09 110.38 37.46 112.14 40.94ZM78.26 85.08C89.75 85.17 98.79 76.4 98.8 65.14 98.81 54.34 89.67 45.26 78.72 45.19 67.25 45.12 58.59 53.43 58.44 64.66 58.3 76.36 66.66 84.99 78.26 85.08Z" fill="#FFFFFF"/><path d="M78.75 161.06C102.23 161.06 125.72 161.05 149.2 161.07 156.56 161.07 156.57 161.1 156.57 168.62 156.58 176.78 156.43 184.94 156.63 193.1 156.72 196.86 155.14 198.13 151.62 198.09 142.63 198 133.63 198.04 124.64 198.07 121.74 198.08 120.27 197.14 119.75 193.88 117.85 181.91 111.07 173.72 99.25 170.65 87.19 167.52 76.3 172.1 68.99 182.87 67 185.8 66.08 186.2 63.94 182.96 56.78 172.15 46.57 168 34.25 170.48 23.53 172.64 15.52 181.45 13.41 193.88 12.79 197.53 11.02 198.29 7.87 197.34 2.94 195.85 0.38 192.25 0.17 187.38-0.15 180.07 0.11 172.73 0.03 165.4-0.01 161.22 2.82 161.09 5.8 161.08 17.79 161.07 29.78 161.07 41.77 161.07 54.1 161.06 66.43 161.06 78.75 161.06Z" fill="#FFFFFF"/><path d="M75.2 9.33C36.8 9.38 9.86 53.08 28.5 90.26 29.32 91.9 30.23 93.48 31.13 95.08 32.55 97.59 32.6 99.99 29.97 101.61 27.39 103.2 25.14 102.2 23.54 99.82 18.42 92.23 15.41 83.78 14.11 74.8 9.08 39.96 31.88 7.89 66.5 1.2 83.08-2.01 98.56 1.32 112.95 10.01 115.08 11.3 116.81 13.65 119 9.45 120.63 6.32 125.32 7.37 126.34 10.9 127.64 15.41 127.8 20.11 127.41 24.77 127.2 27.29 125.42 28.7 123 28.68 119.18 28.64 115.33 28.51 111.56 27.93 106.65 27.17 105.24 24.38 107.96 20.3 109.72 17.66 107.67 17.44 106.48 16.75 97.8 11.75 88.45 9.18 75.2 9.33Z" fill="#FFFFFF"/><path d="M134.17 63.79C134.5 54.75 131.66 45.46 126.71 36.74 125.54 34.68 124.22 32.68 125.54 30.23 127.38 26.82 131.29 27.2 133.85 31.23 139.49 40.12 142.71 49.93 143.39 60.39 145.92 99.35 114.89 131.5 76.01 130.24 64.29 129.86 53.41 126.34 43.54 119.95 41.39 118.56 39.68 117.36 38.2 120.78 37.51 122.38 35.72 122.95 33.9 122.57 31.87 122.15 30.6 120.69 30.34 118.8 29.79 114.68 29.35 110.53 29.26 106.39 29.21 103.8 30.79 101.92 33.58 101.81 37.91 101.63 42.27 101.5 46.5 102.64 49.81 103.53 51.74 105.95 49.7 108.93 47.3 112.43 49.55 113.08 51.79 114.29 89.38 134.56 134.3 107.61 134.17 63.79Z" fill="#FFFFFF"/><path d="M19.91 197.34C19.92 185.78 28.94 176.75 40.51 176.72 51.98 176.69 61.39 185.96 61.35 197.24 61.31 208.39 51.65 218.12 40.61 218.11 29.42 218.11 19.9 208.56 19.91 197.34ZM47.64 197.22C47.65 193.52 44.33 190.35 40.51 190.4 36.67 190.45 33.59 193.56 33.58 197.38 33.57 201.19 36.72 204.28 40.6 204.27 44.22 204.26 47.64 200.83 47.64 197.22Z" fill="#FFFFFF"/><path d="M71.88 196.78C72.01 185.34 81.24 176.56 92.95 176.73 103.91 176.89 113.34 186.48 113.21 197.33 113.07 208.61 103.64 218.02 92.39 218.09 80.95 218.17 71.75 208.6 71.88 196.78ZM92.44 204.02C96.4 204.04 99.04 201.5 99.15 197.57 99.26 193.41 96.57 190.47 92.58 190.38 88.68 190.3 85.58 193.29 85.53 197.17 85.48 201.22 88.29 204 92.44 204.02Z" fill="#FFFFFF"/><path d="M181.83 197.6C181.77 185.81 190.46 176.81 201.98 176.73 213.48 176.65 222.83 185.69 222.97 197.02 223.11 208.46 213.38 218.26 202.06 218.1 190.85 217.93 181.89 208.86 181.83 197.6ZM209.04 197.19C208.97 193.11 206.06 190.28 202.06 190.39 198.19 190.49 195.22 193.66 195.48 197.6 195.75 201.75 198.06 203.95 202.23 204.02 206.44 204.08 209.12 201.36 209.04 197.19Z" fill="#FFFFFF"/><path d="M76.27 76.47C72.15 76.5 64.1 68.75 63.93 65.03 63.83 62.82 64.76 61.14 66.6 60.02 68.51 58.86 70.75 58.92 72.19 60.41 75.42 63.74 77.54 62.09 79.9 59.42 81.43 57.69 83.14 56.05 85 54.69 87.13 53.15 89.47 53.47 91.4 55.22 93.13 56.79 94.11 58.97 92.74 61.04 88.86 66.89 83.65 71.54 78.25 75.95 77.66 76.43 76.66 76.38 76.27 76.47Z" fill="#FFFFFF"/></g></svg>