<svg width="256.85" height="208.74" viewBox="0 0 256.85 208.74" xmlns="http://www.w3.org/2000/svg" xmlns:xlink="http://www.w3.org/1999/xlink" xml:space="preserve" overflow="visible"><defs></defs><g><path d="M136.23 171.36C136.23 162.7 136.16 154.03 136.25 145.37 136.34 136.72 140.25 133.72 148.76 135.55 166.39 139.34 183.6 128.84 187.62 111.83 191.66 94.73 181.5 77.99 164.15 73.32 159.08 71.95 153.92 72.17 148.8 73.17 140.15 74.86 136.3 71.95 136.26 63.32 136.18 45.83 136.18 28.33 136.26 10.83 136.3 2.81 139.18 0.05 147.16 0.02 155.49-0.01 163.82-0.02 172.15 0.02 179.03 0.06 181.45 2.09 182.75 8.69 182.91 9.51 183.07 10.32 183.26 11.13 184.71 17.27 183.74 24.62 187.58 29.35 191.37 34.02 198.57 35.3 203.53 39.3 205.58 40.95 207.55 40.21 209.63 39.46 215.27 37.43 220.92 35.41 226.6 33.51 232.37 31.59 235.42 32.58 238.43 37.66 244.12 47.26 249.7 56.93 255.16 66.66 258.02 71.77 257.29 75.04 252.79 79.01 248.16 83.08 243.49 87.11 238.75 91.04 236.91 92.56 236.2 94.16 236.4 96.63 236.75 100.94 237.16 105.37 236.49 109.59 235.74 114.32 237.63 116.99 241.06 119.63 245.41 122.97 249.44 126.74 253.58 130.36 257.07 133.42 257.8 137.21 255.59 141.17 249.81 151.49 243.87 161.71 237.88 171.91 235.52 175.92 231.86 176.97 227.52 175.51 221.68 173.54 215.82 171.62 210.08 169.38 207.15 168.24 204.81 168.21 202.23 170.24 199.89 172.08 197.34 173.99 194.57 174.87 187.83 177 185.47 181.78 184.83 188.26 184.42 192.39 183.47 196.46 182.67 200.55 181.54 206.32 178.92 208.62 173.12 208.67 164.12 208.76 155.12 208.75 146.13 208.68 139.44 208.63 136.43 205.72 136.3 198.85 136.13 189.69 136.26 180.52 136.26 171.36 136.24 171.36 136.23 171.36 136.23 171.36Z" fill="#FFFFFF"/><path d="M64.09 104.51C64.09 99.51 63.99 94.51 64.12 89.52 64.27 83.6 67.2 80.33 72.94 80.21 83.1 80.01 93.26 80.01 103.42 80.22 108.95 80.34 112.23 83.46 112.38 88.98 112.66 99.13 112.65 109.3 112.41 119.46 112.27 125.26 109.01 128.4 103.21 128.52 93.22 128.72 83.22 128.71 73.23 128.54 67.19 128.44 64.25 125.2 64.11 119 64.01 114.17 64.09 109.34 64.09 104.51Z" fill="#FFFFFF"/><path d="M96.4 16.04C101.23 16.04 106.06 15.97 110.89 16.06 116.91 16.17 120.21 18.84 120.38 24.65 120.68 34.96 120.65 45.3 120.4 55.62 120.27 60.87 117.1 64.12 111.86 64.26 101.54 64.55 91.21 64.56 80.9 64.27 75.13 64.11 72.2 60.71 72.14 54.85 72.03 45.03 72.01 35.2 72.15 25.38 72.23 19.21 75.3 16.21 81.43 16.07 86.41 15.95 91.41 16.04 96.4 16.04Z" fill="#FFFFFF"/><path d="M96.32 192.69C91.49 192.69 86.66 192.76 81.83 192.67 75.32 192.56 72.22 189.64 72.14 183.26 72.01 173.44 72.02 163.61 72.14 153.79 72.21 147.98 75.19 144.62 80.99 144.45 91.14 144.16 101.31 144.18 111.46 144.42 117.19 144.56 120.35 147.88 120.46 153.7 120.66 163.69 120.69 173.69 120.43 183.67 120.27 189.8 117.05 192.56 110.81 192.67 105.98 192.75 101.15 192.69 96.32 192.69Z" fill="#FFFFFF"/><path d="M24.24 48.09C29.23 48.09 34.23 47.97 39.22 48.12 44.38 48.28 47.54 50.8 47.9 55.92 48.68 66.87 48.72 77.86 47.84 88.82 47.44 93.8 44.11 96.29 39.45 96.4 29.14 96.62 18.81 96.64 8.5 96.4 2.96 96.27 0.13 93.01 0.07 87.34-0.03 77.19-0.03 67.03 0.07 56.88 0.13 51.33 3.09 48.33 8.76 48.13 13.92 47.95 19.08 48.09 24.24 48.09Z" fill="#FFFFFF"/><path d="M0.04 136.32C0.04 131.33-0.04 126.33 0.06 121.34 0.18 115.68 2.97 112.44 8.53 112.32 18.84 112.08 29.17 112.09 39.48 112.33 44.63 112.45 47.47 115.21 47.89 120.43 48.75 131.05 48.63 141.72 47.98 152.35 47.63 157.98 44.43 160.56 38.68 160.62 28.86 160.73 19.04 160.75 9.22 160.61 3 160.52 0.14 157.49 0.05 151.31-0.02 146.31 0.04 141.32 0.04 136.32Z" fill="#FFFFFF"/></g></svg>