<svg width="233.74" height="257.02" viewBox="0 0 233.74 257.02" xmlns="http://www.w3.org/2000/svg" xmlns:xlink="http://www.w3.org/1999/xlink" xml:space="preserve" overflow="visible"><defs></defs><g><path d="M156.27 256.94C138.94 256.94 121.61 256.83 104.28 257.02 100.34 257.06 98.62 255.61 97.82 251.92 95.92 243.14 93.59 234.44 91.78 225.64 91.02 221.95 89.31 220.79 85.66 220.83 70.83 220.99 56 220.9 41.17 220.89 33.94 220.89 34.02 220.86 32.72 213.6 30.17 199.35 27.34 185.14 24.99 170.86 24.31 166.72 22.42 165.66 18.66 165.81 13.84 166.01 9 165.81 4.16 165.85 1.84 165.87 0.2 165.11 0.11 162.54-0.11 156.4-0.41 150.44 3.3 144.75 10.03 134.43 15.75 123.44 22.64 113.24 28.52 104.53 31.72 95.16 32.57 84.9 36.33 40.16 81.35 0.19 131.09 0 179.21-0.19 226.61 35.08 232.97 90.07 236.62 121.59 227.22 149.38 205.07 172.36 201.43 176.13 200.19 179.38 201.19 184.59 205.4 206.32 209.11 228.14 213.03 249.93 214.28 256.9 214.3 256.94 207.26 256.94 190.26 256.95 173.27 256.94 156.27 256.94ZM131.45 38.86C124.34 38.84 124.34 38.84 124.32 45.94 124.32 46.61 124.25 47.28 124.33 47.94 124.82 51.73 123.28 53.44 119.43 54.47 100.41 59.56 88.45 71.94 83.39 90.89 82.5 94.24 80.94 95.74 77.55 95.56 75.56 95.46 73.55 95.56 71.56 95.63 70.17 95.68 69.01 96.08 68.37 97.55 65.54 104.03 68.75 109.22 75.64 109.25 75.97 109.25 76.31 109.29 76.64 109.25 80.97 108.6 82.53 110.62 83.66 114.78 88.27 131.72 99.14 143.2 115.68 149.1 123.98 152.06 124.21 151.91 124.25 160.72 124.27 164.53 125.78 165.84 129.32 165.54 130.64 165.43 131.99 165.45 133.32 165.53 136.73 165.74 138.24 164.17 138.07 160.78 137.99 159.12 138.15 157.45 138.07 155.78 137.92 152.59 139.38 151.08 142.52 150.29 161.87 145.43 174.02 133.05 179.29 113.99 180.29 110.39 181.73 108.86 185.38 109.21 187.36 109.4 189.37 109.23 191.37 109.21 192.77 109.2 193.94 108.91 194.55 107.38 197.28 100.56 194.03 95.38 186.7 95.63 182.01 95.79 180.15 94.03 178.9 89.49 174.01 71.74 162.47 59.95 144.78 54.94 139.26 53.38 137.68 50.94 137.96 45.62 138.32 38.9 138 38.88 131.45 38.86Z" fill="#FFFFFF"/><path d="M165.27 112.46C165.22 112.63 165.05 113.45 164.75 114.22 160.77 124.59 153.63 131.77 143.22 135.75 139.86 137.04 138.11 136.27 138.12 132.5 138.12 132.17 138.1 131.83 138.08 131.5 137.73 124.46 133.24 121.62 126.35 123.98 123.91 124.82 124.4 126.77 124.34 128.52 124.02 137.62 123.35 138.05 115.26 133.88 106.9 129.57 101.16 122.92 97.86 114.13 96.63 110.86 97.26 108.92 101.22 109.26 101.39 109.27 101.55 109.26 101.72 109.26 109.44 109.03 111.73 105.72 109.63 98.08 108.8 95.07 106.44 95.65 104.39 95.58 96.12 95.29 95.66 94.59 99.31 87.08 103.33 78.79 109.69 72.93 118.15 69.35 123.47 67.1 124.13 67.63 124.38 73.2 124.48 75.54 123.03 78.8 125.88 79.98 129.08 81.31 132.81 81.04 136.17 80.07 138.62 79.36 137.97 76.8 138.04 74.89 138.3 67.32 139.19 66.76 146.14 70.02 155 74.18 161.07 80.92 164.7 89.98 166.24 93.81 165.34 95.47 161.03 95.6 153.59 95.82 150.97 99.89 153.21 107.02 153.78 108.85 155.01 109.21 156.61 109.23 158.77 109.26 160.94 109.28 163.1 109.33 164.7 109.36 165.62 110.07 165.27 112.46Z" fill="#FFFFFF"/></g></svg>