<svg width="256.85" height="257.02" viewBox="0 0 256.85 257.02" xmlns="http://www.w3.org/2000/svg" xmlns:xlink="http://www.w3.org/1999/xlink" xml:space="preserve" overflow="visible"><defs></defs><g><path d="M79.31 38.87C77.64 38.87 75.96 39.02 74.31 38.84 65.79 37.89 59.64 39.11 54.9 48.39 48.94 60.05 33.18 64.05 20.68 59.72 7.15 55.03-0.74 42.84 0.05 27.83 0.72 15.16 11.03 3.63 24.3 0.69 37.19-2.16 51.33 3.98 57.13 16.1 59.7 21.48 62.85 22.78 68.23 22.54 76.54 22.16 84.89 22.25 93.22 22.52 97.13 22.65 99.02 21.24 100.78 17.72 106.89 5.53 116.95-0.68 130.72 0.31 143.39 1.22 152.15 8.09 156.91 19.71 162.97 34.5 156.16 51.36 141.24 58.3 137.58 60 136.43 62.02 136.52 65.86 136.76 75.35 136.69 84.85 136.55 94.35 136.51 97.39 137.34 99.23 140.35 100.46 147.93 103.57 153.42 109.06 156.5 116.65 157.74 119.7 159.65 120.43 162.65 120.39 172.15 120.26 181.65 120.17 191.14 120.43 195.03 120.54 196.99 119.29 198.66 115.66 204.45 103.05 216.28 96.83 230.55 98.3 242.32 99.51 252.99 108.93 255.9 121.39 258.62 133.02 255.51 143.19 246.6 151.3 237.61 159.48 227.06 160.98 215.87 157.22 212.11 155.96 209.87 156.35 207.14 159.12 191.11 175.37 174.96 191.5 158.72 207.55 156.1 210.14 155.6 212.31 156.96 215.86 161.93 228.82 157.7 242.48 146.52 251.1 136.54 258.79 121.56 258.99 110.95 251.58 99.97 243.91 95.16 230.21 99.03 217.6 102.96 204.8 114.94 195.71 128.19 195.71 132.18 195.71 136.2 196.35 139.84 198.15 142.48 199.46 144.4 199 146.48 196.91 163.15 180.12 179.9 163.4 196.66 146.71 198.49 144.89 199.31 143.22 198.17 140.55 197.03 137.88 195.55 136.7 192.57 136.75 183.07 136.89 173.57 137.02 164.08 136.7 159.8 136.56 157.62 137.92 155.77 141.87 149.97 154.29 137.97 160.38 123.64 158.83 112.39 157.61 101.91 148.16 98.75 136.38 94.98 122.35 101.54 107.53 114.92 101.25 119.12 99.28 120.37 96.9 120.23 92.51 119.92 83.19 120.05 73.85 120.18 64.52 120.22 61.63 119.3 59.94 116.53 58.83 108.72 55.7 103.23 50.08 100.08 42.3 99.05 39.76 97.54 38.73 94.8 38.81 89.65 38.98 84.48 38.87 79.31 38.87Z" fill="#FFFFFF"/><path d="M30.65 256.94C13.49 256.97 0.06 243.74 0.02 226.73-0.02 209.46 13.74 195.48 30.59 195.68 47.25 195.88 61.16 209.82 61.27 226.44 61.39 243.15 47.58 256.9 30.65 256.94Z" fill="#FFFFFF"/><path d="M226.11 0.24C243.26 0.21 256.68 13.46 256.72 30.46 256.76 47.73 242.98 61.71 226.14 61.49 209.54 61.27 195.54 47.23 195.47 30.71 195.38 13.98 209.17 0.27 226.11 0.24Z" fill="#FFFFFF"/><path d="M256.72 226.37C256.74 243.52 243.49 256.91 226.46 256.94 209.29 256.97 195.21 243.05 195.46 226.31 195.71 209.7 209.78 195.72 226.29 195.69 243.04 195.64 256.7 209.42 256.72 226.37Z" fill="#FFFFFF"/><path d="M30.49 158.98C13.22 158.97 0.04 145.87 0.02 128.69 0 111.23 13.2 98.13 30.77 98.19 47.74 98.24 61.44 111.95 61.27 128.73 61.11 145.68 47.56 158.99 30.49 158.98Z" fill="#FFFFFF"/></g></svg>