<svg width="216.86" height="229.13" viewBox="0 0 216.86 229.13" xmlns="http://www.w3.org/2000/svg" xmlns:xlink="http://www.w3.org/1999/xlink" xml:space="preserve" overflow="visible"><defs></defs><g><path d="M116.44 117.35C125.1 117.35 133.77 117.29 142.43 117.37 150.18 117.44 155.6 122.29 155.93 129.21 156.27 136.42 151.2 142.08 143.53 142.87 138.73 143.36 133.91 143.63 129.1 144.03 123.93 144.47 121.29 147.27 121.51 152 121.72 156.59 124.24 158.83 129.6 158.6 135.75 158.34 141.97 158.2 148.01 157.16 158.54 155.35 165.78 149.06 169.29 138.95 170.42 135.7 172.21 134.11 175.42 133.3 184.29 131.04 193.08 128.45 201.95 126.18 208.04 124.62 213.71 127.47 215.92 132.83 218.17 138.3 216.34 144.41 210.76 147.46 187.82 160.01 164.83 172.5 141.69 184.67 134.88 188.25 127.36 188.69 119.79 186.52 109.55 183.59 99.23 180.89 89.03 177.84 85.74 176.86 82.93 177.08 79.95 178.7 76 180.84 71.85 182.61 67.87 184.7 65.03 186.19 63.28 185.88 62.38 182.5 58.31 167.22 54.17 151.95 50.03 136.69 49.52 134.79 49.31 133.09 51.51 132.04 62.74 126.67 73.26 119.11 85.99 117.96 96.06 117.05 106.29 117.78 116.44 117.78 116.44 117.62 116.44 117.49 116.44 117.35Z" fill="#FFFFFF"/><path d="M109.06 0.06C111.48 0.12 112.72 1.65 113.52 3.22 116.65 9.41 121.58 11.54 128.23 10.33 129.2 10.16 130.25 10.17 131.22 10.36 136.12 11.31 139.23 9.29 141.96 5.19 146.33-1.37 146.58-1.2 153.45 2.82 154.03 3.16 154.6 3.5 155.18 3.83 165.86 9.92 165.86 9.92 162.2 21.52 162.15 21.68 162.07 21.83 162.03 21.99 160.94 26.1 169.97 39.91 174.17 40.54 184.77 42.15 184.77 42.15 184.77 52.98 184.77 53.15 184.77 53.31 184.77 53.48 184.77 65.05 184.77 65.05 173.58 66.89 173.09 66.97 172.57 66.95 172.1 67.09 168.54 68.14 161.18 83.38 162.64 86.85 167.12 97.51 167.98 96.17 156.85 102.62 156.71 102.7 156.56 102.78 156.41 102.86 146.12 108.6 147.39 110.06 140.02 99.77 138.93 98.24 137.77 96.91 135.63 96.94 130.8 96.99 125.97 96.93 121.14 96.97 117.63 96.99 116.68 100.14 115.03 102.28 110.21 108.53 110.27 108.59 103.41 104.55 102.84 104.21 102.26 103.87 101.69 103.54 91.03 97.34 91.03 97.34 94.66 85.86 94.71 85.7 94.79 85.55 94.83 85.39 95.92 81.28 86.88 67.47 82.68 66.84 72.08 65.23 72.08 65.23 72.08 54.4 72.08 54.23 72.08 54.07 72.08 53.9 72.08 42.35 72.08 42.35 83.27 40.49 83.76 40.41 84.28 40.43 84.75 40.29 88.3 39.24 95.7 23.98 94.2 20.53 89.21 9.04 89.94 10.79 99.62 5.09 102.76 3.24 105.68 0.94 109.06 0.06ZM127.72 73.23C137.82 73.86 147.16 65.21 147.96 54.5 148.71 44.46 140.09 35.04 129.36 34.17 119.15 33.33 109.43 42.32 108.88 53.12 108.36 63.25 117.08 72.56 127.72 73.23Z" fill="#FFFFFF"/><path d="M0.08 187.19C0.08 174.86 0.2 162.53 0 150.2-0.06 146.44 1.29 144.5 4.73 143.09 11.97 140.13 19.02 136.7 26.2 133.57 31.1 131.43 33.29 132.38 34.72 137.59 40.25 157.65 45.61 177.76 51.13 197.83 52.11 201.38 50.87 203.58 47.82 205.2 33.39 212.84 18.96 220.47 4.58 228.2 0.85 230.21 0.01 228.84 0.04 225.18 0.14 212.52 0.08 199.86 0.08 187.19Z" fill="#FFFFFF"/></g></svg>