<svg width="458" height="666" xmlns="http://www.w3.org/2000/svg" xmlns:xlink="http://www.w3.org/1999/xlink" overflow="hidden"><g transform="translate(-729 -58)"><path d="M962 269.769 962 250.231 946.377 250.231C946.102 248.495 945.752 246.787 945.343 245.099L959.927 239.341 952.754 221.168 937.995 226.995C936.746 224.885 935.39 222.846 933.921 220.894L945.184 209.632 931.368 195.817 920 207.185C918.358 205.986 916.66 204.857 914.909 203.811L921.083 188.939 903.04 181.446 896.836 196.387C894.846 195.899 892.824 195.494 890.769 195.19L890.769 179 871.231 179 871.231 195.19C869.56 195.438 867.914 195.759 866.286 196.129L860.342 181.072 842.17 188.246 848.088 203.238C845.983 204.445 843.951 205.76 842.001 207.185L830.632 195.817 816.818 209.632 828.08 220.894C826.842 222.538 825.681 224.245 824.598 226.003L809.939 219.916 802.447 237.96 816.924 243.971C816.391 246.021 815.959 248.11 815.623 250.231L800 250.231 800 269.768 815.434 269.768C815.677 271.54 815.991 273.288 816.373 275.013L802.073 280.659 809.247 298.831 823.376 293.252C824.635 295.474 826.014 297.618 827.514 299.67L816.818 310.368 830.632 324.182 841.222 313.592C842.965 314.903 844.771 316.133 846.642 317.271L840.916 331.061 858.96 338.553 864.655 324.837C866.807 325.383 869.001 325.822 871.23 326.151L871.23 341 890.768 341 890.768 326.151C892.607 325.88 894.414 325.52 896.2 325.101L901.658 338.927 919.832 331.753 914.344 317.856C916.573 316.554 918.724 315.137 920.777 313.592L931.367 324.183 945.183 310.368 934.486 299.671C935.756 297.93 936.943 296.126 938.043 294.262L952.06 300.083 959.552 282.038 945.365 276.148C945.867 274.057 946.269 271.93 946.565 269.768L962 269.768ZM881.001 298.262C859.87 298.262 842.741 281.131 842.741 260 842.741 238.869 859.87 221.738 881.001 221.738 902.132 221.738 919.262 238.869 919.262 260 919.262 281.131 902.132 298.262 881.001 298.262Z" fill="#002060" fill-rule="evenodd"/><path d="M1179 450.741 1179 426.259 1159.52 426.259C1159.18 424.084 1158.74 421.942 1158.23 419.827L1176.42 412.613 1167.47 389.84 1149.07 397.142C1147.51 394.497 1145.82 391.941 1143.99 389.497L1158.03 375.384 1140.8 358.072 1126.63 372.318C1124.58 370.815 1122.47 369.401 1120.28 368.088L1127.98 349.453 1105.48 340.065 1097.75 358.789C1095.26 358.176 1092.74 357.668 1090.18 357.287L1090.18 337 1065.82 337 1065.82 357.287C1063.73 357.597 1061.68 358.001 1059.65 358.464L1052.24 339.596 1029.58 348.587 1036.96 367.372C1034.34 368.885 1031.8 370.533 1029.37 372.318L1015.19 358.073 997.968 375.384 1012.01 389.497C1010.47 391.558 1009.02 393.696 1007.67 395.9L989.392 388.272 980.051 410.882 998.103 418.415C997.438 420.983 996.9 423.6 996.48 426.26L977 426.26 977 450.741 996.245 450.741C996.549 452.961 996.94 455.152 997.414 457.313L979.584 464.387 988.53 487.16 1006.15 480.168C1007.72 482.954 1009.44 485.64 1011.31 488.212L997.969 501.615 1015.2 518.927 1028.4 505.655C1030.57 507.3 1032.83 508.842 1035.16 510.267L1028.02 527.546 1050.52 536.935 1057.62 519.747C1060.3 520.43 1063.04 520.98 1065.82 521.393L1065.82 540 1090.18 540 1090.18 521.393C1092.47 521.053 1094.73 520.603 1096.95 520.078L1103.76 537.404 1126.42 528.413 1119.58 510.998C1122.36 509.367 1125.04 507.591 1127.6 505.655L1140.81 518.926 1158.03 501.615 1144.69 488.212C1146.28 486.031 1147.76 483.768 1149.13 481.435L1166.61 488.728 1175.95 466.116 1158.26 458.735C1158.89 456.116 1159.39 453.45 1159.76 450.74L1179 450.74ZM1078 501.899C1043.62 501.899 1015.75 473.89 1015.75 439.34 1015.75 404.79 1043.62 376.783 1078 376.783 1112.38 376.783 1140.25 404.79 1140.25 439.34 1140.25 473.89 1112.38 501.899 1078 501.899Z" fill="#002060" fill-rule="evenodd"/><path d="M935 474.677 935 448.32 924.61 448.32C924.144 445.06 923.519 441.851 922.724 438.707L932.327 434.767 922.317 410.384 912.672 414.343C910.91 411.357 908.997 408.472 906.923 405.713L914.296 398.34 895.659 379.702 888.273 387.088C885.672 385.137 882.957 383.329 880.153 381.655L884.185 372.008 859.865 361.845 855.838 371.481C852.522 370.624 849.128 369.964 845.679 369.475L845.679 359 819.322 359 819.322 369.475C816.071 369.936 812.871 370.557 809.737 371.345L805.766 361.674 781.384 371.683 785.357 381.361C782.373 383.117 779.485 385.021 776.727 387.088L769.34 379.702 750.703 398.34 758.077 405.713C756.119 408.317 754.301 411.027 752.62 413.831L743.008 409.814 732.845 434.133 742.419 438.135C741.555 441.46 740.884 444.861 740.39 448.32L730 448.32 730 474.677 740.364 474.677C740.824 477.944 741.445 481.158 742.234 484.308L732.673 488.233 742.683 512.615 752.235 508.693C754 511.695 755.911 514.598 757.99 517.371L750.703 524.66 769.34 543.297 776.616 536.021C779.233 537.989 781.96 539.816 784.78 541.503L780.815 550.99 805.134 561.154 809.087 551.695C812.428 552.559 815.846 553.228 819.321 553.722L819.321 564 845.678 564 845.678 553.722C848.955 553.256 852.179 552.631 855.336 551.834L859.232 561.326 883.615 551.316 879.708 541.798C882.708 540.026 885.611 538.106 888.384 536.021L895.658 543.297 914.295 524.66 907.009 517.371C908.971 514.755 910.787 512.025 912.469 509.205L921.991 513.184 932.154 488.866 922.63 484.885C923.488 481.553 924.147 478.142 924.634 474.677L935 474.677ZM832.501 518.803C800.908 518.803 775.296 493.191 775.296 461.599 775.296 430.005 800.908 404.393 832.501 404.393 864.094 404.393 889.706 430.005 889.706 461.599 889.706 493.191 864.094 518.803 832.501 518.803Z" fill="#ED7D31" fill-rule="evenodd" fill-opacity="0.6"/><path d="M1181 227.936 1181 201.065 1170.41 201.065C1169.93 197.739 1169.29 194.468 1168.48 191.264L1178.27 187.246 1168.07 162.387 1158.24 166.423C1156.44 163.38 1154.49 160.438 1152.37 157.626L1159.89 150.108 1140.89 131.107 1133.36 138.638C1130.71 136.648 1127.94 134.804 1125.08 133.098L1129.19 123.263 1104.4 112.901 1100.29 122.726C1096.91 121.853 1093.45 121.179 1089.94 120.68L1089.94 110 1063.06 110 1063.06 120.68C1059.75 121.151 1056.49 121.782 1053.29 122.587L1049.25 112.726 1024.39 122.93 1028.44 132.798C1025.39 134.589 1022.45 136.529 1019.64 138.638L1012.11 131.107 993.107 150.108 1000.62 157.626C998.63 160.28 996.775 163.044 995.062 165.903L985.263 161.806 974.9 186.601 984.661 190.679C983.781 194.07 983.096 197.538 982.592 201.065L972 201.065 972 227.936 982.567 227.936C983.035 231.266 983.668 234.544 984.472 237.754L974.726 241.755 984.931 266.613 994.669 262.615C996.469 265.674 998.417 268.635 1000.54 271.462L993.107 278.892 1012.11 297.893 1019.53 290.475C1022.19 292.481 1024.97 294.344 1027.85 296.065L1023.81 305.737 1048.6 316.099 1052.63 306.455C1056.04 307.336 1059.52 308.019 1063.06 308.521L1063.06 319 1089.94 319 1089.94 308.521C1093.28 308.047 1096.56 307.41 1099.78 306.598L1103.75 316.273 1128.61 306.07 1124.63 296.365C1127.69 294.56 1130.65 292.602 1133.47 290.476L1140.89 297.894 1159.89 278.893 1152.46 271.463C1154.46 268.795 1156.32 266.012 1158.03 263.136L1167.74 267.193 1178.1 242.399 1168.39 238.341C1169.26 234.945 1169.94 231.468 1170.43 227.935L1181 227.935ZM1076.5 272.923C1044.29 272.923 1018.18 246.811 1018.18 214.601 1018.18 182.39 1044.29 156.279 1076.5 156.279 1108.71 156.279 1134.82 182.391 1134.82 214.601 1134.82 246.811 1108.71 272.923 1076.5 272.923Z" fill="#ED7D31" fill-rule="evenodd" fill-opacity="0.6"/><path d="M902.812 564C876.573 564 855.694 555.822 840.755 539.692 812.539 509.226 816.058 461.671 816.223 459.662 816.482 456.463 819.165 454 822.388 454L893.091 454C896.508 454 899.278 456.756 899.278 460.159 899.278 463.562 896.508 466.319 893.091 466.319L828.405 466.319C828.435 479.086 830.612 510.613 849.896 531.388 862.393 544.853 880.197 551.679 902.812 551.679 906.229 551.679 909 554.437 909 557.84 909 561.242 906.229 564 902.812 564Z" fill="#FEC463" fill-rule="evenodd"/><path d="M888.498 454.285C891.88 454.285 894.624 456.97 894.624 460.285 894.624 462.963 892.834 465.226 890.364 466L892.873 466C896.258 466 899 463.315 899 460 899 456.685 896.258 454 892.873 454L822.856 454C822.209 454 821.587 454.102 821 454.285L888.498 454.285Z" fill="#FAAD5E" fill-rule="evenodd"/><path d="M902.813 551.602C880.202 551.602 862.401 544.732 849.906 531.183 830.766 510.429 828.482 479.027 828.42 466L824 466C824.03 478.849 826.207 510.572 845.487 531.479 857.981 545.028 875.783 551.899 898.396 551.899 901.812 551.899 904.581 554.672 904.581 558.097 904.581 560.811 902.836 563.113 900.41 563.953 901.212 563.968 902.001 564 902.813 564 906.23 564 909 561.224 909 557.802 909 554.377 906.23 551.602 902.813 551.602Z" fill="#FAAD5E" fill-rule="evenodd"/><path d="M899 458C898.246 455.687 895.903 454 893.127 454L823.071 454C820.314 454 899 458 899 458Z" fill="#FFF7C2" fill-rule="evenodd"/><path d="M1009.19 563C1035.43 563 1056.31 554.824 1071.24 538.694 1099.46 508.227 1095.94 460.671 1095.78 458.662 1095.52 455.464 1092.83 453 1089.61 453L1018.91 453C1015.49 453 1012.72 455.759 1012.72 459.16 1012.72 462.563 1015.49 465.319 1018.91 465.319L1083.59 465.319C1083.56 478.088 1081.39 509.613 1062.1 530.388 1049.61 543.853 1031.8 550.681 1009.19 550.681 1005.77 550.681 1003 553.437 1003 556.84 1003 560.244 1005.77 563 1009.19 563Z" fill="#FEC463" fill-rule="evenodd"/><path d="M1023.64 453.285C1020.21 453.285 1017.43 455.972 1017.43 459.286 1017.43 461.963 1019.25 464.228 1021.75 465L1019.21 465C1015.78 465 1013 462.315 1013 459 1013 455.687 1015.78 453 1019.21 453L1090.12 453C1090.78 453 1091.41 453.102 1092 453.285L1023.64 453.285Z" fill="#FAAD5E" fill-rule="evenodd"/><path d="M1009.19 550.604C1031.8 550.604 1049.6 543.732 1062.09 530.183 1081.23 509.429 1083.52 478.027 1083.58 465L1088 465C1087.97 477.848 1085.79 509.571 1066.51 530.478 1054.02 544.029 1036.22 550.898 1013.6 550.898 1010.19 550.898 1007.42 553.674 1007.42 557.096 1007.42 559.813 1009.16 562.115 1011.59 562.953 1010.79 562.97 1010 563 1009.19 563 1005.77 563 1003 560.227 1003 556.802 1003 553.377 1005.77 550.604 1009.19 550.604Z" fill="#FAAD5E" fill-rule="evenodd"/><path d="M1013 457C1013.76 454.687 1016.14 453 1018.95 453L1089.93 453C1092.72 453 1013 457 1013 457Z" fill="#FFF7C2" fill-rule="evenodd"/><path d="M888 436 888 528.679C888 564.203 916.722 593 952.154 593L962.846 593C998.277 593 1027 564.203 1027 528.679L1027 436 888 436Z" fill="#FFD686" fill-rule="evenodd"/><path d="M902.382 479.645C942.955 465.324 985.219 457.252 1027 447.433L1027 436 888 436 888 485C892.763 483.14 897.555 481.35 902.382 479.645Z" fill="#FEC463" fill-rule="evenodd"/><path d="M1043 435.161C1043 441.149 1038.95 446 1033.96 446L881.04 446C876.047 446 872 441.149 872 435.161L872 428.839C872 422.853 876.046 418 881.04 418L1033.96 418C1038.95 418 1043 422.853 1043 428.839L1043 435.161Z" fill="#FFD686" fill-rule="evenodd"/><path d="M1023 502.499C1023 524.315 1019.87 542 1016 542 1012.13 542 1009 524.316 1009 502.499 1009 480.685 1012.13 463 1016 463 1019.87 463 1023 480.685 1023 502.499Z" fill="#FFF7C2" fill-rule="evenodd"/><path d="M903 419.5C903 421.986 934.906 424 974.264 424 1003.85 424 1029.22 422.862 1040 421.24 1038.36 419.244 1036.08 418 1033.55 418L907.071 418C904.443 418.471 903 418.975 903 419.5Z" fill="#FFF7C2" fill-rule="evenodd"/><path d="M939 590 975 590 975 609 939 609Z" fill="#FEC463" fill-rule="evenodd"/><path d="M946 609 969 609 969 705 946 705Z" fill="#FFD686" fill-rule="evenodd"/><path d="M984.376 679 930.624 679 913 705 1002 705Z" fill="#FEC463" fill-rule="evenodd"/><path d="M979 679 965.791 679C956.801 687.606 947.858 696.261 939 705L952.959 705C961.667 696.361 970.348 687.693 979 679Z" fill="#FFD686" fill-rule="evenodd"/><path d="M959 679 952.838 679C944.214 687.656 935.598 696.319 927 705L932.744 705C941.429 696.265 950.185 687.604 959 679Z" fill="#FFD686" fill-rule="evenodd"/><path d="M892 704 1022 704 1022 723 892 723Z" fill="#FBAA34" fill-rule="evenodd"/><path d="M892 704 904 704 904 723 892 723Z" fill="#FEC463" fill-rule="evenodd"/><path d="M995.659 84.4443C997.444 91.4292 997.915 98.9603 998.55 105.928 1001.53 107.429 1004.34 111.748 1007.04 114.108 1011.13 117.696 1016.7 120.356 1020.16 124.545 1024.89 130.271 1022.92 135.537 1020.01 141.716 1016.75 148.651 1010.64 155.333 1013.48 163.49 1015.42 169.085 1020.23 173.008 1017.86 179.654 1014.54 188.957 1000.25 187.943 992.449 187.986 987.495 188.014 983.337 187.164 979.315 183.93 976.056 181.31 974.735 176.91 970.608 175.323 963.855 172.726 953.038 179.332 948.182 174.044 941.212 166.456 940.95 148.49 941.005 138.872 941.035 133.552 942.715 128.889 944.359 123.885 947.046 115.713 944.448 110.781 942.447 102.841 940.968 96.9747 942.72 92.4394 943.323 86.7344 943.797 82.2431 943.526 78.6834 945.551 74.3576 949.173 66.6183 956.793 59.549 965.798 60.0225 971.341 60.3136 978.133 61.5445 982.88 64.7613 990.092 69.6499 993.681 76.7122 995.659 84.4443Z" fill-rule="evenodd"/><path d="M905.686 174.968C904.763 174.592 897.939 168.11 900.62 165.332 911.476 154.089 918.942 147.655 927.519 140.38 939.203 130.469 955.596 123.536 960.406 131.405 964.652 138.351 945.263 149.308 930.13 158.737 926.912 160.742 923.719 164.412 913.58 171.387 913.578 171.388 908.346 175.399 905.686 174.968Z" fill="#EAB1B8" fill-rule="evenodd"/><path d="M905 174.626C905.343 172.318 907.427 165.702 910.859 165.125 913.736 164.64 914.677 165.724 914.675 165.722 927.004 175.827 937.459 185.909 945.278 194.787 952.966 203.518 941.927 201.878 941.927 201.878 930.848 195.03 919.837 189.474 905 174.626Z" fill="#EAB1B8" fill-rule="evenodd"/><path d="M920.054 169.831C926.258 165.136 941.301 154.802 943.888 153.168 958.949 143.652 964.9 137.285 960.675 130.274 955.887 122.332 937.979 130.25 925.396 139.024 914.455 146.655 908.729 154.054 899 164.12 903.353 167.707 913.679 170.761 920.054 169.831Z" fill="#002060" fill-rule="evenodd"/><path d="M956.413 341.184C956.413 341.184 962.958 357.616 949.463 410.505 948.383 414.739 945.024 414.47 943.227 413.106 942.022 412.191 942.016 410.464 942.016 410.464 942.016 410.464 935.658 350.209 937.258 342.774 938.86 335.339 956.413 341.184 956.413 341.184Z" fill="#EAB1B8" fill-rule="evenodd"/><path d="M936.736 326.171C937.17 330.16 936.111 344.868 938.502 347.998 942.045 352.633 949.897 353.333 954.115 349.621 956.767 347.289 956.509 340.362 957.841 337.278 959.154 334.24 968.307 277.226 969.035 264.681 969.892 249.931 969.563 253.729 969.763 238.957 969.842 233.117 969.884 227.277 969.905 221.437 969.918 217.956 970.87 212.829 966.449 211.954 961.195 210.914 960.054 201.839 955.484 204.48 949.758 207.791 946.732 219.237 944.559 224.892 938.046 241.827 936.59 259.903 936.516 277.901 936.463 290.64 935.603 303.405 936.224 316.14 936.38 319.307 936.367 322.78 936.736 326.171Z" fill="#EAB1B8" fill-rule="evenodd"/><path d="M924.161 415.478C926.226 415.168 926.867 415.461 928.935 415.114 930.973 414.773 932.979 414.041 934.827 413.1 936.656 412.172 939.317 410.274 940.885 408.99 941.084 408.827 941.284 408.692 941.486 408.57 944.279 409.89 945.877 409.8 948.869 408.506 949.152 408.383 949.337 408.205 949.442 408 949.527 408.068 949.606 408.149 949.677 408.242 950.155 408.869 950.24 409.737 950.353 410.495 950.563 411.914 951.213 417.8 950.93 419.195 950.529 421.168 940.044 423.518 936.604 423.737 931.97 424.031 928.435 424.231 923.861 423.473 919.401 422.732 920.667 415.999 924.161 415.478Z" fill-rule="evenodd"/><path d="M978.882 92.6915C978.289 95.7181 973.985 99.7618 972.901 97.1726 972.237 95.5894 971.652 92.1031 972.246 89.0755 972.84 86.0479 972.343 85.6593 975.053 86.2115 977.763 86.7624 979.477 89.6639 978.882 92.6915Z" fill="#EAB1B8" fill-rule="evenodd"/><path d="M973.078 102.724C972.645 96.889 956 107.736 956 107.736L957.781 130C957.781 130 957.955 129.106 966.14 129.306 971.129 129.426 974.235 131.04 973.986 126.249 973.832 123.289 973.227 104.742 973.078 102.724Z" fill="#EAB1B8" fill-rule="evenodd"/><path d="M973.991 108.254C971.545 115.969 964.526 121.531 957.176 120.96L956 107.646C956 107.646 973.281 96.9442 973.731 102.701 973.78 103.311 973.667 101.51 973.929 104.028 973.823 104.153 974.048 108.071 973.991 108.254Z" fill="#E5958A" fill-rule="evenodd"/><path d="M954.882 112.057C960.492 114.7 969.521 111.467 972.61 106.355 974.476 103.262 975.195 100.133 974.955 96.6676 974.685 92.7661 973.538 89.2917 973.235 85.3733 973.105 83.682 972.932 81.984 972.449 80.3521 971.674 77.7432 970.089 75.3584 967.95 73.5829 965.848 71.8359 963.087 71.3482 960.525 70.5103 958.357 69.8003 955.895 68.8727 953.571 69.0144 951.967 69.1115 951.151 70.267 950.066 71.3533 944.176 77.2522 943.027 87.7843 944.701 95.6151 945.945 101.445 949.109 109.336 954.882 112.057Z" fill="#EAB1B8" fill-rule="evenodd"/><path d="M994.472 337.092C994.472 337.092 1004.6 351.331 1005 405.616 1005.03 409.961 1001.83 410.526 999.824 409.65 998.477 409.063 998.046 407.401 998.046 407.401 998.046 407.401 977.337 350.871 977.005 343.312 976.673 335.752 994.472 337.092 994.472 337.092Z" fill="#EAB1B8" fill-rule="evenodd"/><path d="M995.769 322.993C995.657 327 996.845 340.902 994.719 344.211 991.572 349.11 984.295 348.923 979.808 345.568 976.987 343.46 978.313 346.12 976.743 343.156 975.196 340.236 960.489 276.813 958.761 264.381 956.728 249.767 957.359 253.522 955.977 238.831 955.43 233.024 954.92 227.213 954.431 221.401 954.14 217.938 952.782 212.909 957.105 211.682 962.241 210.224 962.646 201.097 967.398 203.358 973.349 206.193 977.271 217.344 979.885 222.799 987.708 239.132 990.606 257.009 992.121 274.921 993.192 287.599 995.071 300.237 995.473 312.964 995.572 316.132 995.863 319.588 995.769 322.993Z" fill="#EAB1B8" fill-rule="evenodd"/><path d="M949.295 215C947.953 188.634 942.743 149.846 946.12 146.093 952.066 139.491 943.763 135.631 948.064 130.34 954.497 122.428 975.216 120.732 983.256 132.183 985.983 136.067 982.774 146.759 983.417 149.667 984.844 156.111 985.383 188.214 987 214.072L949.295 215Z" fill="#EAB1B8" fill-rule="evenodd"/><path d="M952.468 124.748C953.091 124.53 956.292 124.551 956.879 124.746 957.214 124.857 956.922 132.174 957.548 135.289 958.317 139.128 958.971 141.738 959.953 145.431 964.271 138.971 965.989 133.409 970.646 127.188 973.895 122.847 978.891 123.165 981.627 126.779 983.997 129.909 984.122 133.775 985.553 137.288 987.316 141.607 986.805 144.646 986.518 149.427 985.903 159.639 986.057 169.875 986.101 180.099 986.15 191.232 985.148 203.244 987 214.275 987 214.275 949.196 215 949.192 215 948.069 214.025 948.368 207.236 948.221 205.832 947.558 199.524 946.886 193.216 946.171 186.914 944.703 173.986 942.255 161.048 942.009 148.035 941.892 141.871 942.861 134.777 946.551 129.644 947.802 127.906 950.085 125.583 952.468 124.748Z" fill="#002060" fill-rule="evenodd"/><path d="M1026.31 171.967C1027.24 171.583 1034.06 164.963 1031.38 162.127 1020.52 150.644 1013.06 144.073 1004.48 136.643 992.798 126.521 976.406 119.441 971.594 127.477 967.348 134.571 986.737 145.761 1001.87 155.391 1005.09 157.438 1008.28 161.187 1018.42 168.31 1018.42 168.311 1023.65 172.407 1026.31 171.967Z" fill="#EAB1B8" fill-rule="evenodd"/><path d="M961.202 59.7532C960.246 60.3711 959.514 61.3161 958.397 62.3773 956.154 64.5049 954.016 66.8427 953.101 69.8517 952.515 71.7829 952.227 74.1092 952.048 76.1149 951.718 79.8476 953.093 83.2431 956.085 85.4836 958.4 87.219 960.948 88.0364 963.768 88.464 965.225 88.6846 967.059 89.0533 968.249 89.9729 969.111 90.6394 969.24 91.8456 970.058 92.4543 972.852 94.537 972.841 90.0888 973.101 88.6623 972.964 89.4116 973.125 88.8508 973.585 86.9824 974.583 82.8912 974.562 79.5487 976.964 75.9882 979.075 72.8613 979.903 67.1739 977.691 63.8807 975.195 60.1624 968.22 59.0288 964.102 59.0002 962.815 58.991 961.942 59.2747 961.202 59.7532Z" fill-rule="evenodd"/><path d="M943.336 82.3141C944.142 77.5319 945.366 72.3509 948.068 68.276 949.989 65.3784 952.99 62.0423 956.15 60.6404 957.876 59.8744 960.487 58.7751 962.333 59.0404 964.664 63.7383 960.297 70.3629 958.236 74.6327 956.838 77.5291 954.414 78.2604 952.359 80.3036 950.79 81.8618 949.71 83.8144 948.382 85.5709 946.962 87.4493 945.291 88.7935 944.289 91.0002 942.41 90.1186 943.06 83.9529 943.336 82.3141Z" fill-rule="evenodd"/><path d="M933.634 259.058C933.707 241.141 946.271 205.285 948.139 201.176L985.948 200C987.435 203.592 997.733 233.5 999.8 264.346 1000.65 277 998.564 301.026 997.94 313.703 997.785 316.856 997.799 320.314 997.428 323.69 997.388 324.049 997.353 324.493 997.32 325L933.075 324.266C932.751 321.034 933.582 271.74 933.634 259.058Z" fill="#ED7D31" fill-rule="evenodd"/><path d="M1028 170.626C1027.66 168.319 1025.57 161.702 1022.14 161.125 1019.26 160.64 1018.32 161.724 1018.33 161.722 1006 171.828 995.541 181.909 987.722 190.787 980.034 199.518 991.073 197.878 991.073 197.878 1002.15 191.03 1013.16 185.474 1028 170.626Z" fill="#EAB1B8" fill-rule="evenodd"/><path d="M982.839 200.9C983.192 198.252 983.683 196.116 985.562 194.012L985.791 194.012C985.816 194.295 985.842 194.58 985.867 194.865 985.867 194.865 986.06 194.026 985.896 195.198 985.904 195.284 985.911 195.37 985.918 195.456 986.436 194.541 987.188 193.925 988.314 194.007 991.702 194.254 992.1 199.152 991.983 201.598 991.833 204.717 990.737 207.788 990.378 210.968 990.037 213.984 990.145 218.254 988.733 220.974 984.752 221.559 984.379 212.33 984.873 204.443 985.102 201.71 983.637 207.67 982.614 207.811 981.319 208.292 982.408 202.658 982.839 200.9Z" fill="#EAB1B8" fill-rule="evenodd"/><path d="M1012.61 166.827C1006.31 162.023 991.027 151.449 988.401 149.776 973.099 140.039 967.054 133.524 971.347 126.35 976.21 118.223 994.404 126.326 1007.19 135.305 1018.3 143.112 1024.12 150.683 1034 160.983 1029.58 164.655 1019.09 167.779 1012.61 166.827Z" fill="#002060" fill-rule="evenodd"/><path d="M949.244 204.644C948.928 202.094 948.486 200.037 946.794 198.012L946.588 198.012C946.565 198.284 946.542 198.558 946.52 198.833 946.52 198.833 946.345 198.025 946.493 199.154 946.487 199.236 946.48 199.319 946.473 199.402 946.007 198.521 945.331 197.928 944.317 198.007 941.269 198.244 940.91 202.961 941.016 205.315 941.15 208.32 942.136 211.277 942.46 214.339 942.766 217.244 942.669 221.356 943.939 223.975 947.523 224.538 947.859 215.651 947.414 208.055 947.206 205.424 948.526 211.163 949.447 211.299 950.613 211.761 949.633 206.337 949.244 204.644Z" fill="#EAB1B8" fill-rule="evenodd"/><path d="M980.162 413.478C982.226 413.168 982.868 413.462 984.936 413.115 986.973 412.774 988.981 412.042 990.828 411.101 992.655 410.173 995.317 408.276 996.886 406.992 997.085 406.829 997.285 406.694 997.486 406.57 1000.28 407.892 1001.88 407.802 1004.87 406.509 1005.15 406.385 1005.34 406.207 1005.44 406 1005.53 406.07 1005.61 406.151 1005.68 406.244 1006.16 406.872 1006.24 407.738 1006.35 408.497 1006.56 409.915 1007.21 415.802 1006.93 417.195 1006.53 419.167 996.044 421.517 992.604 421.736 987.971 422.032 984.436 422.231 979.861 421.472 975.401 420.732 976.667 413.999 980.162 413.478Z" fill-rule="evenodd"/><path d="M858 721C856.217 691.428 831.828 668 802 668 772.173 668 747.785 691.428 746 721L858 721Z" fill="#F4B183" fill-rule="evenodd"/><path d="M818.963 671C820.957 678.574 820.799 686.48 815.678 693.042 806.256 705.115 787.319 706.62 773.247 706.059 765.695 705.759 757.798 704.86 750.119 703.082 747.815 708.659 746.384 714.688 746 721L858 721C856.57 697.464 840.608 677.853 818.963 671Z" fill="#ED7D31" fill-rule="evenodd"/><path d="M865 717.501C865 719.987 862.875 722 860.253 722L743.747 722C741.126 722 739 719.987 739 717.501L739 717.501C739 715.015 741.126 713 743.747 713L860.253 713C862.875 713 865 715.015 865 717.501L865 717.501Z" fill="#ED7D31" fill-rule="evenodd"/><path d="M776.885 676 828.116 676 833 674.033C833 674.033 811.663 612.652 830.146 586L774.854 586C793.337 612.652 772 674.033 772 674.033L776.885 676Z" fill="#ED7D31" fill-rule="evenodd"/><path d="M834 676.499C834 678.432 832.92 680 831.589 680L772.411 680C771.079 680 770 678.432 770 676.499L770 676.499C770 674.568 771.079 673 772.411 673L831.589 673C832.92 673 834 674.568 834 676.499L834 676.499Z" fill="#ED7D31" fill-rule="evenodd"/><path d="M837.479 551.941C826.177 542.534 802.046 539 802.046 539 802.046 539 777.824 542.534 766.52 551.941 755.22 561.348 774.741 583.659 774.741 583.659L798.416 586.219 798.356 587 801.999 586.607 805.643 587 805.583 586.219 829.259 583.659C829.26 583.659 848.781 561.348 837.479 551.941Z" fill="#F4B183" fill-rule="evenodd"/><path d="M837.494 551.729C832.155 547.24 823.942 544.081 816.782 542 821.27 545.616 825.65 550.171 823.977 555.415 821.655 562.693 812.009 566.978 805.24 569.04 792.084 573.048 775.467 572.711 764 564.382 766.486 573.786 775.018 583.639 775.018 583.639L798.594 586.214 798.534 587 802.161 586.604 805.79 587 805.731 586.214 829.307 583.639C829.309 583.639 848.748 561.193 837.494 551.729Z" fill="#ED7D31" fill-rule="evenodd"/><path d="M812 535.499C812 540.746 807.522 545 801.999 545 796.477 545 792 540.746 792 535.499 792 530.252 796.477 526 801.999 526 807.522 526 812 530.252 812 535.499Z" fill="#EA958F" fill-rule="evenodd"/><path d="M835 587.001C835 588.658 833.903 590 832.55 590L772.449 590C771.096 590 770 588.658 770 587.001L770 587.001C770 585.344 771.096 584 772.449 584L832.55 584C833.903 584 835 585.343 835 587.001L835 587.001Z" fill="#ED7D31" fill-rule="evenodd"/><path d="M800.8 528.612C801.394 529.517 800.622 531.098 799.074 532.139 797.528 533.182 795.795 533.293 795.2 532.388 794.607 531.481 795.378 529.903 796.925 528.862 798.472 527.818 800.205 527.707 800.8 528.612Z" fill="#FFFFFF" fill-rule="evenodd"/><path d="M1099.09 542.767 1097 528.64C1097 528.64 1162.15 517.974 1171.34 583.712 1180.52 649.45 1148.66 663 1148.66 663L1099.09 542.767Z" fill="#002060" fill-rule="evenodd"/><path d="M1171.34 583.618C1162.15 517.991 1097 528.639 1097 528.639L1098.35 537.789C1116.86 537.728 1156.04 543.606 1163.01 593.405 1167.8 627.591 1161.45 647.636 1154.26 659 1162.95 651.572 1178.03 631.412 1171.34 583.618Z" fill="#4865A2" fill-rule="evenodd"/><path d="M1093.34 665C1093.34 665 1085.29 620.95 1114.61 583.191 1114.61 583.191 1083.57 592.345 1076.67 610.079L1061.72 600.926 1060 584.908 1100.82 542C1100.82 542 1149.11 546.005 1156.01 591.773 1162.91 637.54 1149.68 665 1149.68 665L1093.34 665Z" fill="#002060" fill-rule="evenodd"/><path d="M1156.01 591.773C1149.12 546.005 1100.88 542 1100.88 542L1099.53 543.428C1114.03 549.044 1132.77 561.49 1136.87 588.72 1143.76 634.489 1093 661.95 1093 661.95 1093.22 663.918 1093.42 665 1093.42 665L1149.69 665C1149.69 665 1162.9 637.54 1156.01 591.773Z" fill="#506CAF" fill-rule="evenodd"/><path d="M1099.32 578.762C1086.03 588.695 1077.5 601.69 1076 610 1083.81 596.865 1106.38 586.057 1112.25 584.045 1114.52 579.953 1117.16 576.161 1120 572.525 1114.28 570.434 1104.33 575.019 1099.32 578.762Z" fill="#506BAE" fill-rule="evenodd"/><path d="M1179 719C1177.22 689.428 1152.83 666 1123 666 1093.17 666 1068.78 689.428 1067 719L1179 719Z" fill="#5470B4" fill-rule="evenodd"/><path d="M1139.96 669C1141.96 676.574 1141.8 684.48 1136.68 691.042 1127.26 703.115 1108.32 704.62 1094.25 704.059 1086.7 703.759 1078.8 702.86 1071.12 701.082 1068.82 706.659 1067.38 712.688 1067 719L1179 719C1177.57 695.464 1161.61 675.853 1139.96 669Z" fill="#002060" fill-rule="evenodd"/><path d="M1186 715.501C1186 717.987 1183.87 720 1181.25 720L1064.75 720C1062.13 720 1060 717.987 1060 715.501L1060 715.501C1060 713.015 1062.13 711 1064.75 711L1181.25 711C1183.87 711 1186 713.015 1186 715.501L1186 715.501Z" fill="#002060" fill-rule="evenodd"/><path d="M1155 666.499C1155 668.432 1153.92 670 1152.59 670L1093.41 670C1092.08 670 1091 668.432 1091 666.499L1091 666.499C1091 664.566 1092.08 663 1093.41 663L1152.59 663C1153.92 663 1155 664.565 1155 666.499L1155 666.499Z" fill="#4A65A4" fill-rule="evenodd"/><path d="M1110.95 591.454C1110.95 591.454 1092.57 619.801 1096.57 642.592 1097.64 648.656 1116.59 585.045 1110.95 591.454Z" fill="#5B85C4" fill-rule="evenodd"/><path d="M1064 584C1064 584 1086.99 558.738 1095.42 551.099 1103.85 543.461 1076.45 577.929 1064 584Z" fill="#506CAF" fill-rule="evenodd"/></g></svg>