<svg width="186.06" height="256.76" viewBox="0 0 186.06 256.76" xmlns="http://www.w3.org/2000/svg" xmlns:xlink="http://www.w3.org/1999/xlink" xml:space="preserve" overflow="visible"><defs></defs><g><path d="M89.38 180.39C83.21 180.39 77.05 180.41 70.88 180.38 61.26 180.33 58.31 176.81 57.54 167.06 55.96 147.07 64.66 132.04 79.09 119.41 85.79 113.55 93.16 108.78 101.23 105.03 106.23 102.7 111 99.97 114.9 95.96 123.93 86.67 122.56 73.24 112.08 65.73 99.46 56.7 75.07 57.18 64.1 69.72 59.28 75.23 54.3 80.61 49.6 86.25 44.57 92.29 40.76 92.89 34.62 88.32 24.47 80.76 14.4 73.08 4.39 65.31-0.59 61.45-1.27 57.53 2.01 52.21 25.1 14.87 58.73-3.45 102.37 0.54 134.11 3.44 159.96 18.7 176.69 46.88 193.19 74.68 189.64 115.77 152.11 137.5 147.64 140.09 143.06 142.53 138.83 145.47 130.07 151.57 123.78 159.43 121.98 170.38 120.85 177.26 117.4 180.17 110.39 180.33 103.39 180.49 96.39 180.36 89.39 180.36 89.38 180.37 89.38 180.38 89.38 180.39Z" fill="#FFFFFF"/><path d="M89.95 256.74C82.46 256.74 74.98 256.8 67.49 256.72 60.92 256.65 57.71 253.5 57.67 246.87 57.58 231.9 57.58 216.92 57.67 201.95 57.71 195.28 60.88 192.1 67.45 192.07 82.59 192 97.73 192.01 112.87 192.06 119.02 192.08 122.54 194.81 122.67 200.92 123 216.55 123 232.19 122.68 247.82 122.55 253.93 119.03 256.67 112.91 256.72 105.26 256.79 97.61 256.74 89.95 256.74Z" fill="#FFFFFF"/></g></svg>