<svg width="256.63" height="256.87" viewBox="0 0 256.63 256.87" xmlns="http://www.w3.org/2000/svg" xmlns:xlink="http://www.w3.org/1999/xlink" xml:space="preserve" overflow="visible"><defs></defs><g><path d="M224.8 96.99C223.56 133.52 207.78 161.64 175.97 180.29 171.6 182.85 168.36 185.6 168.64 191.06 168.78 193.77 167.11 193.82 165.02 193.65 142.08 191.79 119.1 193.23 96.14 192.89 94.83 192.87 93.5 193.23 92.21 193.54 89.32 194.23 87.8 193.5 87.91 190.16 88.07 185.63 85.4 182.97 81.61 180.83 52.79 164.48 35.91 139.65 32.4 106.9 26.89 55.36 61.35 9.87 112.16 1.38 164.48-7.36 212.63 26.36 223.14 78.02 224.4 84.24 224.98 90.53 224.8 96.99ZM94.29 55.48C91.45 55.45 89.19 56.51 88.06 59.01 86.84 61.72 86.51 65.02 88.8 66.98 93.09 70.67 92.42 74.15 89.72 78.19 88.9 79.41 88.31 80.89 88.03 82.33 87.18 86.76 85.36 89.28 80.12 89.11 76.1 88.98 73.18 91.96 72.98 96.11 72.77 100.29 75.5 103.76 79.45 103.61 85.77 103.37 87.23 107.11 88.49 111.79 88.83 113.06 89.32 114.37 90.06 115.45 92.52 119.04 92.91 121.98 89.24 125.39 86.25 128.16 86.3 132.23 89.15 135.3 92.04 138.42 96.21 138.62 99.02 135.78 102.76 131.99 105.91 132.19 109.83 134.92 111.16 135.85 112.83 136.47 114.43 136.81 118.6 137.7 121.05 139.37 120.94 144.38 120.84 148.62 123.8 151.65 128.23 151.77 132.16 151.88 135.5 149.32 135.43 145.53 135.32 139.21 138.79 137.25 143.9 136.17 145.02 135.93 146.15 135.44 147.1 134.8 150.82 132.27 153.89 131.9 157.47 135.66 160.24 138.58 164.35 138.41 167.36 135.43 170.21 132.61 170.49 128.52 167.79 125.94 163.73 122.07 164.2 118.73 166.91 114.69 167.73 113.47 168.32 111.99 168.59 110.55 169.44 106.11 171.27 103.61 176.5 103.77 180.52 103.89 183.44 100.91 183.64 96.76 183.85 92.58 181.12 89.11 177.17 89.26 170.84 89.5 169.39 85.76 168.13 81.08 167.79 79.81 167.3 78.5 166.56 77.42 164.08 73.82 163.74 70.88 167.4 67.47 170.38 64.69 170.33 60.63 167.47 57.56 164.57 54.45 160.4 54.24 157.6 57.1 153.86 60.91 150.7 60.65 146.79 57.94 145.46 57.01 143.79 56.4 142.19 56.06 138.01 55.18 135.58 53.48 135.69 48.49 135.78 44.25 132.82 41.22 128.39 41.1 124.47 40.99 121.12 43.56 121.19 47.34 121.31 53.66 117.8 55.53 112.73 56.73 110.83 57.18 108.98 58.16 107.31 59.23 104.79 60.85 102.74 60.73 100.75 58.43 99.05 56.48 96.91 55.28 94.29 55.48Z" fill="#ED7D31"/><path d="M128.53 208.1C138.69 208.1 148.84 208.05 159 208.12 165.81 208.16 168.59 211.03 168.66 217.93 168.71 223.09 168.75 228.25 168.65 233.41 168.39 246.16 158.07 256.58 145.34 256.75 134.02 256.91 122.7 256.9 111.38 256.75 98.62 256.59 88.26 246.2 88 233.48 87.89 228.15 87.92 222.82 87.99 217.5 88.08 211.01 90.96 208.16 97.56 208.12 107.88 208.05 118.21 208.1 128.53 208.1Z" fill="#ED7D31"/><path d="M49.43 25.71C44.16 25.58 35.34 17.07 35.08 12.21 34.9 8.75 36.34 6.05 39.35 4.31 42.18 2.68 45.19 2.56 47.86 4.46 51.12 6.78 54 9.61 56.26 12.93 58.08 15.62 58.1 18.59 56.42 21.44 54.75 24.25 52.23 25.62 49.43 25.71Z" fill="#ED7D31"/><path d="M212.78 3.11C216.54 3.39 219.05 4.79 220.58 7.7 222.11 10.6 222.2 13.66 220.15 16.18 217.86 19 215.27 21.67 212.43 23.95 208.95 26.74 204.53 26.21 201.54 23.19 198.55 20.17 197.96 15.67 200.88 12.31 204.28 8.39 207.22 3.54 212.78 3.11Z" fill="#ED7D31"/><path d="M44.45 189.78C40.33 189.62 37.79 188.26 36.18 185.41 34.57 182.57 34.44 179.56 36.34 176.9 38.67 173.65 41.46 170.71 44.82 168.52 48.31 166.25 51.91 166.72 54.9 169.57 57.69 172.23 58.77 175.76 56.62 179.09 53.47 183.96 49.87 188.59 44.45 189.78Z" fill="#ED7D31"/><path d="M207.11 167.19C212.68 167.29 221.56 176.1 221.58 181.12 221.59 184.38 220.17 186.92 217.35 188.55 214.33 190.29 211.12 190.37 208.44 188.18 205.63 185.88 203.01 183.23 200.72 180.41 198.56 177.75 198.44 174.57 200.21 171.51 201.84 168.69 204.35 167.3 207.11 167.19Z" fill="#ED7D31"/><path d="M12.3 104.8C3.76 104.8 0.14 102.4 0.01 96.67-0.13 90.69 3.61 88.09 12.34 88.09 20.88 88.09 24.5 90.48 24.64 96.21 24.78 102.18 21.01 104.8 12.3 104.8Z" fill="#ED7D31"/><path d="M244 104.7C242.34 104.7 240.66 104.88 239.03 104.66 234.8 104.1 231.98 100.67 232.01 96.37 232.04 92.05 234.87 88.64 239.17 88.22 242.13 87.93 245.15 88.02 248.13 88.13 253.39 88.32 256.68 91.64 256.65 96.51 256.62 101.35 253.3 104.54 248 104.77 246.67 104.83 245.34 104.78 244.02 104.78 244 104.76 244 104.73 244 104.7Z" fill="#ED7D31"/><path d="M128.23 124.44C113.03 124.34 100.11 111.28 100.33 96.24 100.56 80.98 113.69 68.11 128.66 68.47 143.81 68.83 156.27 81.42 156.3 96.42 156.34 111.57 143.35 124.53 128.23 124.44Z" fill="#ED7D31"/></g></svg>