<svg width="248.61" height="248.5" viewBox="0 0 248.61 248.5" xmlns="http://www.w3.org/2000/svg" xmlns:xlink="http://www.w3.org/1999/xlink" xml:space="preserve" overflow="visible"><defs></defs><g><path d="M194.8 58.46C191.62 58.77 189.9 57.14 190.19 53.49 191.2 41.05 192.21 28.62 193.25 16.19 193.38 14.7 193.61 13.08 195.18 12.38 197.07 11.54 198.29 12.92 199.55 14.01 206.88 20.33 206.87 20.32 213.86 13.35 217.63 9.59 221.41 5.82 225.22 2.1 228.14-0.75 231.05-0.66 233.93 2.26 238.03 6.41 242.14 10.54 246.3 14.62 249.45 17.7 249.29 20.7 246.29 23.72 241.36 28.69 236.53 33.76 231.44 38.55 228.64 41.18 228.38 43.13 231.3 45.9 233.45 47.93 237.49 49.76 236.1 53.29 234.73 56.77 230.56 55.33 227.55 55.61 216.8 56.59 206.02 57.48 194.8 58.46Z" fill="#FFFFFF"/><path d="M58.49 52.71C59.14 57.03 57.23 58.82 52.85 58.43 40.75 57.37 28.65 56.42 16.55 55.38 14.9 55.24 13.08 55.09 12.42 53.19 11.76 51.28 13.23 50.11 14.31 48.88 20.55 41.85 20.55 41.85 13.98 35.28 10.21 31.51 6.48 27.7 2.69 23.96-0.75 20.58-0.61 17.44 2.89 14.13 6.88 10.35 10.75 6.44 14.56 2.48 17.8-0.88 20.86-0.68 24.03 2.5 28.97 7.46 34.04 12.28 38.85 17.36 41.34 19.99 43.21 20.2 45.84 17.48 47.92 15.32 49.76 11.27 53.18 12.45 57.05 13.78 55.41 18.19 55.71 21.32 56.71 31.76 57.56 42.2 58.49 52.71Z" fill="#FFFFFF"/><path d="M58.38 195.86C57.43 207.97 56.49 220.07 55.5 232.17 55.37 233.82 55.17 235.62 53.24 236.25 51.55 236.8 50.45 235.58 49.31 234.61 41.81 228.26 41.81 228.26 34.64 235.42 31.1 238.95 27.54 242.46 24.02 246 20.86 249.18 17.79 249.39 14.55 246.03 10.74 242.07 6.75 238.29 2.92 234.34-0.99 230.32-0.99 228.4 3.05 224.21 7.79 219.3 12.57 214.41 17.55 209.73 20.26 207.18 20.17 205.31 17.55 202.74 15.41 200.65 11.33 198.83 12.6 195.38 14 191.59 18.39 193.23 21.53 192.92 31.63 191.91 41.74 191.05 51.84 190.16 57.53 189.68 58.74 190.73 58.38 195.86Z" fill="#FFFFFF"/><path d="M190.2 195.26C189.68 191.43 191.57 189.73 195.68 190.09 207.78 191.13 219.88 192.09 231.98 193.11 233.63 193.25 235.46 193.35 236.26 195.13 237.1 197.01 235.67 198.23 234.59 199.48 228.29 206.75 228.29 206.75 234.97 213.44 238.74 217.21 242.49 220.99 246.25 224.77 249.23 227.77 249.51 230.76 246.35 233.87 242.19 237.95 238.07 242.08 233.98 246.24 230.88 249.4 227.89 249.15 224.89 246.16 219.81 241.11 214.65 236.14 209.7 230.96 207.32 228.48 205.57 228.47 203.07 230.88 200.82 233.05 199.01 237.47 195.32 235.96 191.75 234.5 193.33 230.07 193.03 226.9 192.03 216.47 191.16 206.03 190.2 195.26Z" fill="#FFFFFF"/><path d="M124.49 205.4C116.16 205.4 107.83 205.48 99.5 205.38 89.8 205.27 86.01 199.41 89.67 190.41 95.36 176.43 109.45 166.97 124.52 167.03 139.66 167.09 153.6 176.58 159.19 190.65 162.66 199.37 158.85 205.24 149.49 205.37 141.15 205.49 132.82 205.39 124.49 205.4Z" fill="#FFFFFF"/><path d="M123.9 105.54C115.57 105.54 107.25 105.63 98.92 105.52 90.17 105.4 86.28 99.62 89.3 91.46 94.52 77.32 109.5 67.03 124.58 67.21 139.86 67.4 154.17 77.34 159.4 91.4 162.45 99.58 158.59 105.39 149.86 105.52 141.22 105.63 132.56 105.54 123.9 105.54Z" fill="#FFFFFF"/><path d="M56.16 157.64C47.5 157.64 38.85 157.72 30.19 157.61 22.1 157.51 18.51 152.19 21.18 144.54 26.06 130.55 40.06 120.2 54.47 119.92 71.35 119.6 85.53 128.55 91.26 143.13 94.78 152.08 91.15 157.57 81.62 157.63 73.14 157.68 64.65 157.64 56.16 157.64Z" fill="#FFFFFF"/><path d="M191.87 157.63C183.21 157.64 174.56 157.73 165.9 157.61 158.13 157.5 154.51 152.24 156.9 144.83 161.75 129.78 176.48 119.76 193.48 119.92 208.96 120.07 223.53 130.99 227.9 145.71 229.85 152.27 226.25 157.45 219.33 157.59 210.18 157.75 201.02 157.62 191.87 157.63Z" fill="#FFFFFF"/><path d="M192.27 115.6C181.35 115.59 172.97 107.16 173.07 96.27 173.16 85.94 181.98 77.22 192.32 77.21 202.77 77.21 211.72 86.32 211.6 96.82 211.48 107.3 202.92 115.61 192.27 115.6Z" fill="#FFFFFF"/><path d="M56.31 115.6C45.72 115.57 37.16 107.11 37.14 96.66 37.12 86.14 46.18 77.07 56.57 77.21 66.94 77.35 75.65 86.11 75.67 96.44 75.69 107.33 67.3 115.64 56.31 115.6Z" fill="#FFFFFF"/><path d="M124.52 24.96C135.2 25.03 143.83 33.87 143.65 44.55 143.47 54.84 134.5 63.58 124.24 63.48 113.92 63.38 105.16 54.58 105.11 44.28 105.06 33.65 113.86 24.89 124.52 24.96Z" fill="#FFFFFF"/><path d="M124.38 124.91C135.1 124.91 143.54 133.14 143.64 143.7 143.74 154.25 134.84 163.29 124.36 163.28 113.87 163.27 104.99 154.24 105.1 143.68 105.21 133.13 113.66 124.91 124.38 124.91Z" fill="#FFFFFF"/></g></svg>