<svg width="181.13" height="224.89" viewBox="0 0 181.13 224.89" xmlns="http://www.w3.org/2000/svg" xmlns:xlink="http://www.w3.org/1999/xlink" xml:space="preserve" overflow="visible"><defs></defs><g><path d="M24.22 207.69C24.36 203.45 23.92 198.61 24.85 193.82 26.01 187.81 29.17 183.15 34.84 181 40.26 178.94 46.02 177.8 51.64 176.26 53.81 175.67 55.08 177.08 56.31 178.46 60.63 183.32 64.94 188.17 69.18 193.09 70.96 195.16 72.75 196.64 75.56 194.9 77.72 193.57 78.78 194.66 79.77 196.62 81.96 200.96 83.22 205.06 80.29 209.76 78.19 213.12 76.84 216.96 75.28 220.64 74.19 223.22 72.55 224.57 69.59 224.5 63.6 224.36 57.59 224.39 51.6 224.49 48.43 224.54 47.02 223.18 47.07 220.03 47.12 217.03 47.03 214.03 46.93 211.04 46.89 209.76 46.29 208.71 44.85 208.72 43.47 208.73 42.71 209.7 42.65 210.99 42.51 213.98 42.41 216.98 42.47 219.98 42.53 223.12 41.2 224.53 38 224.5 21.99 224.32 24.45 226.46 24.22 211.8 24.2 210.6 24.22 209.43 24.22 207.69Z" fill="#ED7D31"/><path d="M156.5 207.95C156.5 212.11 156.95 216.33 156.4 220.42 155.39 227.91 149.33 223.56 145.61 224.3 142.9 224.84 138.8 225.67 138.85 220.4 138.88 217.57 138.86 214.74 138.73 211.92 138.66 210.36 138.17 208.78 136.28 208.7 134.01 208.6 133.69 210.33 133.6 212.11 133.58 212.61 133.58 213.11 133.57 213.61 133.28 224.48 133.28 224.64 122.58 224.44 104.01 224.1 109.28 227.59 101.22 210.88 99.19 206.67 97.65 202.81 100.39 198.23 101.94 195.63 102.74 193.02 106.52 195.35 108.5 196.58 109.95 194.95 111.19 193.57 115.41 188.87 119.79 184.28 123.74 179.35 126.09 176.43 128.47 175.68 131.95 176.86 135.41 178.02 139.04 178.67 142.54 179.7 151.77 182.43 156.35 188.45 156.5 197.97 156.55 201.3 156.51 204.63 156.51 207.95 156.52 207.95 156.51 207.95 156.5 207.95Z" fill="#ED7D31"/><path d="M113.37 119.86C113.11 124.22 113.84 129.55 112.69 134.84 110.27 145.94 99.91 154.08 89.19 153.16 77.12 152.12 68.09 142.67 67.91 130.77 67.8 123.45 67.94 116.12 67.86 108.8 67.83 105.93 68.32 104.36 71.84 105.39 84.23 108.99 96.48 108.62 108.38 103.3 112.27 101.56 113.5 103.12 113.39 106.93 113.28 110.92 113.37 114.92 113.37 119.86Z" fill="#ED7D31"/><path d="M57.9 97.82C57.9 94.66 57.8 91.49 57.92 88.33 58.17 81.54 63.16 77.09 69.86 78.2 73.44 78.79 76.34 77.97 79.39 76.44 87.78 72.21 96.66 70.56 106.01 71.86 113.88 72.96 119.2 77.39 121.43 84.94 123.78 92.86 124.03 101 122.51 109.16 122.22 110.7 121.89 112.33 119.87 112.06 118.18 111.84 118.1 110.26 118.06 108.93 117.98 106.27 117.91 103.6 117.99 100.94 118.11 96.93 115.99 95.98 112.56 96.86 110.63 97.35 108.69 97.91 106.86 98.68 93.75 104.22 80.66 104.2 67.62 98.53 64.52 97.18 63.13 98.5 62.81 101.33 62.51 103.97 62.66 106.65 62.57 109.31 62.51 110.96 62.04 112.33 59.99 112.2 58.18 112.08 57.98 110.68 57.96 109.32 57.91 105.49 57.94 101.66 57.94 97.83 57.92 97.82 57.91 97.82 57.9 97.82Z" fill="#ED7D31"/><path d="M73.75 47.56C74.47 43.84 75.08 39.89 76.05 36.02 76.79 33.05 76.04 30.95 73.69 29.03 70.99 26.82 68.53 24.32 66 21.89 65.19 21.11 63.91 20.43 64.21 19.11 64.56 17.59 66.09 17.83 67.14 17.89 78.46 18.55 85.64 13.64 88.38 2.47 88.63 1.45 89.11-0.05 90.51 4.44089e-16 91.84 0.04 92.11 1.5 92.6 2.51 93.69 4.76 95.03 6.94 95.73 9.31 97.34 14.79 100.95 17.03 106.47 16.95 108.44 16.92 110.46 17.27 112.4 17.7 113.89 18.03 116.18 17.14 116.64 19.31 116.97 20.87 115.31 22.03 114.1 22.75 104.9 28.23 103 35.95 106.69 45.6 107.19 46.92 108.18 48.75 106.91 49.83 105.3 51.2 103.65 49.47 102.56 48.56 94.26 41.53 86.21 42.12 78.08 48.83 77.03 49.7 75.64 50.9 74.04 50.09 73.19 49.64 73.7 48.57 73.75 47.56Z" fill="#ED7D31"/><path d="M148.82 78.42C148.83 78.31 148.8 77.95 148.93 77.65 151.82 70.68 150.18 65.21 143.71 61.15 142.71 60.52 141.29 59.53 141.96 57.95 142.5 56.68 143.95 56.87 145.05 56.89 152.39 57 157.32 53.99 159.07 46.51 159.31 45.47 159.79 44.05 161.13 43.95 162.86 43.81 162.9 45.62 163.61 46.65 163.7 46.78 163.79 46.94 163.82 47.1 165.34 54.75 170.8 56.78 177.68 56.89 178.9 56.91 180.62 56.43 181.08 58.15 181.42 59.44 180.16 60.29 179.25 60.87 172.72 65.08 171.03 70.77 173.61 77.98 173.96 78.97 174.68 80.38 173.46 81.19 172.34 81.93 171.09 81.07 170.28 80.36 164.13 74.98 158.17 75.83 152.06 80.48 150.19 81.91 148.1 82.38 148.82 78.42Z" fill="#ED7D31"/><path d="M6.98 79C7.15 78.17 7.16 77.64 7.36 77.2 10.4 70.23 7.94 65.14 2.06 61.08 1.07 60.39-0.48 59.59 0.16 57.96 0.67 56.67 2.14 57.05 3.24 56.87 4.55 56.65 5.88 56.22 7.18 56.3 12.23 56.59 14.62 53.81 16.16 49.41 16.88 47.35 17.35 44.01 19.8 44.01 21.87 44.01 22.52 47.23 22.98 49.21 24.57 56.05 30 56.19 35.29 56.82 36.66 56.99 38.63 56.27 39.19 58.14 39.63 59.6 38.12 60.57 37.09 61.23 30.86 65.27 29.37 70.7 31.92 77.51 32.37 78.7 33.04 80.32 31.7 81.18 30.45 81.98 29.03 80.92 28.08 80.12 22.37 75.28 16.79 75.66 11.1 80.14 10.16 80.88 8.9 82.03 7.56 80.97 7.05 80.56 7.1 79.47 6.98 79Z" fill="#ED7D31"/><path d="M105.53 158.65C105.71 160.81 105.28 162.67 103.83 164.26 100.26 168.19 96.69 172.12 93.2 176.13 91.45 178.14 89.88 178.65 87.93 176.39 84.25 172.12 80.49 167.91 76.74 163.69 75.43 162.22 75.16 160.49 75.09 158.61 74.96 155.13 76.09 154.09 79.53 155.65 86.71 158.9 94.08 158.74 101.28 155.73 104.71 154.31 105.94 155.17 105.53 158.65Z" fill="#ED7D31"/><path d="M106.44 189.56C103.05 187.63 99.14 185.74 95.92 182.83 94.78 181.8 95.84 180.65 96.59 179.79 99.99 175.91 103.46 172.1 106.86 168.22 108.21 166.68 109.56 166.87 111.3 167.6 122.89 172.42 123.05 172.99 114.73 182.31 113.07 184.17 111.39 186.02 109.72 187.87 108.94 188.73 108.24 189.72 106.44 189.56Z" fill="#ED7D31"/><path d="M85.82 181.96C85.17 182.65 84.68 183.28 84.09 183.8 76.06 190.9 73.82 190.75 66.69 182.7 64.93 180.71 63.18 178.7 61.34 176.78 59.06 174.41 59.7 172.86 62.45 171.48 74.11 165.67 70.96 164.89 79.41 174.16 80.98 175.88 82.56 177.59 84.08 179.36 84.7 180.09 85.16 180.96 85.82 181.96Z" fill="#ED7D31"/><path d="M90.24 224.47C78.76 224.47 78.64 224.41 83.68 214.13 85.22 211 85.17 206.12 90.59 206.22 95.64 206.32 95.77 210.85 97.2 213.9 102.97 226.2 102.37 224.31 90.24 224.47Z" fill="#ED7D31"/><path d="M90.61 201.46C87.52 201.51 83.59 196.44 83.35 192.07 83.25 190.19 88.37 185.74 90.57 186.39 93.46 187.25 97.04 188.15 97.53 191.84 98.03 195.67 93.54 201.41 90.61 201.46Z" fill="#ED7D31"/></g></svg>