<svg width="236.67" height="235.72" viewBox="0 0 236.67 235.72" xmlns="http://www.w3.org/2000/svg" xmlns:xlink="http://www.w3.org/1999/xlink" xml:space="preserve" overflow="visible"><defs></defs><g><path d="M6.46 58C12.05 55.98 17.59 53.82 23.22 51.95 56 41.09 85.94 25.08 112.37 2.74 115.84-0.2 119.23-1.27 123.04 2.03 152.96 27.89 187.95 44.21 225.2 56.24 226.47 56.65 227.71 57.13 228.94 57.64 229.21 57.75 229.38 58.11 230.2 59.02 155.31 59.02 81.02 59.02 6.74 59.02 6.64 58.68 6.55 58.34 6.46 58Z" fill="#ED7D31"/><path d="M236.27 126.89C236.27 137.71 236.29 148.53 236.26 159.34 236.24 165.83 236.12 165.92 229.45 165.94 225.79 165.95 222.13 165.91 218.47 165.97 213.96 166.04 209.83 167.27 207 170.98 205.26 173.25 203.59 173.07 201.43 171.88 178.29 159.14 164.57 139.84 160.92 113.59 160.31 109.16 160.16 104.64 160.13 100.16 160.1 94.51 163.57 92.1 168.93 93.83 170.19 94.24 171.38 94.87 172.55 95.5 179.08 99.04 185.61 99.1 192.03 95.35 195.97 93.05 199.76 92.67 203.79 95.09 211.71 99.83 219.24 98.81 226.69 93.72 229.32 91.93 232.21 87.99 235.06 89.56 237.87 91.11 236.17 95.69 236.22 98.92 236.37 108.24 236.27 117.57 236.27 126.89Z" fill="#ED7D31"/><path d="M0.08 127.12C0.08 115.8 0.02 104.49 0.11 93.17 0.15 88.43 0.98 88.03 4.91 90.5 7.02 91.83 9.06 93.28 11.15 94.63 17.71 98.88 24.59 99.55 31.42 95.62 36.13 92.91 40.32 92.97 45 95.68 51.07 99.2 57.37 98.92 63.59 95.66 65.34 94.74 67.2 93.79 69.1 93.48 73.52 92.75 76.17 94.97 76.21 99.44 76.51 130.83 63.79 155.01 36.44 171.1 33.37 172.91 31.04 173.59 28.42 170.1 26.01 166.88 22.03 166.06 18.09 165.99 14.1 165.91 10.08 165.71 6.11 166.02 1.54 166.38-0.1 164.66-0.01 160.08 0.23 149.09 0.08 138.1 0.08 127.12Z" fill="#ED7D31"/><path d="M118.22 69.24C155.36 69.24 192.5 69.22 229.63 69.3 231.87 69.3 234.96 68.01 235.97 71.53 236.91 74.85 234.94 76.77 232.35 78.41 228.41 80.91 224.54 83.51 220.7 86.15 216.75 88.87 212.77 89.25 208.55 86.77 201.62 82.69 194.66 82.7 187.73 86.8 183.91 89.06 180.21 88.9 176.4 86.7 169.63 82.8 162.76 82.77 155.99 86.67 152.18 88.86 148.5 89.07 144.66 86.83 137.74 82.8 130.75 82.74 123.8 86.76 119.98 88.98 116.29 88.94 112.47 86.73 105.52 82.72 98.53 82.82 91.61 86.85 87.97 88.97 84.37 88.98 80.73 86.86 73.81 82.84 66.82 82.7 59.87 86.73 56.05 88.94 52.36 88.99 48.54 86.77 41.6 82.75 34.61 82.78 27.69 86.82 23.65 89.17 19.78 88.92 15.96 86.36 11.67 83.48 7.42 80.56 3.08 77.77 0.67 76.22-0.36 74.15 0.38 71.41 1.19 68.41 3.81 69.27 5.81 69.27 43.28 69.23 80.75 69.24 118.22 69.24Z" fill="#ED7D31"/><path d="M28.24 210.93C28.24 216.26 28.35 221.59 28.21 226.91 28.05 233.17 25.89 235.39 19.78 235.62 15.79 235.77 11.79 235.71 7.79 235.59 3.04 235.45 0.24 232.96 0.18 228.15 0.04 217.33 0.14 206.5 0.08 195.68 0.06 192.32 1.96 191.58 4.88 191.44 11.82 191.1 18.84 192.44 25.72 190.28 28.34 189.46 28.18 191.89 28.2 193.43 28.29 199.27 28.24 205.1 28.24 210.93Z" fill="#ED7D31"/><path d="M208.08 210.71C208.08 205.05 208.11 199.38 208.07 193.72 208.05 190.66 208.9 189.67 212.27 190.67 218.25 192.44 224.52 191.4 230.65 191.41 234.65 191.42 236.39 192.71 236.31 196.9 236.12 206.72 236.33 216.55 236.22 226.38 236.14 233.41 233.93 235.51 226.81 235.66 223.65 235.73 220.48 235.74 217.32 235.66 210.32 235.48 208.21 233.34 208.09 226.2 208.01 221.04 208.08 215.87 208.08 210.71Z" fill="#ED7D31"/><path d="M10.86 181.89C8.37 181.89 5.89 181.89 3.4 181.89 1.4 181.88 0.33 180.9 0.26 178.87 0.2 176.85 1.23 175.64 3.19 175.63 8.49 175.59 13.79 175.6 19.09 175.82 20.81 175.89 22.33 176.95 22.23 179.01 22.13 181.06 20.64 181.81 18.81 181.86 16.16 181.93 13.51 181.88 10.85 181.88 10.86 181.87 10.86 181.88 10.86 181.89Z" fill="#ED7D31"/><path d="M225.28 181.85C222.63 181.85 219.97 181.9 217.32 181.83 215.69 181.78 214.37 181.05 214.13 179.29 213.85 177.23 215.2 176.12 216.96 175.88 222.4 175.12 227.88 175.45 233.34 175.66 235.37 175.74 236.2 177.13 236.07 179.07 235.95 180.81 235.04 181.84 233.24 181.86 230.59 181.89 227.93 181.87 225.28 181.87 225.28 181.86 225.28 181.86 225.28 181.85Z" fill="#ED7D31"/></g></svg>