<svg width="218.22" height="225.28" viewBox="0 0 218.22 225.28" xmlns="http://www.w3.org/2000/svg" xmlns:xlink="http://www.w3.org/1999/xlink" xml:space="preserve" overflow="visible"><defs></defs><g><path d="M109.61 201.93C143.58 201.93 177.55 202.02 211.52 201.83 216.49 201.8 218.6 203.21 218.16 208.31 217.85 211.95 218.09 215.63 218.05 219.3 218.02 222.86 216.33 224.93 212.64 225.09 210.65 225.17 208.65 225.27 206.65 225.27 141.54 225.28 76.43 225.28 11.31 225.28 0.37 225.28-0.06 224.89-0.01 214.19 0.06 199.73-1.28 202.02 12.17 201.97 44.67 201.86 77.14 201.93 109.61 201.93Z" fill="#ED7D31"/><path d="M212.24 153.38C212.25 165.52 212.26 177.67 212.24 189.81 212.23 196.61 212.17 196.65 205.18 196.66 199.02 196.67 192.87 196.54 186.71 196.71 183.6 196.79 181.82 195.71 180.74 192.72 176.82 181.94 172.73 171.22 168.68 160.48 167.96 158.57 167.76 156.62 167.76 154.61 167.78 141.3 167.73 127.99 167.79 114.68 167.82 107.48 170.27 105.03 177.34 104.98 185.82 104.92 194.31 104.92 202.79 104.98 209.35 105.03 212.14 107.73 212.2 114.44 212.32 127.43 212.23 140.41 212.24 153.38ZM189.89 120.41C183.38 120.39 178.44 125.18 178.4 131.54 178.36 138.25 183.25 143.13 190 143.13 196.2 143.13 201.55 138 201.65 131.94 201.77 125.53 196.56 120.43 189.89 120.41ZM198.78 164.58C198.78 161.27 198.85 157.95 198.75 154.65 198.7 153.01 197.89 151.73 196.01 151.78 194.14 151.83 193.4 153.13 193.39 154.78 193.35 161.07 193.35 167.36 193.45 173.66 193.48 175.28 194.4 176.62 196.19 176.59 198.02 176.56 198.72 175.16 198.76 173.53 198.85 170.54 198.79 167.56 198.78 164.58Z" fill="#ED7D31"/><path d="M50.33 132.39C52.17 142.73 48.72 154.36 43.78 165.85 40.04 174.55 36.95 183.53 33.75 192.45 32.72 195.33 31.25 196.82 27.99 196.72 22.17 196.53 16.35 196.58 10.52 196.7 7.44 196.76 5.87 195.66 5.87 192.41 5.91 166.13 5.82 139.84 5.96 113.56 5.99 107.78 9.01 105.08 14.74 105.02 23.72 104.93 32.71 104.92 41.69 105.03 47.55 105.1 50.16 107.71 50.31 113.62 50.44 119.09 50.33 124.58 50.33 132.39ZM39.71 131.79C39.8 125.45 34.91 120.49 28.47 120.41 21.75 120.32 16.51 125.24 16.45 131.69 16.39 137.72 21.69 143.03 27.85 143.13 34.64 143.23 39.61 138.48 39.71 131.79ZM24.74 164.26C24.74 161.11 24.79 157.97 24.72 154.82 24.69 153.18 24.02 151.86 22.15 151.77 20.27 151.69 19.4 152.95 19.37 154.59 19.28 160.88 19.29 167.17 19.33 173.46 19.34 175.09 20.05 176.54 21.86 176.56 23.93 176.59 24.66 174.99 24.71 173.19 24.8 170.22 24.74 167.24 24.74 164.26Z" fill="#ED7D31"/><path d="M171.25 196.67C167.11 197.75 165.16 195.13 163.65 190.96 157.9 175.16 151.81 159.5 146.02 143.71 144.83 140.46 142.98 138.53 139.78 137.24 130.67 133.58 121.66 129.66 112.66 125.73 110.18 124.65 107.98 124.64 105.49 125.72 96.19 129.78 86.85 133.79 77.45 137.62 74.71 138.74 73.28 140.54 72.29 143.2 66.39 159.12 60.39 175 54.39 190.88 52.45 196.02 45.61 198.78 40.74 196.4 38.19 195.15 39.77 193.18 40.32 191.69 44.22 181.07 48.24 170.49 52.24 159.9 55.59 151.02 59.05 142.19 62.25 133.26 63.36 130.17 65.23 128.32 68.21 127.09 80.66 121.93 93.08 116.67 105.46 111.33 107.94 110.26 110.12 110.24 112.61 111.31 125.14 116.71 137.71 122.05 150.32 127.25 153.41 128.52 154.91 130.72 156.02 133.68 162.95 152.23 169.98 170.75 176.97 189.28 179.73 196.61 179.66 196.7 171.25 196.67Z" fill="#ED7D31"/><path d="M128.19 158.27C128.19 163.43 128.36 168.59 128.15 173.74 127.9 179.65 124.52 183.71 119.61 184.56 113.62 185.59 108.47 182.26 107.13 176.51 105.98 171.57 109.32 166.47 114.71 164.62 116.46 164.02 119.36 164.8 119.61 162.13 119.98 158.18 119.93 154.15 119.57 150.21 119.43 148.64 117.66 149.39 116.68 149.9 112.25 152.19 107.86 154.58 103.44 156.88 101.22 158.04 101.36 160.06 101.36 162.07 101.35 170.06 101.47 178.05 101.3 186.03 101.16 192.62 96.9 196.76 90.68 196.79 85.45 196.81 81.37 193.54 80.32 188.48 79.37 183.89 82.26 178.09 87.17 177.23 92.96 176.22 93.03 172.88 93.05 168.39 93.12 149.86 90.89 154.77 106.74 145.96 111.24 143.45 115.87 141.17 120.5 138.89 125.84 136.26 128.21 137.75 128.32 143.82 128.41 148.64 128.34 153.47 128.34 158.3 128.3 158.27 128.24 158.27 128.19 158.27Z" fill="#ED7D31"/><path d="M130.31 110.26C130.16 112.51 128.67 111.75 127.5 111.27 122.89 109.37 118.23 107.57 113.75 105.39 110.46 103.79 107.54 103.85 104.28 105.43 99.95 107.53 95.43 109.24 90.99 111.11 90.09 111.49 89.09 112.17 88.21 111.41 87.27 110.61 87.93 109.56 88.3 108.66 93.41 96.21 98.56 83.78 103.63 71.31 104.64 68.83 106.54 68.36 108.83 68.37 111.04 68.38 113.23 68.42 114.27 70.92 119.52 83.67 124.77 96.42 130.01 109.18 130.15 109.5 130.2 109.83 130.31 110.26Z" fill="#ED7D31"/><path d="M159.86 42.84C158.09 42.87 157.06 41.73 156.58 39.94 154.54 32.3 149.96 27.04 142.27 24.7 140.71 24.22 139.63 23.27 139.56 21.54 139.49 19.79 140.51 18.71 142.06 18.22 149.69 15.83 154.43 10.73 156.5 3.07 156.97 1.35 157.77-0.03 159.84 2.22045e-15 161.87 0.03 162.81 1.37 163.22 3.09 165.05 10.71 169.77 15.59 177.15 18.03 178.85 18.59 180.2 19.56 180.12 21.54 180.04 23.52 178.53 24.27 176.88 24.85 169.81 27.37 165.09 32.03 163.24 39.49 162.62 41.99 161.66 42.71 159.86 42.84Z" fill="#ED7D31"/><path d="M78.56 21.39C78.51 23.39 77.24 24.28 75.52 24.83 68.27 27.13 63.76 32.06 61.73 39.33 61.21 41.18 60.48 42.89 58.17 42.82 55.87 42.75 55.23 41.02 54.75 39.16 52.91 31.97 48.36 27.29 41.39 24.9 39.57 24.28 37.88 23.47 38 21.2 38.1 19.24 39.61 18.47 41.27 17.9 48.42 15.46 53.06 10.67 54.85 3.24 55.26 1.53 56.08 0.12 58.11-1.77636e-15 60.47-0.13 61.21 1.52 61.73 3.38 63.76 10.63 68.23 15.61 75.44 17.99 77.12 18.56 78.46 19.38 78.56 21.39Z" fill="#ED7D31"/><path d="M189.12 90.05C187.24 89.93 186.2 88.81 185.74 87.01 183.8 79.49 179.14 74.49 171.79 71.98 170.12 71.41 168.76 70.51 168.87 68.46 168.97 66.46 170.37 65.59 172.03 65.06 179.33 62.75 183.76 57.78 185.68 50.45 186.13 48.72 186.95 47.29 188.94 47.22 190.94 47.14 191.92 48.46 192.37 50.22 194.32 57.73 198.79 62.85 206.32 65.15 208.02 65.67 209.29 66.71 209.26 68.71 209.22 70.76 207.72 71.51 206.1 72.08 198.99 74.59 194.31 79.38 192.44 86.75 191.98 88.54 191.11 89.78 189.12 90.05Z" fill="#ED7D31"/><path d="M29.19 90.05C27.32 89.97 26.23 88.9 25.76 87.08 23.83 79.56 19.21 74.53 11.85 72.01 10.19 71.44 8.79 70.59 8.86 68.53 8.92 66.53 10.28 65.61 11.95 65.09 19.25 62.79 23.71 57.85 25.65 50.52 26.1 48.8 26.87 47.32 28.86 47.22 31.14 47.11 31.98 48.72 32.49 50.62 34.46 57.93 38.93 62.86 46.25 65.12 47.94 65.64 49.24 66.64 49.25 68.63 49.25 70.69 47.78 71.46 46.15 72.04 38.89 74.65 34.06 79.47 32.31 87.14 31.94 88.78 30.92 89.77 29.19 90.05Z" fill="#ED7D31"/><path d="M104.92 39.06C104.92 36.07 104.82 33.08 104.95 30.1 105.06 27.59 106.03 25.37 108.92 25.27 111.83 25.17 113.06 27.31 113.12 29.84 113.26 35.97 113.26 42.12 113.09 48.25 113.03 50.56 111.89 52.5 109.18 52.55 106.19 52.61 105.13 50.54 104.98 48.01 104.81 45.03 104.94 42.04 104.94 39.05 104.93 39.06 104.93 39.06 104.92 39.06Z" fill="#ED7D31"/><path d="M64.44 87.49C61.29 87.49 58.12 87.65 54.99 87.44 52.65 87.28 50.84 86.05 50.89 83.35 50.94 80.94 52.59 79.66 54.72 79.5 61.34 79.01 67.98 78.93 74.6 79.55 76.75 79.75 78.28 81.17 78.22 83.57 78.16 85.99 76.53 87.24 74.39 87.39 71.09 87.61 67.76 87.45 64.44 87.45 64.44 87.46 64.44 87.48 64.44 87.49Z" fill="#ED7D31"/><path d="M153.22 87.56C150.4 87.56 147.57 87.65 144.76 87.53 142.25 87.43 140.03 86.56 139.92 83.61 139.81 80.66 141.95 79.45 144.45 79.38 150.58 79.22 156.73 79.21 162.86 79.4 165.39 79.48 167.42 80.85 167.21 83.79 167.02 86.43 165.01 87.4 162.68 87.49 159.53 87.62 156.38 87.52 153.22 87.52 153.22 87.54 153.22 87.55 153.22 87.56Z" fill="#ED7D31"/><path d="M84.4 62.74C81.73 62.64 67.02 48 66.84 45.27 66.74 43.83 67.26 42.67 68.44 41.85 70.01 40.76 71.75 40.8 73.03 42.04 77.91 46.75 82.71 51.55 87.43 56.42 88.68 57.71 88.66 59.49 87.77 61.07 87.06 62.32 85.84 62.81 84.4 62.74Z" fill="#ED7D31"/><path d="M151.27 45.18C151.16 47.87 136.51 62.58 133.8 62.73 132.37 62.81 131.14 62.38 130.39 61.12 129.46 59.55 129.39 57.77 130.63 56.48 135.33 51.59 140.13 46.79 145 42.07 146.28 40.83 148 40.73 149.59 41.79 150.79 42.59 151.36 43.73 151.27 45.18Z" fill="#ED7D31"/><path d="M90.76 36.2C92.87 36.26 94.16 37.32 94.85 38.9 96.58 42.84 98.22 46.81 99.77 50.83 100.7 53.23 99.76 55.13 97.46 56.1 95.19 57.05 93.5 55.83 92.61 53.86 90.76 49.8 88.97 45.69 87.49 41.49 86.44 38.53 88.06 36.81 90.76 36.2Z" fill="#ED7D31"/><path d="M127.24 36.19C129.88 36.65 131.61 38.36 130.6 41.31 129.11 45.68 127.22 49.92 125.29 54.12 124.48 55.9 122.82 56.88 120.76 56.15 118.85 55.47 117.5 53.88 118.07 51.94 119.51 47.03 121.35 42.23 123.96 37.79 124.56 36.79 125.66 36.26 127.24 36.19Z" fill="#ED7D31"/><path d="M156.22 64.53C156.31 67.32 155.04 68.61 153.3 69.37 149.52 71.03 145.7 72.61 141.84 74.1 139.5 75.01 137.53 74.32 136.48 71.99 135.34 69.46 136.76 67.79 138.89 66.82 142.81 65.06 146.78 63.4 150.81 61.91 153.77 60.83 155.45 62.39 156.22 64.53Z" fill="#ED7D31"/><path d="M76.35 74.36C72.6 72.72 68.17 70.91 63.86 68.85 62.02 67.98 61.35 66.15 62.09 64.21 62.91 62.07 64.71 61.07 66.87 61.87 71.2 63.48 75.49 65.21 79.67 67.17 81.59 68.07 82.6 69.9 81.57 72.14 80.7 74.05 79.09 74.66 76.35 74.36Z" fill="#ED7D31"/></g></svg>