<svg width="227.24" height="240.6" viewBox="0 0 227.24 240.6" xmlns="http://www.w3.org/2000/svg" xmlns:xlink="http://www.w3.org/1999/xlink" xml:space="preserve" overflow="visible"><defs></defs><g><path d="M126.45 171.3C133.68 174.37 136.57 178.09 136.27 183.52 135.95 189.12 132.68 192.24 124.23 194.75 127.7 198.51 130.06 202.58 128.16 207.8 126.37 212.7 122.63 215.03 117.26 215.66 118.35 216.89 119.27 217.8 120.04 218.82 124.8 225.14 122.06 233.8 114.53 236.23 111.96 237.06 109.29 237.2 106.62 237.09 93.76 236.56 81.08 238.01 68.36 239.83 55.4 241.68 42.7 240.72 32.02 231.54 29.84 229.66 28.66 227.68 28.67 224.72 28.75 202.57 28.75 180.41 28.66 158.26 28.65 155.25 29.79 153.3 32.19 151.63 38.2 147.45 44.23 143.29 49.47 138.08 55.7 131.88 58.95 124.57 58.69 115.69 58.53 110.2 58.8 104.69 58.63 99.2 58.5 95.22 60.41 94.34 63.9 94.85 75 96.48 85.19 106.7 86.2 118.12 87.08 127.99 88.68 138.02 83.67 147.5 82.17 150.35 84.98 149.89 86.4 149.9 95.06 149.98 103.72 149.94 112.39 149.94 114.22 149.94 116.06 149.92 117.89 149.96 123.55 150.07 128.6 151.53 130.95 157.29 133.23 162.86 130.9 167.3 126.45 171.3Z" fill="#ED7D31"/><path d="M165.8 35.85C164.83 41.93 164.11 48.07 162.79 54.07 162.04 57.5 163.11 59.33 165.9 61.01 170.89 64.03 175.73 67.29 180.61 70.48 181.72 71.2 183.06 71.99 182.83 73.53 182.57 75.34 180.88 75.72 179.42 75.96 174.17 76.83 168.91 77.73 163.62 78.32 159.49 78.78 157 80.38 156.17 84.8 155.23 89.86 153.61 94.79 152.28 99.78 151.85 101.38 151.6 103.35 149.65 103.65 147.6 103.97 146.95 102.03 146.21 100.59 143.55 95.4 140.89 90.21 138.35 84.96 137.09 82.36 135.42 81.45 132.41 81.77 126.62 82.38 120.78 82.45 114.96 82.75 113.44 82.83 111.8 83 110.98 81.41 110.1 79.71 111.43 78.62 112.48 77.56 116.48 73.55 120.35 69.38 124.56 65.61 127.4 63.07 127.71 60.71 126.17 57.32 123.9 52.32 122.13 47.1 120.17 41.97 119.64 40.58 118.87 39.06 120.09 37.74 121.63 36.07 123.21 37.42 124.62 38.11 129.85 40.68 135.1 43.25 140.21 46.05 142.8 47.47 144.73 47.23 146.95 45.31 151.49 41.39 156.21 37.69 160.87 33.91 161.92 33.06 163.04 32.22 164.49 32.87 165.76 33.45 165.91 34.62 165.8 35.85Z" fill="#ED7D31"/><path d="M167.77 163.34C169.21 157.99 170.12 152.83 172.01 148.07 174.13 142.74 172.79 139.38 168.14 136.42 164.79 134.29 161.79 131.56 158.76 128.95 157.1 127.52 154.03 126.47 155.18 123.65 156.22 121.08 159.2 121.89 161.45 121.73 166.43 121.39 171.42 120.99 176.4 120.91 179.36 120.86 180.92 119.62 181.89 116.89 183.84 111.4 185.99 105.98 188.12 100.55 188.65 99.2 189.07 97.52 191 97.53 192.92 97.54 193.33 99.23 193.86 100.57 196 105.99 198.15 111.41 200.09 116.91 201.06 119.65 202.64 120.84 205.59 120.91 211.41 121.04 217.23 121.46 223.04 121.82 224.68 121.92 226.56 121.93 227.12 123.96 227.61 125.75 226.11 126.65 224.97 127.57 220.57 131.14 216.22 134.78 211.68 138.16 209.04 140.12 208.22 142.19 209.25 145.41 210.97 150.8 212.33 156.3 213.79 161.77 214.21 163.35 214.87 165.16 213.02 166.28 211.46 167.22 210.17 166.02 208.93 165.24 206.25 163.55 203.61 161.8 200.94 160.11 188.81 152.45 193.23 152.37 180.79 160.26 177.84 162.13 174.98 164.18 171.93 165.88 168.84 167.63 167.72 166.06 167.77 163.34Z" fill="#ED7D31"/><path d="M63.23 56.39C61.97 57.08 60.79 57.65 59.68 58.36 54.78 61.51 49.92 64.72 45.02 67.86 43.79 68.65 42.45 69.74 40.92 68.61 39.4 67.49 40.02 65.94 40.41 64.49 41.9 58.87 43.21 53.18 44.95 47.63 45.9 44.58 45.19 42.62 42.74 40.75 38.11 37.21 33.62 33.51 29.11 29.81 27.99 28.89 26.54 27.94 27.21 26.13 27.78 24.61 29.31 24.76 30.61 24.54 35.89 23.63 41.24 23.45 46.54 23.74 51.21 23.99 53.48 22.12 54.8 17.78 56.35 12.7 58.51 7.81 60.45 2.85 60.99 1.45 61.57-0.14 63.45-5.77316e-15 64.99 0.11 65.57 1.53 66.04 2.76 68.21 8.34 70.39 13.92 72.41 19.56 73.46 22.49 75.28 23.69 78.39 23.68 83.54 23.67 88.71 23.82 93.84 24.28 95.76 24.45 98.69 23.69 99.34 26.51 99.89 28.87 97.4 29.77 95.94 30.99 92.11 34.19 88.29 37.42 84.26 40.36 81.41 42.44 80.67 44.82 81.65 48.13 83.21 53.39 84.61 58.7 86.01 64 86.42 65.57 87.17 67.41 85.53 68.62 83.83 69.88 82.38 68.41 81.03 67.55 76.25 64.52 71.54 61.39 66.78 58.33 65.68 57.64 64.48 57.07 63.23 56.39Z" fill="#ED7D31"/><path d="M22.08 192.01C22.08 202.33 21.94 212.66 22.14 222.98 22.22 227.34 20.98 229.22 16.22 229.24 0.13 229.3 0 229.34 0 213.35 0 197.03-0.03 180.71 0.02 164.4 0.05 155.26 1.63 153.72 10.87 153.77 23.1 153.84 22.03 152.23 22.07 165.04 22.11 174.02 22.09 183.01 22.08 192.01Z" fill="#ED7D31"/></g></svg>