<svg width="256.77" height="256.7" viewBox="0 0 256.77 256.7" xmlns="http://www.w3.org/2000/svg" xmlns:xlink="http://www.w3.org/1999/xlink" xml:space="preserve" overflow="visible"><defs></defs><g><path d="M134 226.7C119.84 226.7 105.69 226.62 91.53 226.76 88.24 226.79 86.37 225.63 84.93 222.7 72.04 196.57 59.04 170.5 46.07 144.41 45.17 142.59 44.18 140.84 46.14 139 58.84 127.08 72.86 117.98 91.13 118.08 104.29 118.15 116.03 122.33 125.86 131.12 129.86 134.7 134.13 136.19 139.45 136.08 150.44 135.84 161.43 135.96 172.43 136.02 182.04 136.07 188.62 142.27 188.68 151.2 188.74 160.38 182.14 166.64 172.25 166.69 163.42 166.74 154.6 166.64 145.77 166.74 139.85 166.8 136.73 169.31 136.67 173.75 136.61 178.25 139.71 180.9 145.57 180.96 155.73 181.06 165.89 181.06 176.05 180.96 182.42 180.9 187.47 178.25 191.52 173.2 203.7 157.99 216.04 142.91 228.35 127.81 233.59 121.38 240.22 119.34 246.92 121.97 256.45 125.7 259.77 136.6 253.69 145.62 244.76 158.88 235.47 171.89 226.34 185.01 221.49 191.98 216.64 198.96 211.77 205.91 202.1 219.71 189.01 226.91 171.97 226.73 159.32 226.59 146.66 226.7 134 226.7Z" fill="#ED7D31"/><path d="M74.73 236.39C74.74 243 72.26 247.49 67.31 250.46 64.32 252.25 61.14 253.76 57.98 255.24 51.85 258.11 47.92 256.81 44.88 250.76 34.93 230.97 25.04 211.15 15.14 191.34 10.67 182.4 6.16 173.49 1.76 164.51-1.54 157.79-0.26 154.04 6.29 150.68 8.51 149.54 10.73 148.39 13 147.34 22.74 142.81 30.66 145.36 35.66 154.82 38.93 161 41.94 167.32 45.07 173.58 53.93 191.31 62.79 209.03 71.63 226.77 73.26 230.04 74.93 233.33 74.73 236.39Z" fill="#ED7D31"/><path d="M135.89 106.69C123.75 106.69 111.6 106.73 99.46 106.68 92.67 106.65 90.35 104.06 89.96 97.36 89.28 85.7 91.39 74.89 98.27 65.18 100.63 61.85 102.27 60.83 105.92 64.11 123.32 79.7 147.7 79.73 165.34 64.17 168.97 60.97 170.56 61.79 172.94 65.21 179.95 75.23 182.25 86.4 181.47 98.35 181.11 103.89 178.02 106.64 172.32 106.68 160.18 106.74 148.04 106.69 135.89 106.69Z" fill="#ED7D31"/><path d="M135.75 61.69C118.79 61.67 105.01 47.87 105 30.89 105 13.67 118.84-0.06 136.16 0 152.72 0.05 166.48 14.02 166.52 30.8 166.56 47.76 152.67 61.71 135.75 61.69Z" fill="#ED7D31"/></g></svg>