<svg width="257.11" height="257.11" viewBox="0 0 257.11 257.11" xmlns="http://www.w3.org/2000/svg" xmlns:xlink="http://www.w3.org/1999/xlink" xml:space="preserve" overflow="visible"><defs></defs><g><path d="M225.88 65.65C225.88 69.31 225.81 72.98 225.9 76.64 226.08 84.09 228.64 90.66 233.8 96.05 238.87 101.34 244.18 106.4 249.3 111.65 259.77 122.36 259.71 134.86 249.16 145.63 244.73 150.15 240.3 154.68 235.72 159.05 228.94 165.52 225.65 173.31 225.85 182.7 226 189.69 225.99 196.69 225.84 203.69 225.55 216.48 216.35 225.64 203.61 225.86 196.28 225.99 188.95 225.92 181.62 225.89 173.2 225.86 166.03 228.8 160.07 234.75 155 239.81 150.02 244.96 144.84 249.91 134.81 259.51 122.34 259.53 112.32 249.96 107.26 245.13 102.36 240.13 97.46 235.14 91.3 228.87 83.88 225.78 75.07 225.88 68.24 225.96 61.41 225.95 54.58 225.88 40.53 225.74 31.42 216.71 31.26 202.74 31.18 195.74 31.2 188.75 31.25 181.75 31.3 173.14 28.24 165.85 22.13 159.81 17.28 155.01 12.41 150.21 7.65 145.31-2.6 134.77-2.54 122.28 7.78 111.7 12.32 107.05 16.88 102.43 21.56 97.92 28.17 91.56 31.4 83.89 31.25 74.7 31.14 67.71 31.13 60.71 31.26 53.71 31.51 40.62 40.64 31.51 53.76 31.28 61.09 31.15 68.42 31.24 75.75 31.24 83.98 31.24 91.03 28.35 96.86 22.56 101.95 17.52 106.93 12.36 112.08 7.39 122.29-2.45 134.76-2.47 144.97 7.35 149.89 12.08 154.71 16.93 159.47 21.82 165.74 28.26 173.3 31.39 182.29 31.25 189.28 31.14 196.28 31.14 203.28 31.26 216.4 31.49 225.53 40.58 225.84 53.64 225.93 57.64 225.85 61.64 225.85 65.63 225.87 65.65 225.87 65.65 225.88 65.65ZM190.83 95.15C190.36 94.56 189.82 93.73 189.14 93.03 186.7 90.53 183.97 88.26 181.79 85.55 178.74 81.75 176.54 82.09 173.16 85.52 154.48 104.52 135.55 123.27 116.7 142.11 111.6 147.2 111.6 147.2 106.34 141.95 101.04 136.65 95.74 131.35 90.44 126.05 79.05 114.66 79.11 114.71 68.06 126.67 65.96 128.94 66.09 130.33 68.19 132.41 81.8 145.89 95.33 159.44 108.82 173.03 110.7 174.92 112.1 175.32 114.18 173.23 139.1 148.22 164.09 123.28 189.04 98.31 189.86 97.51 190.85 96.77 190.83 95.15Z" fill="#ED7D31"/></g></svg>