<svg width="240.67" height="256.03" viewBox="0 0 240.67 256.03" xmlns="http://www.w3.org/2000/svg" xmlns:xlink="http://www.w3.org/1999/xlink" xml:space="preserve" overflow="visible"><defs></defs><g><path d="M120.4 85.54C95.76 85.54 71.11 85.42 46.47 85.64 41.48 85.68 39.82 84.28 39.91 79.17 40.2 63.02 40 46.87 40.05 30.72 40.06 29.18 39.2 26.89 41.08 26.29 42.83 25.73 43.7 27.96 44.75 29.16 54.72 40.57 64.61 52.04 74.59 63.44 78.44 67.84 79.31 67.86 83.14 63.49 94.44 50.59 105.74 37.69 116.88 24.65 119.45 21.65 121.06 21.36 123.76 24.55 134.42 37.12 145.31 49.5 156.14 61.92 161.69 68.28 162 68.25 167.38 62.04 176.97 50.97 186.57 39.9 196.2 28.85 197.15 27.76 198.01 25.78 199.52 26.23 201.55 26.84 200.63 29.08 200.64 30.6 200.7 46.75 200.51 62.9 200.78 79.05 200.86 84 199.47 85.68 194.33 85.63 169.68 85.41 145.04 85.54 120.4 85.54Z" fill="#ED7D31"/><path d="M240.49 134.56C240.49 145.05 240.49 155.54 240.49 166.03 240.49 172.44 238.55 178.12 234.25 182.96 221.52 197.26 208.77 211.54 196.14 225.93 193.75 228.66 191.8 229.23 188.57 227.09 178.31 220.28 167.9 213.69 157.43 207.19 154.62 205.45 154.35 203.57 155.07 200.55 157.44 190.63 162.41 183.17 171.85 178.32 181.01 173.62 189.52 167.68 198.35 162.32 201.85 160.19 205.53 157.98 208.98 162.26 211.77 165.73 210.52 171.42 206.05 174.47 200.42 178.31 194.51 181.75 188.72 185.36 187.73 185.98 186.72 186.57 185.78 187.24 184.62 188.06 183.75 189.11 184.58 190.6 185.39 192.07 186.88 192.16 188.06 191.45 196.02 186.65 204.53 182.64 211.48 176.33 214.41 173.67 215.27 169.75 215.97 165.95 219.7 145.84 223.39 125.72 227.14 105.61 227.53 103.49 227.88 101.29 228.74 99.35 230.2 96.03 232.94 93.9 236.64 94.53 240.38 95.17 240.69 98.43 240.68 101.58 240.67 112.57 240.68 123.56 240.68 134.55 240.61 134.56 240.55 134.56 240.49 134.56Z" fill="#ED7D31"/><path d="M0.01 134C0.01 123.67-0.01 113.34 0.02 103.01 0.03 99.5-0.35 95.41 4.55 94.98 9.07 94.59 11.72 97.54 12.6 101.67 14.44 110.29 15.95 118.99 17.63 127.64 20.3 141.36 23.02 155.07 25.68 168.79 26.66 173.87 29.47 177.53 33.87 180.16 39.3 183.41 44.64 186.81 50.09 190.04 51.97 191.16 54.36 193.46 56.1 190.55 57.7 187.88 54.6 186.94 52.93 185.87 47.45 182.38 41.88 179.03 36.33 175.65 34.14 174.32 32.26 172.71 31.34 170.25 30.22 167.28 30.02 164.3 32.44 161.86 34.99 159.29 37.92 159.86 40.69 161.52 52.25 168.48 63.78 175.48 75.31 182.49 82.98 187.15 84.31 195.29 86.42 202.96 86.97 204.96 85.3 205.94 83.89 206.84 73.09 213.76 62.25 220.61 51.48 227.58 49.26 229.01 47.73 228.87 45.89 226.88 32.18 212.1 18.6 197.2 5.53 181.85 1.24 176.81 0.51 170.71 0.43 164.49 0.31 154.33 0.4 144.17 0.4 134 0.27 134 0.14 134 0.01 134Z" fill="#ED7D31"/><path d="M120.38 110.48C95.74 110.48 71.1 110.36 46.46 110.58 41.45 110.63 39.83 109.17 39.91 104.09 40.13 90.84 39.91 90.84 53.13 90.84 99.91 90.84 146.7 90.84 193.48 90.84 200.64 90.84 200.64 90.86 200.67 98.03 200.71 110.48 200.71 110.48 188.31 110.48 165.66 110.48 143.02 110.48 120.38 110.48Z" fill="#ED7D31"/><path d="M146.17 206.93C147.76 206.95 149 207.84 150.26 208.64 163.46 217.07 176.6 225.58 189.88 233.89 193.72 236.29 194.35 238.73 191.69 242.41 189.16 245.92 186.94 249.66 184.64 253.32 182.9 256.09 180.89 256.68 177.99 254.81 164.13 245.88 150.21 237.02 136.28 228.19 133.47 226.41 132.87 224.41 134.8 221.56 137.41 217.7 139.83 213.7 142.37 209.79 143.28 208.4 144.19 206.94 146.17 206.93Z" fill="#ED7D31"/><path d="M94.01 206.99C96.24 206.9 97.2 208.05 98.03 209.33 100.75 213.52 103.41 217.74 106.14 221.93 107.71 224.34 107.39 226.31 104.95 227.87 90.8 236.95 76.64 246.01 62.49 255.09 60.1 256.62 58.12 256.32 56.55 253.87 53.77 249.52 50.99 245.18 48.2 240.84 46.79 238.64 46.97 236.95 49.36 235.42 63.52 226.35 77.62 217.19 91.75 208.09 92.57 207.55 93.52 207.22 94.01 206.99Z" fill="#ED7D31"/><path d="M44.55 6.96C44.59 10.67 41.33 14.1 37.67 14.2 33.81 14.3 30.23 10.78 30.27 6.91 30.31 3.27 33.72-0.01 37.47 -8.88178e-16 41.31 0.01 44.51 3.16 44.55 6.96Z" fill="#ED7D31"/><path d="M120.36 14.16C116.68 14.16 113.32 10.94 113.2 7.3 113.07 3.5 116.53 0 120.41 0 124.2 0 127.41 3.07 127.53 6.81 127.65 10.66 124.23 14.16 120.36 14.16Z" fill="#ED7D31"/><path d="M203.18 14.2C199.57 14.2 196.25 10.92 196.14 7.24 196.02 3.31 199.36-0.04 203.33 0.01 207.04 0.06 210.4 3.31 210.44 6.9 210.49 10.7 207.01 14.2 203.18 14.2Z" fill="#ED7D31"/></g></svg>