<svg width="256.23" height="211.88" viewBox="0 0 256.23 211.88" xmlns="http://www.w3.org/2000/svg" xmlns:xlink="http://www.w3.org/1999/xlink" xml:space="preserve" overflow="visible"><defs></defs><g><path d="M145.37 50.47C146.8 56.27 143.19 59.62 137.39 62.43 126.34 67.77 125.13 71.13 129.38 82.59 130.73 86.21 128.38 87.47 126.43 89.08 105.25 106.61 73.79 103.14 56.6 80.95 44.46 65.27 41.14 47.74 49.77 29.39 58.33 11.21 73.05 0.35 93.34 0.01 123.98-0.51 145.75 23.74 145.37 50.47Z" fill="#FFFFFF"/><path d="M227.42 146.08C227.07 146.05 226.2 146.1 225.42 145.87 215.69 143.05 208.08 145.8 201.5 153.59 196.51 159.5 193.16 159.51 188.33 153.77 181.65 145.84 173.93 143.37 163.91 145.77 157.18 147.38 155.27 145.61 154.05 138.82 153.67 136.69 153.37 134.55 153.13 132.4 152.5 126.91 149.44 123.47 144.56 121.03 131.81 114.65 131.79 114.51 137.81 101.84 140.5 96.17 140.57 90.79 137.72 85.09 131.48 72.61 131.5 72.37 143.7 66.46 149.94 63.43 152.96 58.67 153.68 52.06 153.88 50.24 154.06 48.41 154.45 46.63 155.62 41.27 157.54 39.98 162.91 40.86 165.21 41.23 167.5 41.64 169.79 42.07 174.72 43 179.04 41.74 182.72 38.37 185.18 36.12 187.54 33.77 189.93 31.45 193.17 28.3 196.38 28.46 199.59 31.48 200.44 32.28 201.42 32.98 202.11 33.9 208.07 41.81 215.76 43.52 225.15 41.23 232.39 39.47 234.77 41.2 235.29 48.67 235.97 58.35 240.13 64.66 249.38 68.32 257.14 71.39 257.86 73.7 253.66 80.91 248.72 89.41 248.49 97.17 253.53 105.76 257.94 113.28 257.19 115.6 249.27 118.75 240.02 122.43 235.84 128.77 235.26 138.45 234.88 144.94 233.14 146.25 227.42 146.08ZM156.06 94.05C156 115.25 172.89 132.41 193.87 132.46 216.04 132.51 233.76 115.3 233.79 93.68 233.82 71.8 216.12 54.05 194.44 54.22 173.03 54.38 156.12 71.92 156.06 94.05Z" fill="#FFFFFF"/><path d="M36.03 211.84C25.7 211.84 15.37 211.77 5.05 211.87 1.24 211.91-0.4 210.64 0.08 206.54 3.45 177.51 16.61 154.18 40.26 136.88 45 133.41 45.35 133.51 47.33 139.08 55.3 161.51 63.22 183.96 71.14 206.41 72.81 211.15 72.38 211.78 67.02 211.82 56.69 211.9 46.36 211.85 36.03 211.84Z" fill="#FFFFFF"/><path d="M153.81 211.83C143.66 211.83 133.51 211.87 123.36 211.81 118.18 211.78 117.82 211.27 119.59 206.25 127.59 183.5 135.64 160.78 143.7 138.06 144.15 136.78 144.19 134.64 146.17 134.99 147.76 135.27 147.18 137.19 147.45 138.42 147.74 139.72 147.99 141.02 148.31 142.31 150.3 150.36 153.48 153.07 161.7 152.42 166.11 152.07 168.71 153.53 171.25 156.95 181.6 170.89 187.94 186.39 190.17 203.58 191.16 211.23 190.58 211.82 182.75 211.83 173.11 211.84 163.46 211.83 153.81 211.83Z" fill="#FFFFFF"/><path d="M95.35 211.83C93.35 211.83 91.36 211.83 89.36 211.83 81.24 211.82 81.08 211.8 81.86 203.93 83.36 188.73 85.15 173.56 86.58 158.35 86.91 154.87 88.46 153.91 91.63 153.76 103.09 153.22 103.33 153.12 104.7 164.34 106.44 178.51 107.7 192.74 109.25 206.93 109.63 210.39 108.24 211.89 104.82 211.81 101.66 211.74 98.5 211.79 95.34 211.79 95.35 211.81 95.35 211.82 95.35 211.83Z" fill="#FFFFFF"/><path d="M115.59 197.53C113.01 192.7 113.71 188.4 113.18 184.41 111.8 174.04 110.29 163.61 110.1 153.19 109.92 143.4 113.12 133.89 114.8 124.24 115.2 121.97 116.76 121.92 118.59 122.33 124.95 123.76 130.97 126.12 136.83 128.96 139.96 130.47 138.7 132.76 137.94 134.91 131.9 151.99 125.83 169.07 119.76 186.14 118.5 189.64 117.2 193.13 115.59 197.53Z" fill="#FFFFFF"/><path d="M76.03 196.63C73.55 195.63 73.49 193.75 72.97 192.29 66.27 173.46 59.77 154.57 52.92 135.8 51.28 131.3 52.25 128.95 56.68 127.53 61.43 126.01 66.1 124.23 70.82 122.61 73.97 121.53 75.47 122.46 76.38 125.95 81.01 143.68 80.69 161.49 78.08 179.42 77.27 184.98 76.74 190.59 76.03 196.63Z" fill="#FFFFFF"/><path d="M95.52 119.71C108.91 119.46 108.91 119.47 106.54 132.63 105.89 136.22 105.04 139.78 104.62 143.39 104.22 146.78 102.34 147.69 99.26 147.86 86.82 148.52 86.83 148.58 84.72 136.53 84.04 132.61 83.53 128.65 82.58 124.8 81.67 121.11 83.42 119.88 86.58 119.75 89.55 119.61 92.54 119.71 95.52 119.71Z" fill="#FFFFFF"/><path d="M194.95 61.27C213.48 61.29 227.31 74.95 227.37 93.29 227.43 111.71 213.2 125.99 194.83 125.95 176.46 125.91 162.07 111.66 162.01 93.42 161.93 75.18 176.2 61.25 194.95 61.27Z" fill="#FFFFFF"/></g></svg>