<svg width="200" height="224.69" viewBox="0 0 200 224.69" xmlns="http://www.w3.org/2000/svg" xmlns:xlink="http://www.w3.org/1999/xlink" xml:space="preserve" overflow="visible"><defs></defs><g><path d="M66.38 121.53C73.24 121.93 79.03 122.96 83.7 126.85 86.9 129.52 90.49 130.88 94.41 131.86 102.49 133.88 110.58 135.87 118.56 138.22 125.95 140.39 129.62 146.93 127.93 154.1 126.18 161.53 120.59 165.17 112.53 163.8 102.36 162.07 92.22 160.15 82.07 158.28 79.42 157.79 76.27 156.82 75.55 160.53 74.77 164.52 78.56 164.38 80.93 164.84 91.38 166.88 101.88 168.7 112.36 170.59 123.27 172.56 133.81 164.82 134.66 153.79 134.96 149.94 136.35 147.83 139.83 146.25 153.93 139.83 167.9 133.12 181.96 126.61 189.39 123.18 195.35 125.63 198.53 133.2 201.94 141.3 199.33 149.9 191.71 154.45 166.11 169.75 140.42 184.9 114.81 200.19 110.83 202.56 106.92 203.17 102.42 201.79 92.87 198.87 83.2 196.34 73.62 193.49 69.75 192.34 66.02 191 61.95 192.61 60.36 193.24 59.1 192.68 58.37 190.93 50.95 172.91 43.5 154.9 36.05 136.89 35.47 135.5 35.42 134.05 36.88 133.41 46.86 129.04 55.87 122.14 66.38 121.53Z" fill="#FFFFFF"/><path d="M126.82 106.77C98.79 106.71 79.07 79.67 88.22 53.12 95.22 32.82 108.87 16.81 123.66 1.74 125.71-0.34 128.32-0.69 130.35 1.42 145.97 17.73 161.2 34.55 167.13 57.04 173.81 82.43 153.6 106.83 126.82 106.77ZM144.75 52.54C144.81 51.3 144.48 50.26 143.36 49.56 142.01 48.71 140.7 49.06 139.69 49.98 137.23 52.2 134.88 54.54 132.53 56.89 125.59 63.82 125.6 63.83 118.63 57.33 118.51 57.22 118.4 57.09 118.28 56.98 116.81 55.54 115.04 54.97 113.36 56.28 111.55 57.69 112 59.63 113.27 61.14 115.82 64.19 118.55 67.09 121.2 70.06 123.74 72.91 126.24 72.75 128.84 70.09 133.49 65.35 138.2 60.68 142.87 55.96 143.82 55.01 144.64 53.97 144.75 52.54Z" fill="#FFFFFF"/><path d="M57.28 208.09C57.44 212.58 55.5 215.5 52.01 217.41 48.51 219.33 44.96 221.17 41.39 222.96 35.06 226.14 32.01 225.06 29.31 218.52 21.04 198.52 12.83 178.5 4.6 158.49 3.27 155.26 1.84 152.06 0.71 148.75-0.99 143.79 0.38 139.92 4.88 137.22 8.59 135 12.44 133 16.3 131.04 22.35 127.97 25.46 129.03 28.09 135.3 34.21 149.88 40.18 164.52 46.2 179.14 49.43 186.99 52.65 194.84 55.87 202.7 56.61 204.57 57.46 206.4 57.28 208.09Z" fill="#FFFFFF"/></g></svg>