<svg width="257.68" height="251.84" viewBox="0 0 257.68 251.84" xmlns="http://www.w3.org/2000/svg" xmlns:xlink="http://www.w3.org/1999/xlink" xml:space="preserve" overflow="visible"><defs></defs><g><path d="M191.17 230.03C181.14 226.03 175.21 232.83 169.58 241.76 162.8 252.5 153.52 254.29 142.44 248.16 142.29 248.08 142.13 248.02 142 247.92 133.14 240.46 124.82 241.52 115.37 247.83 104.59 255.03 95.36 252.3 87.85 241.67 77.5 227.02 80.82 229.5 65.06 230.02 49.44 230.54 44.01 225.87 41.31 210.14 41.03 208.5 40.63 206.87 40.49 205.22 40.02 199.67 37.47 195.94 31.91 194.27 28.74 193.32 25.69 191.88 22.67 190.48 13.29 186.11 8.59 177.52 12.43 167.9 17.23 155.88 15.05 147.04 5.65 138.26-2.19 130.94-1.51 121.36 5.46 113.12 5.89 112.61 6.26 112.02 6.77 111.62 16.09 104.44 17.22 95.76 12.74 85.16 9.79 78.19 10.82 71.06 16.46 65.23 18.6 63.02 21.23 61.64 24.01 60.46 25.39 59.88 26.72 59.06 28.16 58.74 36.67 56.85 40.83 51.61 41.04 42.9 41.1 40.27 41.79 37.62 42.49 35.06 44.78 26.64 51.35 21.52 60.03 21.47 64.19 21.45 68.38 21.5 72.5 21.98 77.01 22.51 80.23 21.05 82.68 17.29 84.77 14.08 87 10.96 89.31 7.9 95.31-0.08 104.3-2.17 113.26 2.36 116.53 4.01 119.75 5.78 122.86 7.72 127.01 10.31 130.93 10.2 135.03 7.62 137.99 5.76 141.07 4.09 144.18 2.49 153.35-2.23 162.39-0.15 168.52 8.07 170.71 11.01 172.88 13.97 174.85 17.06 177.37 21 180.68 22.57 185.41 21.97 189.52 21.45 193.72 21.44 197.88 21.48 206.26 21.56 212.91 26.63 215.11 34.8 216.15 38.64 216.71 42.63 217.21 46.58 217.87 51.86 220.15 55.56 225.55 57.17 228.88 58.16 232.08 59.69 235.24 61.18 244.19 65.41 249.1 73.87 245.45 82.92 240.38 95.5 242.6 104.76 252.53 113.86 259.72 120.44 259 130.3 252.71 137.86 250.47 140.55 248.25 143.29 245.71 145.67 241.79 149.35 241.31 153.5 242.74 158.43 244.17 163.36 246.2 168.15 246.25 173.45 246.32 181.12 242.79 186.53 236.15 189.92 232.45 191.81 228.58 193.44 224.65 194.78 220.33 196.25 218.14 199.13 217.5 203.48 217.16 205.78 216.72 208.07 216.33 210.37 213.79 225.7 208.22 230.39 191.17 230.03ZM128.84 47.1C85.75 47.07 50.26 82.22 50.17 125.02 50.08 168.89 84.99 204.37 128.33 204.46 172.06 204.55 207.48 169.47 207.52 126.05 207.56 82.45 172.36 47.12 128.84 47.1Z" fill="#FFFFFF"/><path d="M93.29 171.29C95.08 160.62 96.74 149.93 98.76 139.31 99.33 136.28 98.64 134.33 96.48 132.3 89.09 125.32 81.83 118.2 74.58 111.08 73.46 109.98 71.34 109.03 72.03 107.2 72.54 105.85 74.63 105.94 76.07 105.73 85.78 104.29 95.48 102.69 105.23 101.64 109.28 101.21 111.46 99.47 113.12 95.95 117.4 86.92 121.94 78.01 126.41 69.07 126.98 67.94 127.26 66.24 128.88 66.29 130.45 66.34 130.74 68.02 131.31 69.16 135.86 78.25 140.47 87.31 144.83 96.48 146.38 99.74 148.62 101.09 152.12 101.53 162.03 102.76 171.9 104.26 181.77 105.74 183.18 105.95 185.19 105.82 185.7 107.34 186.25 108.96 184.39 109.85 183.36 110.86 175.98 118.09 168.59 125.31 161.11 132.43 159.14 134.31 158.3 136.08 158.87 138.98 160.78 148.78 162.4 158.63 163.93 168.5 164.21 170.32 165.66 172.76 163.75 174.05 162.17 175.11 160.38 173.23 158.8 172.42 150.21 167.99 141.59 163.62 133.14 158.93 130.17 157.28 127.8 157.2 124.81 158.82 115.59 163.84 106.24 168.6 96.93 173.44 94.68 174.6 92.58 175.34 93.29 171.29Z" fill="#FFFFFF"/></g></svg>