<svg width="237.58" height="236.03" viewBox="0 0 237.58 236.03" xmlns="http://www.w3.org/2000/svg" xmlns:xlink="http://www.w3.org/1999/xlink" xml:space="preserve" overflow="visible"><defs></defs><g><path d="M127.68 137.33C135.03 140.84 141.93 140.76 148.43 135.85 149.84 134.78 150.8 136.26 151.73 137.21 155.83 141.45 160.57 143.64 166.56 141.83 169.22 141.02 170.3 142.51 170.57 144.81 172.05 157.43 170.4 169.26 160.55 178.36 157.52 181.16 156.48 184 156.53 187.94 156.69 201.77 156.62 215.6 156.58 229.43 156.56 235.45 156.09 235.93 149.98 235.94 129.15 235.97 108.32 235.86 87.49 236.02 82.86 236.06 81.01 234.74 81.12 229.77 81.42 215.94 81.09 202.11 81.31 188.28 81.38 184.15 80.13 180.98 77.51 177.89 69.87 168.86 62.39 159.69 54.96 150.49 49.89 144.22 50.16 140.69 55.94 134.93 62.9 127.99 69.88 121.06 76.92 114.2 82.77 108.5 86.46 108.28 92.46 113.61 103.68 123.56 114.79 133.63 125.88 143.73 129.9 147.39 129.6 149.75 124.98 152.65 120.67 155.35 116.03 154.97 111.46 153.62 103.83 151.36 97.31 147.01 91 142.34 89.39 141.15 87.85 139.88 86.23 138.71 84.98 137.81 83.52 136.89 82.33 138.61 81.3 140.1 82.03 141.52 83.32 142.54 93.18 150.3 103.14 158.1 116.15 159.48 120.41 159.93 121.35 161.91 121.89 165.38 123.12 173.27 121.64 180.59 117.79 187.52 116.92 189.09 114.69 191.07 117.61 192.49 120.01 193.66 121.13 191.38 122.11 189.64 126.51 181.83 128.45 173.53 126.58 164.64 125.73 160.58 126.17 157.67 129.91 154.86 135.4 150.72 135.21 146.27 130.43 141.34 129.44 140.3 127.9 139.67 127.68 137.33Z" fill="#FFFFFF"/><path d="M156.87 90.86C156.41 92.91 155.71 96.15 154.96 99.38 152.91 108.11 151.02 116.89 148.73 125.56 146.84 132.69 140.73 136.33 134.41 134.59 127.87 132.79 124.42 126.9 126.01 119.87 128.5 108.85 130.97 97.83 133.79 86.89 135.46 80.39 141.29 76.81 147.37 77.88 152.91 78.84 156.91 83.78 156.87 90.86Z" fill="#FFFFFF"/><path d="M129.86 81.91C128.83 86.21 127.45 92.01 126.06 97.81 124.06 106.2 122.29 114.66 119.99 122.97 118.48 128.41 116.69 128.7 112.54 125 109.93 122.68 107.54 120.06 104.69 118.1 99.42 114.48 98.34 110.2 100.23 104.06 102.95 95.19 104.53 85.98 106.97 77.02 108.68 70.76 114.28 67.51 120.35 68.6 125.91 69.6 129.88 74.5 129.86 81.91Z" fill="#FFFFFF"/><path d="M179.4 97.86C176.84 108.3 174.2 120.16 170.91 131.84 169.59 136.54 164.45 138.43 159.86 137.03 155.73 135.77 152.64 131.28 153.61 126.87 156.08 115.66 158.72 104.48 161.63 93.37 162.81 88.88 167.66 86.3 171.78 87.17 176.23 88.1 179.48 92.05 179.4 97.86Z" fill="#FFFFFF"/><path d="M100.87 80.85C99.22 87.79 97.13 96.49 95.07 105.2 94.51 107.59 93.2 107.4 91.37 106.59 86.11 104.25 81.06 104.55 76.34 108.07 75.6 108.62 74.67 109.7 73.82 108.72 73.29 108.11 73.22 106.8 73.42 105.92 75.81 95.58 78.07 85.19 80.85 74.95 82.19 70.01 87.55 67.16 92.18 67.99 97.67 68.97 100.99 73.17 100.87 80.85Z" fill="#FFFFFF"/><path d="M122.5 21.62C122.5 26.76 122.6 31.91 122.46 37.05 122.39 39.54 122.15 42.43 118.63 42.31 115.47 42.2 115.27 39.61 115.27 37.2 115.25 26.42 115.26 15.63 115.27 4.85 115.27 2.56 115.71 0.25 118.45 0.02 121.61-0.24 122.28 2.34 122.35 4.71 122.52 10.34 122.4 15.99 122.4 21.62 122.43 21.62 122.46 21.62 122.5 21.62Z" fill="#FFFFFF"/><path d="M52.17 17.81C54.08 17.9 55.11 19.18 55.96 20.66 61.44 30.16 66.92 39.67 72.38 49.18 73.52 51.17 74.34 53.39 71.88 54.87 69.26 56.45 67.5 54.8 66.22 52.58 60.74 43.08 55.2 33.61 49.84 24.04 47.89 20.58 49.11 17.75 52.17 17.81Z" fill="#FFFFFF"/><path d="M237.57 70.04C237.37 71.69 236.29 72.69 234.95 73.47 225.3 79.06 215.65 84.64 205.98 90.21 203.94 91.38 201.79 91.95 200.3 89.53 198.59 86.75 200.57 85.17 202.67 83.95 212.02 78.51 221.37 73.07 230.8 67.77 234.53 65.67 237.72 66.9 237.57 70.04Z" fill="#FFFFFF"/><path d="M33.58 91.07C32.75 90.68 31.51 90.21 30.37 89.55 21.44 84.43 12.52 79.28 3.61 74.12 2.33 73.38 0.93 72.7 0.32 71.21-0.24 69.86-0.06 68.59 0.97 67.53 2.03 66.44 3.47 66.23 4.66 66.86 15.5 72.63 26.21 78.64 36.52 85.32 37.87 86.2 38.14 87.83 37.31 89.35 36.61 90.61 35.49 91.26 33.58 91.07Z" fill="#FFFFFF"/><path d="M188.74 21.62C188.33 22.52 187.83 23.92 187.1 25.19 181.99 34.12 176.84 43.04 171.68 51.95 170.39 54.17 168.87 56.66 165.89 55.06 162.83 53.41 164.21 50.79 165.48 48.58 170.84 39.21 176.25 29.87 181.67 20.54 182.73 18.72 184.11 17.26 186.5 18.03 187.89 18.5 188.6 19.59 188.74 21.62Z" fill="#FFFFFF"/></g></svg>