<svg width="241.05" height="240.88" viewBox="0 0 241.05 240.88" xmlns="http://www.w3.org/2000/svg" xmlns:xlink="http://www.w3.org/1999/xlink" xml:space="preserve" overflow="visible"><defs></defs><g><path d="M120.67 0.01C186.71-0.73 241.39 54.74 241.05 121 240.71 186.64 186.17 241.22 119.88 240.88 54.07 240.54-0.62 185.73 0.01 119.21 0.62 53.71 55.05-0.85 120.67 0.01ZM120.44 36.68C74.34 36.69 36.85 74.2 36.85 120.32 36.84 166.46 74.31 204.02 120.37 204.04 166.77 204.06 204.24 166.57 204.21 120.14 204.18 74.09 166.62 36.67 120.44 36.68Z" fill="#FFFFFF"/><path d="M61.35 120.81C61.52 76.9 107.79 48.17 146.21 67.18 152.56 70.32 152.67 70.81 147.82 75.66 123.8 99.69 99.78 123.71 75.76 147.72 71.02 152.46 70.55 152.39 67.53 146.39 63.34 138.06 61.66 129.13 61.35 120.81Z" fill="#FFFFFF"/><path d="M120.21 179.56C110.48 179.03 101.3 177.03 92.76 172.45 89.76 170.84 88.85 169.36 91.68 166.54 116.7 141.64 141.67 116.69 166.55 91.65 170.1 88.08 171.34 90.33 172.98 93.29 187.3 119.15 177.89 153.89 152.22 170.13 142.37 176.37 131.6 179.18 120.21 179.56Z" fill="#FFFFFF"/></g></svg>