<svg width="255.98" height="255.9" viewBox="0 0 255.98 255.9" xmlns="http://www.w3.org/2000/svg" xmlns:xlink="http://www.w3.org/1999/xlink" xml:space="preserve" overflow="visible"><defs></defs><g><path d="M122.08 255.82C59.86 255.81 8.88 211.01 1.02 150.53-7.4 85.71 37.18 25.62 101.68 15.47 129.72 11.06 156.38 15.73 181.24 29.9 184.76 31.91 186.19 34.28 185.86 38.28 185.3 45.08 185.13 51.91 184.7 58.72 184.54 61.31 176.66 70.55 174.38 70.93 172.49 71.25 171.34 69.79 170.02 68.87 154.35 57.98 137.29 50.89 117.96 50.86 75.73 50.79 39.73 84.28 35.53 126.38 30.75 174.25 65.66 212.84 106.78 219.86 154.89 228.08 202.03 192.31 206.4 143.82 208.38 121.83 202.39 102.66 188.46 85.88 185.53 82.35 185.35 80.29 188.75 76.9 192.65 73.01 196.51 70.61 202.24 70.97 206.52 71.24 210.91 70.75 215.17 70.11 221.13 69.22 224.41 71.59 227.35 76.85 266.82 147.26 223.59 239.4 144.16 253.8 136.44 255.21 128.7 256.19 122.08 255.82Z" fill="#FFFFFF"/><path d="M120.74 206.89C84.12 206.8 52.69 178.73 49.28 143 45.64 104.93 70.07 72.21 107.7 65.7 127.48 62.28 145.2 68.54 161.36 79.83 163.35 81.22 163.49 82.52 161.76 84.23 155.72 90.2 149.69 96.19 143.73 102.24 141.22 104.79 139.13 102.77 137 101.76 120.1 93.79 100.53 99.11 90.26 114.5 81.69 127.35 81.9 143.51 90.81 156.25 99.49 168.65 115.1 174.47 129.99 170.84 144.28 167.36 155.04 155.23 157.42 140.39 158.66 132.67 157.53 125.4 153.91 118.64 152.07 115.2 152.58 113.03 155.33 110.46 160.81 105.35 166.13 100.06 171.22 94.56 174.09 91.46 175.75 92.02 178.22 95.04 199.09 120.59 197.57 158.11 174.37 183.29 159.96 198.94 142.07 206.89 120.74 206.89Z" fill="#FFFFFF"/><path d="M209.53 56.73C198.99 56.95 198.91 56.95 199.22 47.58 199.42 41.43 199.94 35.28 200.2 29.13 200.3 26.8 201.2 25.01 202.82 23.41 210.03 16.25 217.28 9.12 224.35 1.81 226.83-0.75 228.53-0.48 230.9 1.95 238.57 9.83 246.36 17.6 254.22 25.29 256.52 27.54 256.62 29.19 254.28 31.47 246.88 38.68 239.62 46.03 232.33 53.36 230.85 54.85 229.15 55.65 227.02 55.75 220.86 56.03 214.72 56.43 209.53 56.73Z" fill="#FFFFFF"/><path d="M120.26 112.06C124.35 112.22 128.33 111.67 129.6 114.39 130.97 117.31 126.74 118.6 125.17 120.75 124.2 122.08 122.84 123.12 121.68 124.31 115.86 130.26 115.71 128.84 121.68 134.88 126.32 139.57 126.35 139.55 131.19 134.71 133.55 132.35 135.97 130.06 138.24 127.63 140.9 124.78 142.21 125.65 143.23 129.01 146.77 140.69 139.3 153.83 127.12 157.17 114.73 160.57 101.9 153.19 98.69 140.83 95.51 128.56 102.75 116 114.95 112.8 117.01 112.24 119.21 112.19 120.26 112.06Z" fill="#FFFFFF"/></g></svg>