<svg width="240.77" height="238.4" viewBox="0 0 240.77 238.4" xmlns="http://www.w3.org/2000/svg" xmlns:xlink="http://www.w3.org/1999/xlink" xml:space="preserve" overflow="visible"><defs></defs><g><path d="M159.78 211.5C139.91 210.64 120.16 209.36 101.45 201.78 95.36 199.31 95.37 199.31 99.17 193.98 112.98 174.64 113.82 149.01 100.91 129.14 98.37 125.24 98.6 122.83 101.97 119.87 105.73 116.57 109.51 113.34 113.49 110.3 117.11 107.54 119.53 108.16 121.99 111.97 132.83 128.76 143.85 145.44 154.82 162.15 159.57 169.38 159.59 169.38 164.19 162.38 175 145.96 185.78 129.53 196.61 113.12 200.5 107.22 201.23 106.98 206.71 111.04 228.28 127 239.75 148.32 240.75 175.26 241.07 183.81 237.27 189.97 230.71 194.76 219.78 202.74 206.99 205.9 194.03 208.38 182.73 210.56 171.23 210.98 159.78 211.5Z" fill="#FFFFFF"/><path d="M122 37.85C121.98 16.61 138.44 0 159.5 0 180.5 0 197.47 16.75 197.57 37.59 197.67 58.16 180.36 75.57 159.76 75.62 138.82 75.66 122.02 58.86 122 37.85Z" fill="#FFFFFF"/><path d="M0 159.7C0.05 130.87 23.32 107.94 52.45 108.02 80.78 108.09 104.16 131.56 104.34 160.1 104.52 188.32 80.47 212.41 52.03 212.49 23.23 212.57-0.05 188.95 0 159.7ZM15.34 159.49C15.09 180 30.88 196.7 50.83 197.02 71.55 197.35 88.64 181.15 88.99 160.84 89.34 140.41 73.11 123.7 52.68 123.46 31.72 123.23 15.6 138.77 15.34 159.49Z" fill="#FFFFFF"/><path d="M159.54 96.09C162.7 96.09 165.89 95.86 169.03 96.14 173.69 96.56 176 100.02 174.95 104.57 174.76 105.38 174.62 106.24 174.24 106.96 169.98 115.09 170.29 123.55 172.31 132.16 173.23 136.1 172.44 139.62 169.96 142.97 167.09 146.85 164.58 150.99 162 155.07 160.31 157.74 158.84 157.52 157.22 155.03 154.05 150.14 150.82 145.29 147.6 140.42 146.54 138.82 146.23 137.16 146.54 135.21 147.32 130.28 147.77 125.3 148.59 120.38 148.96 118.12 148.64 116.27 147.64 114.19 140.58 99.62 142.99 96.01 159.54 96.09Z" fill="#FFFFFF"/><path d="M98.53 224C94.52 223.22 90.42 222.52 86.38 221.59 83.6 220.95 82.05 221.62 81.26 224.55 80.21 228.39 78.87 232.16 77.44 235.88 76.23 239.04 74.29 239.25 72.52 236.35 69.4 231.24 66.48 226.02 63.47 220.85 62.06 218.43 62.95 217.27 65.5 216.66 74.03 214.6 81.74 210.82 88.54 205.25 90.27 203.83 91.67 203.55 92.95 205.81 95.66 210.58 98.55 215.25 101.19 220.06 102.59 222.61 101.85 224.22 98.53 224Z" fill="#FFFFFF"/><path d="M41.22 219.19C40.9 219.86 40.52 220.78 40.03 221.63 37.38 226.24 34.73 230.84 32.03 235.42 31.29 236.68 30.69 238.37 28.9 238.25 27.09 238.14 26.71 236.39 26.22 235.02 25 231.58 23.77 228.13 22.77 224.62 21.99 221.9 20.66 220.83 17.73 221.55 13.87 222.49 9.93 223.12 6.01 223.81 2.19 224.48 1.32 222.81 3.05 219.64 5.6 214.98 8.33 210.42 10.96 205.8 11.98 204.01 13.17 203.49 14.94 204.94 22 210.72 30.11 214.38 38.85 216.85 41.18 217.52 41.15 217.76 41.22 219.19Z" fill="#FFFFFF"/><path d="M82.8 160.6C82.62 177.71 68.72 191.49 51.8 191.34 34.78 191.19 20.92 176.94 21.03 159.72 21.14 142.84 35.25 128.94 52.15 129.07 69.44 129.21 82.98 143.14 82.8 160.6ZM62.2 171.71C57.73 164.29 60.11 158.49 67.42 153.73 58.29 154.88 54.04 150.46 51.76 142.04 50.79 151.82 44.58 154.08 36.44 154.07 41.92 158.11 46.44 161.94 42.83 169.09 42.49 169.76 42.46 170.87 43.41 171.24 44.46 171.64 45.38 170.87 46.07 170.24 50.31 166.35 54.33 167.12 58.4 170.53 59.24 171.22 60.15 172.12 62.2 171.71Z" fill="#FFFFFF"/></g></svg>