<svg width="248.96" height="247.1" viewBox="0 0 248.96 247.1" xmlns="http://www.w3.org/2000/svg" xmlns:xlink="http://www.w3.org/1999/xlink" xml:space="preserve" overflow="visible"><defs></defs><g><path d="M146.08 151.79C148.93 149.05 151.61 146.11 154.65 143.6 173.38 128.15 194.28 124.67 216.19 135.05 237.15 144.98 248.66 162.21 248.96 185.82 249.26 209.57 238.39 227.23 217.35 237.81 196.38 248.35 176.01 245.69 157.19 231.87 154.31 229.75 152.52 229.45 149.49 231.7 137.62 240.52 123.66 243.8 109.33 245.47 87.38 248.03 65.44 247.89 43.81 242.75 31.33 239.78 19.94 234.68 10.88 225.03-4.35 208.82-4.85 172.59 17.56 156.76 21.94 153.66 23.69 151.38 19.98 146.33 16.3 141.32 15.32 135 14.59 128.84 14.27 126.09 14.4 123.5 17.57 122.18 20.27 121.06 19.4 118.5 19.4 116.48 19.46 97.16 20.2 77.8 19.26 58.52 17.79 28.02 37.17 11.72 56.67 5.14 85.27-4.52 111.97-1.09 134.78 20.01 143.82 28.37 148.22 39.1 148.07 51.75 147.81 73.24 148 94.73 148 116.22 148 119.01 147.5 121.69 151.43 122.85 154 123.6 153.72 126.58 153.49 128.95 152.71 137.03 150.15 144.51 146.08 151.79ZM46.97 80.63C46.97 82.79 47.25 85 46.93 87.11 44.39 103.73 52.83 114.7 65.49 123.52 68.49 125.61 71.51 127.7 74.66 129.55 80.4 132.92 86.45 133.26 92.27 130.01 100.14 125.62 107.49 120.45 113.53 113.64 118.22 108.35 120.99 102.5 120.56 95.09 120.08 86.96 120.29 78.79 120.37 70.63 120.4 67.78 119.74 66.01 116.63 65.22 110.09 63.56 105.09 59.61 101.05 54.22 96.85 48.61 91.21 44.98 84.61 42.55 66.14 35.75 43.48 52.13 46.86 69.65 47.54 73.2 46.96 76.97 46.97 80.63ZM56.57 238.21C60.39 238.45 58.51 235.52 57.91 233.61 52.48 216.13 47.11 198.63 41.38 181.25 39.78 176.41 39.64 172.3 42.91 168.19 43.96 166.86 45.24 165.36 44.26 163.22 39.73 153.31 37.1 152.44 27.75 157.96 26.89 158.47 26.03 158.98 25.19 159.52 1.83 174.63 0.26 209.84 22.31 226.06 32.24 233.36 43.88 236.23 56.57 238.21ZM107.41 238.75C121.34 236.76 133.26 234.06 143.95 227.29 147.41 225.1 148.25 223.62 145.52 219.71 133.22 202.09 131.28 183.13 140.02 163.41 141.66 159.71 141.63 157.6 137.61 156.25 136.51 155.88 135.51 155.24 134.45 154.77 127.57 151.7 127.59 151.71 123.87 158.04 123.28 159.04 122.64 160.09 121.77 160.82 118.87 163.3 119.07 165.87 121.31 168.57 124.41 172.31 124.25 176.19 122.79 180.69 116.98 198.58 111.57 216.6 105.85 234.52 104.75 237.98 105.24 239.35 107.41 238.75ZM83.51 227.38C84.16 226.52 84.45 226.3 84.52 226.02 89.33 206.85 94.12 187.68 98.93 168.52 99.7 165.44 98.46 165.38 96.15 166.5 93.6 167.74 90.9 168.47 88.1 169.01 81.25 170.33 75.11 168 68.2 165.04 73.39 186.19 78.39 206.54 83.51 227.38ZM104.64 139.44C104.57 137.94 104.41 136.45 104.44 134.95 104.51 131.58 103.29 131.2 100.68 133.08 89.42 141.19 78.15 140.95 66.95 132.94 64.89 131.47 63.67 131.67 63.31 134.38 62.12 143.22 63.11 151.45 70.57 157.48 77.4 163.01 85.05 164 93 160.21 101.68 156.09 105.16 148.84 104.64 139.44ZM189.7 146.71C179.94 145.94 171.83 149.23 165.88 157.32 164.85 158.72 164.03 160.47 165.74 161.75 167.29 162.92 168.52 161.64 169.46 160.37 177.26 149.78 188.1 149.73 199.23 152.44 208.94 154.8 214.98 163.61 214.96 173.66 214.95 181.05 211.79 187.71 208.72 193.96 205.54 200.43 202.19 206.6 201.09 213.82 200.3 219.01 196.8 221.49 191.8 222.05 186.31 222.66 181.45 221.03 177.76 217.01 172.86 211.66 170.56 205.46 173.46 198.22 174.05 196.74 174.72 195.25 172.88 194.36 171.12 193.51 170 194.9 169.28 196.19 168.57 197.46 168.04 198.94 167.84 200.38 166.88 207.35 168.52 213.77 173.18 219 178.85 225.36 185.94 228.47 194.65 226.36 202.71 224.41 205.63 218.62 206.48 210.98 206.96 206.64 208.92 202.68 211.4 199.07 215.54 193.04 217.21 185.97 218.99 179.15 220.73 172.47 219.77 165.52 215.81 159.44 209.68 150.06 200.87 146.06 189.7 146.71ZM187.06 159.96C184.4 159.96 181.71 159.73 179.08 160.01 174.11 160.55 171.01 163.7 171.09 168.6 171.18 174.65 172.51 180.49 175.99 185.62 177 187.11 178.24 189.08 180.34 187.81 182.26 186.65 180.99 184.89 180.23 183.42 179.72 182.42 178.64 181.38 179.69 180.28 180.84 179.08 182.24 179.89 183.39 180.44 186.49 181.94 189.58 183.99 189.49 187.68 189.36 192.48 187.11 196.64 182.95 199.39 181.55 200.31 178.64 200.17 179.73 202.73 180.85 205.33 183.41 204.39 185.39 203.48 190.23 201.28 195.11 191.45 194.17 186.07 193.22 180.63 187.33 175.33 180.88 175.05 176.99 174.88 176.08 173.1 175.9 169.88 175.7 166.24 177.72 164.65 180.96 164.45 184.61 164.23 188.29 164.14 191.94 164.31 197.35 164.56 201.24 167.77 203.01 172.91 204.94 178.53 203.1 183.39 200.04 187.98 196.78 192.88 194.11 197.99 193.39 203.95 193.19 205.58 193.26 207.14 195.01 207.66 197 208.25 197.83 206.51 197.96 205.1 198.54 198.66 202.26 193.72 205.31 188.37 209.39 181.22 209.81 173.82 205.16 166.64 200.84 159.99 194.16 159.25 187.06 159.96Z" fill="#FFFFFF"/></g></svg>