<svg width="256.8" height="257.22" viewBox="0 0 256.8 257.22" xmlns="http://www.w3.org/2000/svg" xmlns:xlink="http://www.w3.org/1999/xlink" xml:space="preserve" overflow="visible"><defs></defs><g><path d="M90.95 120.04C90.95 107.21 90.93 94.37 90.97 81.54 91.08 37.44 128.26 0.86 172.34 0.01 211.4-0.74 250.97 27.72 256.15 73.12 259.92 106.13 247.44 132.94 219.89 151.94 209.12 159.37 201.3 168.5 198.15 181.3 196.42 188.32 196.35 195.52 196.7 202.67 197.91 227.28 179.78 251.5 152.46 256.44 121.83 261.98 91.16 237.1 90.99 206.01 90.86 182.68 90.95 159.34 90.95 136.01 91.22 135.7 91.48 135.4 91.75 135.09 98.39 135.11 105.02 135.21 111.66 135.14 117.18 135.08 120.82 132.16 120.82 128.02 120.82 123.89 117.18 120.96 111.66 120.9 105.02 120.83 98.39 120.92 91.75 120.94 91.48 120.66 91.21 120.35 90.95 120.04ZM141.35 65C141.04 62.53 142.57 61.27 143.64 59.92 153.23 47.86 165.93 42.99 180.85 45.75 196.06 48.56 205.9 58.15 210.51 72.99 211.51 76.21 211.48 79.55 211.8 82.86 212.22 87.25 215.73 90.37 219.35 89.99 223.09 89.6 225.95 86.11 225.86 81.77 225.82 79.95 225.39 78.14 225.16 76.33 221.97 51.19 202.97 33.1 175.65 31.25 152.23 29.67 131.64 45.05 124.51 66.85 119.56 81.98 121.52 96.4 129.49 110.09 139.24 126.84 139.95 143.13 127.11 158.78 126.48 159.55 125.92 160.39 125.39 161.23 120.39 169.17 120.84 179.07 126.51 186.48 131.91 193.54 141.47 196.56 150.22 193.96 158.74 191.43 165.18 183.44 165.78 174.45 166.06 170.25 164.09 167.15 159.96 166.33 155.94 165.53 153.36 167.87 152.1 171.62 151.79 172.55 151.75 173.58 151.54 174.55 150.85 177.79 148.9 179.95 145.67 180.65 142.52 181.34 139.65 180.6 137.62 177.93 135.5 175.14 135.34 172.03 137.03 169.02 138.16 167 139.68 165.19 141 163.27 148.46 152.47 152.26 140.83 150.17 127.48 148.78 118.61 145.73 110.52 141.34 102.73 134.39 90.41 142.62 75.92 156.73 75.22 170.58 74.53 180.32 82.96 181.66 96.8 182.16 101.95 185.33 105.36 189.28 104.99 193.22 104.63 196.11 100.79 195.82 96.33 194.34 74.11 175.14 58.57 153.21 61.59 149.1 62.16 145.44 64.07 141.35 65Z" fill="#FFFFFF"/><path d="M90.94 136.02C84.45 135.97 77.94 135.66 71.46 135.97 65.83 136.24 62.3 134.01 60.18 128.9 59.31 126.8 58.57 124.53 56.19 122.33 54.64 128.29 53.19 133.8 51.78 139.32 50.14 145.77 48.58 152.24 46.92 158.68 45.93 162.53 43.78 165.36 39.56 165.79 35.35 166.21 32.72 163.96 30.94 160.32 27.65 153.59 24.13 146.97 20.96 140.19 19.51 137.09 17.66 135.44 14.08 135.85 11.78 136.11 9.41 136.02 7.1 135.81 2.8 135.43 0.09 132.44-8.88178e-15 128.25-0.1 123.83 2.67 120.51 7.2 120.31 12.85 120.06 18.52 120.2 24.18 120.26 27.52 120.3 29.77 122.16 31.25 125.02 32.69 127.79 34.07 130.59 36.17 134.74 37.97 127.8 39.42 122.28 40.83 116.74 42.47 110.29 44.06 103.83 45.67 97.37 46.64 93.48 48.73 90.7 52.99 90.27 57.24 89.84 59.84 92.09 61.62 95.71 65.01 102.58 68.55 109.37 71.85 116.28 73.14 118.99 74.76 120.44 77.96 120.24 82.27 119.97 86.61 120.09 90.94 120.05 91.21 120.36 91.47 120.66 91.74 120.97 91.74 125.68 91.74 130.4 91.73 135.11 91.47 135.41 91.21 135.72 90.94 136.02Z" fill="#FFFFFF"/><path d="M54.44 45.21C56.52 45.11 58.6 46.4 60.42 48.21 64.78 52.53 69.18 56.81 73.43 61.24 77.37 65.34 77.67 70.35 74.41 73.63 71.14 76.91 66.11 76.62 62.02 72.68 57.36 68.19 52.81 63.59 48.33 58.92 45.81 56.29 45.21 53.07 46.68 49.7 48.01 46.67 50.52 45.25 54.44 45.21Z" fill="#FFFFFF"/><path d="M76.63 173.72C76.7 175.87 75.36 177.92 73.56 179.74 69.24 184.1 64.96 188.5 60.52 192.74 56.44 196.64 51.37 196.88 48.13 193.56 45.01 190.35 45.2 185.42 48.9 181.54 53.48 176.75 58.21 172.08 63.01 167.5 65.64 164.99 68.89 164.45 72.24 165.97 75.27 167.33 76.63 169.87 76.63 173.72Z" fill="#FFFFFF"/></g></svg>