<svg width="192.55" height="230.07" viewBox="0 0 192.55 230.07" xmlns="http://www.w3.org/2000/svg" xmlns:xlink="http://www.w3.org/1999/xlink" xml:space="preserve" overflow="visible"><defs></defs><g><path d="M59.38 72.59C66.94 73 72.92 72.13 77.57 67.22 78.82 65.9 79.93 67.2 81 68 89.26 74.17 94.75 74.2 102.97 67.8 104.83 66.35 105.94 66.42 107.62 67.93 113.12 72.9 119.32 73.97 126.09 70.71 128.03 69.78 129.76 69.21 129.67 72.33 129.31 85.3 130.66 98.3 128.81 111.24 128.24 115.21 126.34 117.14 122.35 118.24 87.4 127.89 69.41 164.17 82.76 198.06 84.41 202.25 83.52 203.33 79.23 203.27 68.57 203.1 57.9 203.03 47.24 203.3 42.52 203.42 40.82 201.99 40.9 197.09 41.16 181.1 40.87 165.1 41.07 149.11 41.13 144.47 39.92 140.91 36.62 137.51 26.51 127.13 16.79 116.37 6.75 105.92 2.1 101.09-0.2 95.69 0.01 88.87 0.33 78.72 0.06 68.55 0.11 58.38 0.15 49.67 3.96 45.72 12.51 45.68 29.67 45.61 46.83 45.62 63.99 45.68 71.55 45.71 75.66 49.44 75.9 56.18 76.16 63.31 72.34 67.56 64.57 67.78 53.25 68.09 41.91 67.89 30.59 67.93 29.09 67.93 27.59 67.97 26.1 68.11 24.83 68.23 23.8 68.87 23.87 70.3 23.94 71.65 24.91 72.41 26.2 72.46 29.36 72.57 32.53 72.59 35.69 72.6 54.49 72.68 69.88 83.89 75.56 101.69 75.86 102.64 76.1 103.62 76.49 104.53 76.98 105.66 77.75 106.6 79.14 106.32 80.81 105.99 81.29 104.61 80.91 103.26 80.06 100.23 79.14 97.18 77.89 94.29 74.4 86.28 68.66 80.12 61.55 75.15 61.05 74.81 60.74 74.22 59.38 72.59Z" fill="#FFFFFF"/><path d="M137.41 120.69C159.91 122.01 177.1 131.74 186.81 152.09 196.5 172.41 193.71 191.93 180.1 209.82 176.73 214.25 176.2 214.11 173.8 209.08 169.73 200.55 163.34 194.42 154.43 191.35 149.97 189.81 149.68 188.84 153.28 185.59 161.25 178.39 162.76 166.25 157.37 157.24 152 148.28 141.34 144.04 131.47 146.96 121.03 150.04 114.14 159.56 114.8 170.27 115.2 176.71 117.83 182.2 122.82 186.36 125.52 188.61 125.31 189.75 121.98 190.89 112.12 194.24 105.18 200.9 101.08 210.4 99.66 213.69 98.45 213.74 96.33 211.12 83.14 194.79 79.18 176.54 86.59 156.82 94.03 137.03 108.74 125.26 129.72 121.65 132.32 121.18 134.98 120.98 137.41 120.69Z" fill="#FFFFFF"/><path d="M137.95 193.8C154.15 193.77 164.88 200.22 170.01 212.7 171.58 216.53 171.15 218.97 167.45 221.41 149.73 233.06 125.16 232.96 107.59 221.1 104.3 218.88 103.89 216.62 105.2 213.14 109.39 202.02 119.91 194.44 132.47 193.81 134.29 193.72 136.12 193.8 137.95 193.8Z" fill="#FFFFFF"/><path d="M102.74 34.2C102.74 41.35 102.8 48.51 102.73 55.66 102.66 62.77 98.37 67.49 92.06 67.58 85.75 67.67 81.13 62.93 81.09 55.96 81.01 41.16 81 26.35 81.1 11.55 81.14 4.96 85.79 0.11 91.76 0 97.89-0.11 102.63 4.88 102.72 11.74 102.82 19.23 102.74 26.72 102.74 34.2Z" fill="#FFFFFF"/><path d="M108.01 33.41C108.01 26.1 107.93 18.78 108.04 11.47 108.14 4.81 112.73-0.01 118.68 0.05 124.77 0.1 129.55 4.7 129.63 11.33 129.81 26.28 129.81 41.24 129.64 56.2 129.56 63.16 124.77 67.66 118.33 67.47 112.11 67.29 108.11 62.86 108.03 55.85 107.95 48.37 108.01 40.89 108.01 33.41Z" fill="#FFFFFF"/><path d="M155.7 169.18C155.6 179.06 147.19 187.27 137.35 187.11 127.83 186.95 119.66 178.6 119.62 168.99 119.58 159.26 128.06 150.78 137.8 150.8 147.61 150.83 155.81 159.25 155.7 169.18Z" fill="#FFFFFF"/><path d="M76.3 26.39C76.3 30.72 76.33 35.05 76.29 39.38 76.27 42.11 75.8 44.13 72.24 42.35 68.19 40.32 63.73 41.07 59.44 41.1 55.73 41.12 53.94 39.95 54.05 35.91 54.26 27.92 54.01 19.92 54.15 11.93 54.27 5.08 58.42 0.53 64.58 0.09 70.45-0.33 75.29 4.02 75.87 10.92 76.3 16.04 75.95 21.23 75.95 26.38 76.08 26.39 76.19 26.39 76.3 26.39Z" fill="#FFFFFF"/><path d="M27.21 23.79C27.21 19.81 27.08 15.82 27.24 11.84 27.51 5.07 31.75 0.45 37.79 0.08 43.62-0.27 48.89 4.21 49.23 10.83 49.69 19.6 49.41 28.42 49.43 37.22 49.44 39.96 47.91 41.04 45.31 41.03 40.66 41 36.01 41 31.37 41.03 28.46 41.05 27.16 39.65 27.2 36.75 27.26 32.43 27.21 28.11 27.21 23.79Z" fill="#FFFFFF"/></g></svg>