<svg width="243.48" height="243.57" viewBox="0 0 243.48 243.57" xmlns="http://www.w3.org/2000/svg" xmlns:xlink="http://www.w3.org/1999/xlink" xml:space="preserve" overflow="visible"><defs></defs><g><path d="M57.44 189.45C57.44 184.79 57.75 180.1 57.39 175.46 55.73 154.03 73.58 139.77 92.84 139.15 94.84 139.09 96.84 139.13 98.84 139.13 108.91 139.13 113.44 144.3 111.99 154.46 109.95 168.78 107.85 183.1 105.58 197.39 104.76 202.55 104.21 207.36 109.5 210.62 110.31 211.12 111.26 212.01 110.93 213.05 110.5 214.4 109.06 214.25 107.93 214.26 101.6 214.29 95.27 214.21 88.95 214.29 85.43 214.33 84.43 212.56 84.47 209.29 84.6 199.8 84.52 190.31 84.5 180.81 84.5 179.48 84.55 178.13 84.35 176.82 84.07 174.99 82.99 173.75 81.02 173.73 78.92 173.7 78.03 175.14 77.97 176.96 77.83 181.29 77.82 185.62 77.81 189.94 77.78 196.43 77.74 202.93 77.8 209.42 77.83 212.72 76.45 214.37 73.04 214.28 69.21 214.19 65.38 214.24 61.55 214.24 58.68 214.24 57.38 212.92 57.43 209.94 57.54 203.11 57.47 196.28 57.47 189.46 57.45 189.45 57.44 189.45 57.44 189.45Z" fill="#ED7D31"/><path d="M93.5 97.47C93.42 76.98 106.85 63.95 123.96 65.03 140.96 66.1 152.68 82.01 149.87 100.34 148.64 108.33 146.21 115.9 141.16 122.4 130.69 135.9 112.54 135.85 102.33 122.18 96.24 114.03 93.75 104.65 93.5 97.47Z" fill="#ED7D31"/><path d="M144.15 200.05C144.15 203.38 144.16 206.71 144.15 210.05 144.14 211.76 144.1 213.61 141.94 213.95 138.99 214.41 135.85 215.05 133.15 213.55 131.78 212.79 133.19 211.37 134.08 210.81 139.52 207.38 138.9 202.43 138.05 197.09 135.76 182.8 134.04 168.41 131.49 154.17 130.51 148.7 134.37 145.21 135.2 140.59 135.38 139.57 136.67 139.29 137.69 139.25 151.17 138.68 164.45 138.8 175.38 148.63 179.83 152.64 183.33 157.32 184.8 163.07 185.86 167.22 188.02 168.45 191.93 168.02 193.9 167.8 195.93 167.94 197.92 168.02 202.76 168.22 205.61 170.91 206.63 175.49 207.09 177.55 207.7 180.27 205.08 181.14 202.7 181.93 199.93 182.46 197.77 179.88 194.68 176.19 188.95 176.14 186.17 179.82 185.2 181.1 184.27 181.58 182.85 181.31 181.7 181.1 181.23 180.2 181.14 179.14 181.02 177.69 181.41 176.42 183.03 176.09 185.87 175.51 185.76 173.38 185.29 171.43 184.63 168.7 182.23 169.24 180.34 169.53 176.25 170.17 174.24 172.97 174.26 176.88 174.28 180.74 172.45 181.72 169.01 181.63 163.85 181.48 158.68 181.56 153.52 181.61 146.78 181.69 144.32 184.2 144.2 191.07 144.15 194.07 144.19 197.07 144.19 200.07 144.16 200.05 144.16 200.05 144.15 200.05Z" fill="#ED7D31"/><path d="M189.82 243.49C178.83 243.49 167.84 243.36 156.85 243.56 152.61 243.64 150.73 242.22 150.85 237.85 151.03 231.19 150.93 224.53 150.91 217.87 150.9 214.55 151.97 213.02 155.74 213.79 160.78 214.82 165.91 215.55 171.04 215.92 176.05 216.28 180.27 216.26 183.06 222.17 185.97 228.33 194.8 227.2 197.78 220.67 198.96 218.09 200.22 216.46 203.08 216.37 210.42 216.13 217.66 215.06 224.86 213.77 227.86 213.23 228.86 214.4 228.86 217.11 228.86 224.44 228.81 231.76 228.89 239.09 228.93 242.7 226.97 243.55 223.8 243.52 212.47 243.44 201.14 243.49 189.82 243.49Z" fill="#ED7D31"/><path d="M189.93 188.2C200.75 188.2 211.58 188.34 222.39 188.13 226.97 188.04 229.09 189.4 228.95 194.34 228.6 207.34 230.37 205.85 217.57 207.93 212.82 208.7 208 209.08 203.21 209.57 200.6 209.84 198.8 209.24 198.43 206.02 197.85 200.89 193.9 200.59 189.84 200.63 185.81 200.68 181.84 200.98 181.25 206.09 180.92 208.97 179.49 209.71 176.96 209.58 169.3 209.19 161.75 208.04 154.25 206.5 152.88 206.22 151.54 205.68 151.31 204.18 150.6 199.56 150.4 194.87 151.4 190.3 151.96 187.75 154.53 188.23 156.45 188.22 167.62 188.18 178.77 188.21 189.93 188.2Z" fill="#ED7D31"/><path d="M161.72 59.54C162.03 57.41 162 55.5 162.59 53.81 164.92 47.17 162.58 42.24 157.31 38.22 156.52 37.62 155.86 36.85 155.21 36.1 154.05 34.75 152.23 33.59 152.91 31.47 153.59 29.39 155.63 29.3 157.43 29.01 157.92 28.93 158.42 28.85 158.92 28.85 166.91 28.74 172.43 25.26 174.73 17.33 174.91 16.7 175.31 16.14 175.65 15.56 178.28 11.08 180.04 11.03 182.57 15.42 183.4 16.86 184.31 18.29 184.86 19.84 186.81 25.31 190.55 27.81 196.39 28.32 199.45 28.58 204.06 27.84 205.27 31.4 206.51 35.03 202.32 37.09 199.96 39 194.69 43.27 194.63 48.31 195.84 54.23 196.36 56.76 198.1 60.21 195.37 62.17 192.67 64.1 189.84 61.63 187.66 60.17 181.87 56.3 176.4 56.03 170.7 60.15 169.37 61.11 167.78 61.74 166.23 62.34 163.29 63.45 161.76 62.38 161.72 59.54Z" fill="#ED7D31"/><path d="M81.94 59.62C81.97 62.42 80.02 64.03 77.26 62.14 68.79 56.36 60.78 56.05 52.13 61.94 48.77 64.24 47 62.57 47.28 58.38 47.31 57.88 47.32 57.36 47.47 56.9 50.33 48.07 47.85 41.1 40.36 35.7 39.09 34.78 37.56 33.46 38.11 31.58 38.72 29.48 40.79 29.36 42.59 29.03 43.08 28.94 43.58 28.86 44.07 28.85 52.36 28.83 57.64 24.81 60.34 17 61.01 15.07 61.78 12.44 64.31 12.34 67.18 12.22 67.58 15.22 68.81 17.08 69.18 17.63 69.52 18.23 69.72 18.85 71.74 25.07 75.81 28.42 82.54 28.37 84.34 28.36 86.18 28.81 87.93 29.31 91.17 30.23 91.92 32.16 89.62 34.8 87.87 36.8 86.11 38.84 84.06 40.51 80.36 43.52 79.46 47.09 80.74 51.59 81.42 53.97 81.5 56.51 81.94 59.62Z" fill="#ED7D31"/><path d="M104.61 44.27C109.18 35.37 104.05 28.39 96.67 21.97 94.37 19.97 94.78 17.73 98.09 16.93 100.83 16.27 103.62 15.47 106.41 15.36 111.04 15.18 113.47 12.79 115.44 8.83 117.07 5.56 117.64 0.13 121.7 1.77636e-15 125.95-0.14 126.76 5.31 128.03 8.6 130.27 14.44 134.96 15.04 139.91 15.87 142.77 16.35 146.7 15.64 147.91 18.71 149.23 22.09 145.44 23.94 143.33 25.66 138.03 29.98 136.58 35.1 138.42 41.48 138.83 42.9 139.03 44.43 139.07 45.91 139.19 50.16 137.88 51.03 133.95 49.44 133.8 49.38 133.63 49.33 133.5 49.23 125.63 43.23 117.97 43.83 109.88 49.21 106.16 51.7 104.44 50.21 104.61 44.27Z" fill="#ED7D31"/><path d="M9.55 103.54C13.88 95.04 9.27 88.09 1.74 81.89-1.19 79.48-0.26 77.26 3.36 76.26 3.84 76.13 4.34 76.01 4.83 76.01 13.98 76.03 20.2 72.08 22.92 63.04 23.42 61.37 24.36 59.37 26.5 59.27 29 59.16 29.46 61.58 30.48 63.21 30.57 63.35 30.67 63.49 30.72 63.65 33.13 72.26 39.28 75.63 47.73 75.95 49.68 76.02 51.99 76.08 52.8 78.36 53.62 80.68 51.53 81.91 50.29 83.4 50.18 83.53 50.08 83.67 49.94 83.76 42.53 88.74 41.16 95.54 43.69 103.69 44.26 105.53 44.84 107.84 42.9 109.25 40.93 110.67 39.13 108.99 37.33 108.27 37.18 108.21 37.02 108.13 36.89 108.04 30.03 102.85 23.2 103.11 16.38 108.12 15.98 108.41 15.49 108.57 15.04 108.77 10.47 110.78 9.29 109.99 9.55 103.54Z" fill="#ED7D31"/><path d="M199.6 105.81C199.84 104.43 199.96 102.74 200.44 101.16 202.47 94.51 200.69 89.34 195.15 85.04 193.11 83.46 189.85 81.62 190.97 78.32 192.01 75.27 195.56 75.73 197.99 75.71 206.1 75.63 210.17 71 212.82 64.08 213.59 62.07 214.28 59.13 217.22 59.32 219.72 59.48 220.58 62.06 221.21 64.01 223.78 71.95 229.18 75.67 237.41 75.89 239.63 75.95 242.52 75.81 243.35 78.56 244.09 81.03 241.5 82.19 240.2 83.82 239.99 84.08 239.77 84.34 239.5 84.53 233.07 88.98 231.42 94.92 233.87 102.22 234.23 103.29 234.09 104.53 234.2 105.69 234.56 109.47 232.62 111.22 229.54 109.09 221 103.17 212.92 103.13 204.41 109.09 201.74 110.95 199.63 109.64 199.6 105.81Z" fill="#ED7D31"/><path d="M121.34 139.08C123.5 139.36 125.93 138.49 127.04 140.64 128.03 142.54 125.75 143.4 124.93 144.73 123.29 147.4 124.2 150.22 124.59 152.98 126.81 168.45 129.08 183.9 131.29 199.37 131.78 202.81 125.61 211.24 122.31 211.72 121.72 211.81 121.01 211.58 120.44 211.31 115.1 208.74 111.76 202.77 112.6 196.86 114.66 182.38 116.84 167.91 118.98 153.44 119.54 149.69 119.79 146.5 117.3 142.7 114.51 138.45 119.64 139.86 121.34 139.08Z" fill="#ED7D31"/></g></svg>