<svg width="214.9" height="225.06" viewBox="0 0 214.9 225.06" xmlns="http://www.w3.org/2000/svg" xmlns:xlink="http://www.w3.org/1999/xlink" xml:space="preserve" overflow="visible"><defs></defs><g><path d="M98.23 149.32C80.11 141.36 75.77 125.71 78.49 113.96 81.54 100.82 93.93 90.79 107.47 90.68 120.57 90.57 132.7 99.86 136.32 112.78 140.44 127.47 134.29 139.44 117.27 149.43 119.62 149.94 121.72 150.31 123.79 150.84 142.74 155.76 155.86 172.68 155.94 192.24 155.96 197.57 155.99 202.9 155.93 208.23 155.82 218.28 149.35 224.95 139.43 224.99 118.11 225.07 96.79 225.08 75.48 224.98 66.07 224.94 59.22 218.28 59.34 208.95 59.46 199.18 57.77 189.24 61.09 179.69 66.69 163.58 77.84 153.67 94.62 150.22 95.58 150.03 96.53 149.75 98.23 149.32Z" fill="#ED7D31"/><path d="M35.78 144.13C19.88 137.08 17.82 124.18 19.73 115.35 22.11 104.34 31.58 96.58 42.48 96.33 54.5 96.05 63.87 102.83 67.12 114.16 70.54 126.09 65.44 136.09 51.79 144.2 57 144.73 61.92 146.09 66.55 148.47 69.07 149.76 69.76 150.97 67.29 153.21 53.85 165.33 48.82 180.66 49.59 198.51 50.12 210.75 50.21 208.9 39.3 209.01 31.81 209.09 24.31 209.09 16.82 209 8.86 208.9 2.27 204.19 1.03 196.41-0.72 185.47-0.68 174.41 4.82 164.27 11.32 152.26 21.66 145.78 35.78 144.13Z" fill="#ED7D31"/><path d="M163.47 144.17C150.07 136.56 144.73 126.33 147.93 114.56 151.02 103.19 160.39 96.17 172.3 96.33 183.38 96.48 192.58 103.9 195.38 114.94 198.34 126.61 192.77 137.05 179.89 143.99 202.73 147.86 214.87 162.28 214.88 185.58 214.88 188.24 215 190.92 214.78 193.57 214.04 202.58 207.3 208.9 198.27 209 189.45 209.1 180.61 208.8 171.8 209.11 167.06 209.28 165.27 207.76 165.39 202.91 165.56 196.11 165.96 189.27 164.65 182.5 162.5 171.33 157.07 161.99 148.96 154.13 145.25 150.53 145.31 150.04 150.06 147.78 154.26 145.78 158.73 144.71 163.47 144.17Z" fill="#ED7D31"/><path d="M83.25 52.47C85.55 45.77 80.56 40.72 76.32 35.35 69.82 27.13 70.97 22.33 81.02 20.05 89.85 18.05 95.65 13.41 100.16 5.79 104.72-1.91 110.52-1.95 114.99 5.78 119.57 13.68 125.71 18.13 134.62 20.19 144.04 22.36 145.64 27.66 139.08 34.85 132.96 41.55 131.24 48.85 131.8 57.61 132.41 67.08 128.23 69.96 119.54 66.36 111.97 63.22 104.97 62.42 97.05 65.79 86.38 70.33 83.21 67.73 83.26 56.11 83.25 55.28 83.25 54.45 83.25 52.47Z" fill="#ED7D31"/><path d="M9.46 65.81C11.3 60.25 7.27 56.03 3.79 51.51-1.76 44.32-0.71 40.45 8.09 38.38 15.1 36.74 19.82 33.13 23.53 27.06 28.02 19.71 32.52 19.67 36.94 27.05 40.73 33.38 45.79 36.79 52.86 38.49 60.86 40.42 62.32 44.86 56.9 51.05 52.04 56.6 50.38 62.51 50.8 69.73 51.31 78.29 47.75 80.67 39.71 77.57 34.16 75.43 29.13 74.15 23.01 76.65 11.73 81.28 9.23 79.11 9.46 65.81Z" fill="#ED7D31"/><path d="M164.27 65.93C165.82 60.54 162.26 56.31 158.81 51.91 152.86 44.32 153.89 40.51 163.32 38.28 170.25 36.64 174.6 32.83 178.23 27.04 182.79 19.74 187.18 19.72 191.67 27.08 195.38 33.17 200.14 36.72 207.12 38.38 215.87 40.45 217.2 44.59 211.29 51.46 206.83 56.64 205.22 62.02 205.64 68.75 206.25 78.49 202.84 80.85 193.54 77.2 187.62 74.88 182.33 74.63 176.34 77.17 167.17 81.06 164.22 78.73 164.26 68.73 164.27 68.05 164.27 67.38 164.27 65.93Z" fill="#ED7D31"/></g></svg>