<svg width="256.75" height="256.94" viewBox="0 0 256.75 256.94" xmlns="http://www.w3.org/2000/svg" xmlns:xlink="http://www.w3.org/1999/xlink" xml:space="preserve" overflow="visible"><defs></defs><g><path d="M94.75 128.61C94.75 163.1 94.3 197.6 94.96 232.07 95.26 247.52 83.97 257.59 70.3 256.9 54.51 256.11 38.65 256.75 22.82 256.7 8.96 256.66 0.03 247.73 0.02 233.84-0.01 163.53-0.01 93.22 0.02 22.91 0.03 9 8.94 0.08 22.8 0.03 39.13-0.02 55.46-0.01 71.78 0.03 85.96 0.06 94.7 8.81 94.73 23.15 94.78 58.3 94.75 93.46 94.75 128.61ZM61.01 209.5C61.09 202.01 55.02 195.8 47.53 195.72 40.07 195.64 33.8 201.76 33.72 209.2 33.64 216.61 39.81 222.92 47.23 223.01 54.66 223.1 60.93 216.95 61.01 209.5Z" fill="#ED7D31"/><path d="M171.55 256.72C150.57 256.72 129.59 256.73 108.62 256.72 102.39 256.72 102.46 256.73 105.06 251.35 107.55 246.21 109.26 240.8 109 235.01 108.85 231.61 110.08 229.52 113.08 227.8 153.92 204.32 194.72 180.79 235.44 157.11 239.51 154.75 242.91 154.98 246.53 157.43 252.86 161.72 256.63 167.56 256.66 175.34 256.75 195.32 256.78 215.3 256.66 235.28 256.58 247.49 247.31 256.63 234.98 256.69 213.84 256.79 192.7 256.72 171.55 256.72Z" fill="#ED7D31"/><path d="M198.06 66.27C203.58 66.9 209.97 69.59 213.84 76.1 221.59 89.13 229.32 102.17 236.53 115.5 242.72 126.93 238.85 138.96 227.56 145.48 189.92 167.24 152.28 188.98 114.61 210.68 113.13 211.53 111.5 213.52 109.76 212.06 108.31 210.85 108.87 208.54 109.24 206.82 109.61 205.08 110.52 203.41 111.42 201.84 136.54 158.26 161.74 114.72 186.78 71.1 189.05 67.16 192.16 65.97 198.06 66.27Z" fill="#ED7D31"/><path d="M109.83 174.48C108.57 172.11 109.08 169.92 109.08 167.81 109.05 120.19 109.06 72.57 109.04 24.95 109.04 22.29 109.4 19.48 108.69 17 107.3 12.13 109.7 10.59 113.77 10.11 118.65 9.53 123.43 9.81 127.82 12.34 140.8 19.81 153.95 27.03 166.7 34.87 177.58 41.57 180.47 53.81 174.1 64.9 153.71 100.41 133.17 135.84 112.69 171.29 112.05 172.42 111.57 173.71 109.83 174.48Z" fill="#ED7D31"/></g></svg>