<svg width="256.78" height="257.2" viewBox="0 0 256.78 257.2" xmlns="http://www.w3.org/2000/svg" xmlns:xlink="http://www.w3.org/1999/xlink" xml:space="preserve" overflow="visible"><defs></defs><g><path d="M54.26 206.37C54.26 197.71 54.35 189.04 54.21 180.38 54.17 177.71 55.1 176.12 57.38 174.76 65.75 169.78 74.82 168.24 83.8 171.47 102.6 178.22 121.11 185.75 139.74 192.98 142.29 193.97 144.39 195.58 145.76 198 147.87 201.71 148.72 205.65 146.01 209.28 143.31 212.9 139.45 213.4 135.21 212.08 121.23 207.71 107.23 203.4 93.23 199.07 92.12 198.73 91.01 198.34 89.88 198.09 88.64 197.82 87.44 198.05 87 199.38 86.56 200.72 87.34 201.65 88.54 202.11 90.25 202.77 91.98 203.36 93.73 203.91 106.61 207.9 119.5 211.85 132.38 215.85 142.92 219.12 148.79 216.22 152.42 205.75 153.13 203.7 154.41 202.38 156.12 201.25 168.08 193.36 179.96 185.37 191.99 177.58 198.26 173.52 205.12 174.5 209 179.63 213.12 185.07 212.55 191.51 206.93 196.62 188.83 213.11 170.85 229.74 152.32 245.74 138.62 257.58 122.53 259.97 105.47 254.14 92.87 249.83 80.46 244.96 67.96 240.38 65.62 239.52 63.19 238.13 60.84 238.2 54.49 238.38 54.1 234.72 54.24 229.85 54.48 222.03 54.3 214.19 54.3 206.36 54.29 206.37 54.28 206.37 54.26 206.37Z" fill="#FFFFFF"/><path d="M155.57 76.13C155.26 85.18 155.25 85.11 147.1 86.89 126.78 91.32 106.45 95.72 86.17 100.34 82.21 101.24 80.35 100.57 78.79 96.47 75.15 86.94 65.32 81.14 55.31 82.23 52.14 82.58 50.64 81.82 50.08 78.7 49.37 74.77 48.5 70.87 47.53 67 46.91 64.56 47.78 63.28 50.01 62.4 62.01 57.64 67.05 48.69 65.57 36 65.27 33.44 66.78 32.79 68.67 32.37 91.42 27.36 114.18 22.39 136.93 17.37 139.58 16.79 140.73 17.87 141.73 20.29 146.59 32.1 154.23 36.79 167.07 36.18 167.73 36.15 168.4 36.1 169.06 36.01 171.73 35.65 172.26 37.62 172.26 39.43 172.26 42.44 169.99 41.22 168.63 40.82 160.01 38.28 151.44 35.56 142.82 33 131.53 29.63 126.78 31.38 120.96 41.58 119.24 44.6 117.34 43.11 115.47 42.67 104.22 40.05 94.42 47.68 94.55 59.06 94.64 67.06 100.11 73.82 107.56 75.15 116.19 76.69 124.28 72.58 126.76 64.6 128.06 60.43 129.59 59.72 133.4 61.4 138.57 63.68 143.89 65.67 149.25 67.48 153.93 69.06 157.75 70.89 155.57 76.13Z" fill="#FFFFFF"/><path d="M208.11 44.21C208.1 34.05 208.22 23.88 208.05 13.72 207.98 9.77 209.11 8.01 213.4 8.08 226.23 8.29 239.06 8.25 251.89 8.1 255.6 8.06 256.81 9.46 256.79 13.08 256.68 34.08 256.7 55.07 256.77 76.07 256.78 79.33 255.9 80.96 252.28 80.92 239.12 80.79 225.95 80.8 212.79 80.92 209.34 80.95 208.05 79.62 208.08 76.21 208.19 65.54 208.12 54.87 208.11 44.21Z" fill="#FFFFFF"/><path d="M114.47 17.05C125.92 2.57 140.3-3.38 156.4 1.9 169.21 6.1 181.77 11.06 194.42 15.73 203.77 19.19 203.76 19.23 203.76 29.21 203.76 41.54 203.65 53.87 203.82 66.19 203.87 69.75 202.46 71.73 199.33 73.06 192.8 75.83 186.1 76.84 179.38 74.34 163.78 68.54 148.25 62.52 132.74 56.47 129.47 55.2 126.31 53.49 125.24 49.68 124.13 45.72 124.65 42.03 127.58 38.99 130.66 35.79 134.52 35.12 138.64 36.36 148.84 39.43 158.99 42.67 169.18 45.78 172.02 46.65 175.74 48.95 177.61 47.45 179.84 45.66 177.4 41.91 176.84 39.07 175.36 31.56 173.59 24.11 171.94 16.63 170.16 8.55 166.92 6.4 158.71 8.17 145.7 10.98 132.72 13.95 119.69 16.71 118.05 17.07 116.3 18.29 114.47 17.05Z" fill="#FFFFFF"/><path d="M29.6 212.89C29.6 223.37 29.45 233.85 29.68 244.32 29.78 248.74 28.12 250.19 23.83 250 17.52 249.73 11.19 249.84 4.87 249.96 1.64 250.02-0.02 249.12-2.66454e-15 245.49 0.1 223.87 0.08 202.25 0.01 180.63-2.66454e-15 177.42 1.28 176.16 4.45 176.21 11.1 176.31 17.76 176.38 24.4 176.18 28.32 176.06 29.7 177.64 29.64 181.46 29.51 191.93 29.6 202.41 29.6 212.89Z" fill="#FFFFFF"/><path d="M158.14 155.61C158.14 148.78 158.22 141.95 158.11 135.13 158.06 131.8 159.32 130.22 162.78 130.29 169.11 130.41 175.44 130.19 181.76 130.39 186.78 130.55 189.45 133.21 189.53 138.29 189.7 149.11 189.56 159.94 189.6 170.76 189.61 172.99 188.67 174.53 186.86 175.73 176.18 182.81 165.52 189.94 154.83 197.01 153.49 197.89 151.76 199.35 150.61 197.11 146.93 189.95 139.83 188.15 133.18 185.59 130.85 184.69 128.53 183.77 126.21 182.85 123.82 181.9 123.89 180.75 125.98 179.49 129.97 177.09 133.99 174.73 137.95 172.26 139.83 171.09 141.42 171.7 143.06 172.69 146.92 175 150.82 177.23 154.63 179.62 157.26 181.27 158.16 180.49 158.13 177.59 158.08 170.26 158.11 162.94 158.11 155.61 158.12 155.61 158.13 155.61 158.14 155.61Z" fill="#FFFFFF"/><path d="M126.25 151.74C126.25 148.07 126.23 144.41 126.25 140.74 126.29 135.64 126.71 130.86 121.55 127.02 117.63 124.1 118.01 115.83 120.94 111.71 124.12 107.23 130.67 105.35 136.22 107.97 139.08 109.32 141.15 109.32 144.02 107.97 149.95 105.18 156.81 107.45 159.84 112.59 163.13 118.18 162.01 125.08 156.7 129.14 154.42 130.89 153.67 132.73 153.69 135.45 153.79 146.45 153.76 157.44 153.71 168.44 153.69 173.38 153.26 173.59 149.08 171.21 148.79 171.05 148.47 170.91 148.23 170.69 142.83 165.81 137.51 165.77 131.98 170.63 130.76 171.7 129.08 173.62 127.2 172.38 125.5 171.26 126.31 168.99 126.28 167.23 126.2 162.07 126.25 156.9 126.25 151.74ZM133.28 125.21C135.75 125.59 137.17 124.39 137.07 121.02 136.93 116.11 135.08 113.69 130.94 113.69 127.19 113.69 125.47 115.61 125.56 119.29 125.67 123.93 128.67 125.08 133.28 125.21ZM143.63 120.58C143.28 123.24 143.82 125.4 147.73 125.21 151.66 125.02 154.72 123.93 154.94 119.48 155.13 115.61 152.89 113.75 149.1 113.7 144.66 113.65 143.4 116.31 143.63 120.58Z" fill="#FFFFFF"/><path d="M122.33 155.98C122.33 162.79 122.3 169.61 122.34 176.42 122.36 180.01 121.08 181.23 117.47 179.76 109.93 176.7 102.33 173.77 94.69 170.98 91.86 169.95 90.97 168.19 91.01 165.33 91.12 156.36 90.97 147.38 91.08 138.41 91.15 132.99 93.59 130.52 99.05 130.37 105.19 130.2 111.35 130.42 117.49 130.29 120.91 130.22 122.33 131.76 122.32 135.05 122.29 142.03 122.31 149.01 122.31 155.99 122.32 155.98 122.32 155.98 122.33 155.98Z" fill="#FFFFFF"/><path d="M34.03 198.24C34.03 192.59 34.23 186.94 33.97 181.3 33.79 177.28 35.47 175.84 39.25 176.22 39.91 176.29 40.58 176.22 41.24 176.22 49.33 176.21 49.76 176.62 49.77 184.61 49.78 194.74 49.65 204.88 49.83 215 49.9 218.89 48.97 220.66 44.6 220.58 31.87 220.34 34.25 220.68 34.04 210.19 33.97 206.21 34.03 202.22 34.03 198.24Z" fill="#FFFFFF"/><path d="M123.68 58.86C123.76 65.54 118.2 71.37 111.55 71.57 104.81 71.77 99.18 66.31 99.02 59.43 98.86 52.21 104.23 46.5 111.23 46.47 117.79 46.44 123.6 52.22 123.68 58.86Z" fill="#FFFFFF"/><path d="M34.03 237.12C34.03 235.79 34.03 234.46 34.03 233.13 34.03 224.03 34.03 224.12 43.19 224.37 47.66 224.49 50.03 226.14 49.82 230.94 49.62 235.42 49.71 239.92 49.79 244.41 49.86 248.11 48.28 249.79 44.46 249.97 34.02 250.45 34.03 250.55 34.03 240.12 34.03 239.12 34.03 238.12 34.03 237.12Z" fill="#FFFFFF"/><path d="M163.31 31.86C155.68 31.71 148.39 26.49 146.07 19.66 145.21 17.14 145.45 15.51 148.41 14.93 152.8 14.06 157.17 13.06 161.55 12.11 164.82 11.4 166.64 12.89 167.33 15.98 167.99 18.89 168.55 21.83 169.19 24.75 170.59 31.1 169.87 31.99 163.31 31.86Z" fill="#FFFFFF"/><path d="M61.62 40.29C61.64 47.55 56.84 54.9 50.35 57.73 47.59 58.93 45.62 59.03 44.94 55.37 44.18 51.3 43.11 47.29 42.26 43.24 41.6 40.08 42.96 38.11 46.08 37.39 49.31 36.65 52.54 35.91 55.79 35.26 60.54 34.32 61.6 35.27 61.62 40.29Z" fill="#FFFFFF"/><path d="M58.7 86.41C65.68 87.32 71.52 90.75 74.82 97.95 76.2 100.97 75.44 102.64 72.18 103.3 68.44 104.05 64.74 104.98 61.01 105.71 57.86 106.33 55.9 104.97 55.2 101.81 54.49 98.57 53.69 95.35 53.08 92.1 52.18 87.37 53.28 86.17 58.7 86.41Z" fill="#FFFFFF"/><path d="M177.59 80.04C172.63 81.1 167.7 82.84 162.71 83.03 158.45 83.19 159.99 79.01 159.96 76.49 159.93 74.27 160.32 71.79 163.68 73.04 168.32 74.76 172.92 76.59 177.53 78.38 177.54 78.94 177.56 79.49 177.59 80.04Z" fill="#FFFFFF"/></g></svg>