<svg width="252.82" height="120.74" viewBox="0 0 252.82 120.74" xmlns="http://www.w3.org/2000/svg" xmlns:xlink="http://www.w3.org/1999/xlink" xml:space="preserve" overflow="visible"><defs></defs><g><path d="M130.57 100.75C118.57 100.75 106.58 100.65 94.58 100.81 90.68 100.86 89.51 99.84 89.82 95.64 91.04 79.39 78.68 65.17 61.06 63.1 46.93 61.44 31.59 70.77 27.85 87.4 27.16 90.47 26.33 93.59 26.96 96.79 27.52 99.63 26.44 100.6 23.59 100.79 11.22 101.6 0.35 91.88 0.11 79.41-0.04 71.42-0.04 63.41 0.12 55.42 0.31 46.04 8.02 38.4 17.38 38.06 17.55 38.05 17.72 38.03 17.88 38.06 30.92 40.63 39.89 35.12 46.96 24.41 50.87 18.48 56.14 13.44 60.85 8.04 65.6 2.57 71.57-0.04 78.9 0 97.89 0.13 116.89 0.12 135.88 0 142.04-0.04 147.27 1.9 151.94 5.78 162.19 14.3 172.73 22.49 182.64 31.38 188.13 36.3 194.15 38.82 201.24 39.94 213.07 41.82 224.84 44.07 236.63 46.2 246.72 48.02 252.7 55.09 252.77 65.32 252.81 71.48 252.9 77.65 252.72 83.81 252.49 91.55 245.95 99.11 238.52 100.47 235.51 101.02 233.47 100.89 233.74 96.6 234.89 78.34 220.54 62.93 202.57 62.78 184.79 62.63 169.99 78.16 171.01 96.31 171.23 100.22 169.78 100.8 166.56 100.78 154.56 100.69 142.57 100.74 130.57 100.75ZM136.5 38.05C145.32 38.05 154.14 38.06 162.96 38.04 164.8 38.04 166.89 38.18 167.58 35.98 168.2 34 166.4 33.02 165.15 32.02 157.47 25.91 149.72 19.87 142.03 13.77 140.26 12.37 138.36 11.6 136.08 11.61 127.26 11.64 118.44 11.66 109.62 11.6 105 11.57 102.92 13.99 102.82 18.35 102.73 22.18 102.72 26.01 102.81 29.83 102.94 35.69 105.17 37.95 111.05 38.01 119.53 38.1 128.02 38.04 136.5 38.05ZM69.91 38.02C73.57 38.02 77.23 38.11 80.89 38 85.49 37.85 87.91 35.34 88.03 30.76 88.13 27.27 88.06 23.77 88.07 20.28 88.07 17.05 88.09 13.19 84.5 12.27 80.15 11.16 75.04 9.95 71.35 13.94 65.82 19.92 60.6 26.19 55.42 32.48 52.87 35.58 53.88 37.75 57.93 37.97 61.91 38.19 65.92 38.01 69.91 38.02ZM114.18 59.94C114.18 59.96 114.18 59.99 114.18 60.01 115.17 60.01 116.17 60.07 117.16 60 120.67 59.76 123.57 58.21 123.66 54.51 123.75 50.78 120.89 49.09 117.39 48.83 115.25 48.67 113.07 48.63 110.95 48.88 107.67 49.26 105.12 51.03 105.17 54.53 105.22 57.75 107.67 59.4 110.73 59.91 111.85 60.1 113.03 59.94 114.18 59.94Z" fill="#FFFFFF"/><path d="M84.77 94.52C84.75 109.3 73.33 120.72 58.55 120.74 43.47 120.77 32.05 109.35 32.08 94.27 32.1 79.48 43.52 68.06 58.29 68.05 73.37 68.03 84.79 79.45 84.77 94.52ZM69.93 94.57C69.92 88.39 64.58 82.98 58.47 82.95 52.33 82.92 46.91 88.36 46.98 94.49 47.05 100.64 52.56 106.01 58.66 105.86 64.59 105.71 69.94 100.35 69.93 94.57Z" fill="#FFFFFF"/><path d="M202.63 68.05C217.59 68.1 228.86 79.67 228.77 94.86 228.68 109.53 217.13 120.78 202.21 120.74 187.25 120.7 175.99 109.14 176.08 93.93 176.17 79.26 187.72 68 202.63 68.05ZM202.48 105.85C208.38 105.82 213.82 100.55 213.93 94.74 214.05 88.6 208.79 83.11 202.63 82.95 196.52 82.79 191.03 88.15 190.97 94.32 190.91 100.44 196.34 105.88 202.48 105.85Z" fill="#FFFFFF"/></g></svg>