<svg width="160.81" height="224.78" viewBox="0 0 160.81 224.78" xmlns="http://www.w3.org/2000/svg" xmlns:xlink="http://www.w3.org/1999/xlink" xml:space="preserve" overflow="visible"><defs></defs><g><path d="M80.72 0.04C124.97-1.3 153.75 33.74 159.66 68.81 163.73 92.94 156.56 114.62 145.35 135.37 129.46 164.78 110.16 191.91 89.41 218.04 88.48 219.21 87.45 220.32 86.38 221.36 81.75 225.88 78.5 226.03 74.09 221.14 65.83 211.97 58.53 202.01 51.38 191.98 35.22 169.32 19.46 146.37 8.29 120.7-7.1 85.34-0.74 47.58 24.77 22.11 40.21 6.7 58.92-0.58 80.72 0.04ZM80.1 148.02C117.94 147.09 147.56 119 147.71 80.6 147.86 42.84 119.07 13.16 80.53 12.99 42.7 12.84 13.08 41.73 12.92 80.18 12.77 118.1 41.76 146.77 80.1 148.02Z" fill="#ED7D31"/><path d="M89.89 79.02C82.99 86.74 77.31 86.78 70.81 78.86 67.3 83.23 62.66 87.03 57.4 83.64 52.86 80.72 50.23 80.1 45.67 83.59 41.45 86.81 34.83 83.93 32.95 78.76 31.22 74.01 30.93 68.89 33.4 64.25 40.44 51 40.53 51.05 55.43 51.05 74.9 51.05 94.37 51.15 113.84 50.97 117.66 50.94 119.98 52.17 121.88 55.44 125.35 61.44 129.91 66.83 128.76 74.62 128.11 78.99 126.5 82.23 122.39 83.92 118.44 85.55 114.7 84.8 111.86 81.75 109.78 79.52 108.76 79.49 106.5 81.72 101.43 86.68 95.79 85.57 89.89 79.02Z" fill="#ED7D31"/><path d="M80.39 119.53C69.24 119.53 58.1 119.4 46.96 119.59 42.67 119.67 40.97 118.16 41.12 113.8 41.36 106.82 41.13 99.83 41.21 92.84 41.26 88.28 49.28 83.15 53.4 85.25 58.74 87.97 63.85 88.25 69 85.05 70.31 84.24 71.47 84.39 72.71 85.17 73.55 85.7 74.44 86.16 75.35 86.58 80.95 89.15 86.25 83.92 90.95 85.17 96.47 86.64 101.25 88.24 106.66 85.54 111.42 83.16 119.39 87.98 119.45 93.19 119.52 100.01 119.25 106.84 119.54 113.65 119.75 118.38 117.74 119.68 113.34 119.59 102.35 119.4 91.37 119.53 80.39 119.53Z" fill="#ED7D31"/><path d="M80.07 48.38C69.08 48.38 58.09 48.43 47.1 48.33 44.99 48.31 41.76 49.13 41.7 45.65 41.64 42.3 44.48 41.33 47.34 41.32 69.32 41.27 91.31 41.28 113.29 41.33 114.42 41.33 115.62 41.65 116.65 42.12 118.31 42.86 119.24 44.31 119 46.14 118.75 48.08 117.04 48.25 115.55 48.29 111.56 48.4 107.56 48.39 103.56 48.39 95.73 48.4 87.9 48.39 80.07 48.38Z" fill="#ED7D31"/></g></svg>