<svg width="256.66" height="152.45" viewBox="0 0 256.66 152.45" xmlns="http://www.w3.org/2000/svg" xmlns:xlink="http://www.w3.org/1999/xlink" xml:space="preserve" overflow="visible"><defs></defs><g><path d="M98.48 0.1C119.64 0.1 140.81 0.24 161.97 0 166.94-0.06 168.74 1.32 168.61 6.46 168.3 18.78 168.47 31.12 168.53 43.45 168.56 49.97 170.75 52.2 177.21 52.22 194.87 52.28 212.54 52.16 230.2 52.28 242.84 52.36 252.87 59.16 255.85 69.24 256.53 71.52 256.64 73.82 256.65 76.16 256.65 90.49 256.67 104.82 256.64 119.15 256.63 126.85 253.89 129.52 246.05 129.65 245.38 129.66 244.7 129.75 244.05 129.64 238.7 128.74 235.86 130.8 233.57 136 228.75 146.94 219.38 152.44 207.68 152.45 195.57 152.46 186.08 146.71 181.16 135.36 179.12 130.66 176.53 129.5 171.76 129.56 151.1 129.8 130.44 129.74 109.77 129.59 105.82 129.56 103.54 130.48 101.85 134.5 96.92 146.3 87.41 152.5 74.86 152.43 62.3 152.36 52.92 146.03 48.08 134.18 46.61 130.59 44.64 129.59 41 129.58 24.06 129.54 23.94 129.34 23.94 112.6 23.94 99.77 23.94 99.77 11.16 99.64 9.67 99.62 8.12 99.68 6.69 99.34 2.51 98.34-0.07 95.82-1.24345e-14 91.27 0.07 86.95 2.61 84.54 6.56 83.6 8.31 83.18 10.2 83.26 12.03 83.26 31.69 83.24 51.36 83.25 71.02 83.24 72.69 83.24 74.37 83.31 76.01 83.12 79.92 82.67 81.99 80.37 81.99 76.45 81.99 72.52 79.91 70.01 76 69.83 70.01 69.55 64.01 69.68 58.01 69.67 42.68 69.66 27.35 69.68 12.02 69.65 10.19 69.65 8.31 69.72 6.55 69.31 2.6 68.36 0.07 65.94 0 61.62-0.07 57.06 2.51 54.48 6.71 53.58 8.79 53.13 11.02 53.26 13.18 53.26 25.84 53.23 38.51 53.28 51.17 53.23 56.72 53.21 59.75 50.81 59.92 46.51 60.09 42.32 57.12 39.9 51.21 39.85 39.88 39.75 28.55 39.83 17.22 39.8 10.97 39.78 7.16 36.68 7.26 31.82 7.36 27.1 11.02 24.21 17 24.11 23.94 24 23.94 24 23.95 16.88 23.95 15.38 23.95 13.88 23.95 12.38 23.96 1.79 25.6 0.11 35.99 0.1 56.82 0.1 77.65 0.1 98.48 0.1ZM88.04 123.39C88.09 115.99 82 109.78 74.84 109.92 67.94 110.06 61.68 116.43 61.77 123.23 61.87 130.31 67.79 136.12 74.98 136.2 82.39 136.28 87.99 130.78 88.04 123.39ZM207.55 136.19C214.72 136.19 220.65 130.43 220.82 123.3 220.98 116.51 214.68 110.01 207.85 109.92 200.6 109.82 194.54 115.92 194.55 123.31 194.57 130.71 200.1 136.19 207.55 136.19Z" fill="#FFFFFF"/><path d="M203.14 38.65C197.81 38.65 192.48 38.54 187.15 38.68 183.56 38.78 182.01 37.38 182.06 33.71 182.18 24.55 182.21 15.39 182.05 6.23 181.97 1.99 183.83 1.47 187.32 2.56 198.34 6.01 207.32 12.31 214.11 21.64 216.95 25.54 219.61 29.58 222.13 33.69 224.73 37.92 224.29 38.58 219.13 38.63 213.8 38.7 208.47 38.66 203.14 38.65Z" fill="#FFFFFF"/></g></svg>