<svg width="192.89" height="256.72" viewBox="0 0 192.89 256.72" xmlns="http://www.w3.org/2000/svg" xmlns:xlink="http://www.w3.org/1999/xlink" xml:space="preserve" overflow="visible"><defs></defs><g><path d="M0.02 144.38C0.02 116.55 0 88.72 0.03 60.9 0.05 43.95 11.96 32.13 29.03 32.04 40.18 31.98 40.18 31.98 38.73 43.12 36.63 59.28 45.97 70.01 62.23 70.04 84.73 70.08 107.22 70.08 129.72 70.04 147.16 70.01 156.75 58.22 153.35 41.11 151.55 32.05 151.59 32.57 160.62 31.94 179.73 30.6 193.11 45.03 192.9 64.08 192.28 118.56 192.7 173.06 192.66 227.55 192.65 241.69 184.4 252.54 171.33 256.05 169.03 256.67 166.73 256.74 164.4 256.74 118.91 256.74 73.42 256.78 27.93 256.73 12.07 256.71 0.08 244.73 0.04 228.9-0.03 200.7 0.02 172.54 0.02 144.38ZM116.38 142.99C125.19 142.99 134.01 143.11 142.82 142.95 148.27 142.85 151.2 140.08 151.11 135.7 151.02 131.56 148.16 128.97 142.98 128.79 137.83 128.61 132.67 128.72 127.52 128.72 115.05 128.72 102.58 128.63 90.11 128.78 83.81 128.85 80.34 132.71 81.8 137.76 83.03 142.04 86.58 142.96 90.45 142.99 99.09 143.04 107.74 143 116.38 142.99ZM116.59 169.36C107.6 169.36 98.6 169.29 89.61 169.39 84.07 169.45 81.54 171.67 81.56 176.04 81.59 180.29 84.45 182.97 89.56 182.99 107.38 183.07 125.2 183.07 143.02 182.99 148.15 182.97 151.07 180.29 151.08 176.11 151.09 171.72 148.53 169.45 143.06 169.39 134.25 169.28 125.42 169.36 116.59 169.36ZM116.34 223.07C125.16 223.07 133.99 223.12 142.81 223.05 148.1 223.01 150.95 220.65 151.08 216.46 151.22 211.95 148.5 209.52 142.78 209.5 125.13 209.43 107.48 209.43 89.83 209.5 84.14 209.52 81.44 211.97 81.58 216.52 81.72 220.78 84.44 223.01 89.86 223.05 98.69 223.12 107.52 223.07 116.34 223.07ZM75.86 102.37C84.85 102.37 93.84 102.45 102.83 102.34 108.33 102.27 111.03 99.95 111.01 95.73 110.99 91.58 107.97 88.76 102.99 88.74 85.17 88.66 67.36 88.66 49.54 88.74 44.25 88.76 41.54 91.24 41.47 95.57 41.4 100 43.9 102.28 49.38 102.34 58.21 102.45 67.04 102.37 75.86 102.37ZM54.93 216.47C55.06 212.78 51.88 209.6 48.04 209.57 44.09 209.54 41.46 212.05 41.48 216 41.5 220.03 43.42 222.6 47.59 222.96 51.33 223.29 54.81 220.11 54.93 216.47ZM48.37 182.93C51.83 182.8 55.03 179.41 54.93 175.98 54.82 172.06 51.65 169.27 47.57 169.49 43.64 169.7 41.25 172.43 41.47 176.48 41.69 180.24 44.72 183.07 48.37 182.93ZM54.91 135.95C54.96 132.38 51.45 128.85 47.95 128.95 44.43 129.05 41.49 132.12 41.48 135.79 41.47 140.01 43.94 142.18 47.8 142.71 51.25 143.17 54.86 139.53 54.91 135.95Z" fill="#ED7D31"/><path d="M96.29 56.33C85.47 56.33 74.65 56.43 63.84 56.3 53.93 56.19 51.08 52.59 52.99 42.81 55.25 31.23 57.55 19.65 59.98 8.1 61.31 1.83 63.63 0.04 70 0.03 87.48-0.01 104.95-0.01 122.43 0.03 128.91 0.05 131.41 2.15 132.68 8.51 135.1 20.57 137.53 32.63 139.85 44.71 141.24 51.94 138.25 55.98 130.73 56.18 119.25 56.49 107.77 56.26 96.28 56.26 96.29 56.28 96.29 56.31 96.29 56.33Z" fill="#ED7D31"/></g></svg>