<svg width="253" height="226.96" viewBox="0 0 253 226.96" xmlns="http://www.w3.org/2000/svg" xmlns:xlink="http://www.w3.org/1999/xlink" xml:space="preserve" overflow="visible"><defs></defs><g><path d="M18.88 152.72C24.01 139.02 29.14 125.33 34.26 111.63 35.66 107.87 37.08 104.19 40.13 101.32 47.4 94.48 57.69 95.09 63.74 103.02 67.98 108.58 72.08 114.26 76 120.05 77.9 122.86 80.17 123.97 83.52 123.79 87.67 123.57 91.85 123.65 96.01 123.77 103.33 123.98 106.88 128.16 105.75 135.5 105.37 137.97 105.86 138.87 108.37 138.85 117.37 138.79 126.36 138.8 135.36 138.85 137.76 138.86 138.46 138.14 138.07 135.57 136.91 127.99 140.52 123.86 148.22 123.77 157.72 123.66 167.22 123.66 176.71 123.78 179.59 123.81 181.75 122.91 183.81 120.9 190.97 113.93 198.28 107.1 205.52 100.22 212.15 93.92 220.39 92.77 227.33 97.2 234.08 101.5 236.59 109.81 233.45 118.46 228.91 130.99 224.17 143.44 219.54 155.94 218.99 157.43 218.51 158.95 217.56 161.77 220.89 158.25 222.26 155.27 223.42 152.16 229.28 136.57 235.13 120.97 240.99 105.38 241.4 104.29 241.77 103.18 242.22 102.11 243.64 98.73 245.74 96.05 249.81 97.8 253.79 99.52 253.37 102.81 252.06 106.28 245.84 122.8 239.69 139.35 233.55 155.91 230.05 165.35 224.05 172.7 215.19 177.49 212.34 179.03 211.67 180.72 212.39 183.9 215.12 195.92 217.53 208 220.04 220.06 220.51 222.32 221.48 225.19 218.24 225.83 214.92 226.49 214.84 223.24 214.38 221.12 211.86 209.57 209.39 198.01 207.11 186.41 206.42 182.89 205.31 181.23 201.21 182.02 197.67 182.71 193.89 182.5 190.25 182.24 186.05 181.94 183.97 183.22 183.17 187.72 181.34 198.04 178.9 208.26 176.72 218.52 176.51 219.5 176.38 220.5 176.08 221.45 175.42 223.6 175.25 226.69 171.94 225.84 169.03 225.09 169.95 222.3 170.36 220.3 172.58 209.37 175 198.47 177.2 187.54 177.56 185.77 179.53 183.04 175.76 182.42 172.75 181.92 170.33 182.35 169.43 186.18 166.96 196.72 164.2 207.19 161.49 217.67 160.74 220.58 159.88 223.47 157.08 225.24 153.63 227.42 150.15 227.54 146.77 225.23 143.4 222.92 142.11 219.55 143 215.63 144.5 208.97 146.24 202.37 147.9 195.74 150.29 186.21 152.61 176.66 155.13 167.16 156.88 160.58 159.63 158.47 166.41 157.84 168.73 157.62 171.05 157.38 173.36 157.07 183.7 155.7 185.11 154.43 187.46 144.56 187.69 143.61 188.35 142.33 186.88 142.2 184.41 141.98 181.87 142.41 179.4 142.19 176.37 141.93 175.01 143.35 173.87 145.98 172.9 148.23 170.41 148.27 168.19 148.27 161.19 148.27 154.18 148.5 147.2 148.2 142.78 148.01 141.44 149.58 141.48 153.93 141.66 174.92 141.57 195.92 141.55 216.91 141.55 224.12 141.51 224.15 134.31 224.16 122.48 224.17 110.65 224.18 98.82 224.16 92.55 224.15 92.29 223.9 92.28 217.73 92.26 196.74 92.13 175.74 92.37 154.75 92.43 149.8 91.14 147.84 85.94 148.18 79.64 148.6 73.28 148.26 66.95 148.27 64.33 148.27 61.77 147.97 60.78 145.1 59.77 142.17 61.42 140.35 63.94 139.17 65.15 138.61 66.1 137.9 65.06 136.57 63.77 134.91 63.13 132.36 60.79 131.99 59.49 131.78 59.39 133.65 59.09 134.7 57.33 140.78 55.74 146.91 53.92 152.97 53.02 155.97 54.12 156.74 56.98 156.85 61.47 157.03 65.95 157.48 70.41 158.03 76.19 158.75 79.23 161.41 80.42 166.94 83.81 182.73 87.09 198.55 90.38 214.36 91.3 218.79 90.44 222.68 86.47 225.38 83.2 227.6 79.85 227.33 76.6 225.33 73.84 223.64 72.77 220.91 72.14 217.85 70.02 207.58 67.59 197.36 65.72 187.04 64.96 182.84 62.83 182.08 59.17 182.24 55.51 182.4 55.75 184.29 56.33 186.93 58.63 197.51 60.81 208.11 63.02 218.7 63.26 219.84 63.53 220.98 63.62 222.14 63.75 223.89 63.56 225.65 61.36 225.92 59.54 226.14 58.62 224.83 58.25 223.28 57.2 218.91 56.21 214.52 55.27 210.13 53.59 202.32 51.82 194.52 50.37 186.66 49.77 183.39 48.26 182.11 45 182.25 41.18 182.42 37.34 182.32 33.51 182.26 20.81 182.06 10.23 173.41 8.27 160.89 5.36 142.31 2.92 123.65 0.3 105.03 0.14 103.88 0.12 102.7 0.06 101.54-0.12 98.27 1.06 95.91 4.57 95.52 8.07 95.14 9.92 97.3 10.42 100.39 11.65 107.95 12.62 115.54 13.7 123.12 15.1 132.96 16.51 142.8 17.91 152.64 18.21 152.7 18.54 152.71 18.88 152.72Z" fill="#FFFFFF"/><path d="M163.37 61.14C146.67 61.2 131.71 51.65 127.47 38.28 124.04 27.45 128.14 15.71 137.96 8.26 152.98-3.14 175.33-2.7 189.94 9.3 203.5 20.43 203.9 39.59 190.66 51.11 188.13 53.31 186.09 55.3 186.55 58.98 186.78 60.84 185.3 62.99 183.68 61.78 177.72 57.35 171.79 61.04 165.87 61.14 165.04 61.16 164.21 61.14 163.37 61.14Z" fill="#FFFFFF"/><path d="M176.21 116.91C173.24 116.65 170.85 115.3 168.88 113.07 163.03 106.46 157.08 99.93 151.32 93.24 147.03 88.25 147.22 82.75 151.53 79.09 155.71 75.55 160.58 76.16 165.16 80.99 168.59 84.62 172.14 88.2 175.11 92.19 178.53 96.81 182.61 98.76 188.35 98.02 190.87 97.7 194.92 96.6 195.81 98.7 196.99 101.47 192.94 102.95 191.11 104.88 187.79 108.37 184.12 111.55 180.58 114.83 179.35 115.99 178.06 117.05 176.21 116.91Z" fill="#FFFFFF"/><path d="M61.14 61.75C70.27 61.84 77.7 69.34 77.57 78.36 77.44 87.32 69.76 95.02 60.94 95.04 51.93 95.06 44.1 87.02 44.26 77.91 44.41 68.85 51.92 61.66 61.14 61.75Z" fill="#FFFFFF"/><path d="M204.16 75.28C204.1 66.12 211.43 58.75 220.58 58.74 230.04 58.73 237.54 66.18 237.45 75.49 237.37 84.23 229.49 91.94 220.61 91.98 211.63 92.01 204.21 84.48 204.16 75.28Z" fill="#FFFFFF"/></g></svg>