<svg width="223.92" height="224.99" viewBox="0 0 223.92 224.99" xmlns="http://www.w3.org/2000/svg" xmlns:xlink="http://www.w3.org/1999/xlink" xml:space="preserve" overflow="visible"><defs></defs><g><path d="M96.54 132.92C86.72 132.92 76.9 132.79 67.08 132.98 63.19 133.05 61.93 131.48 61.6 127.75 60.24 112.13 60.22 96.53 61.59 80.91 61.94 76.87 63.54 75.42 67.49 75.43 92.12 75.52 116.76 75.53 141.39 75.42 145.21 75.4 146.8 77.02 147.1 80.64 148.07 92.42 148.56 104.21 148.06 116.04 147.9 119.82 146.84 122.69 142.78 124.05 140.47 124.82 138.08 126.15 136.41 127.88 131.79 132.7 126.18 133.23 120 132.99 112.19 132.69 104.36 132.92 96.54 132.92Z" fill="#FFFFFF"/><path d="M104.4 68.86C92.74 68.86 81.09 68.89 69.43 68.85 63.51 68.83 63.25 68.39 64.34 62.39 67.02 47.56 71.24 33.26 78.55 19.98 80.97 15.58 83.88 11.55 87.19 7.78 96.52-2.86 113-2.55 122.19 8.5 132.82 21.29 138.19 36.38 142.19 52.13 143.17 56 143.66 59.98 144.67 63.84 145.7 67.8 144.03 68.9 140.38 68.88 128.37 68.8 116.39 68.85 104.4 68.86Z" fill="#FFFFFF"/><path d="M94.44 139.64C102.6 139.63 110.76 139.68 118.92 139.61 122.68 139.58 124.55 140.05 122.5 144.67 115.83 159.72 117.43 174.17 126.75 187.74 127.81 189.28 128.71 190.59 127.73 192.71 123.2 202.45 112.6 209.15 102.18 208.76 96.24 208.54 91.79 205.43 87.88 201.44 80.64 194.04 76.04 185.02 72.35 175.47 68.56 165.65 66.07 155.49 63.98 145.19 63.18 141.27 64.4 139.57 68.45 139.62 77.12 139.71 85.78 139.65 94.44 139.64Z" fill="#FFFFFF"/><path d="M29.47 132.92C22.47 132.92 15.48 132.79 8.49 132.98 5.2 133.07 3.68 131.68 2.94 128.63-1 112.48-0.91 96.34 2.85 80.18 3.6 76.96 5.16 75.41 8.67 75.44 22.49 75.57 36.32 75.55 50.14 75.46 54.11 75.43 55.2 76.89 54.81 80.92 53.31 96.35 53.28 111.83 54.76 127.26 55.16 131.41 54.33 133.13 49.95 132.99 43.13 132.76 36.3 132.92 29.47 132.92Z" fill="#FFFFFF"/><path d="M125.4 162.19C125.65 147.47 134.6 134.35 148.1 129.19 162.76 123.6 178.05 127.39 188.5 139.22 198.15 150.15 199.84 165.88 192.94 179.39 191.77 181.67 188.89 183.85 192.01 186.86 193.8 188.59 195.29 189.68 197.33 187.29 200.67 183.39 203.77 184.26 206.98 187.65 210.98 191.89 215.28 195.85 219.29 200.08 225.34 206.46 225.44 214.87 219.7 220.68 213.93 226.51 205.01 226.42 198.71 220.33 194.4 216.16 190.25 211.82 185.96 207.63 183.08 204.82 182.56 202.07 185.57 199.01 186.87 197.69 189 196.59 186.68 194.18 184.6 192.03 183.07 191.18 179.96 193 158.08 205.77 131.92 194.54 126.27 170.08 125.67 167.53 125.68 164.83 125.4 162.19ZM187.82 162.61C187.84 147.56 176.34 135.9 161.45 135.87 146.55 135.84 134.22 148.07 134.35 162.73 134.48 177.27 146.67 189.27 161.32 189.28 176.18 189.29 187.8 177.6 187.82 162.61Z" fill="#FFFFFF"/><path d="M179.59 75.48C186.25 75.48 192.9 75.59 199.56 75.43 203.14 75.34 205.05 76.68 205.83 80.27 210.23 100.41 209.39 120.23 202.42 139.7 201.99 140.89 201.8 142.56 200.27 142.73 198.94 142.87 198.54 141.33 197.94 140.4 188.89 126.37 176.02 119.48 159.34 119.92 155.9 120.01 154.62 118.79 154.67 115.31 154.82 103.68 155.39 92.02 153.79 80.43 153.26 76.6 155.12 75.41 158.64 75.46 165.61 75.55 172.6 75.48 179.59 75.48Z" fill="#FFFFFF"/><path d="M81.06 204.95C79.42 206.12 78.16 205.23 76.97 204.88 44.95 195.57 22.12 175.68 8.54 145.23 6.32 140.25 6.74 139.68 12.46 139.65 24.79 139.6 37.13 139.9 49.45 139.51 54.91 139.34 56.58 141.55 57.29 146.52 59.62 162.84 65.07 178.18 73.01 192.61 75.36 196.89 78.35 200.84 81.06 204.95Z" fill="#FFFFFF"/><path d="M127.73 2.93C138.59 5.1 148.16 9.14 157.19 14.52 176.68 26.12 191.02 42.33 200.13 63.11 202.37 68.23 201.93 68.84 196.44 68.85 183.45 68.88 170.46 68.76 157.47 68.92 153.71 68.96 152.25 67.52 151.65 63.85 148.14 42.41 141.63 22.13 127.93 4.76 127.77 4.54 127.85 4.13 127.73 2.93Z" fill="#FFFFFF"/><path d="M81.6 3.2C67.48 21.89 60.3 42.4 56.85 64.38 56.36 67.51 54.95 68.94 51.59 68.9 38.28 68.77 24.96 68.89 11.64 68.83 6.85 68.81 6.41 67.96 8.66 62.94 21.1 35.24 41.62 16.2 70.17 5.88 73.55 4.66 76.93 3.16 81.6 3.2Z" fill="#FFFFFF"/></g></svg>